<svg width="64" height="36" viewBox="0 0 64 36" fill="none" xmlns="http://www.w3.org/2000/svg">
<g clip-path="url(#clip0)">
<path d="M27.2682 27.7099V21.8398L24.5543 24.7308L27.2682 27.7099Z" fill="#9DA1A3"/>
<path d="M15.8943 22.5762V23.8975L19.7747 23.8895V25.4031H15.8943V26.8526H20.2446L22.2699 24.7064L20.3256 22.5762H15.8943Z" fill="#9DA1A3"/>
<path d="M32.3799 11.4522C32.6067 11.3241 32.7444 11.0678 32.7444 10.7555C32.7444 10.4432 32.5986 10.219 32.3799 10.0988C32.1693 9.97871 31.8533 9.9707 31.5374 9.9707H29.3501V11.6044H31.5131C31.8533 11.6044 32.1369 11.5884 32.3799 11.4522Z" fill="#9DA1A3"/>
<path d="M3.25677 12.6045H5.67899L4.46383 9.68945L3.25677 12.6045Z" fill="#9DA1A3"/>
<path d="M31.3512 22.5762H29.0424V24.4181H31.335C32.0073 24.4181 32.4286 24.0977 32.4286 23.4651C32.4205 22.8324 31.983 22.5762 31.3512 22.5762Z" fill="#9DA1A3"/>
<path d="M3.71028 15.5769H5.23327L5.92186 17.2185H11.8761V15.9693L12.4108 17.2185H15.4892L16.0239 15.9532V17.2185H30.8164V14.5438H31.108C31.3186 14.5438 31.3753 14.5678 31.3753 14.8962V17.2185H39.0227V16.5859C39.6303 16.9142 40.5862 17.2185 41.8662 17.2185H45.0823L45.779 15.5769H47.302L47.9906 17.2185H54.1717V15.6649L55.1195 17.2185H60.0854V7H55.1762V8.20124L54.4714 7H49.4245V8.20124L48.8088 7H41.9877C40.8374 7 39.8247 7.15216 39.0227 7.5846V7H34.3241V7.5846C33.7733 7.14415 33.0847 7 32.307 7H15.1084L13.9419 9.63472L12.7753 7H7.36385V8.20124L6.74817 7H2.13057L0 11.845V17.2185H3.02169L3.71028 15.5769ZM39.3549 9.29837C39.9219 8.71377 40.8293 8.44149 42.0525 8.44149H43.7456V10.0111H42.0849C41.4287 10.0111 41.0642 10.1072 40.7159 10.4516C40.408 10.7559 40.1974 11.3405 40.1974 12.1093C40.1974 12.8941 40.3513 13.4467 40.6996 13.8311C40.9589 14.1193 41.453 14.2074 41.931 14.2074H42.7249L45.22 8.44149H47.861L50.8665 15.3766V8.44149H53.5722L56.683 13.5428V8.44149H58.5057V15.7771H55.9782L52.6325 10.2834V15.7771H49.0275L48.347 14.1354H44.6611L43.9806 15.7771H41.9229C41.0561 15.7771 39.9625 15.5769 39.3468 14.9602C38.723 14.3356 38.4071 13.4947 38.4071 12.1653C38.4071 11.0762 38.6015 10.0832 39.3549 9.29837ZM35.7256 8.44149H37.5402V15.7771H35.7256V8.44149ZM27.5841 8.44149H31.667C32.5662 8.44149 33.2305 8.47352 33.7976 8.79385C34.3646 9.12219 34.713 9.60269 34.713 10.4195C34.713 11.5807 33.9191 12.1813 33.4492 12.3655C33.8381 12.5097 34.1702 12.774 34.3241 12.9902C34.5753 13.3425 34.6158 13.6789 34.6158 14.3196V15.7771H32.8335V14.8481C32.8335 14.4157 32.874 13.775 32.5419 13.4306C32.2908 13.1664 31.9019 13.1103 31.2538 13.1103H29.3501V15.7771H27.576V8.44149H27.5841ZM20.4389 8.44149H26.3527V9.97107H22.205V11.2924H26.2474V12.798H22.205V14.2475L26.3527 14.2395V15.7691H20.4389V8.44149ZM1.94425 15.7771H0.0162021L3.18371 8.44149H5.82465L8.83014 15.3766V8.44149H11.7303L14.0391 13.4146L16.1697 8.44149H19.1185V15.7771H17.3038V10.0351L14.7358 15.7771H13.1804L10.6043 10.0271V15.7771H6.9912L6.31071 14.1354H2.62474L1.94425 15.7771Z" fill="#9DA1A3"/>
<path d="M46.5 9.68945L45.2929 12.6045H47.707L46.5 9.68945Z" fill="#9DA1A3"/>
<path d="M59.081 22.7434C58.8947 22.8635 58.8137 23.0397 58.8137 23.2719C58.8137 23.5442 58.9757 23.7364 59.2025 23.8165C59.3807 23.8805 59.5833 23.8966 59.883 23.8966L60.8308 23.9206C61.811 23.9446 62.4591 24.1048 62.8561 24.5132C62.9128 24.5693 62.9614 24.6253 63.0019 24.6814V22.6152H59.7858C59.4698 22.6152 59.2511 22.6313 59.081 22.7434Z" fill="#9DA1A3"/>
<path d="M60.6121 28.3735H57.1935V26.8039H60.5959C60.9281 26.8039 61.163 26.7559 61.3088 26.6277C61.4303 26.5156 61.5194 26.3555 61.5194 26.1472C61.5194 25.931 61.4303 25.7628 61.3007 25.6587C61.1711 25.5466 60.9848 25.4986 60.685 25.4986C59.0324 25.4505 56.9504 25.5546 56.9504 23.2242C56.9504 22.1751 57.6228 21.046 59.4861 21.046H63.01V19.6045H59.7291C58.7489 19.6045 58.0117 19.8287 57.5094 20.1891V19.6045H52.6731C51.9035 19.6045 50.98 19.7887 50.5506 20.1891V19.6045H41.8906V20.1891C41.202 19.7086 40.0436 19.6045 39.4927 19.6045H33.7815V20.1891C33.2387 19.6686 32.0397 19.6045 31.3025 19.6045H24.9027L23.4364 21.1741L22.0754 19.6045H12.5324V29.823H21.9053L23.404 28.2294L24.8298 29.815L30.5977 29.823V27.4126H31.1729C31.9344 27.4126 32.8417 27.3965 33.6275 27.0602V29.823H38.4072V27.1483H38.6421C38.9337 27.1483 38.958 27.1723 38.958 27.4446V29.823H53.4184C54.3257 29.823 55.3059 29.5908 55.8406 29.1744V29.823H60.4258C61.3736 29.823 62.3133 29.6869 63.0262 29.3506V27.4526C62.5645 28.0772 61.7544 28.3735 60.6121 28.3735ZM31.2377 25.923H29.0342V28.3735H25.5832L23.4121 25.9631L21.1438 28.3816H14.1202V21.046H21.2491L23.4202 23.4565L25.6804 21.046H31.3511C32.7445 21.046 34.3242 21.4464 34.3242 23.4725C34.3161 25.4986 32.785 25.923 31.2377 25.923ZM41.8987 25.5947C42.1498 25.947 42.1903 26.2834 42.1984 26.924V28.3735H40.4162V27.4446C40.4162 27.0121 40.4567 26.3715 40.1246 26.0271C39.8653 25.7628 39.4846 25.7068 38.8365 25.7068H36.9328V28.3735H35.1586V21.038H39.2416C40.1408 21.038 40.797 21.07 41.3721 21.3983C41.9392 21.7267 42.2875 22.2072 42.2875 23.024C42.2875 24.1852 41.4936 24.7858 41.0319 24.97C41.4207 25.1142 41.7529 25.3785 41.8987 25.5947ZM49.1815 22.5756H45.0419V23.8969H49.0924V25.4105H45.0419V26.86H49.1896V28.3816H43.2759V21.046H49.1896V22.5756H49.1815ZM53.6857 28.3735H50.2347V26.8039H53.6695C54.0017 26.8039 54.2366 26.7559 54.3824 26.6277C54.5039 26.5156 54.593 26.3555 54.593 26.1472C54.593 25.931 54.5039 25.7628 54.3743 25.6587C54.2447 25.5466 54.0584 25.4986 53.7586 25.4986C52.106 25.4505 50.024 25.5546 50.024 23.2242C50.024 22.1671 50.6964 21.046 52.5597 21.046H56.1079V22.6156H52.8594C52.5354 22.6156 52.3247 22.6236 52.1465 22.7357C51.9602 22.8558 51.8873 23.032 51.8873 23.2643C51.8873 23.5366 52.0493 23.7287 52.2761 23.8088C52.4625 23.8729 52.6569 23.8889 52.9566 23.8889L53.9044 23.9129C54.8847 23.937 55.5328 24.0971 55.9297 24.5056C56.2781 24.8739 56.4644 25.2984 56.4644 26.0592C56.4725 27.6288 55.4842 28.3735 53.6857 28.3735Z" fill="#9DA1A3"/>
<path d="M39.9626 22.6963C39.752 22.5842 39.4279 22.5762 39.1201 22.5762H36.9328V24.2099H39.0958C39.436 24.2099 39.7277 24.2019 39.9626 24.0657C40.1894 23.9376 40.3271 23.6813 40.3271 23.369C40.319 23.0487 40.1813 22.8244 39.9626 22.6963Z" fill="#9DA1A3"/>
<path d="M63.3988 26.0671C63.3988 25.4184 63.2692 25.01 63.0099 24.6816V27.4525C63.2611 27.1001 63.3988 26.6357 63.3988 26.0671Z" fill="#9DA1A3"/>
<path d="M63.0179 21.0469H63.0099V22.6235H63.0179V21.0469Z" fill="#9DA1A3"/>
</g>
<defs>
<clipPath id="clip0">
<rect width="64" height="36" fill="white"/>
</clipPath>
</defs>
</svg>
