<svg width="64" height="36" viewBox="0 0 64 36" fill="none" xmlns="http://www.w3.org/2000/svg">
<path d="M30.852 28.12L30.969 28.217L31.168 28.371C29.108 29.717 26.636 30.5 23.979 30.5C16.81 30.502 11 24.793 11 17.751C11 10.71 16.81 5 23.979 5C26.636 5 29.109 5.784 31.163 7.129L31.04 7.23C30.978 7.282 30.92 7.333 30.873 7.387C27.8 9.995 26.042 13.776 26.042 17.751C26.041 21.724 27.793 25.505 30.852 28.12ZM40.021 5C37.361 5 34.891 5.784 32.837 7.129C32.942 7.217 33.045 7.297 33.124 7.387C36.197 9.995 37.958 13.776 37.958 17.751C37.958 21.723 36.206 25.5 33.147 28.12L32.831 28.371C34.891 29.717 37.36 30.5 40.018 30.5C47.19 30.502 53 24.793 53 17.751C53 10.712 47.19 5 40.021 5ZM31.511 8.131C31.669 7.992 31.833 7.863 32 7.734C32.167 7.863 32.334 7.994 32.489 8.131C35.228 10.468 36.954 13.908 36.954 17.751C36.954 21.595 35.225 25.034 32.489 27.371C32.331 27.508 32.167 27.643 32 27.77C31.833 27.643 31.669 27.509 31.511 27.371C28.775 25.034 27.046 21.596 27.046 17.751C27.046 13.908 28.774 10.468 31.511 8.131Z" fill="#9DA1A3"/>
</svg>
