<svg width="64" height="36" viewBox="0 0 64 36" fill="none" xmlns="http://www.w3.org/2000/svg">
<path d="M20.4248 11.0691C20.7207 11.0027 20.9346 11 20.9346 11H25.2061V24.5H20.9346V16.4885H20.5771L18.0869 24.5H15.1191L12.6289 16.4826H12.2715V24.5H8V11H12.2715C12.2715 11 14.1465 10.994 14.6445 12.7686C15.1074 14.425 16.4258 19.0174 16.4258 19.0174H16.7803L17.4248 16.7657L18.5615 12.7745C18.7373 12.1522 19.0801 11.7489 19.4521 11.4873C19.7861 11.2524 20.1436 11.1316 20.4248 11.0691Z" fill="#9DA1A3"/>
<path d="M34.7012 12.4149C34.9648 11.8272 35.3662 11.4819 35.7266 11.2797C36.1631 11.0338 36.5381 11 36.5381 11H40.5723V24.5H36.3008V16.4826H35.9463L32.9785 23.0853C32.6885 23.7274 32.2197 24.0805 31.8213 24.2733C31.4141 24.47 31.0801 24.5 31.0801 24.5H27.0459V11H31.3174V19.0174H31.6748L34.7012 12.4149Z" fill="#9DA1A3"/>
<path d="M42.4707 17.1309V24.4999H46.7422V20.1964H51.3711C53.3867 20.1964 55.0977 18.9172 55.7305 17.1309H42.4707Z" fill="#9DA1A3"/>
<path d="M41.873 11H51.3711C53.9287 11 56 13.0575 56 15.5982C56 15.9226 55.9707 16.235 55.9062 16.5415H48.585C47.9668 16.5415 47.3662 16.4591 46.7979 16.3057C44.2871 15.6336 42.3477 13.5703 41.873 11Z" fill="#9DA1A3"/>
</svg>
