<svg width="64" height="36" viewBox="0 0 64 36" fill="none" xmlns="http://www.w3.org/2000/svg">
<path fill-rule="evenodd" clip-rule="evenodd" d="M40.2391 6.00328L49.2024 6.00544C50.4434 6.00432 51.2244 7.04536 50.9424 8.3264L46.7034 27.6877C46.4287 28.9308 45.2602 29.9381 44.0549 30H34.6391C33.417 29.9804 32.657 28.9492 32.9359 27.679L33.2654 26.173H32.5264L32.1969 27.679C31.918 28.9482 32.677 29.9804 33.9001 30H24.392C23.1709 29.9804 22.4098 28.9492 22.6898 27.679L23.674 23.1848H22.8109L21.8267 27.679C21.5467 28.9482 22.3078 29.9804 23.5299 30H14.7516C13.7684 29.9858 13.0842 29.311 13 28.3874V28.0289C13.0084 27.9158 13.0232 27.7996 13.0495 27.6822L17.2895 8.32104C17.5737 7.03768 19.1653 6 20.4074 6L29.1351 6.00216C27.9004 6.02824 26.3457 7.05512 26.0667 8.32104L25.2709 11.9579H26.1319L26.9288 8.32104C27.2077 7.054 28.7615 6.02824 29.9962 6.00216L29.9992 6.002C30.0149 6.00096 30.0297 6 30.0446 6L35.9149 6.00328H39.498C39.4942 6.00328 39.4904 6.00352 39.4867 6.00384C39.4833 6.00408 39.4801 6.00432 39.477 6.00432C38.2455 6.04344 36.7118 7.06272 36.4317 8.31992L35.6348 11.9568H36.3739L37.1707 8.31992C37.4496 7.06272 38.9833 6.04344 40.2149 6.00432C40.2178 6.00432 40.2206 6.00416 40.2237 6.00392C40.2276 6.0036 40.2318 6.00328 40.237 6.00328H40.2391ZM21.83 12.411C21.9174 12.4314 22.1911 12.4406 23.1179 12.4314C23.1126 12.4396 23.1106 12.4485 23.1072 12.4639C23.1067 12.4659 23.1062 12.468 23.1058 12.4702C22.9909 12.8202 22.3148 15.5096 22.3148 15.5096L22.2392 15.7993L22.2387 15.8012C22.0758 16.3654 21.8927 16.9999 21.195 17.406C20.7925 17.6486 20.197 17.7814 19.5622 17.7814C19.0695 17.7814 18.1986 17.7026 17.8932 17.1771C17.7979 17.0114 17.75 16.8154 17.75 16.5752L17.8614 15.7655L17.919 15.518L18.5891 12.5994C18.5891 12.5994 18.6208 12.4389 18.6293 12.411C18.6449 12.4314 18.8714 12.4424 20.149 12.4314C20.1474 12.4406 20.1456 12.4508 20.1395 12.4702C20.022 12.8126 19.3656 15.402 19.3656 15.402C19.3656 15.4063 19.2404 16.1764 19.2404 16.1764L19.2481 16.3073C19.2883 16.6886 19.5277 16.8895 19.9387 16.8895C20.1944 16.8895 20.415 16.8154 20.6038 16.6615C20.9367 16.3969 21.0346 15.9871 21.1693 15.4122C21.171 15.4098 21.7963 12.5683 21.83 12.411ZM24.6899 14.769C24.9574 14.6398 25.2553 14.6009 25.4183 14.6009C25.668 14.6009 25.94 14.6693 26.0533 14.9525C26.1605 15.2052 26.0893 15.5155 25.9476 16.1274L25.8747 16.44C25.7298 17.1205 25.7059 17.2455 25.6241 17.7129L25.571 17.7534C25.1189 17.7458 24.9574 17.7458 24.428 17.7737L24.4083 17.7339C24.4302 17.638 24.453 17.543 24.476 17.4478C24.5007 17.3453 24.5255 17.2425 24.5491 17.1382L24.6143 16.8661C24.7121 16.4443 24.8074 15.9532 24.8186 15.8028C24.8189 15.8008 24.8191 15.7986 24.8193 15.7965C24.83 15.703 24.8546 15.4885 24.5989 15.4885C24.4891 15.4885 24.374 15.5408 24.2574 15.594C24.2074 15.7711 24.1169 16.2006 24.0506 16.5153C24.0327 16.6001 24.0166 16.6766 24.0034 16.7375C23.9075 17.1803 23.8775 17.337 23.8452 17.5061C23.8333 17.5683 23.821 17.6323 23.8051 17.7129L23.7673 17.7534C23.3005 17.7458 23.1376 17.7458 22.6005 17.7737L22.5763 17.7281C22.6658 17.3689 22.7549 17.0054 22.8408 16.6454C23.0664 15.6685 23.1204 15.2948 23.1813 14.7978L23.2252 14.769C23.2595 14.7642 23.292 14.7598 23.3232 14.7554C23.7678 14.6939 23.9134 14.6738 24.4436 14.568L24.4915 14.6204L24.4041 14.9313C24.4264 14.9183 24.4484 14.9053 24.4704 14.8923C24.5436 14.8491 24.6152 14.8068 24.6899 14.769ZM27.8949 15.2592C27.9247 15.2536 27.9557 15.2477 27.9881 15.2415L27.9985 15.2651L28.0061 15.2906C27.9833 15.3846 27.9599 15.4786 27.9364 15.5729C27.9072 15.6906 27.8777 15.8087 27.8491 15.9278C27.826 16.0283 27.802 16.1278 27.7781 16.2266C27.7508 16.3398 27.7238 16.4523 27.6982 16.565C27.6571 16.7475 27.6258 16.8837 27.6017 16.9892C27.5662 17.1436 27.5459 17.2323 27.5317 17.3046C27.517 17.3732 27.5091 17.4232 27.4963 17.5036C27.488 17.5559 27.4776 17.6212 27.462 17.7129L27.4364 17.7341L27.4124 17.7534C27.3241 17.7529 27.2459 17.7519 27.1747 17.751C27.0253 17.7492 26.9068 17.7477 26.7912 17.7518C26.635 17.7532 26.4826 17.7604 26.2635 17.7707C26.2429 17.7717 26.2217 17.7726 26.1999 17.7737L26.1862 17.7518L26.17 17.728C26.2308 17.5022 26.2674 17.4054 26.2986 17.323C26.3029 17.3113 26.3072 17.3 26.3115 17.2886C26.3466 17.1964 26.3785 17.1051 26.4402 16.8431C26.5199 16.5008 26.5689 16.2626 26.6008 16.053C26.6284 15.9037 26.6464 15.7708 26.6653 15.6314C26.6721 15.5816 26.679 15.5309 26.6864 15.4782L26.7062 15.4629L26.7277 15.4436C26.9997 15.4064 27.1721 15.3811 27.3489 15.3532C27.5068 15.3329 27.6655 15.3028 27.8949 15.2592ZM26.9877 14.4816C27.2897 14.2763 27.7385 14.2291 27.9941 14.3778C28.2463 14.5249 28.2087 14.8079 27.9082 15.0134C27.6088 15.2205 27.1583 15.2636 26.9071 15.119C26.6522 14.9685 26.6865 14.6829 26.9877 14.4816ZM30.9871 17.2631C30.5879 17.6798 30.0577 17.8202 29.5404 17.8202C29.3379 17.8202 29.0238 17.795 28.8059 17.7028C28.0996 17.4213 28.2121 16.6649 28.3099 16.2447C28.4067 15.8323 28.5674 15.4022 28.9148 15.0852C29.3988 14.6458 30.0182 14.6204 30.2782 14.6204C30.7107 14.6204 31.1277 14.7158 31.3636 15.0134C31.5189 15.2085 31.6425 15.529 31.4837 16.2153C31.4349 16.4223 31.2942 16.9251 30.9871 17.2631ZM30.1194 15.3202C29.7601 15.3202 29.6192 15.7563 29.5 16.2761C29.4589 16.4561 29.4253 16.6218 29.4271 16.7841C29.4306 17.1127 29.6553 17.1127 29.6931 17.1127C29.82 17.1127 29.9349 17.0307 30.032 16.8955C30.171 16.7122 30.2739 16.2819 30.2963 16.1662C30.4214 15.6447 30.401 15.3202 30.1194 15.3202ZM32.8173 17.713L32.7769 17.7534C32.311 17.7458 32.1504 17.7458 31.6124 17.7738L31.5885 17.7281C31.6777 17.369 31.7669 17.0054 31.8528 16.6454C32.0783 15.6683 32.13 15.2949 32.1935 14.7978L32.2337 14.7691C32.2725 14.7637 32.3093 14.7586 32.3442 14.7538C32.7788 14.6936 32.9288 14.6728 33.4539 14.5678L33.4976 14.6205L33.4161 14.9314C33.5097 14.8747 33.605 14.8182 33.7001 14.7691C33.9661 14.6397 34.2655 14.601 34.4287 14.601C34.6749 14.601 34.9486 14.6694 35.0653 14.9526C35.1708 15.2053 35.0986 15.5154 34.9564 16.1272L34.8852 16.4401C34.7358 17.1203 34.7143 17.2454 34.6346 17.713L34.5796 17.7534C34.125 17.7458 33.9696 17.7458 33.4385 17.7738L33.4187 17.7339C33.4438 17.6238 33.4708 17.5149 33.4978 17.4055C33.5197 17.317 33.5417 17.2282 33.5628 17.1381L33.6246 16.8659C33.7241 16.4442 33.8194 15.9533 33.8288 15.8026L33.8295 15.797C33.8404 15.704 33.8655 15.4883 33.6109 15.4883C33.4989 15.4883 33.3871 15.5394 33.2717 15.5922L33.2676 15.5941C33.2218 15.761 33.1375 16.1521 33.0713 16.46C33.0482 16.5668 33.0274 16.6636 33.011 16.7376C32.9124 17.2079 32.8847 17.3555 32.8505 17.538C32.8406 17.5906 32.8301 17.6461 32.8173 17.713ZM36.9128 16.6615C36.911 16.6615 36.7126 17.6131 36.6792 17.7737C36.5317 17.7577 36.1809 17.7577 35.3253 17.7678L36.2048 14.2004C36.2048 14.1978 36.5558 12.5954 36.5558 12.5954C36.5558 12.5954 36.5815 12.4703 36.5951 12.4C36.7566 12.4194 37.1496 12.423 38.1294 12.411L38.5068 12.4076C39.2723 12.411 39.9354 12.4194 40.2685 12.8784C40.3998 13.0508 40.4453 13.2715 40.4453 13.4946C40.4453 13.6645 40.4194 13.8343 40.3842 13.9771C40.2487 14.5595 39.9449 15.0388 39.5006 15.3634C38.8475 15.8366 38.0144 15.8366 37.2765 15.8366H37.1983C37.1451 15.8653 37.092 15.938 37.092 15.938C37.0816 15.9634 36.9128 16.6615 36.9128 16.6615ZM37.7011 13.3341C37.7029 13.328 37.3297 14.9271 37.3297 14.9271L37.3143 15.0074H37.5168C37.8298 15.0074 38.1336 14.9973 38.3816 14.8748C38.6828 14.7302 38.9171 14.431 38.9968 14.0751C39.0843 13.6857 38.9591 13.3873 38.6553 13.2715C38.6373 13.2698 37.8676 13.2046 37.8676 13.2046L37.7184 13.1895L37.7131 13.2521L37.7011 13.3341ZM40.1441 17.7458C39.4414 17.4762 39.5547 16.7198 39.6533 16.3057C39.7469 15.8948 39.9116 15.4664 40.2547 15.1538C40.743 14.7158 41.3111 14.5951 41.5529 14.6888C41.742 14.7604 41.8646 14.8753 41.9492 15.0098C41.9518 14.9895 41.9545 14.9691 41.9572 14.9486C41.9601 14.9274 41.9628 14.906 41.9657 14.8842L42.0069 14.851C42.5508 14.7751 42.7019 14.753 43.2674 14.6498L43.2836 14.6963C43.1797 15.1189 43.0787 15.5391 42.9774 15.9634C42.7776 16.815 42.7003 17.2634 42.6236 17.7082L42.6143 17.7618L42.5647 17.799C42.0171 17.795 41.8602 17.795 41.3548 17.8159L41.3229 17.7754L41.373 17.5863C41.188 17.7395 40.9884 17.846 40.7729 17.8574C40.5689 17.8676 40.3681 17.8397 40.1441 17.7458ZM41.4611 15.3887C41.1009 15.3887 40.9618 15.8206 40.8408 16.331C40.7988 16.5127 40.7652 16.6782 40.767 16.839C40.7747 17.1618 40.997 17.1618 41.033 17.1618C41.1599 17.1618 41.3805 17.0816 41.4732 16.9522C41.5226 16.8875 41.5676 16.7903 41.6063 16.6874C41.6159 16.6493 41.6256 16.6112 41.6352 16.5731C41.6639 16.4606 41.6925 16.348 41.7194 16.2347C41.7443 16.1298 41.7651 16.037 41.7845 15.9489C41.8089 15.5958 41.6889 15.3887 41.4611 15.3887ZM46.9982 14.5966L47.0419 14.6457C47.0419 14.6457 44.7895 18.4516 44.4934 19.0794L44.447 19.1318H44.4541L44.0139 19.8748C43.8748 20.1293 43.6165 20.3186 43.2055 20.3203L42.5054 20.3084L42.7095 19.6398H42.8468C42.9182 19.6398 42.9696 19.6364 43.0092 19.6171C43.0452 19.6052 43.0709 19.5774 43.0992 19.5366L43.347 19.1506L43.3445 19.1454C43.5495 18.8418 43.6644 18.6388 43.7968 18.4049C43.8918 18.237 43.9958 18.0533 44.1486 17.805C44.0938 17.2466 44.0639 17.0057 44.0242 16.6848C44.0166 16.6234 44.0086 16.5591 44 16.4891C43.9846 16.3618 43.9666 16.2334 43.9486 16.1045C43.9297 15.9697 43.9107 15.8345 43.8946 15.6996C43.8803 15.5859 43.8697 15.4997 43.8613 15.4311C43.8298 15.1757 43.8286 15.1661 43.7753 14.8975L43.7718 14.89C43.7731 14.8825 43.7739 14.8753 43.7747 14.8682C43.7761 14.8553 43.7774 14.843 43.7812 14.8315L43.8234 14.7943C44.217 14.7446 44.3318 14.7217 44.5904 14.6699C44.6875 14.6505 44.8047 14.627 44.9645 14.5966L45.0135 14.6457L45.0915 16.1298C45.0924 16.1459 45.0928 16.1588 45.0933 16.1714C45.0937 16.1846 45.0941 16.1975 45.095 16.2135C45.2369 15.9018 45.3118 15.771 45.3875 15.6388C45.4779 15.4806 45.5695 15.3206 45.778 14.847L45.7797 14.8554C45.7812 14.8505 45.7824 14.8454 45.7834 14.8406C45.7842 14.8373 45.785 14.8342 45.7857 14.8315L45.8234 14.7943C46.3375 14.726 46.4387 14.7082 46.9982 14.5966ZM39.3563 23.4263H39.6533L39.4233 24.1657H39.1298L39.0604 24.3939H38.0144L38.0855 24.1657H35.9628L36.1748 23.4811H36.3909L37.5048 19.8453L37.7268 19.1125H38.7927L38.681 19.4818C38.681 19.4818 38.9651 19.2806 39.2346 19.2122C39.4574 19.1538 40.5574 19.1266 40.9257 19.119V19.1168H42.0651L42.0764 19.5342C42.0687 19.6051 42.1304 19.6382 42.2635 19.6382H42.495L42.2833 20.3278H41.668C41.136 20.365 40.9334 20.1402 40.947 19.8866L40.9359 19.4764L40.8201 19.8453H40.4555L39.3563 23.4263ZM38.294 20.7605C38.294 20.7605 38.6117 20.6194 38.7823 20.573C38.9574 20.5273 39.219 20.5122 39.219 20.5122L39.4233 19.8453H38.5765L38.294 20.7605ZM38.3575 21.9522C38.5326 21.9133 38.7986 21.8804 38.7986 21.8804L39.0046 21.2136H38.1535L37.8617 22.166C37.8617 22.166 38.1851 22.0038 38.3575 21.9522ZM37.4747 23.4348H38.3242L38.5678 22.631H37.7209L37.4747 23.4348ZM41.5941 21.2136H40.3698L40.5782 20.5214H43.9856L43.7736 21.2136H42.6307L42.4521 21.7748H43.5985L43.408 22.3885H42.1699L41.9493 22.647H42.4521L42.5749 23.4203C42.5785 23.4404 42.5811 23.4587 42.5836 23.4754C42.5905 23.5226 42.5955 23.5566 42.6145 23.5809C42.6401 23.6079 42.791 23.6224 42.8786 23.6224H43.0314L42.7989 24.3745H42.4119C42.3595 24.3745 42.2837 24.3713 42.1815 24.367C42.1681 24.3663 42.1543 24.3658 42.1399 24.3652C42.0544 24.3578 41.9875 24.319 41.9263 24.2835C41.9052 24.2713 41.8848 24.2594 41.8645 24.2494C41.7931 24.2166 41.6877 24.1319 41.662 23.9874L41.541 23.2158L40.9773 23.9757C40.7987 24.2166 40.5569 24.4 40.1475 24.4H39.3597L39.5667 23.728H39.8678C39.9552 23.728 40.0308 23.6942 40.0883 23.6654C40.1456 23.6418 40.1973 23.6122 40.2548 23.5285L41.0768 22.3885H39.9913L40.1775 21.7748H41.4182L41.5941 21.2136ZM30.3143 22.6546L30.0285 23.591C29.9943 23.6943 30.3082 23.7077 30.4215 23.7077L31.0085 23.6283L30.7726 24.3998H29.4484C29.3412 24.3998 29.2624 24.3847 29.1473 24.3594C29.0357 24.3314 28.9861 24.2824 28.9371 24.2082C28.9295 24.1961 28.9212 24.1844 28.9128 24.1726C28.8684 24.1097 28.8217 24.0435 28.865 23.9054L29.2459 22.6666H28.5931L28.8101 21.9582H29.4649L29.6391 21.3818H28.9861L29.1945 20.7074H32.069L31.8561 21.3818H30.7073L30.5279 21.9582H31.7035L31.4889 22.6546H30.3143ZM29.8656 19.6381L30.1633 19.1082H31.3336L31.1278 19.4936H32.3067L32.093 20.1994H30.4824L30.3082 20.348C30.2638 20.3902 30.2367 20.3974 30.2019 20.4067C30.1776 20.4132 30.1495 20.4207 30.1092 20.4419C30.0183 20.4867 29.8279 20.5763 29.5798 20.5763H29.0641L29.2716 19.8984H29.427C29.5574 19.8984 29.6475 19.8867 29.693 19.8588C29.7446 19.8257 29.8019 19.7538 29.8656 19.6381ZM32.5752 23.3543C32.5332 23.4971 32.5135 23.5658 32.5409 23.6047C32.5632 23.6376 32.6165 23.6765 32.6903 23.6765L33.381 23.6122L33.1442 24.3998H32.3727C32.1265 24.3998 31.9481 24.394 31.8226 24.3847C31.7969 24.3825 31.7709 24.3812 31.745 24.38C31.6515 24.3755 31.5609 24.3712 31.495 24.3222C31.4866 24.3149 31.4779 24.3073 31.4688 24.2995C31.3997 24.2403 31.3142 24.167 31.3166 24.093C31.3243 24.0154 31.3576 23.8859 31.4075 23.7077L32.8129 19.1166H33.8167L33.67 19.6145C33.67 19.6145 33.9876 19.3643 34.2099 19.2748C34.4302 19.1945 34.9307 19.1218 34.9307 19.1218L36.5556 19.1125L36.0023 20.9286C35.9088 21.239 35.7998 21.4402 35.7319 21.5321C35.6711 21.6243 35.5991 21.7046 35.4582 21.7807C35.3218 21.8534 35.1967 21.8939 35.0815 21.9058C34.9744 21.9134 34.8096 21.9159 34.5814 21.9192H33.0154L32.5752 23.3543ZM34.9443 20.9498H33.2994L33.1982 21.2762H34.6225C34.7352 21.263 34.7879 21.2694 34.8148 21.2727C34.8279 21.2743 34.8349 21.2752 34.8397 21.2727L34.9443 20.9498ZM35.2875 19.8672H33.6289L33.3886 20.655C33.3886 20.655 33.7105 20.365 34.2613 20.2711C34.3865 20.2484 35.1683 20.256 35.1683 20.256L35.2875 19.8672ZM34.8113 22.4534C34.8414 22.4314 34.8629 22.402 34.8765 22.3538L34.9743 22.0461H35.7406L35.647 22.4822C35.6075 22.6192 35.5733 22.7205 35.4685 22.8086C35.3586 22.9005 35.2299 22.997 34.9288 22.997L34.3711 23.0197L34.3669 23.5123C34.362 23.6234 34.3852 23.637 34.4062 23.6491C34.4114 23.6522 34.4165 23.6551 34.4209 23.6595C34.4459 23.6842 34.4685 23.6936 34.4919 23.7034L34.4939 23.7042L34.6707 23.6941L35.2024 23.6654L34.982 24.3847H34.3711C33.9438 24.3847 33.6265 24.3746 33.5234 24.2943C33.4204 24.2301 33.4068 24.1498 33.4083 24.0111L33.4479 22.0891H34.4227L34.4089 22.4822H34.6432C34.7239 22.4822 34.7779 22.4746 34.8113 22.4534Z" fill="#9DA1A3"/>
</svg>
