<svg width="64" height="36" viewBox="0 0 64 36" fill="none" xmlns="http://www.w3.org/2000/svg">
<path d="M13.846 10H7.30098L7.25098 10.3C8.92998 10.694 10.415 11.255 11.71 11.977L15.281 25.1L19.503 25.094L25.784 10.118H21.56L17.655 20.351L17.236 18.272C17.16 18.025 17.072 17.775 16.966 17.525L17.104 17.848L15.683 11.217C15.437 10.303 14.725 10.033 13.846 10Z" fill="#9DA1A3"/>
<path d="M43.38 10.7292C42.589 10.4342 41.35 10.1182 39.806 10.1182C35.866 10.1182 33.091 12.0862 33.065 14.9092C33.044 16.9942 35.048 18.1592 36.56 18.8532C38.113 19.5642 38.634 20.0172 38.628 20.6532C38.616 21.6262 37.389 22.0692 36.24 22.0692C34.646 22.0692 33.799 21.8492 32.487 21.3082L31.974 21.0782L31.415 24.3282C32.344 24.7332 34.069 25.0842 35.856 25.1012C40.048 25.1012 42.767 23.1572 42.799 20.1422C42.814 18.4922 41.753 17.2362 39.453 16.1992C38.059 15.5282 37.203 15.0802 37.212 14.4002C37.212 13.7982 37.936 13.1522 39.497 13.1522C40.142 13.1422 40.698 13.2062 41.185 13.3092C41.683 13.4142 42.108 13.5592 42.48 13.7082L42.837 13.8762L43.38 10.7292Z" fill="#9DA1A3"/>
<path fill-rule="evenodd" clip-rule="evenodd" d="M53.576 10.1182H50.5499C50.3769 10.1182 50.2129 10.1272 50.0579 10.1482C49.3609 10.2412 48.8329 10.5652 48.4959 11.3622L42.674 25.1002H46.79C46.79 25.1002 47.461 23.2532 47.616 22.8472L52.6349 22.8542C52.7519 23.3782 53.1129 25.1002 53.1129 25.1002H56.749L53.576 10.1182ZM48.7449 19.7822H51.997L51.089 15.4522L50.825 14.1592C50.72 14.4632 50.57 14.8682 50.459 15.1702C50.3619 15.4272 50.2949 15.6082 50.3069 15.5902L48.7449 19.7822Z" fill="#9DA1A3"/>
<path d="M31.416 10.1182H27.517L25.082 25.1002H28.976L31.416 10.1182Z" fill="#9DA1A3"/>
</svg>
