<svg width="24" height="20" viewBox="0 0 24 20" fill="none" xmlns="http://www.w3.org/2000/svg">
<mask id="mask0" maskUnits="userSpaceOnUse" x="0" y="0" width="24" height="20">
<rect width="24" height="20" rx="4" fill="#C4C4C4"/>
</mask>
<g mask="url(#mask0)">
<rect x="-1.75" y="0.25" width="27.5" height="19.5" rx="1.75" fill="white" stroke="#F5F5F5" stroke-width="0.5"/>
<mask id="mask1" maskUnits="userSpaceOnUse" x="-2" y="0" width="28" height="20">
<rect x="-1.75" y="0.25" width="27.5" height="19.5" rx="1.75" fill="white" stroke="white" stroke-width="0.5"/>
</mask>
<g mask="url(#mask1)">
<path fill-rule="evenodd" clip-rule="evenodd" d="M-2 13.3333H26V6.66667H-2V13.3333Z" fill="#0C47B7"/>
<path fill-rule="evenodd" clip-rule="evenodd" d="M-2 20H26V13.3333H-2V20Z" fill="#E53B35"/>
</g>
<path d="M24.5517 18.5172H-0.551704C-0.799262 18.5172 -1 18.3165 -1 18.0689V1.93104C-1 1.68348 -0.799262 1.48274 -0.551704 1.48274H24.5517C24.7993 1.48274 25 1.68348 25 1.93104V18.0689C24.9999 18.3165 24.7992 18.5172 24.5517 18.5172Z" fill="#F5F5F5"/>
<path d="M25 2.79315H-1V1.93104C-1 1.68348 -0.799262 1.48274 -0.551704 1.48274H24.5517C24.7993 1.48274 25 1.68348 25 1.93104L25 2.79315Z" fill="#FF4B55"/>
<path d="M24.9999 6.72411H-1V8.03446H24.9999V6.72411Z" fill="#FF4B55"/>
<path d="M24.9999 4.10329H-1V5.41364H24.9999V4.10329Z" fill="#FF4B55"/>
<path d="M24.9999 10.6552H-0.551704C-0.799262 10.6552 -1 10.4545 -1 10.2069V9.3448H24.9999V10.6552Z" fill="#FF4B55"/>
<path d="M24.9999 14.5866H-1V15.897H24.9999V14.5866Z" fill="#FF4B55"/>
<path d="M24.5517 18.5173H-0.551704C-0.799262 18.5173 -1 18.3165 -1 18.069V17.2069H24.9999V18.069C24.9999 18.3166 24.7992 18.5173 24.5517 18.5173Z" fill="#FF4B55"/>
<path d="M24.9999 11.9657H-1V13.2761H24.9999V11.9657Z" fill="#FF4B55"/>
<path d="M10.6551 1.48277H-0.551704C-0.799262 1.48277 -1 1.68346 -1 1.93102V10.2068C-1 10.4544 -0.799262 10.6551 -0.551704 10.6551H10.6552C10.9027 10.6551 11.1035 10.4544 11.1035 10.2068V1.93102C11.1034 1.68346 10.9027 1.48277 10.6551 1.48277Z" fill="#41479B"/>
<path d="M0.258802 2.51178L0.358029 2.80936L0.671703 2.81174C0.712328 2.8121 0.729137 2.8639 0.696484 2.88802L0.444153 3.07438L0.538809 3.37343C0.551098 3.41213 0.506969 3.44422 0.473911 3.42056L0.218736 3.2382L-0.0364387 3.42061C-0.0694972 3.44422 -0.113524 3.41218 -0.101337 3.37348L-0.00668097 3.07443L-0.259012 2.88807C-0.291664 2.8639 -0.274856 2.81215 -0.234231 2.81179L0.0794437 2.80941L0.17867 2.51183C0.191467 2.47324 0.245904 2.47324 0.258802 2.51178Z" fill="#F5F5F5"/>
<path d="M0.258802 4.06832L0.358029 4.3659L0.671703 4.36829C0.712328 4.36864 0.729137 4.42044 0.696484 4.44456L0.444153 4.63093L0.538809 4.92998C0.551098 4.96867 0.506969 5.00076 0.473911 4.9771L0.218736 4.79474L-0.0364387 4.97715C-0.0694972 5.00076 -0.113524 4.96872 -0.101337 4.93003L-0.00668097 4.63098L-0.259012 4.44461C-0.291664 4.42044 -0.274856 4.36869 -0.234231 4.36834L0.0794437 4.36595L0.17867 4.06837C0.191467 4.02983 0.245904 4.02983 0.258802 4.06832Z" fill="#F5F5F5"/>
<path d="M0.258802 5.62492L0.358029 5.9225L0.671703 5.92488C0.712328 5.92524 0.729137 5.97704 0.696484 6.00116L0.444153 6.18753L0.538809 6.48658C0.551098 6.52527 0.506969 6.55737 0.473911 6.5337L0.218736 6.35135L-0.0364387 6.53375C-0.0694972 6.55737 -0.113524 6.52533 -0.101337 6.48663L-0.00668097 6.18758L-0.259012 6.00121C-0.291664 5.97704 -0.274856 5.92529 -0.234231 5.92493L0.0794437 5.92255L0.17867 5.62497C0.191467 5.58642 0.245904 5.58642 0.258802 5.62492Z" fill="#F5F5F5"/>
<path d="M0.258802 7.18164L0.358029 7.47922L0.671703 7.48161C0.712328 7.48196 0.729137 7.53376 0.696484 7.55788L0.444153 7.74425L0.538809 8.0433C0.551098 8.08199 0.506969 8.11409 0.473911 8.09042L0.218736 7.90807L-0.0364387 8.09047C-0.0694972 8.11409 -0.113524 8.08204 -0.101337 8.04335L-0.00668097 7.7443L-0.259012 7.55793C-0.291664 7.53376 -0.274856 7.48201 -0.234231 7.48166L0.0794437 7.47927L0.17867 7.18169C0.191467 7.1431 0.245904 7.1431 0.258802 7.18164Z" fill="#F5F5F5"/>
<path d="M0.258802 8.73824L0.358029 9.03582L0.671703 9.03821C0.712328 9.03857 0.729137 9.09036 0.696484 9.11449L0.444153 9.30085L0.538809 9.59991C0.551098 9.6386 0.506969 9.6707 0.473911 9.64703L0.218736 9.46468L-0.0364387 9.64708C-0.0694972 9.6707 -0.113524 9.63865 -0.101337 9.59996L-0.00668097 9.3009L-0.259012 9.11454C-0.291664 9.09036 -0.274856 9.03862 -0.234231 9.03826L0.0794437 9.03588L0.17867 8.73829C0.191467 8.69965 0.245904 8.69965 0.258802 8.73824Z" fill="#F5F5F5"/>
<path d="M1.46705 3.27487L1.56628 3.57245L1.87995 3.57484C1.92058 3.57519 1.93739 3.62699 1.90474 3.65111L1.6524 3.83748L1.74706 4.13653C1.75935 4.17522 1.71522 4.20731 1.68216 4.18365L1.42699 4.00124L1.17181 4.18365C1.13875 4.20726 1.09473 4.17522 1.10691 4.13653L1.20157 3.83748L0.94924 3.65111C0.916588 3.62694 0.933396 3.57519 0.974021 3.57484L1.2877 3.57245L1.38692 3.27487C1.39967 3.23638 1.45421 3.23638 1.46705 3.27487Z" fill="#F5F5F5"/>
<path d="M1.46705 4.8315L1.56628 5.12908L1.87995 5.13146C1.92058 5.13182 1.93739 5.18362 1.90474 5.20774L1.6524 5.3941L1.74706 5.69315C1.75935 5.73184 1.71522 5.76393 1.68216 5.74027L1.42699 5.55787L1.17181 5.74027C1.13875 5.76388 1.09473 5.73189 1.10691 5.69315L1.20157 5.3941L0.94924 5.20774C0.916588 5.18356 0.933396 5.13182 0.974021 5.13146L1.2877 5.12908L1.38692 4.8315C1.39967 4.79296 1.45421 4.79296 1.46705 4.8315Z" fill="#F5F5F5"/>
<path d="M1.46705 6.38818L1.56628 6.68575L1.87995 6.68814C1.92058 6.68849 1.93739 6.74029 1.90474 6.76441L1.6524 6.95078L1.74706 7.24983C1.75935 7.28852 1.71522 7.32062 1.68216 7.29695L1.42699 7.11455L1.17181 7.29695C1.13875 7.32057 1.09473 7.28852 1.10691 7.24983L1.20157 6.95078L0.94924 6.76441C0.916588 6.74024 0.933396 6.68849 0.974021 6.68814L1.2877 6.68575L1.38692 6.38818C1.39967 6.34963 1.45421 6.34963 1.46705 6.38818Z" fill="#F5F5F5"/>
<path d="M1.46705 7.94487L1.56628 8.24245L1.87995 8.24483C1.92058 8.24519 1.93739 8.29699 1.90474 8.32111L1.6524 8.50748L1.74706 8.80653C1.75935 8.84522 1.71522 8.87732 1.68216 8.85365L1.42699 8.67125L1.17181 8.85365C1.13875 8.87726 1.09473 8.84522 1.10691 8.80653L1.20157 8.50748L0.94924 8.32111C0.916588 8.29694 0.933396 8.24519 0.974021 8.24483L1.2877 8.24245L1.38692 7.94487C1.39967 7.90638 1.45421 7.90638 1.46705 7.94487Z" fill="#F5F5F5"/>
<path d="M2.67537 2.51165L2.7746 2.80922L3.08828 2.81161C3.1289 2.81197 3.14571 2.86376 3.11306 2.88788L2.86072 3.07425L2.95538 3.3733C2.96767 3.41199 2.92354 3.44409 2.89048 3.42042L2.6353 3.23802L2.38013 3.42042C2.34707 3.44404 2.30304 3.41199 2.31523 3.3733L2.40989 3.07425L2.15755 2.88788C2.1249 2.86371 2.14171 2.81197 2.18233 2.81161L2.49601 2.80922L2.59524 2.51165C2.60804 2.47311 2.66252 2.47311 2.67537 2.51165Z" fill="#F5F5F5"/>
<path d="M2.67537 4.06833L2.7746 4.36591L3.08828 4.36829C3.1289 4.36865 3.14571 4.42044 3.11306 4.44457L2.86072 4.63093L2.95538 4.92998C2.96767 4.96868 2.92354 5.00077 2.89048 4.97711L2.6353 4.7947L2.38013 4.97711C2.34707 5.00072 2.30304 4.96868 2.31523 4.92998L2.40989 4.63093L2.15755 4.44457C2.1249 4.42039 2.14171 4.36865 2.18233 4.36829L2.49601 4.36591L2.59524 4.06833C2.60804 4.02984 2.66252 4.02984 2.67537 4.06833Z" fill="#F5F5F5"/>
<path d="M2.67537 5.62492L2.7746 5.92251L3.08828 5.92489C3.1289 5.92525 3.14571 5.97705 3.11306 6.00117L2.86072 6.18754L2.95538 6.48659C2.96767 6.52529 2.92354 6.55738 2.89048 6.53372L2.6353 6.35131L2.38013 6.53372C2.34707 6.55733 2.30304 6.52529 2.31523 6.48659L2.40989 6.18754L2.15755 6.00117C2.1249 5.977 2.14171 5.92525 2.18233 5.92489L2.49601 5.92251L2.59524 5.62492C2.60804 5.58643 2.66252 5.58643 2.67537 5.62492Z" fill="#F5F5F5"/>
<path d="M2.67537 7.18163L2.7746 7.47921L3.08828 7.4816C3.1289 7.48195 3.14571 7.53375 3.11306 7.55787L2.86072 7.74424L2.95538 8.04329C2.96767 8.08198 2.92354 8.11408 2.89048 8.09041L2.6353 7.90801L2.38013 8.09041C2.34707 8.11402 2.30304 8.08198 2.31523 8.04329L2.40989 7.74424L2.15755 7.55787C2.1249 7.5337 2.14171 7.48195 2.18233 7.4816L2.49601 7.47921L2.59524 7.18163C2.60804 7.14309 2.66252 7.14309 2.67537 7.18163Z" fill="#F5F5F5"/>
<path d="M2.67537 8.73825L2.7746 9.03583L3.08828 9.03822C3.1289 9.03857 3.14571 9.09037 3.11306 9.11449L2.86072 9.30086L2.95538 9.59991C2.96767 9.63861 2.92354 9.6707 2.89048 9.64703L2.6353 9.46463L2.38013 9.64703C2.34707 9.67065 2.30304 9.63861 2.31523 9.59991L2.40989 9.30086L2.15755 9.11449C2.1249 9.09032 2.14171 9.03857 2.18233 9.03822L2.49601 9.03583L2.59524 8.73825C2.60804 8.69966 2.66252 8.69966 2.67537 8.73825Z" fill="#F5F5F5"/>
<path d="M3.88344 3.27487L3.98266 3.57245L4.29634 3.57484C4.33696 3.57519 4.35377 3.62699 4.32112 3.65111L4.06879 3.83748L4.16345 4.13653C4.17573 4.17522 4.13161 4.20731 4.09855 4.18365L3.84337 4.00124L3.5882 4.18365C3.55514 4.20726 3.51111 4.17522 3.5233 4.13653L3.61795 3.83748L3.36562 3.65111C3.33297 3.62694 3.34978 3.57519 3.3904 3.57484L3.70408 3.57245L3.80331 3.27487C3.81605 3.23638 3.87059 3.23638 3.88344 3.27487Z" fill="#F5F5F5"/>
<path d="M3.88344 4.8315L3.98266 5.12908L4.29634 5.13146C4.33696 5.13182 4.35377 5.18362 4.32112 5.20774L4.06879 5.3941L4.16345 5.69315C4.17573 5.73184 4.13161 5.76393 4.09855 5.74027L3.84337 5.55787L3.5882 5.74027C3.55514 5.76388 3.51111 5.73189 3.5233 5.69315L3.61795 5.3941L3.36562 5.20774C3.33297 5.18356 3.34978 5.13182 3.3904 5.13146L3.70408 5.12908L3.80331 4.8315C3.81605 4.79296 3.87059 4.79296 3.88344 4.8315Z" fill="#F5F5F5"/>
<path d="M3.88344 6.38818L3.98266 6.68575L4.29634 6.68814C4.33696 6.68849 4.35377 6.74029 4.32112 6.76441L4.06879 6.95078L4.16345 7.24983C4.17573 7.28852 4.13161 7.32062 4.09855 7.29695L3.84337 7.11455L3.5882 7.29695C3.55514 7.32057 3.51111 7.28852 3.5233 7.24983L3.61795 6.95078L3.36562 6.76441C3.33297 6.74024 3.34978 6.68849 3.3904 6.68814L3.70408 6.68575L3.80331 6.38818C3.81605 6.34963 3.87059 6.34963 3.88344 6.38818Z" fill="#F5F5F5"/>
<path d="M3.88344 7.94487L3.98266 8.24245L4.29634 8.24483C4.33696 8.24519 4.35377 8.29699 4.32112 8.32111L4.06879 8.50748L4.16345 8.80653C4.17573 8.84522 4.13161 8.87732 4.09855 8.85365L3.84337 8.67125L3.5882 8.85365C3.55514 8.87726 3.51111 8.84522 3.5233 8.80653L3.61795 8.50748L3.36562 8.32111C3.33297 8.29694 3.34978 8.24519 3.3904 8.24483L3.70408 8.24245L3.80331 7.94487C3.81605 7.90638 3.87059 7.90638 3.88344 7.94487Z" fill="#F5F5F5"/>
<path d="M5.09162 2.51165L5.19085 2.80922L5.50452 2.81161C5.54515 2.81197 5.56195 2.86376 5.5293 2.88788L5.27697 3.07425L5.37163 3.3733C5.38392 3.41199 5.33979 3.44409 5.30673 3.42042L5.0515 3.23802L4.79633 3.42042C4.76327 3.44404 4.71924 3.41199 4.73143 3.3733L4.82608 3.07425L4.57375 2.88788C4.5411 2.86371 4.55791 2.81197 4.59853 2.81161L4.91221 2.80922L5.01144 2.51165C5.02428 2.47311 5.07877 2.47311 5.09162 2.51165Z" fill="#F5F5F5"/>
<path d="M5.09162 4.06833L5.19085 4.36591L5.50452 4.36829C5.54515 4.36865 5.56195 4.42044 5.5293 4.44457L5.27697 4.63093L5.37163 4.92998C5.38392 4.96868 5.33979 5.00077 5.30673 4.97711L5.0515 4.7947L4.79633 4.97711C4.76327 5.00072 4.71924 4.96868 4.73143 4.92998L4.82608 4.63093L4.57375 4.44457C4.5411 4.42039 4.55791 4.36865 4.59853 4.36829L4.91221 4.36591L5.01144 4.06833C5.02428 4.02984 5.07877 4.02984 5.09162 4.06833Z" fill="#F5F5F5"/>
<path d="M5.09162 5.62492L5.19085 5.92251L5.50452 5.92489C5.54515 5.92525 5.56195 5.97705 5.5293 6.00117L5.27697 6.18754L5.37163 6.48659C5.38392 6.52529 5.33979 6.55738 5.30673 6.53372L5.0515 6.35131L4.79633 6.53372C4.76327 6.55733 4.71924 6.52529 4.73143 6.48659L4.82608 6.18754L4.57375 6.00117C4.5411 5.977 4.55791 5.92525 4.59853 5.92489L4.91221 5.92251L5.01144 5.62492C5.02428 5.58643 5.07877 5.58643 5.09162 5.62492Z" fill="#F5F5F5"/>
<path d="M5.09162 7.18163L5.19085 7.47921L5.50452 7.4816C5.54515 7.48195 5.56195 7.53375 5.5293 7.55787L5.27697 7.74424L5.37163 8.04329C5.38392 8.08198 5.33979 8.11408 5.30673 8.09041L5.0515 7.90801L4.79633 8.09041C4.76327 8.11402 4.71924 8.08198 4.73143 8.04329L4.82608 7.74424L4.57375 7.55787C4.5411 7.5337 4.55791 7.48195 4.59853 7.4816L4.91221 7.47921L5.01144 7.18163C5.02428 7.14309 5.07877 7.14309 5.09162 7.18163Z" fill="#F5F5F5"/>
<path d="M5.09162 8.73825L5.19085 9.03583L5.50452 9.03822C5.54515 9.03857 5.56195 9.09037 5.5293 9.11449L5.27697 9.30086L5.37163 9.59991C5.38392 9.63861 5.33979 9.6707 5.30673 9.64703L5.0515 9.46463L4.79633 9.64703C4.76327 9.67065 4.71924 9.63861 4.73143 9.59991L4.82608 9.30086L4.57375 9.11449C4.5411 9.09032 4.55791 9.03857 4.59853 9.03822L4.91221 9.03583L5.01144 8.73825C5.02428 8.69966 5.07877 8.69966 5.09162 8.73825Z" fill="#F5F5F5"/>
<path d="M6.30001 3.27487L6.39923 3.57245L6.71291 3.57484C6.75354 3.57519 6.77035 3.62699 6.73769 3.65111L6.48536 3.83748L6.58002 4.13653C6.59231 4.17522 6.54818 4.20731 6.51512 4.18365L6.25994 4.00124L6.00476 4.18365C5.9717 4.20726 5.92768 4.17522 5.93986 4.13653L6.03452 3.83748L5.78219 3.65111C5.74953 3.62694 5.76634 3.57519 5.80697 3.57484L6.12065 3.57245L6.21987 3.27487C6.23272 3.23638 6.28716 3.23638 6.30001 3.27487Z" fill="#F5F5F5"/>
<path d="M6.30001 4.8315L6.39923 5.12908L6.71291 5.13146C6.75354 5.13182 6.77035 5.18362 6.73769 5.20774L6.48536 5.3941L6.58002 5.69315C6.59231 5.73184 6.54818 5.76393 6.51512 5.74027L6.25994 5.55787L6.00476 5.74027C5.9717 5.76388 5.92768 5.73189 5.93986 5.69315L6.03452 5.3941L5.78219 5.20774C5.74953 5.18356 5.76634 5.13182 5.80697 5.13146L6.12065 5.12908L6.21987 4.8315C6.23272 4.79296 6.28716 4.79296 6.30001 4.8315Z" fill="#F5F5F5"/>
<path d="M6.30001 6.38818L6.39923 6.68575L6.71291 6.68814C6.75354 6.68849 6.77035 6.74029 6.73769 6.76441L6.48536 6.95078L6.58002 7.24983C6.59231 7.28852 6.54818 7.32062 6.51512 7.29695L6.25994 7.11455L6.00476 7.29695C5.9717 7.32057 5.92768 7.28852 5.93986 7.24983L6.03452 6.95078L5.78219 6.76441C5.74953 6.74024 5.76634 6.68849 5.80697 6.68814L6.12065 6.68575L6.21987 6.38818C6.23272 6.34963 6.28716 6.34963 6.30001 6.38818Z" fill="#F5F5F5"/>
<path d="M6.30001 7.94487L6.39923 8.24245L6.71291 8.24483C6.75354 8.24519 6.77035 8.29699 6.73769 8.32111L6.48536 8.50748L6.58002 8.80653C6.59231 8.84522 6.54818 8.87732 6.51512 8.85365L6.25994 8.67125L6.00476 8.85365C5.9717 8.87726 5.92768 8.84522 5.93986 8.80653L6.03452 8.50748L5.78219 8.32111C5.74953 8.29694 5.76634 8.24519 5.80697 8.24483L6.12065 8.24245L6.21987 7.94487C6.23272 7.90638 6.28716 7.90638 6.30001 7.94487Z" fill="#F5F5F5"/>
<path d="M7.50832 2.51165L7.60755 2.80922L7.92122 2.81161C7.96185 2.81197 7.97866 2.86376 7.94601 2.88788L7.69367 3.07425L7.78833 3.3733C7.80062 3.41199 7.75649 3.44409 7.72343 3.42042L7.46825 3.23802L7.21308 3.42042C7.18002 3.44404 7.13599 3.41199 7.14818 3.3733L7.24283 3.07425L6.9905 2.88788C6.95785 2.86371 6.97466 2.81197 7.01528 2.81161L7.32896 2.80922L7.42819 2.51165C7.44093 2.47311 7.49547 2.47311 7.50832 2.51165Z" fill="#F5F5F5"/>
<path d="M7.50832 4.06833L7.60755 4.36591L7.92122 4.36829C7.96185 4.36865 7.97866 4.42044 7.94601 4.44457L7.69367 4.63093L7.78833 4.92998C7.80062 4.96868 7.75649 5.00077 7.72343 4.97711L7.46825 4.7947L7.21308 4.97711C7.18002 5.00072 7.13599 4.96868 7.14818 4.92998L7.24283 4.63093L6.9905 4.44457C6.95785 4.42039 6.97466 4.36865 7.01528 4.36829L7.32896 4.36591L7.42819 4.06833C7.44093 4.02984 7.49547 4.02984 7.50832 4.06833Z" fill="#F5F5F5"/>
<path d="M7.50832 5.62492L7.60755 5.92251L7.92122 5.92489C7.96185 5.92525 7.97866 5.97705 7.94601 6.00117L7.69367 6.18754L7.78833 6.48659C7.80062 6.52529 7.75649 6.55738 7.72343 6.53372L7.46825 6.35131L7.21308 6.53372C7.18002 6.55733 7.13599 6.52529 7.14818 6.48659L7.24283 6.18754L6.9905 6.00117C6.95785 5.977 6.97466 5.92525 7.01528 5.92489L7.32896 5.92251L7.42819 5.62492C7.44093 5.58643 7.49547 5.58643 7.50832 5.62492Z" fill="#F5F5F5"/>
<path d="M7.50832 7.18163L7.60755 7.47921L7.92122 7.4816C7.96185 7.48195 7.97866 7.53375 7.94601 7.55787L7.69367 7.74424L7.78833 8.04329C7.80062 8.08198 7.75649 8.11408 7.72343 8.09041L7.46825 7.90801L7.21308 8.09041C7.18002 8.11402 7.13599 8.08198 7.14818 8.04329L7.24283 7.74424L6.9905 7.55787C6.95785 7.5337 6.97466 7.48195 7.01528 7.4816L7.32896 7.47921L7.42819 7.18163C7.44093 7.14309 7.49547 7.14309 7.50832 7.18163Z" fill="#F5F5F5"/>
<path d="M7.50832 8.73825L7.60755 9.03583L7.92122 9.03822C7.96185 9.03857 7.97866 9.09037 7.94601 9.11449L7.69367 9.30086L7.78833 9.59991C7.80062 9.63861 7.75649 9.6707 7.72343 9.64703L7.46825 9.46463L7.21308 9.64703C7.18002 9.67065 7.13599 9.63861 7.14818 9.59991L7.24283 9.30086L6.9905 9.11449C6.95785 9.09032 6.97466 9.03857 7.01528 9.03822L7.32896 9.03583L7.42819 8.73825C7.44093 8.69966 7.49547 8.69966 7.50832 8.73825Z" fill="#F5F5F5"/>
<path d="M8.71662 3.27487L8.81585 3.57245L9.12952 3.57484C9.17015 3.57519 9.18696 3.62699 9.15431 3.65111L8.90198 3.83748L8.99663 4.13653C9.00892 4.17522 8.96479 4.20731 8.93173 4.18365L8.67656 4.00124L8.42138 4.18365C8.38833 4.20726 8.3443 4.17522 8.35649 4.13653L8.45114 3.83748L8.19881 3.65111C8.16616 3.62694 8.18297 3.57519 8.22359 3.57484L8.53727 3.57245L8.63649 3.27487C8.64929 3.23638 8.70383 3.23638 8.71662 3.27487Z" fill="#F5F5F5"/>
<path d="M8.71662 4.8315L8.81585 5.12908L9.12952 5.13146C9.17015 5.13182 9.18696 5.18362 9.15431 5.20774L8.90198 5.3941L8.99663 5.69315C9.00892 5.73184 8.96479 5.76393 8.93173 5.74027L8.67656 5.55787L8.42138 5.74027C8.38833 5.76388 8.3443 5.73189 8.35649 5.69315L8.45114 5.3941L8.19881 5.20774C8.16616 5.18356 8.18297 5.13182 8.22359 5.13146L8.53727 5.12908L8.63649 4.8315C8.64929 4.79296 8.70383 4.79296 8.71662 4.8315Z" fill="#F5F5F5"/>
<path d="M8.71662 6.38818L8.81585 6.68575L9.12952 6.68814C9.17015 6.68849 9.18696 6.74029 9.15431 6.76441L8.90198 6.95078L8.99663 7.24983C9.00892 7.28852 8.96479 7.32062 8.93173 7.29695L8.67656 7.11455L8.42138 7.29695C8.38833 7.32057 8.3443 7.28852 8.35649 7.24983L8.45114 6.95078L8.19881 6.76441C8.16616 6.74024 8.18297 6.68849 8.22359 6.68814L8.53727 6.68575L8.63649 6.38818C8.64929 6.34963 8.70383 6.34963 8.71662 6.38818Z" fill="#F5F5F5"/>
<path d="M8.71662 7.94487L8.81585 8.24245L9.12952 8.24483C9.17015 8.24519 9.18696 8.29699 9.15431 8.32111L8.90198 8.50748L8.99663 8.80653C9.00892 8.84522 8.96479 8.87732 8.93173 8.85365L8.67656 8.67125L8.42138 8.85365C8.38833 8.87726 8.3443 8.84522 8.35649 8.80653L8.45114 8.50748L8.19881 8.32111C8.16616 8.29694 8.18297 8.24519 8.22359 8.24483L8.53727 8.24245L8.63649 7.94487C8.64929 7.90638 8.70383 7.90638 8.71662 7.94487Z" fill="#F5F5F5"/>
<path d="M9.92494 2.51165L10.0242 2.80922L10.3378 2.81161C10.3785 2.81197 10.3953 2.86376 10.3626 2.88788L10.1103 3.07425L10.2049 3.3733C10.2172 3.41199 10.1731 3.44409 10.1401 3.42042L9.88488 3.23802L9.6297 3.42042C9.59664 3.44404 9.55261 3.41199 9.5648 3.3733L9.65946 3.07425L9.40713 2.88788C9.37447 2.86371 9.39128 2.81197 9.43191 2.81161L9.74558 2.80922L9.84481 2.51165C9.85761 2.47311 9.91204 2.47311 9.92494 2.51165Z" fill="#F5F5F5"/>
<path d="M9.92494 4.06833L10.0242 4.36591L10.3378 4.36829C10.3785 4.36865 10.3953 4.42044 10.3626 4.44457L10.1103 4.63093L10.2049 4.92998C10.2172 4.96868 10.1731 5.00077 10.1401 4.97711L9.88488 4.7947L9.6297 4.97711C9.59664 5.00072 9.55261 4.96868 9.5648 4.92998L9.65946 4.63093L9.40713 4.44457C9.37447 4.42039 9.39128 4.36865 9.43191 4.36829L9.74558 4.36591L9.84481 4.06833C9.85761 4.02984 9.91204 4.02984 9.92494 4.06833Z" fill="#F5F5F5"/>
<path d="M9.92494 5.62492L10.0242 5.92251L10.3378 5.92489C10.3785 5.92525 10.3953 5.97705 10.3626 6.00117L10.1103 6.18754L10.2049 6.48659C10.2172 6.52529 10.1731 6.55738 10.1401 6.53372L9.88488 6.35131L9.6297 6.53372C9.59664 6.55733 9.55261 6.52529 9.5648 6.48659L9.65946 6.18754L9.40713 6.00117C9.37447 5.977 9.39128 5.92525 9.43191 5.92489L9.74558 5.92251L9.84481 5.62492C9.85761 5.58643 9.91204 5.58643 9.92494 5.62492Z" fill="#F5F5F5"/>
<path d="M9.92494 7.18163L10.0242 7.47921L10.3378 7.4816C10.3785 7.48195 10.3953 7.53375 10.3626 7.55787L10.1103 7.74424L10.2049 8.04329C10.2172 8.08198 10.1731 8.11408 10.1401 8.09041L9.88488 7.90801L9.6297 8.09041C9.59664 8.11402 9.55261 8.08198 9.5648 8.04329L9.65946 7.74424L9.40713 7.55787C9.37447 7.5337 9.39128 7.48195 9.43191 7.4816L9.74558 7.47921L9.84481 7.18163C9.85761 7.14309 9.91204 7.14309 9.92494 7.18163Z" fill="#F5F5F5"/>
<path d="M9.92494 8.73825L10.0242 9.03583L10.3378 9.03822C10.3785 9.03857 10.3953 9.09037 10.3626 9.11449L10.1103 9.30086L10.2049 9.59991C10.2172 9.63861 10.1731 9.6707 10.1401 9.64703L9.88488 9.46463L9.6297 9.64703C9.59664 9.67065 9.55261 9.63861 9.5648 9.59991L9.65946 9.30086L9.40713 9.11449C9.37447 9.09032 9.39128 9.03857 9.43191 9.03822L9.74558 9.03583L9.84481 8.73825C9.85761 8.69966 9.91204 8.69966 9.92494 8.73825Z" fill="#F5F5F5"/>
<rect x="0.5" y="0.5" width="23" height="19" rx="3.5" stroke="#E3E1E1"/>
</g>
</svg>
