<svg width="64" height="64" viewBox="0 0 64 64" fill="none" xmlns="http://www.w3.org/2000/svg">
<g clip-path="url(#clip0)">
<path d="M49.3336 34.6665C41.2456 34.6665 34.667 41.2451 34.667 49.3331C34.667 57.4211 41.2456 63.9998 49.3336 63.9998C57.4216 63.9998 64.0002 57.4213 64.0002 49.3333C64.0002 41.2453 57.4216 34.6665 49.3336 34.6665ZM49.3336 61.3333C42.7176 61.3333 37.3336 55.9493 37.3336 49.3333C37.3336 42.7173 42.7176 37.3333 49.3336 37.3333C55.9496 37.3333 61.3336 42.7173 61.3336 49.3333C61.3336 55.9493 55.9496 61.3333 49.3336 61.3333Z" fill="#54A75C"/>
<path d="M49.3336 34.6665C41.2456 34.6665 34.667 41.2451 34.667 49.3331C34.667 57.4211 41.2456 63.9998 49.3336 63.9998C57.4216 63.9998 64.0002 57.4213 64.0002 49.3333C64.0002 41.2453 57.4216 34.6665 49.3336 34.6665ZM49.3336 61.3333C42.7176 61.3333 37.3336 55.9493 37.3336 49.3333C37.3336 42.7173 42.7176 37.3333 49.3336 37.3333C55.9496 37.3333 61.3336 42.7173 61.3336 49.3333C61.3336 55.9493 55.9496 61.3333 49.3336 61.3333Z" fill="#3FA949"/>
<path d="M49.3336 34.6665C41.2456 34.6665 34.667 41.2451 34.667 49.3331C34.667 57.4211 41.2456 63.9998 49.3336 63.9998C57.4216 63.9998 64.0002 57.4213 64.0002 49.3333C64.0002 41.2453 57.4216 34.6665 49.3336 34.6665ZM49.3336 61.3333C42.7176 61.3333 37.3336 55.9493 37.3336 49.3333C37.3336 42.7173 42.7176 37.3333 49.3336 37.3333C55.9496 37.3333 61.3336 42.7173 61.3336 49.3333C61.3336 55.9493 55.9496 61.3333 49.3336 61.3333Z" fill="#479B4E"/>
<path d="M49.3336 34.6665C41.2456 34.6665 34.667 41.2451 34.667 49.3331C34.667 57.4211 41.2456 63.9998 49.3336 63.9998C57.4216 63.9998 64.0002 57.4213 64.0002 49.3333C64.0002 41.2453 57.4216 34.6665 49.3336 34.6665ZM49.3336 61.3333C42.7176 61.3333 37.3336 55.9493 37.3336 49.3333C37.3336 42.7173 42.7176 37.3333 49.3336 37.3333C55.9496 37.3333 61.3336 42.7173 61.3336 49.3333C61.3336 55.9493 55.9496 61.3333 49.3336 61.3333Z" fill="#3BC76B"/>
<path d="M60 15.9999H1.33337C0.597375 15.9999 0 16.5973 0 17.3333C0 18.0693 0.597375 18.6666 1.33337 18.6666H60C60.736 18.6666 61.3334 18.0693 61.3334 17.3333C61.3334 16.5973 60.736 15.9999 60 15.9999Z" fill="#54A75C"/>
<path d="M60 15.9999H1.33337C0.597375 15.9999 0 16.5973 0 17.3333C0 18.0693 0.597375 18.6666 1.33337 18.6666H60C60.736 18.6666 61.3334 18.0693 61.3334 17.3333C61.3334 16.5973 60.736 15.9999 60 15.9999Z" fill="#3FA949"/>
<path d="M60 15.9999H1.33337C0.597375 15.9999 0 16.5973 0 17.3333C0 18.0693 0.597375 18.6666 1.33337 18.6666H60C60.736 18.6666 61.3334 18.0693 61.3334 17.3333C61.3334 16.5973 60.736 15.9999 60 15.9999Z" fill="#479B4E"/>
<path d="M60 15.9999H1.33337C0.597375 15.9999 0 16.5973 0 17.3333C0 18.0693 0.597375 18.6666 1.33337 18.6666H60C60.736 18.6666 61.3334 18.0693 61.3334 17.3333C61.3334 16.5973 60.736 15.9999 60 15.9999Z" fill="#3BC76B"/>
<path d="M57.6827 16.0453C56.9787 15.8533 56.2373 16.2693 56.0453 16.9813L52.408 30.3226C52.2134 31.0319 52.632 31.7652 53.344 31.9599C53.4614 31.9946 53.5787 32.0079 53.696 32.0079C54.2827 32.0079 54.8214 31.6186 54.9814 31.0239L58.6188 17.6826C58.8134 16.9733 58.3947 16.2399 57.6827 16.0453Z" fill="#54A75C"/>
<path d="M57.6827 16.0453C56.9787 15.8533 56.2373 16.2693 56.0453 16.9813L52.408 30.3226C52.2134 31.0319 52.632 31.7652 53.344 31.9599C53.4614 31.9946 53.5787 32.0079 53.696 32.0079C54.2827 32.0079 54.8214 31.6186 54.9814 31.0239L58.6188 17.6826C58.8134 16.9733 58.3947 16.2399 57.6827 16.0453Z" fill="#3FA949"/>
<path d="M57.6827 16.0453C56.9787 15.8533 56.2373 16.2693 56.0453 16.9813L52.408 30.3226C52.2134 31.0319 52.632 31.7652 53.344 31.9599C53.4614 31.9946 53.5787 32.0079 53.696 32.0079C54.2827 32.0079 54.8214 31.6186 54.9814 31.0239L58.6188 17.6826C58.8134 16.9733 58.3947 16.2399 57.6827 16.0453Z" fill="#479B4E"/>
<path d="M57.6827 16.0453C56.9787 15.8533 56.2373 16.2693 56.0453 16.9813L52.408 30.3226C52.2134 31.0319 52.632 31.7652 53.344 31.9599C53.4614 31.9946 53.5787 32.0079 53.696 32.0079C54.2827 32.0079 54.8214 31.6186 54.9814 31.0239L58.6188 17.6826C58.8134 16.9733 58.3947 16.2399 57.6827 16.0453Z" fill="#3BC76B"/>
<path d="M30.6665 45.3333H16.0745C14.2746 45.3333 12.6879 44.1199 12.2132 42.3866L5.28531 16.9839C5.09331 16.2719 4.35731 15.8559 3.65068 16.0479C2.93868 16.2399 2.52006 16.9733 2.71468 17.6825L9.64268 43.0879C10.4321 45.9813 13.0747 47.9999 16.0747 47.9999H30.6667C31.4027 47.9999 32 47.4025 32 46.6665C31.9999 45.9305 31.4025 45.3333 30.6665 45.3333Z" fill="#54A75C"/>
<path d="M30.6665 45.3333H16.0745C14.2746 45.3333 12.6879 44.1199 12.2132 42.3866L5.28531 16.9839C5.09331 16.2719 4.35731 15.8559 3.65068 16.0479C2.93868 16.2399 2.52006 16.9733 2.71468 17.6825L9.64268 43.0879C10.4321 45.9813 13.0747 47.9999 16.0747 47.9999H30.6667C31.4027 47.9999 32 47.4025 32 46.6665C31.9999 45.9305 31.4025 45.3333 30.6665 45.3333Z" fill="#3FA949"/>
<path d="M30.6665 45.3333H16.0745C14.2746 45.3333 12.6879 44.1199 12.2132 42.3866L5.28531 16.9839C5.09331 16.2719 4.35731 15.8559 3.65068 16.0479C2.93868 16.2399 2.52006 16.9733 2.71468 17.6825L9.64268 43.0879C10.4321 45.9813 13.0747 47.9999 16.0747 47.9999H30.6667C31.4027 47.9999 32 47.4025 32 46.6665C31.9999 45.9305 31.4025 45.3333 30.6665 45.3333Z" fill="#479B4E"/>
<path d="M30.6665 45.3333H16.0745C14.2746 45.3333 12.6879 44.1199 12.2132 42.3866L5.28531 16.9839C5.09331 16.2719 4.35731 15.8559 3.65068 16.0479C2.93868 16.2399 2.52006 16.9733 2.71468 17.6825L9.64268 43.0879C10.4321 45.9813 13.0747 47.9999 16.0747 47.9999H30.6667C31.4027 47.9999 32 47.4025 32 46.6665C31.9999 45.9305 31.4025 45.3333 30.6665 45.3333Z" fill="#3BC76B"/>
<path d="M28.7384 0.223927C28.1224 -0.184073 27.2958 -0.0160729 26.8904 0.594552L16.2238 16.5945C15.8158 17.2079 15.9811 18.0345 16.5944 18.4425C16.821 18.5945 17.077 18.6665 17.333 18.6665C17.7624 18.6665 18.1864 18.4585 18.4424 18.0719L29.109 2.07193C29.5171 1.45855 29.3518 0.631927 28.7384 0.223927Z" fill="#54A75C"/>
<path d="M28.7384 0.223927C28.1224 -0.184073 27.2958 -0.0160729 26.8904 0.594552L16.2238 16.5945C15.8158 17.2079 15.9811 18.0345 16.5944 18.4425C16.821 18.5945 17.077 18.6665 17.333 18.6665C17.7624 18.6665 18.1864 18.4585 18.4424 18.0719L29.109 2.07193C29.5171 1.45855 29.3518 0.631927 28.7384 0.223927Z" fill="#3FA949"/>
<path d="M28.7384 0.223927C28.1224 -0.184073 27.2958 -0.0160729 26.8904 0.594552L16.2238 16.5945C15.8158 17.2079 15.9811 18.0345 16.5944 18.4425C16.821 18.5945 17.077 18.6665 17.333 18.6665C17.7624 18.6665 18.1864 18.4585 18.4424 18.0719L29.109 2.07193C29.5171 1.45855 29.3518 0.631927 28.7384 0.223927Z" fill="#479B4E"/>
<path d="M28.7384 0.223927C28.1224 -0.184073 27.2958 -0.0160729 26.8904 0.594552L16.2238 16.5945C15.8158 17.2079 15.9811 18.0345 16.5944 18.4425C16.821 18.5945 17.077 18.6665 17.333 18.6665C17.7624 18.6665 18.1864 18.4585 18.4424 18.0719L29.109 2.07193C29.5171 1.45855 29.3518 0.631927 28.7384 0.223927Z" fill="#3BC76B"/>
<path d="M45.1071 16.5945L34.4405 0.594533C34.0325 -0.0188425 33.2058 -0.184093 32.5925 0.223908C31.9791 0.631908 31.8138 1.45853 32.2218 2.07191L42.8885 18.0719C43.1471 18.4585 43.5685 18.6665 44.0005 18.6665C44.2565 18.6665 44.5125 18.5945 44.7365 18.4425C45.3498 18.0345 45.5151 17.2079 45.1071 16.5945Z" fill="#54A75C"/>
<path d="M45.1071 16.5945L34.4405 0.594533C34.0325 -0.0188425 33.2058 -0.184093 32.5925 0.223908C31.9791 0.631908 31.8138 1.45853 32.2218 2.07191L42.8885 18.0719C43.1471 18.4585 43.5685 18.6665 44.0005 18.6665C44.2565 18.6665 44.5125 18.5945 44.7365 18.4425C45.3498 18.0345 45.5151 17.2079 45.1071 16.5945Z" fill="#3FA949"/>
<path d="M45.1071 16.5945L34.4405 0.594533C34.0325 -0.0188425 33.2058 -0.184093 32.5925 0.223908C31.9791 0.631908 31.8138 1.45853 32.2218 2.07191L42.8885 18.0719C43.1471 18.4585 43.5685 18.6665 44.0005 18.6665C44.2565 18.6665 44.5125 18.5945 44.7365 18.4425C45.3498 18.0345 45.5151 17.2079 45.1071 16.5945Z" fill="#479B4E"/>
<path d="M45.1071 16.5945L34.4405 0.594533C34.0325 -0.0188425 33.2058 -0.184093 32.5925 0.223908C31.9791 0.631908 31.8138 1.45853 32.2218 2.07191L42.8885 18.0719C43.1471 18.4585 43.5685 18.6665 44.0005 18.6665C44.2565 18.6665 44.5125 18.5945 44.7365 18.4425C45.3498 18.0345 45.5151 17.2079 45.1071 16.5945Z" fill="#3BC76B"/>
<path d="M54.6665 47.9999H43.9999C43.2639 47.9999 42.6665 48.5973 42.6665 49.3333C42.6665 50.0693 43.2639 50.6666 43.9999 50.6666H54.6665C55.4025 50.6666 55.9999 50.0693 55.9999 49.3333C55.9999 48.5973 55.4025 47.9999 54.6665 47.9999Z" fill="#54A75C"/>
<path d="M54.6665 47.9999H43.9999C43.2639 47.9999 42.6665 48.5973 42.6665 49.3333C42.6665 50.0693 43.2639 50.6666 43.9999 50.6666H54.6665C55.4025 50.6666 55.9999 50.0693 55.9999 49.3333C55.9999 48.5973 55.4025 47.9999 54.6665 47.9999Z" fill="#3FA949"/>
<path d="M54.6665 47.9999H43.9999C43.2639 47.9999 42.6665 48.5973 42.6665 49.3333C42.6665 50.0693 43.2639 50.6666 43.9999 50.6666H54.6665C55.4025 50.6666 55.9999 50.0693 55.9999 49.3333C55.9999 48.5973 55.4025 47.9999 54.6665 47.9999Z" fill="#479B4E"/>
<path d="M54.6665 47.9999H43.9999C43.2639 47.9999 42.6665 48.5973 42.6665 49.3333C42.6665 50.0693 43.2639 50.6666 43.9999 50.6666H54.6665C55.4025 50.6666 55.9999 50.0693 55.9999 49.3333C55.9999 48.5973 55.4025 47.9999 54.6665 47.9999Z" fill="#3BC76B"/>
<path d="M49.3334 42.6665C48.5974 42.6665 48 43.2639 48 43.9999V54.6665C48 55.4025 48.5974 55.9999 49.3334 55.9999C50.0694 55.9999 50.6668 55.4025 50.6668 54.6665V43.9999C50.6666 43.2639 50.0694 42.6665 49.3334 42.6665Z" fill="#54A75C"/>
<path d="M49.3334 42.6665C48.5974 42.6665 48 43.2639 48 43.9999V54.6665C48 55.4025 48.5974 55.9999 49.3334 55.9999C50.0694 55.9999 50.6668 55.4025 50.6668 54.6665V43.9999C50.6666 43.2639 50.0694 42.6665 49.3334 42.6665Z" fill="#3FA949"/>
<path d="M49.3334 42.6665C48.5974 42.6665 48 43.2639 48 43.9999V54.6665C48 55.4025 48.5974 55.9999 49.3334 55.9999C50.0694 55.9999 50.6668 55.4025 50.6668 54.6665V43.9999C50.6666 43.2639 50.0694 42.6665 49.3334 42.6665Z" fill="#479B4E"/>
<path d="M49.3334 42.6665C48.5974 42.6665 48 43.2639 48 43.9999V54.6665C48 55.4025 48.5974 55.9999 49.3334 55.9999C50.0694 55.9999 50.6668 55.4025 50.6668 54.6665V43.9999C50.6666 43.2639 50.0694 42.6665 49.3334 42.6665Z" fill="#3BC76B"/>
<g clip-path="url(#clip1)">
<path d="M372 -54.6665H256.079L134.293 -257.645C128.252 -267.728 115.147 -271.02 105.022 -264.958C94.9178 -258.895 91.6474 -245.792 97.71 -235.687L206.322 -54.6665H-144.987L-36.375 -235.689C-30.3123 -245.793 -33.5828 -258.896 -43.6872 -264.959C-53.8333 -271.022 -66.8951 -267.73 -72.9577 -257.647L-194.744 -54.6679H-310.667V-12.001H-264.364L-210.167 277.103C-204.5 307.375 -178.042 329.333 -147.249 329.333H208.584C239.376 329.333 265.834 307.375 271.48 277.125L325.696 -12.001H372.002C372 -12.001 372 -54.6665 372 -54.6665ZM229.541 269.271C227.667 279.354 218.854 286.668 208.583 286.668H-147.249C-157.52 286.668 -166.332 279.355 -168.228 269.251L-220.968 -12.001H282.303L229.541 269.271Z" fill="#54A75C"/>
<path d="M372 -54.6665H256.079L134.293 -257.645C128.252 -267.728 115.147 -271.02 105.022 -264.958C94.9178 -258.895 91.6474 -245.792 97.71 -235.687L206.322 -54.6665H-144.987L-36.375 -235.689C-30.3123 -245.793 -33.5828 -258.896 -43.6872 -264.959C-53.8333 -271.022 -66.8951 -267.73 -72.9577 -257.647L-194.744 -54.6679H-310.667V-12.001H-264.364L-210.167 277.103C-204.5 307.375 -178.042 329.333 -147.249 329.333H208.584C239.376 329.333 265.834 307.375 271.48 277.125L325.696 -12.001H372.002C372 -12.001 372 -54.6665 372 -54.6665ZM229.541 269.271C227.667 279.354 218.854 286.668 208.583 286.668H-147.249C-157.52 286.668 -166.332 279.355 -168.228 269.251L-220.968 -12.001H282.303L229.541 269.271Z" fill="#3FA949"/>
<path d="M372 -54.6665H256.079L134.293 -257.645C128.252 -267.728 115.147 -271.02 105.022 -264.958C94.9178 -258.895 91.6474 -245.792 97.71 -235.687L206.322 -54.6665H-144.987L-36.375 -235.689C-30.3123 -245.793 -33.5828 -258.896 -43.6872 -264.959C-53.8333 -271.022 -66.8951 -267.73 -72.9577 -257.647L-194.744 -54.6679H-310.667V-12.001H-264.364L-210.167 277.103C-204.5 307.375 -178.042 329.333 -147.249 329.333H208.584C239.376 329.333 265.834 307.375 271.48 277.125L325.696 -12.001H372.002C372 -12.001 372 -54.6665 372 -54.6665ZM229.541 269.271C227.667 279.354 218.854 286.668 208.583 286.668H-147.249C-157.52 286.668 -166.332 279.355 -168.228 269.251L-220.968 -12.001H282.303L229.541 269.271Z" fill="#479B4E"/>
<path d="M372 -54.6665H256.079L134.293 -257.645C128.252 -267.728 115.147 -271.02 105.022 -264.958C94.9178 -258.895 91.6474 -245.792 97.71 -235.687L206.322 -54.6665H-144.987L-36.375 -235.689C-30.3123 -245.793 -33.5828 -258.896 -43.6872 -264.959C-53.8333 -271.022 -66.8951 -267.73 -72.9577 -257.647L-194.744 -54.6679H-310.667V-12.001H-264.364L-210.167 277.103C-204.5 307.375 -178.042 329.333 -147.249 329.333H208.584C239.376 329.333 265.834 307.375 271.48 277.125L325.696 -12.001H372.002C372 -12.001 372 -54.6665 372 -54.6665ZM229.541 269.271C227.667 279.354 218.854 286.668 208.583 286.668H-147.249C-157.52 286.668 -166.332 279.355 -168.228 269.251L-220.968 -12.001H282.303L229.541 269.271Z" fill="#3BC76B"/>
<g clip-path="url(#clip2)">
<path d="M380 -50.6665H264.079L142.293 -253.645C136.252 -263.728 123.147 -267.02 113.022 -260.958C102.918 -254.895 99.6474 -241.792 105.71 -231.687L214.322 -50.6665H-136.987L-28.375 -231.689C-22.3123 -241.793 -25.5828 -254.896 -35.6872 -260.959C-45.8333 -267.022 -58.8951 -263.73 -64.9577 -253.647L-186.744 -50.6679H-302.667V-8.00098H-256.364L-202.167 281.103C-196.5 311.375 -170.042 333.333 -139.249 333.333H216.584C247.376 333.333 273.834 311.375 279.48 281.125L333.696 -8.00098H380.002C380 -8.00098 380 -50.6665 380 -50.6665ZM237.541 273.271C235.667 283.354 226.854 290.668 216.583 290.668H-139.249C-149.52 290.668 -158.332 283.355 -160.228 273.251L-212.968 -8.00098H290.303L237.541 273.271Z" fill="#54A75C"/>
<path d="M380 -50.6665H264.079L142.293 -253.645C136.252 -263.728 123.147 -267.02 113.022 -260.958C102.918 -254.895 99.6474 -241.792 105.71 -231.687L214.322 -50.6665H-136.987L-28.375 -231.689C-22.3123 -241.793 -25.5828 -254.896 -35.6872 -260.959C-45.8333 -267.022 -58.8951 -263.73 -64.9577 -253.647L-186.744 -50.6679H-302.667V-8.00098H-256.364L-202.167 281.103C-196.5 311.375 -170.042 333.333 -139.249 333.333H216.584C247.376 333.333 273.834 311.375 279.48 281.125L333.696 -8.00098H380.002C380 -8.00098 380 -50.6665 380 -50.6665ZM237.541 273.271C235.667 283.354 226.854 290.668 216.583 290.668H-139.249C-149.52 290.668 -158.332 283.355 -160.228 273.251L-212.968 -8.00098H290.303L237.541 273.271Z" fill="#3FA949"/>
<path d="M380 -50.6665H264.079L142.293 -253.645C136.252 -263.728 123.147 -267.02 113.022 -260.958C102.918 -254.895 99.6474 -241.792 105.71 -231.687L214.322 -50.6665H-136.987L-28.375 -231.689C-22.3123 -241.793 -25.5828 -254.896 -35.6872 -260.959C-45.8333 -267.022 -58.8951 -263.73 -64.9577 -253.647L-186.744 -50.6679H-302.667V-8.00098H-256.364L-202.167 281.103C-196.5 311.375 -170.042 333.333 -139.249 333.333H216.584C247.376 333.333 273.834 311.375 279.48 281.125L333.696 -8.00098H380.002C380 -8.00098 380 -50.6665 380 -50.6665ZM237.541 273.271C235.667 283.354 226.854 290.668 216.583 290.668H-139.249C-149.52 290.668 -158.332 283.355 -160.228 273.251L-212.968 -8.00098H290.303L237.541 273.271Z" fill="#479B4E"/>
<path d="M380 -50.6665H264.079L142.293 -253.645C136.252 -263.728 123.147 -267.02 113.022 -260.958C102.918 -254.895 99.6474 -241.792 105.71 -231.687L214.322 -50.6665H-136.987L-28.375 -231.689C-22.3123 -241.793 -25.5828 -254.896 -35.6872 -260.959C-45.8333 -267.022 -58.8951 -263.73 -64.9577 -253.647L-186.744 -50.6679H-302.667V-8.00098H-256.364L-202.167 281.103C-196.5 311.375 -170.042 333.333 -139.249 333.333H216.584C247.376 333.333 273.834 311.375 279.48 281.125L333.696 -8.00098H380.002C380 -8.00098 380 -50.6665 380 -50.6665ZM237.541 273.271C235.667 283.354 226.854 290.668 216.583 290.668H-139.249C-149.52 290.668 -158.332 283.355 -160.228 273.251L-212.968 -8.00098H290.303L237.541 273.271Z" fill="#3BC76B"/>
<g clip-path="url(#clip3)">
<path d="M377.334 -59.9997H261.412L139.626 -262.979C133.585 -273.061 120.48 -276.354 110.356 -270.291C100.251 -264.228 96.9809 -251.125 103.044 -241.02L211.656 -59.9997H-139.654L-31.0415 -241.022C-24.9789 -251.126 -28.2493 -264.23 -38.3537 -270.292C-48.4998 -276.355 -61.5616 -273.063 -67.6242 -262.98L-189.41 -60.0012H-305.333V-17.3342H-259.031L-204.833 271.77C-199.167 302.042 -172.709 324 -141.916 324H213.918C244.709 324 271.168 302.042 276.814 271.792L331.03 -17.3342H377.335C377.334 -17.3342 377.334 -59.9997 377.334 -59.9997ZM234.875 263.938C233.001 274.021 224.187 281.334 213.916 281.334H-141.916C-152.187 281.334 -160.999 274.022 -162.894 263.918L-215.634 -17.3342H287.636L234.875 263.938Z" fill="#54A75C"/>
<path d="M377.334 -59.9997H261.412L139.626 -262.979C133.585 -273.061 120.48 -276.354 110.356 -270.291C100.251 -264.228 96.9809 -251.125 103.044 -241.02L211.656 -59.9997H-139.654L-31.0415 -241.022C-24.9789 -251.126 -28.2493 -264.23 -38.3537 -270.292C-48.4998 -276.355 -61.5616 -273.063 -67.6242 -262.98L-189.41 -60.0012H-305.333V-17.3342H-259.031L-204.833 271.77C-199.167 302.042 -172.709 324 -141.916 324H213.918C244.709 324 271.168 302.042 276.814 271.792L331.03 -17.3342H377.335C377.334 -17.3342 377.334 -59.9997 377.334 -59.9997ZM234.875 263.938C233.001 274.021 224.187 281.334 213.916 281.334H-141.916C-152.187 281.334 -160.999 274.022 -162.894 263.918L-215.634 -17.3342H287.636L234.875 263.938Z" fill="#3FA949"/>
<path d="M377.334 -59.9997H261.412L139.626 -262.979C133.585 -273.061 120.48 -276.354 110.356 -270.291C100.251 -264.228 96.9809 -251.125 103.044 -241.02L211.656 -59.9997H-139.654L-31.0415 -241.022C-24.9789 -251.126 -28.2493 -264.23 -38.3537 -270.292C-48.4998 -276.355 -61.5616 -273.063 -67.6242 -262.98L-189.41 -60.0012H-305.333V-17.3342H-259.031L-204.833 271.77C-199.167 302.042 -172.709 324 -141.916 324H213.918C244.709 324 271.168 302.042 276.814 271.792L331.03 -17.3342H377.335C377.334 -17.3342 377.334 -59.9997 377.334 -59.9997ZM234.875 263.938C233.001 274.021 224.187 281.334 213.916 281.334H-141.916C-152.187 281.334 -160.999 274.022 -162.894 263.918L-215.634 -17.3342H287.636L234.875 263.938Z" fill="#479B4E"/>
<path d="M377.334 -59.9997H261.412L139.626 -262.979C133.585 -273.061 120.48 -276.354 110.356 -270.291C100.251 -264.228 96.9809 -251.125 103.044 -241.02L211.656 -59.9997H-139.654L-31.0415 -241.022C-24.9789 -251.126 -28.2493 -264.23 -38.3537 -270.292C-48.4998 -276.355 -61.5616 -273.063 -67.6242 -262.98L-189.41 -60.0012H-305.333V-17.3342H-259.031L-204.833 271.77C-199.167 302.042 -172.709 324 -141.916 324H213.918C244.709 324 271.168 302.042 276.814 271.792L331.03 -17.3342H377.335C377.334 -17.3342 377.334 -59.9997 377.334 -59.9997ZM234.875 263.938C233.001 274.021 224.187 281.334 213.916 281.334H-141.916C-152.187 281.334 -160.999 274.022 -162.894 263.918L-215.634 -17.3342H287.636L234.875 263.938Z" fill="#3BC76B"/>
</g>
</g>
</g>
</g>
<defs>
<clipPath id="clip0">
<rect width="64" height="64" fill="white"/>
</clipPath>
<clipPath id="clip1">
<rect width="682.667" height="682.667" fill="white" transform="translate(-310.667 -310.667)"/>
</clipPath>
<clipPath id="clip2">
<rect width="682.667" height="682.667" fill="white" transform="translate(-302.667 -306.667)"/>
</clipPath>
<clipPath id="clip3">
<rect width="682.667" height="682.667" fill="white" transform="translate(-305.333 -316)"/>
</clipPath>
</defs>
</svg>
