<svg width="64" height="64" viewBox="0 0 64 64" fill="none" xmlns="http://www.w3.org/2000/svg">
<path d="M54.8956 45.4932L54.9544 45.926H55.3911H57.0267C57.1523 45.926 57.2726 45.9759 57.3614 46.0646C57.4501 46.1534 57.5 46.2738 57.5 46.3993V53.4796C57.4987 54.5454 57.0747 55.5673 56.321 56.321C55.5673 57.0747 54.5454 57.4987 53.4796 57.5H10.5204C9.45447 57.4988 8.43256 57.0749 7.67884 56.3212C6.92519 55.5675 6.50125 54.5457 6.5 53.4799V46.3993C6.5 46.2738 6.54986 46.1534 6.63862 46.0646C6.72737 45.9759 6.84775 45.926 6.97326 45.926H8.6089H9.04565L9.10436 45.4932L12.0973 23.432C12.0974 23.4316 12.0974 23.4313 12.0974 23.431C12.1881 22.7814 12.5101 22.1862 13.0042 21.7548C13.4983 21.3233 14.1314 21.0846 14.7874 21.0822H34.2802H34.7802V20.5822V17.4923V16.9923H34.2802H28.1386C27.4186 16.9674 26.7374 16.6593 26.2432 16.1348C25.7473 15.6085 25.4801 14.9071 25.5001 14.1842L25.5003 14.1842V14.1704V9.32188H25.5005L25.5001 9.30804C25.4801 8.58516 25.7473 7.88379 26.2432 7.35746C26.7374 6.83298 27.4186 6.52489 28.1386 6.5H48.7758C49.4958 6.52489 50.1769 6.83298 50.6711 7.35746C51.1671 7.88379 51.4343 8.58516 51.4142 9.30804L51.4141 9.30804V9.32188V14.1704H51.4139L51.4142 14.1842C51.4343 14.9071 51.1671 15.6085 50.6711 16.1348C50.1769 16.6593 49.4957 16.9674 48.7757 16.9923H42.6347H42.1347V17.4923V20.5834V21.0834H42.6347H49.2124C49.8684 21.0856 50.5017 21.3244 50.9958 21.7559C51.4899 22.1873 51.8118 22.7824 51.9025 23.432C51.9026 23.4324 51.9026 23.4327 51.9027 23.4331L54.8956 45.4932ZM26.4468 9.33747V14.1548C26.42 14.6184 26.5743 15.0746 26.8775 15.4269C27.1847 15.7839 27.6201 16.0056 28.0895 16.0441L28.1099 16.0458H28.1303H48.784H48.8045L48.8249 16.0441C49.2943 16.0056 49.7297 15.7839 50.0369 15.4269C50.3401 15.0746 50.4943 14.6184 50.4675 14.1548V9.33746C50.4943 8.87388 50.3401 8.4177 50.0369 8.06535C49.7297 7.70835 49.2943 7.48664 48.8249 7.44819L48.8045 7.44652H48.784H28.1303H28.1099L28.0895 7.44819C27.6201 7.48664 27.1847 7.70835 26.8775 8.06535C26.5743 8.4177 26.42 8.87388 26.4468 9.33747ZM36.2267 16.9923H35.7267V17.4923V20.5822V21.0822H36.2267H40.6887H41.1887V20.5822V17.4923V16.9923H40.6887H36.2267ZM13.0356 23.5566L13.0354 23.5583L10.0778 45.3593L10.0008 45.9266H10.5732H53.4257H53.9981L53.9211 45.3593L50.9635 23.5583L50.9633 23.5566C50.9045 23.134 50.6952 22.7468 50.3738 22.4661C50.0524 22.1854 49.6405 22.0301 49.2139 22.0288H49.2123L14.7866 22.0288L14.785 22.0288C14.3583 22.0301 13.9464 22.1854 13.6251 22.4661C13.3037 22.7468 13.0944 23.134 13.0356 23.5566ZM56.5535 53.4807V53.4802V47.3725V46.8725H56.0535H7.94652H7.44652V47.3725L7.44652 53.4802L7.44652 53.4807C7.4474 54.2954 7.77142 55.0764 8.34749 55.6525C8.92355 56.2286 9.70461 56.5526 10.5193 56.5535H10.5198H53.4802H53.4807C54.2954 56.5526 55.0764 56.2286 55.6525 55.6525C56.2286 55.0764 56.5526 54.2954 56.5535 53.4807Z" stroke="#54A75C"/>
<path d="M54.8956 45.4932L54.9544 45.926H55.3911H57.0267C57.1523 45.926 57.2726 45.9759 57.3614 46.0646C57.4501 46.1534 57.5 46.2738 57.5 46.3993V53.4796C57.4987 54.5454 57.0747 55.5673 56.321 56.321C55.5673 57.0747 54.5454 57.4987 53.4796 57.5H10.5204C9.45447 57.4988 8.43256 57.0749 7.67884 56.3212C6.92519 55.5675 6.50125 54.5457 6.5 53.4799V46.3993C6.5 46.2738 6.54986 46.1534 6.63862 46.0646C6.72737 45.9759 6.84775 45.926 6.97326 45.926H8.6089H9.04565L9.10436 45.4932L12.0973 23.432C12.0974 23.4316 12.0974 23.4313 12.0974 23.431C12.1881 22.7814 12.5101 22.1862 13.0042 21.7548C13.4983 21.3233 14.1314 21.0846 14.7874 21.0822H34.2802H34.7802V20.5822V17.4923V16.9923H34.2802H28.1386C27.4186 16.9674 26.7374 16.6593 26.2432 16.1348C25.7473 15.6085 25.4801 14.9071 25.5001 14.1842L25.5003 14.1842V14.1704V9.32188H25.5005L25.5001 9.30804C25.4801 8.58516 25.7473 7.88379 26.2432 7.35746C26.7374 6.83298 27.4186 6.52489 28.1386 6.5H48.7758C49.4958 6.52489 50.1769 6.83298 50.6711 7.35746C51.1671 7.88379 51.4343 8.58516 51.4142 9.30804L51.4141 9.30804V9.32188V14.1704H51.4139L51.4142 14.1842C51.4343 14.9071 51.1671 15.6085 50.6711 16.1348C50.1769 16.6593 49.4957 16.9674 48.7757 16.9923H42.6347H42.1347V17.4923V20.5834V21.0834H42.6347H49.2124C49.8684 21.0856 50.5017 21.3244 50.9958 21.7559C51.4899 22.1873 51.8118 22.7824 51.9025 23.432C51.9026 23.4324 51.9026 23.4327 51.9027 23.4331L54.8956 45.4932ZM26.4468 9.33747V14.1548C26.42 14.6184 26.5743 15.0746 26.8775 15.4269C27.1847 15.7839 27.6201 16.0056 28.0895 16.0441L28.1099 16.0458H28.1303H48.784H48.8045L48.8249 16.0441C49.2943 16.0056 49.7297 15.7839 50.0369 15.4269C50.3401 15.0746 50.4943 14.6184 50.4675 14.1548V9.33746C50.4943 8.87388 50.3401 8.4177 50.0369 8.06535C49.7297 7.70835 49.2943 7.48664 48.8249 7.44819L48.8045 7.44652H48.784H28.1303H28.1099L28.0895 7.44819C27.6201 7.48664 27.1847 7.70835 26.8775 8.06535C26.5743 8.4177 26.42 8.87388 26.4468 9.33747ZM36.2267 16.9923H35.7267V17.4923V20.5822V21.0822H36.2267H40.6887H41.1887V20.5822V17.4923V16.9923H40.6887H36.2267ZM13.0356 23.5566L13.0354 23.5583L10.0778 45.3593L10.0008 45.9266H10.5732H53.4257H53.9981L53.9211 45.3593L50.9635 23.5583L50.9633 23.5566C50.9045 23.134 50.6952 22.7468 50.3738 22.4661C50.0524 22.1854 49.6405 22.0301 49.2139 22.0288H49.2123L14.7866 22.0288L14.785 22.0288C14.3583 22.0301 13.9464 22.1854 13.6251 22.4661C13.3037 22.7468 13.0944 23.134 13.0356 23.5566ZM56.5535 53.4807V53.4802V47.3725V46.8725H56.0535H7.94652H7.44652V47.3725L7.44652 53.4802L7.44652 53.4807C7.4474 54.2954 7.77142 55.0764 8.34749 55.6525C8.92355 56.2286 9.70461 56.5526 10.5193 56.5535H10.5198H53.4802H53.4807C54.2954 56.5526 55.0764 56.2286 55.6525 55.6525C56.2286 55.0764 56.5526 54.2954 56.5535 53.4807Z" stroke="#3FA949"/>
<path d="M54.8956 45.4932L54.9544 45.926H55.3911H57.0267C57.1523 45.926 57.2726 45.9759 57.3614 46.0646C57.4501 46.1534 57.5 46.2738 57.5 46.3993V53.4796C57.4987 54.5454 57.0747 55.5673 56.321 56.321C55.5673 57.0747 54.5454 57.4987 53.4796 57.5H10.5204C9.45447 57.4988 8.43256 57.0749 7.67884 56.3212C6.92519 55.5675 6.50125 54.5457 6.5 53.4799V46.3993C6.5 46.2738 6.54986 46.1534 6.63862 46.0646C6.72737 45.9759 6.84775 45.926 6.97326 45.926H8.6089H9.04565L9.10436 45.4932L12.0973 23.432C12.0974 23.4316 12.0974 23.4313 12.0974 23.431C12.1881 22.7814 12.5101 22.1862 13.0042 21.7548C13.4983 21.3233 14.1314 21.0846 14.7874 21.0822H34.2802H34.7802V20.5822V17.4923V16.9923H34.2802H28.1386C27.4186 16.9674 26.7374 16.6593 26.2432 16.1348C25.7473 15.6085 25.4801 14.9071 25.5001 14.1842L25.5003 14.1842V14.1704V9.32188H25.5005L25.5001 9.30804C25.4801 8.58516 25.7473 7.88379 26.2432 7.35746C26.7374 6.83298 27.4186 6.52489 28.1386 6.5H48.7758C49.4958 6.52489 50.1769 6.83298 50.6711 7.35746C51.1671 7.88379 51.4343 8.58516 51.4142 9.30804L51.4141 9.30804V9.32188V14.1704H51.4139L51.4142 14.1842C51.4343 14.9071 51.1671 15.6085 50.6711 16.1348C50.1769 16.6593 49.4957 16.9674 48.7757 16.9923H42.6347H42.1347V17.4923V20.5834V21.0834H42.6347H49.2124C49.8684 21.0856 50.5017 21.3244 50.9958 21.7559C51.4899 22.1873 51.8118 22.7824 51.9025 23.432C51.9026 23.4324 51.9026 23.4327 51.9027 23.4331L54.8956 45.4932ZM26.4468 9.33747V14.1548C26.42 14.6184 26.5743 15.0746 26.8775 15.4269C27.1847 15.7839 27.6201 16.0056 28.0895 16.0441L28.1099 16.0458H28.1303H48.784H48.8045L48.8249 16.0441C49.2943 16.0056 49.7297 15.7839 50.0369 15.4269C50.3401 15.0746 50.4943 14.6184 50.4675 14.1548V9.33746C50.4943 8.87388 50.3401 8.4177 50.0369 8.06535C49.7297 7.70835 49.2943 7.48664 48.8249 7.44819L48.8045 7.44652H48.784H28.1303H28.1099L28.0895 7.44819C27.6201 7.48664 27.1847 7.70835 26.8775 8.06535C26.5743 8.4177 26.42 8.87388 26.4468 9.33747ZM36.2267 16.9923H35.7267V17.4923V20.5822V21.0822H36.2267H40.6887H41.1887V20.5822V17.4923V16.9923H40.6887H36.2267ZM13.0356 23.5566L13.0354 23.5583L10.0778 45.3593L10.0008 45.9266H10.5732H53.4257H53.9981L53.9211 45.3593L50.9635 23.5583L50.9633 23.5566C50.9045 23.134 50.6952 22.7468 50.3738 22.4661C50.0524 22.1854 49.6405 22.0301 49.2139 22.0288H49.2123L14.7866 22.0288L14.785 22.0288C14.3583 22.0301 13.9464 22.1854 13.6251 22.4661C13.3037 22.7468 13.0944 23.134 13.0356 23.5566ZM56.5535 53.4807V53.4802V47.3725V46.8725H56.0535H7.94652H7.44652V47.3725L7.44652 53.4802L7.44652 53.4807C7.4474 54.2954 7.77142 55.0764 8.34749 55.6525C8.92355 56.2286 9.70461 56.5526 10.5193 56.5535H10.5198H53.4802H53.4807C54.2954 56.5526 55.0764 56.2286 55.6525 55.6525C56.2286 55.0764 56.5526 54.2954 56.5535 53.4807Z" stroke="#479B4E"/>
<path d="M54.8956 45.4932L54.9544 45.926H55.3911H57.0267C57.1523 45.926 57.2726 45.9759 57.3614 46.0646C57.4501 46.1534 57.5 46.2738 57.5 46.3993V53.4796C57.4987 54.5454 57.0747 55.5673 56.321 56.321C55.5673 57.0747 54.5454 57.4987 53.4796 57.5H10.5204C9.45447 57.4988 8.43256 57.0749 7.67884 56.3212C6.92519 55.5675 6.50125 54.5457 6.5 53.4799V46.3993C6.5 46.2738 6.54986 46.1534 6.63862 46.0646C6.72737 45.9759 6.84775 45.926 6.97326 45.926H8.6089H9.04565L9.10436 45.4932L12.0973 23.432C12.0974 23.4316 12.0974 23.4313 12.0974 23.431C12.1881 22.7814 12.5101 22.1862 13.0042 21.7548C13.4983 21.3233 14.1314 21.0846 14.7874 21.0822H34.2802H34.7802V20.5822V17.4923V16.9923H34.2802H28.1386C27.4186 16.9674 26.7374 16.6593 26.2432 16.1348C25.7473 15.6085 25.4801 14.9071 25.5001 14.1842L25.5003 14.1842V14.1704V9.32188H25.5005L25.5001 9.30804C25.4801 8.58516 25.7473 7.88379 26.2432 7.35746C26.7374 6.83298 27.4186 6.52489 28.1386 6.5H48.7758C49.4958 6.52489 50.1769 6.83298 50.6711 7.35746C51.1671 7.88379 51.4343 8.58516 51.4142 9.30804L51.4141 9.30804V9.32188V14.1704H51.4139L51.4142 14.1842C51.4343 14.9071 51.1671 15.6085 50.6711 16.1348C50.1769 16.6593 49.4957 16.9674 48.7757 16.9923H42.6347H42.1347V17.4923V20.5834V21.0834H42.6347H49.2124C49.8684 21.0856 50.5017 21.3244 50.9958 21.7559C51.4899 22.1873 51.8118 22.7824 51.9025 23.432C51.9026 23.4324 51.9026 23.4327 51.9027 23.4331L54.8956 45.4932ZM26.4468 9.33747V14.1548C26.42 14.6184 26.5743 15.0746 26.8775 15.4269C27.1847 15.7839 27.6201 16.0056 28.0895 16.0441L28.1099 16.0458H28.1303H48.784H48.8045L48.8249 16.0441C49.2943 16.0056 49.7297 15.7839 50.0369 15.4269C50.3401 15.0746 50.4943 14.6184 50.4675 14.1548V9.33746C50.4943 8.87388 50.3401 8.4177 50.0369 8.06535C49.7297 7.70835 49.2943 7.48664 48.8249 7.44819L48.8045 7.44652H48.784H28.1303H28.1099L28.0895 7.44819C27.6201 7.48664 27.1847 7.70835 26.8775 8.06535C26.5743 8.4177 26.42 8.87388 26.4468 9.33747ZM36.2267 16.9923H35.7267V17.4923V20.5822V21.0822H36.2267H40.6887H41.1887V20.5822V17.4923V16.9923H40.6887H36.2267ZM13.0356 23.5566L13.0354 23.5583L10.0778 45.3593L10.0008 45.9266H10.5732H53.4257H53.9981L53.9211 45.3593L50.9635 23.5583L50.9633 23.5566C50.9045 23.134 50.6952 22.7468 50.3738 22.4661C50.0524 22.1854 49.6405 22.0301 49.2139 22.0288H49.2123L14.7866 22.0288L14.785 22.0288C14.3583 22.0301 13.9464 22.1854 13.6251 22.4661C13.3037 22.7468 13.0944 23.134 13.0356 23.5566ZM56.5535 53.4807V53.4802V47.3725V46.8725H56.0535H7.94652H7.44652V47.3725L7.44652 53.4802L7.44652 53.4807C7.4474 54.2954 7.77142 55.0764 8.34749 55.6525C8.92355 56.2286 9.70461 56.5526 10.5193 56.5535H10.5198H53.4802H53.4807C54.2954 56.5526 55.0764 56.2286 55.6525 55.6525C56.2286 55.0764 56.5526 54.2954 56.5535 53.4807Z" stroke="#3BC76B"/>
<path d="M26.5737 29.6847H17.7865C17.1087 29.7262 16.4747 30.0336 16.0224 30.54C15.57 31.0465 15.336 31.7111 15.3711 32.3893V34.5193C15.3363 35.1978 15.5711 35.8627 16.0242 36.3689C16.4773 36.8752 17.1121 37.1819 17.7904 37.2222H26.5775C27.2558 37.1819 27.8906 36.8752 28.3437 36.3689C28.7969 35.8627 29.0316 35.1978 28.9968 34.5193V32.3893C29.0319 31.7098 28.7968 31.0441 28.3428 30.5374C27.8888 30.0307 27.2528 29.7242 26.5737 29.6847V29.6847ZM27.0464 34.5176C27.0464 34.9509 26.7967 35.274 26.5737 35.274H17.7865C17.564 35.274 17.3138 34.9509 17.3138 34.5176V32.3893C17.3138 31.9566 17.5635 31.6329 17.7865 31.6329H26.5737C26.7961 31.6329 27.0464 31.9566 27.0464 32.3893V34.5176Z" fill="#54A75C"/>
<path d="M26.5737 29.6847H17.7865C17.1087 29.7262 16.4747 30.0336 16.0224 30.54C15.57 31.0465 15.336 31.7111 15.3711 32.3893V34.5193C15.3363 35.1978 15.5711 35.8627 16.0242 36.3689C16.4773 36.8752 17.1121 37.1819 17.7904 37.2222H26.5775C27.2558 37.1819 27.8906 36.8752 28.3437 36.3689C28.7969 35.8627 29.0316 35.1978 28.9968 34.5193V32.3893C29.0319 31.7098 28.7968 31.0441 28.3428 30.5374C27.8888 30.0307 27.2528 29.7242 26.5737 29.6847V29.6847ZM27.0464 34.5176C27.0464 34.9509 26.7967 35.274 26.5737 35.274H17.7865C17.564 35.274 17.3138 34.9509 17.3138 34.5176V32.3893C17.3138 31.9566 17.5635 31.6329 17.7865 31.6329H26.5737C26.7961 31.6329 27.0464 31.9566 27.0464 32.3893V34.5176Z" fill="#3FA949"/>
<path d="M26.5737 29.6847H17.7865C17.1087 29.7262 16.4747 30.0336 16.0224 30.54C15.57 31.0465 15.336 31.7111 15.3711 32.3893V34.5193C15.3363 35.1978 15.5711 35.8627 16.0242 36.3689C16.4773 36.8752 17.1121 37.1819 17.7904 37.2222H26.5775C27.2558 37.1819 27.8906 36.8752 28.3437 36.3689C28.7969 35.8627 29.0316 35.1978 28.9968 34.5193V32.3893C29.0319 31.7098 28.7968 31.0441 28.3428 30.5374C27.8888 30.0307 27.2528 29.7242 26.5737 29.6847V29.6847ZM27.0464 34.5176C27.0464 34.9509 26.7967 35.274 26.5737 35.274H17.7865C17.564 35.274 17.3138 34.9509 17.3138 34.5176V32.3893C17.3138 31.9566 17.5635 31.6329 17.7865 31.6329H26.5737C26.7961 31.6329 27.0464 31.9566 27.0464 32.3893V34.5176Z" fill="#479B4E"/>
<path d="M26.5737 29.6847H17.7865C17.1087 29.7262 16.4747 30.0336 16.0224 30.54C15.57 31.0465 15.336 31.7111 15.3711 32.3893V34.5193C15.3363 35.1978 15.5711 35.8627 16.0242 36.3689C16.4773 36.8752 17.1121 37.1819 17.7904 37.2222H26.5775C27.2558 37.1819 27.8906 36.8752 28.3437 36.3689C28.7969 35.8627 29.0316 35.1978 28.9968 34.5193V32.3893C29.0319 31.7098 28.7968 31.0441 28.3428 30.5374C27.8888 30.0307 27.2528 29.7242 26.5737 29.6847V29.6847ZM27.0464 34.5176C27.0464 34.9509 26.7967 35.274 26.5737 35.274H17.7865C17.564 35.274 17.3138 34.9509 17.3138 34.5176V32.3893C17.3138 31.9566 17.5635 31.6329 17.7865 31.6329H26.5737C26.7961 31.6329 27.0464 31.9566 27.0464 32.3893V34.5176Z" fill="#3BC76B"/>
<path d="M35.7369 26.9719C35.419 26.9719 35.1083 27.0662 34.844 27.2428C34.5796 27.4194 34.3736 27.6704 34.252 27.9641C34.1303 28.2578 34.0985 28.581 34.1605 28.8928C34.2225 29.2045 34.3756 29.4909 34.6004 29.7157C34.8252 29.9405 35.1116 30.0936 35.4233 30.1556C35.7351 30.2176 36.0583 30.1858 36.352 30.0641C36.6457 29.9425 36.8967 29.7365 37.0733 29.4722C37.2499 29.2078 37.3442 28.8971 37.3442 28.5792C37.3442 28.3681 37.3027 28.1591 37.222 27.964C37.1412 27.769 37.0228 27.5918 36.8736 27.4425C36.7243 27.2933 36.5471 27.1749 36.3521 27.0941C36.157 27.0134 35.948 26.9719 35.7369 26.9719V26.9719Z" fill="#54A75C"/>
<path d="M35.7369 26.9719C35.419 26.9719 35.1083 27.0662 34.844 27.2428C34.5796 27.4194 34.3736 27.6704 34.252 27.9641C34.1303 28.2578 34.0985 28.581 34.1605 28.8928C34.2225 29.2045 34.3756 29.4909 34.6004 29.7157C34.8252 29.9405 35.1116 30.0936 35.4233 30.1556C35.7351 30.2176 36.0583 30.1858 36.352 30.0641C36.6457 29.9425 36.8967 29.7365 37.0733 29.4722C37.2499 29.2078 37.3442 28.8971 37.3442 28.5792C37.3442 28.3681 37.3027 28.1591 37.222 27.964C37.1412 27.769 37.0228 27.5918 36.8736 27.4425C36.7243 27.2933 36.5471 27.1749 36.3521 27.0941C36.157 27.0134 35.948 26.9719 35.7369 26.9719V26.9719Z" fill="#3FA949"/>
<path d="M35.7369 26.9719C35.419 26.9719 35.1083 27.0662 34.844 27.2428C34.5796 27.4194 34.3736 27.6704 34.252 27.9641C34.1303 28.2578 34.0985 28.581 34.1605 28.8928C34.2225 29.2045 34.3756 29.4909 34.6004 29.7157C34.8252 29.9405 35.1116 30.0936 35.4233 30.1556C35.7351 30.2176 36.0583 30.1858 36.352 30.0641C36.6457 29.9425 36.8967 29.7365 37.0733 29.4722C37.2499 29.2078 37.3442 28.8971 37.3442 28.5792C37.3442 28.3681 37.3027 28.1591 37.222 27.964C37.1412 27.769 37.0228 27.5918 36.8736 27.4425C36.7243 27.2933 36.5471 27.1749 36.3521 27.0941C36.157 27.0134 35.948 26.9719 35.7369 26.9719V26.9719Z" fill="#479B4E"/>
<path d="M35.7369 26.9719C35.419 26.9719 35.1083 27.0662 34.844 27.2428C34.5796 27.4194 34.3736 27.6704 34.252 27.9641C34.1303 28.2578 34.0985 28.581 34.1605 28.8928C34.2225 29.2045 34.3756 29.4909 34.6004 29.7157C34.8252 29.9405 35.1116 30.0936 35.4233 30.1556C35.7351 30.2176 36.0583 30.1858 36.352 30.0641C36.6457 29.9425 36.8967 29.7365 37.0733 29.4722C37.2499 29.2078 37.3442 28.8971 37.3442 28.5792C37.3442 28.3681 37.3027 28.1591 37.222 27.964C37.1412 27.769 37.0228 27.5918 36.8736 27.4425C36.7243 27.2933 36.5471 27.1749 36.3521 27.0941C36.157 27.0134 35.948 26.9719 35.7369 26.9719V26.9719Z" fill="#3BC76B"/>
<path d="M40.9767 26.9719C40.6588 26.9718 40.348 27.066 40.0836 27.2425C39.8192 27.4191 39.6131 27.6701 39.4914 27.9637C39.3697 28.2574 39.3378 28.5806 39.3997 28.8924C39.4617 29.2042 39.6147 29.4907 39.8395 29.7155C40.0642 29.9403 40.3506 30.0935 40.6624 30.1555C40.9742 30.2176 41.2974 30.1858 41.5911 30.0642C41.8848 29.9425 42.1359 29.7365 42.3125 29.4722C42.4892 29.2079 42.5834 28.8971 42.5834 28.5792C42.5835 28.3682 42.542 28.1592 42.4613 27.9642C42.3806 27.7692 42.2622 27.592 42.113 27.4427C41.9638 27.2935 41.7867 27.1751 41.5917 27.0943C41.3967 27.0135 41.1878 26.9719 40.9767 26.9719Z" fill="#54A75C"/>
<path d="M40.9767 26.9719C40.6588 26.9718 40.348 27.066 40.0836 27.2425C39.8192 27.4191 39.6131 27.6701 39.4914 27.9637C39.3697 28.2574 39.3378 28.5806 39.3997 28.8924C39.4617 29.2042 39.6147 29.4907 39.8395 29.7155C40.0642 29.9403 40.3506 30.0935 40.6624 30.1555C40.9742 30.2176 41.2974 30.1858 41.5911 30.0642C41.8848 29.9425 42.1359 29.7365 42.3125 29.4722C42.4892 29.2079 42.5834 28.8971 42.5834 28.5792C42.5835 28.3682 42.542 28.1592 42.4613 27.9642C42.3806 27.7692 42.2622 27.592 42.113 27.4427C41.9638 27.2935 41.7867 27.1751 41.5917 27.0943C41.3967 27.0135 41.1878 26.9719 40.9767 26.9719Z" fill="#3FA949"/>
<path d="M40.9767 26.9719C40.6588 26.9718 40.348 27.066 40.0836 27.2425C39.8192 27.4191 39.6131 27.6701 39.4914 27.9637C39.3697 28.2574 39.3378 28.5806 39.3997 28.8924C39.4617 29.2042 39.6147 29.4907 39.8395 29.7155C40.0642 29.9403 40.3506 30.0935 40.6624 30.1555C40.9742 30.2176 41.2974 30.1858 41.5911 30.0642C41.8848 29.9425 42.1359 29.7365 42.3125 29.4722C42.4892 29.2079 42.5834 28.8971 42.5834 28.5792C42.5835 28.3682 42.542 28.1592 42.4613 27.9642C42.3806 27.7692 42.2622 27.592 42.113 27.4427C41.9638 27.2935 41.7867 27.1751 41.5917 27.0943C41.3967 27.0135 41.1878 26.9719 40.9767 26.9719Z" fill="#479B4E"/>
<path d="M40.9767 26.9719C40.6588 26.9718 40.348 27.066 40.0836 27.2425C39.8192 27.4191 39.6131 27.6701 39.4914 27.9637C39.3697 28.2574 39.3378 28.5806 39.3997 28.8924C39.4617 29.2042 39.6147 29.4907 39.8395 29.7155C40.0642 29.9403 40.3506 30.0935 40.6624 30.1555C40.9742 30.2176 41.2974 30.1858 41.5911 30.0642C41.8848 29.9425 42.1359 29.7365 42.3125 29.4722C42.4892 29.2079 42.5834 28.8971 42.5834 28.5792C42.5835 28.3682 42.542 28.1592 42.4613 27.9642C42.3806 27.7692 42.2622 27.592 42.113 27.4427C41.9638 27.2935 41.7867 27.1751 41.5917 27.0943C41.3967 27.0135 41.1878 26.9719 40.9767 26.9719Z" fill="#3BC76B"/>
<path d="M46.2167 26.9719C45.8988 26.9718 45.588 27.066 45.3236 27.2425C45.0592 27.4191 44.8531 27.6701 44.7314 27.9637C44.6097 28.2574 44.5777 28.5806 44.6397 28.8924C44.7017 29.2042 44.8547 29.4907 45.0794 29.7155C45.3042 29.9403 45.5906 30.0935 45.9024 30.1555C46.2142 30.2176 46.5374 30.1858 46.8311 30.0642C47.1248 29.9425 47.3759 29.7365 47.5525 29.4722C47.7291 29.2079 47.8234 28.8971 47.8234 28.5792C47.8234 28.153 47.6542 27.7443 47.3529 27.4429C47.0516 27.1415 46.6429 26.9721 46.2167 26.9719V26.9719Z" fill="#54A75C"/>
<path d="M46.2167 26.9719C45.8988 26.9718 45.588 27.066 45.3236 27.2425C45.0592 27.4191 44.8531 27.6701 44.7314 27.9637C44.6097 28.2574 44.5777 28.5806 44.6397 28.8924C44.7017 29.2042 44.8547 29.4907 45.0794 29.7155C45.3042 29.9403 45.5906 30.0935 45.9024 30.1555C46.2142 30.2176 46.5374 30.1858 46.8311 30.0642C47.1248 29.9425 47.3759 29.7365 47.5525 29.4722C47.7291 29.2079 47.8234 28.8971 47.8234 28.5792C47.8234 28.153 47.6542 27.7443 47.3529 27.4429C47.0516 27.1415 46.6429 26.9721 46.2167 26.9719V26.9719Z" fill="#3FA949"/>
<path d="M46.2167 26.9719C45.8988 26.9718 45.588 27.066 45.3236 27.2425C45.0592 27.4191 44.8531 27.6701 44.7314 27.9637C44.6097 28.2574 44.5777 28.5806 44.6397 28.8924C44.7017 29.2042 44.8547 29.4907 45.0794 29.7155C45.3042 29.9403 45.5906 30.0935 45.9024 30.1555C46.2142 30.2176 46.5374 30.1858 46.8311 30.0642C47.1248 29.9425 47.3759 29.7365 47.5525 29.4722C47.7291 29.2079 47.8234 28.8971 47.8234 28.5792C47.8234 28.153 47.6542 27.7443 47.3529 27.4429C47.0516 27.1415 46.6429 26.9721 46.2167 26.9719V26.9719Z" fill="#479B4E"/>
<path d="M46.2167 26.9719C45.8988 26.9718 45.588 27.066 45.3236 27.2425C45.0592 27.4191 44.8531 27.6701 44.7314 27.9637C44.6097 28.2574 44.5777 28.5806 44.6397 28.8924C44.7017 29.2042 44.8547 29.4907 45.0794 29.7155C45.3042 29.9403 45.5906 30.0935 45.9024 30.1555C46.2142 30.2176 46.5374 30.1858 46.8311 30.0642C47.1248 29.9425 47.3759 29.7365 47.5525 29.4722C47.7291 29.2079 47.8234 28.8971 47.8234 28.5792C47.8234 28.153 47.6542 27.7443 47.3529 27.4429C47.0516 27.1415 46.6429 26.9721 46.2167 26.9719V26.9719Z" fill="#3BC76B"/>
<path d="M35.7367 32.3704C35.4188 32.3704 35.108 32.4646 34.8437 32.6413C34.5793 32.8179 34.3733 33.069 34.2517 33.3627C34.1301 33.6564 34.0983 33.9796 34.1603 34.2914C34.2224 34.6032 34.3755 34.8896 34.6004 35.1143C34.8252 35.3391 35.1116 35.4921 35.4235 35.5541C35.7353 35.616 36.0585 35.5841 36.3521 35.4624C36.6458 35.3407 36.8968 35.1346 37.0734 34.8702C37.2499 34.6058 37.3441 34.295 37.344 33.9771C37.344 33.766 37.3024 33.5571 37.2216 33.3621C37.1408 33.1671 37.0224 32.99 36.8732 32.8408C36.7239 32.6916 36.5467 32.5732 36.3517 32.4925C36.1567 32.4118 35.9477 32.3703 35.7367 32.3704V32.3704Z" fill="#54A75C"/>
<path d="M35.7367 32.3704C35.4188 32.3704 35.108 32.4646 34.8437 32.6413C34.5793 32.8179 34.3733 33.069 34.2517 33.3627C34.1301 33.6564 34.0983 33.9796 34.1603 34.2914C34.2224 34.6032 34.3755 34.8896 34.6004 35.1143C34.8252 35.3391 35.1116 35.4921 35.4235 35.5541C35.7353 35.616 36.0585 35.5841 36.3521 35.4624C36.6458 35.3407 36.8968 35.1346 37.0734 34.8702C37.2499 34.6058 37.3441 34.295 37.344 33.9771C37.344 33.766 37.3024 33.5571 37.2216 33.3621C37.1408 33.1671 37.0224 32.99 36.8732 32.8408C36.7239 32.6916 36.5467 32.5732 36.3517 32.4925C36.1567 32.4118 35.9477 32.3703 35.7367 32.3704V32.3704Z" fill="#3FA949"/>
<path d="M35.7367 32.3704C35.4188 32.3704 35.108 32.4646 34.8437 32.6413C34.5793 32.8179 34.3733 33.069 34.2517 33.3627C34.1301 33.6564 34.0983 33.9796 34.1603 34.2914C34.2224 34.6032 34.3755 34.8896 34.6004 35.1143C34.8252 35.3391 35.1116 35.4921 35.4235 35.5541C35.7353 35.616 36.0585 35.5841 36.3521 35.4624C36.6458 35.3407 36.8968 35.1346 37.0734 34.8702C37.2499 34.6058 37.3441 34.295 37.344 33.9771C37.344 33.766 37.3024 33.5571 37.2216 33.3621C37.1408 33.1671 37.0224 32.99 36.8732 32.8408C36.7239 32.6916 36.5467 32.5732 36.3517 32.4925C36.1567 32.4118 35.9477 32.3703 35.7367 32.3704V32.3704Z" fill="#479B4E"/>
<path d="M35.7367 32.3704C35.4188 32.3704 35.108 32.4646 34.8437 32.6413C34.5793 32.8179 34.3733 33.069 34.2517 33.3627C34.1301 33.6564 34.0983 33.9796 34.1603 34.2914C34.2224 34.6032 34.3755 34.8896 34.6004 35.1143C34.8252 35.3391 35.1116 35.4921 35.4235 35.5541C35.7353 35.616 36.0585 35.5841 36.3521 35.4624C36.6458 35.3407 36.8968 35.1346 37.0734 34.8702C37.2499 34.6058 37.3441 34.295 37.344 33.9771C37.344 33.766 37.3024 33.5571 37.2216 33.3621C37.1408 33.1671 37.0224 32.99 36.8732 32.8408C36.7239 32.6916 36.5467 32.5732 36.3517 32.4925C36.1567 32.4118 35.9477 32.3703 35.7367 32.3704V32.3704Z" fill="#3BC76B"/>
<path d="M40.9767 32.3704C40.6588 32.3703 40.348 32.4644 40.0836 32.641C39.8192 32.8176 39.6131 33.0686 39.4913 33.3623C39.3696 33.656 39.3378 33.9792 39.3998 34.2911C39.4618 34.6029 39.6148 34.8893 39.8397 35.1142C40.0645 35.339 40.3509 35.4921 40.6627 35.5541C40.9746 35.6161 41.2978 35.5842 41.5915 35.4625C41.8852 35.3407 42.1362 35.1346 42.3128 34.8702C42.4894 34.6058 42.5836 34.295 42.5835 33.9771C42.5835 33.551 42.4142 33.1423 42.1129 32.841C41.8115 32.5396 41.4029 32.3704 40.9767 32.3704V32.3704Z" fill="#54A75C"/>
<path d="M40.9767 32.3704C40.6588 32.3703 40.348 32.4644 40.0836 32.641C39.8192 32.8176 39.6131 33.0686 39.4913 33.3623C39.3696 33.656 39.3378 33.9792 39.3998 34.2911C39.4618 34.6029 39.6148 34.8893 39.8397 35.1142C40.0645 35.339 40.3509 35.4921 40.6627 35.5541C40.9746 35.6161 41.2978 35.5842 41.5915 35.4625C41.8852 35.3407 42.1362 35.1346 42.3128 34.8702C42.4894 34.6058 42.5836 34.295 42.5835 33.9771C42.5835 33.551 42.4142 33.1423 42.1129 32.841C41.8115 32.5396 41.4029 32.3704 40.9767 32.3704V32.3704Z" fill="#3FA949"/>
<path d="M40.9767 32.3704C40.6588 32.3703 40.348 32.4644 40.0836 32.641C39.8192 32.8176 39.6131 33.0686 39.4913 33.3623C39.3696 33.656 39.3378 33.9792 39.3998 34.2911C39.4618 34.6029 39.6148 34.8893 39.8397 35.1142C40.0645 35.339 40.3509 35.4921 40.6627 35.5541C40.9746 35.6161 41.2978 35.5842 41.5915 35.4625C41.8852 35.3407 42.1362 35.1346 42.3128 34.8702C42.4894 34.6058 42.5836 34.295 42.5835 33.9771C42.5835 33.551 42.4142 33.1423 42.1129 32.841C41.8115 32.5396 41.4029 32.3704 40.9767 32.3704V32.3704Z" fill="#479B4E"/>
<path d="M40.9767 32.3704C40.6588 32.3703 40.348 32.4644 40.0836 32.641C39.8192 32.8176 39.6131 33.0686 39.4913 33.3623C39.3696 33.656 39.3378 33.9792 39.3998 34.2911C39.4618 34.6029 39.6148 34.8893 39.8397 35.1142C40.0645 35.339 40.3509 35.4921 40.6627 35.5541C40.9746 35.6161 41.2978 35.5842 41.5915 35.4625C41.8852 35.3407 42.1362 35.1346 42.3128 34.8702C42.4894 34.6058 42.5836 34.295 42.5835 33.9771C42.5835 33.551 42.4142 33.1423 42.1129 32.841C41.8115 32.5396 41.4029 32.3704 40.9767 32.3704V32.3704Z" fill="#3BC76B"/>
<path d="M46.217 32.3704C45.899 32.3703 45.5882 32.4644 45.3238 32.641C45.0594 32.8176 44.8533 33.0686 44.7316 33.3623C44.6099 33.656 44.578 33.9792 44.64 34.2911C44.702 34.6029 44.8551 34.8893 45.0799 35.1142C45.3047 35.339 45.5911 35.4921 45.903 35.5541C46.2148 35.6161 46.538 35.5842 46.8317 35.4625C47.1255 35.3407 47.3765 35.1346 47.553 34.8702C47.7296 34.6058 47.8238 34.295 47.8237 33.9771C47.8235 33.551 47.6542 33.1424 47.3529 32.8411C47.0516 32.5398 46.643 32.3705 46.217 32.3704V32.3704Z" fill="#54A75C"/>
<path d="M46.217 32.3704C45.899 32.3703 45.5882 32.4644 45.3238 32.641C45.0594 32.8176 44.8533 33.0686 44.7316 33.3623C44.6099 33.656 44.578 33.9792 44.64 34.2911C44.702 34.6029 44.8551 34.8893 45.0799 35.1142C45.3047 35.339 45.5911 35.4921 45.903 35.5541C46.2148 35.6161 46.538 35.5842 46.8317 35.4625C47.1255 35.3407 47.3765 35.1346 47.553 34.8702C47.7296 34.6058 47.8238 34.295 47.8237 33.9771C47.8235 33.551 47.6542 33.1424 47.3529 32.8411C47.0516 32.5398 46.643 32.3705 46.217 32.3704V32.3704Z" fill="#3FA949"/>
<path d="M46.217 32.3704C45.899 32.3703 45.5882 32.4644 45.3238 32.641C45.0594 32.8176 44.8533 33.0686 44.7316 33.3623C44.6099 33.656 44.578 33.9792 44.64 34.2911C44.702 34.6029 44.8551 34.8893 45.0799 35.1142C45.3047 35.339 45.5911 35.4921 45.903 35.5541C46.2148 35.6161 46.538 35.5842 46.8317 35.4625C47.1255 35.3407 47.3765 35.1346 47.553 34.8702C47.7296 34.6058 47.8238 34.295 47.8237 33.9771C47.8235 33.551 47.6542 33.1424 47.3529 32.8411C47.0516 32.5398 46.643 32.3705 46.217 32.3704V32.3704Z" fill="#479B4E"/>
<path d="M46.217 32.3704C45.899 32.3703 45.5882 32.4644 45.3238 32.641C45.0594 32.8176 44.8533 33.0686 44.7316 33.3623C44.6099 33.656 44.578 33.9792 44.64 34.2911C44.702 34.6029 44.8551 34.8893 45.0799 35.1142C45.3047 35.339 45.5911 35.4921 45.903 35.5541C46.2148 35.6161 46.538 35.5842 46.8317 35.4625C47.1255 35.3407 47.3765 35.1346 47.553 34.8702C47.7296 34.6058 47.8238 34.295 47.8237 33.9771C47.8235 33.551 47.6542 33.1424 47.3529 32.8411C47.0516 32.5398 46.643 32.3705 46.217 32.3704V32.3704Z" fill="#3BC76B"/>
<path d="M35.7369 37.7683C35.419 37.7683 35.1083 37.8626 34.844 38.0392C34.5796 38.2158 34.3736 38.4668 34.252 38.7605C34.1303 39.0542 34.0985 39.3774 34.1605 39.6891C34.2225 40.0009 34.3756 40.2873 34.6004 40.5121C34.8252 40.7369 35.1116 40.8899 35.4233 40.952C35.7351 41.014 36.0583 40.9822 36.352 40.8605C36.6457 40.7389 36.8967 40.5328 37.0733 40.2685C37.2499 40.0042 37.3442 39.6935 37.3442 39.3756C37.3442 39.1645 37.3027 38.9555 37.222 38.7604C37.1412 38.5654 37.0228 38.3882 36.8736 38.2389C36.7243 38.0896 36.5471 37.9713 36.3521 37.8905C36.157 37.8098 35.948 37.7682 35.7369 37.7683V37.7683Z" fill="#54A75C"/>
<path d="M35.7369 37.7683C35.419 37.7683 35.1083 37.8626 34.844 38.0392C34.5796 38.2158 34.3736 38.4668 34.252 38.7605C34.1303 39.0542 34.0985 39.3774 34.1605 39.6891C34.2225 40.0009 34.3756 40.2873 34.6004 40.5121C34.8252 40.7369 35.1116 40.8899 35.4233 40.952C35.7351 41.014 36.0583 40.9822 36.352 40.8605C36.6457 40.7389 36.8967 40.5328 37.0733 40.2685C37.2499 40.0042 37.3442 39.6935 37.3442 39.3756C37.3442 39.1645 37.3027 38.9555 37.222 38.7604C37.1412 38.5654 37.0228 38.3882 36.8736 38.2389C36.7243 38.0896 36.5471 37.9713 36.3521 37.8905C36.157 37.8098 35.948 37.7682 35.7369 37.7683V37.7683Z" fill="#3FA949"/>
<path d="M35.7369 37.7683C35.419 37.7683 35.1083 37.8626 34.844 38.0392C34.5796 38.2158 34.3736 38.4668 34.252 38.7605C34.1303 39.0542 34.0985 39.3774 34.1605 39.6891C34.2225 40.0009 34.3756 40.2873 34.6004 40.5121C34.8252 40.7369 35.1116 40.8899 35.4233 40.952C35.7351 41.014 36.0583 40.9822 36.352 40.8605C36.6457 40.7389 36.8967 40.5328 37.0733 40.2685C37.2499 40.0042 37.3442 39.6935 37.3442 39.3756C37.3442 39.1645 37.3027 38.9555 37.222 38.7604C37.1412 38.5654 37.0228 38.3882 36.8736 38.2389C36.7243 38.0896 36.5471 37.9713 36.3521 37.8905C36.157 37.8098 35.948 37.7682 35.7369 37.7683V37.7683Z" fill="#479B4E"/>
<path d="M35.7369 37.7683C35.419 37.7683 35.1083 37.8626 34.844 38.0392C34.5796 38.2158 34.3736 38.4668 34.252 38.7605C34.1303 39.0542 34.0985 39.3774 34.1605 39.6891C34.2225 40.0009 34.3756 40.2873 34.6004 40.5121C34.8252 40.7369 35.1116 40.8899 35.4233 40.952C35.7351 41.014 36.0583 40.9822 36.352 40.8605C36.6457 40.7389 36.8967 40.5328 37.0733 40.2685C37.2499 40.0042 37.3442 39.6935 37.3442 39.3756C37.3442 39.1645 37.3027 38.9555 37.222 38.7604C37.1412 38.5654 37.0228 38.3882 36.8736 38.2389C36.7243 38.0896 36.5471 37.9713 36.3521 37.8905C36.157 37.8098 35.948 37.7682 35.7369 37.7683V37.7683Z" fill="#3BC76B"/>
<path d="M40.9767 37.7683C40.6588 37.7682 40.348 37.8624 40.0836 38.0389C39.8192 38.2155 39.6131 38.4664 39.4914 38.7601C39.3697 39.0538 39.3378 39.377 39.3997 39.6888C39.4617 40.0006 39.6147 40.2871 39.8395 40.5119C40.0642 40.7367 40.3506 40.8899 40.6624 40.9519C40.9742 41.014 41.2974 40.9822 41.5911 40.8606C41.8848 40.7389 42.1359 40.5329 42.3125 40.2686C42.4892 40.0043 42.5834 39.6935 42.5834 39.3756C42.5835 39.1645 42.542 38.9556 42.4613 38.7606C42.3806 38.5655 42.2622 38.3884 42.113 38.2391C41.9638 38.0898 41.7867 37.9714 41.5917 37.8907C41.3967 37.8099 41.1878 37.7683 40.9767 37.7683V37.7683Z" fill="#54A75C"/>
<path d="M40.9767 37.7683C40.6588 37.7682 40.348 37.8624 40.0836 38.0389C39.8192 38.2155 39.6131 38.4664 39.4914 38.7601C39.3697 39.0538 39.3378 39.377 39.3997 39.6888C39.4617 40.0006 39.6147 40.2871 39.8395 40.5119C40.0642 40.7367 40.3506 40.8899 40.6624 40.9519C40.9742 41.014 41.2974 40.9822 41.5911 40.8606C41.8848 40.7389 42.1359 40.5329 42.3125 40.2686C42.4892 40.0043 42.5834 39.6935 42.5834 39.3756C42.5835 39.1645 42.542 38.9556 42.4613 38.7606C42.3806 38.5655 42.2622 38.3884 42.113 38.2391C41.9638 38.0898 41.7867 37.9714 41.5917 37.8907C41.3967 37.8099 41.1878 37.7683 40.9767 37.7683V37.7683Z" fill="#3FA949"/>
<path d="M40.9767 37.7683C40.6588 37.7682 40.348 37.8624 40.0836 38.0389C39.8192 38.2155 39.6131 38.4664 39.4914 38.7601C39.3697 39.0538 39.3378 39.377 39.3997 39.6888C39.4617 40.0006 39.6147 40.2871 39.8395 40.5119C40.0642 40.7367 40.3506 40.8899 40.6624 40.9519C40.9742 41.014 41.2974 40.9822 41.5911 40.8606C41.8848 40.7389 42.1359 40.5329 42.3125 40.2686C42.4892 40.0043 42.5834 39.6935 42.5834 39.3756C42.5835 39.1645 42.542 38.9556 42.4613 38.7606C42.3806 38.5655 42.2622 38.3884 42.113 38.2391C41.9638 38.0898 41.7867 37.9714 41.5917 37.8907C41.3967 37.8099 41.1878 37.7683 40.9767 37.7683V37.7683Z" fill="#479B4E"/>
<path d="M40.9767 37.7683C40.6588 37.7682 40.348 37.8624 40.0836 38.0389C39.8192 38.2155 39.6131 38.4664 39.4914 38.7601C39.3697 39.0538 39.3378 39.377 39.3997 39.6888C39.4617 40.0006 39.6147 40.2871 39.8395 40.5119C40.0642 40.7367 40.3506 40.8899 40.6624 40.9519C40.9742 41.014 41.2974 40.9822 41.5911 40.8606C41.8848 40.7389 42.1359 40.5329 42.3125 40.2686C42.4892 40.0043 42.5834 39.6935 42.5834 39.3756C42.5835 39.1645 42.542 38.9556 42.4613 38.7606C42.3806 38.5655 42.2622 38.3884 42.113 38.2391C41.9638 38.0898 41.7867 37.9714 41.5917 37.8907C41.3967 37.8099 41.1878 37.7683 40.9767 37.7683V37.7683Z" fill="#3BC76B"/>
<path d="M46.2167 37.7683C45.8988 37.7682 45.588 37.8624 45.3236 38.0389C45.0592 38.2155 44.8531 38.4664 44.7314 38.7601C44.6097 39.0538 44.5777 39.377 44.6397 39.6888C44.7017 40.0006 44.8547 40.2871 45.0794 40.5119C45.3042 40.7367 45.5906 40.8899 45.9024 40.9519C46.2142 41.014 46.5374 40.9822 46.8311 40.8606C47.1248 40.7389 47.3759 40.5329 47.5525 40.2686C47.7291 40.0043 47.8234 39.6935 47.8234 39.3756C47.8234 38.9494 47.6542 38.5407 47.3529 38.2393C47.0516 37.9379 46.6429 37.7685 46.2167 37.7683V37.7683Z" fill="#54A75C"/>
<path d="M46.2167 37.7683C45.8988 37.7682 45.588 37.8624 45.3236 38.0389C45.0592 38.2155 44.8531 38.4664 44.7314 38.7601C44.6097 39.0538 44.5777 39.377 44.6397 39.6888C44.7017 40.0006 44.8547 40.2871 45.0794 40.5119C45.3042 40.7367 45.5906 40.8899 45.9024 40.9519C46.2142 41.014 46.5374 40.9822 46.8311 40.8606C47.1248 40.7389 47.3759 40.5329 47.5525 40.2686C47.7291 40.0043 47.8234 39.6935 47.8234 39.3756C47.8234 38.9494 47.6542 38.5407 47.3529 38.2393C47.0516 37.9379 46.6429 37.7685 46.2167 37.7683V37.7683Z" fill="#3FA949"/>
<path d="M46.2167 37.7683C45.8988 37.7682 45.588 37.8624 45.3236 38.0389C45.0592 38.2155 44.8531 38.4664 44.7314 38.7601C44.6097 39.0538 44.5777 39.377 44.6397 39.6888C44.7017 40.0006 44.8547 40.2871 45.0794 40.5119C45.3042 40.7367 45.5906 40.8899 45.9024 40.9519C46.2142 41.014 46.5374 40.9822 46.8311 40.8606C47.1248 40.7389 47.3759 40.5329 47.5525 40.2686C47.7291 40.0043 47.8234 39.6935 47.8234 39.3756C47.8234 38.9494 47.6542 38.5407 47.3529 38.2393C47.0516 37.9379 46.6429 37.7685 46.2167 37.7683V37.7683Z" fill="#479B4E"/>
<path d="M46.2167 37.7683C45.8988 37.7682 45.588 37.8624 45.3236 38.0389C45.0592 38.2155 44.8531 38.4664 44.7314 38.7601C44.6097 39.0538 44.5777 39.377 44.6397 39.6888C44.7017 40.0006 44.8547 40.2871 45.0794 40.5119C45.3042 40.7367 45.5906 40.8899 45.9024 40.9519C46.2142 41.014 46.5374 40.9822 46.8311 40.8606C47.1248 40.7389 47.3759 40.5329 47.5525 40.2686C47.7291 40.0043 47.8234 39.6935 47.8234 39.3756C47.8234 38.9494 47.6542 38.5407 47.3529 38.2393C47.0516 37.9379 46.6429 37.7685 46.2167 37.7683V37.7683Z" fill="#3BC76B"/>
<path d="M26.5226 39.5375H17.84C17.5818 39.5375 17.3343 39.64 17.1518 39.8225C16.9692 40.0051 16.8667 40.2526 16.8667 40.5107C16.8667 40.7689 16.9692 41.0164 17.1518 41.1989C17.3343 41.3815 17.5818 41.484 17.84 41.484H26.5226C26.7807 41.484 27.0282 41.3815 27.2108 41.1989C27.3933 41.0164 27.4958 40.7689 27.4958 40.5107C27.4958 40.2526 27.3933 40.0051 27.2108 39.8225C27.0282 39.64 26.7807 39.5375 26.5226 39.5375V39.5375Z" fill="#54A75C"/>
<path d="M26.5226 39.5375H17.84C17.5818 39.5375 17.3343 39.64 17.1518 39.8225C16.9692 40.0051 16.8667 40.2526 16.8667 40.5107C16.8667 40.7689 16.9692 41.0164 17.1518 41.1989C17.3343 41.3815 17.5818 41.484 17.84 41.484H26.5226C26.7807 41.484 27.0282 41.3815 27.2108 41.1989C27.3933 41.0164 27.4958 40.7689 27.4958 40.5107C27.4958 40.2526 27.3933 40.0051 27.2108 39.8225C27.0282 39.64 26.7807 39.5375 26.5226 39.5375V39.5375Z" fill="#3FA949"/>
<path d="M26.5226 39.5375H17.84C17.5818 39.5375 17.3343 39.64 17.1518 39.8225C16.9692 40.0051 16.8667 40.2526 16.8667 40.5107C16.8667 40.7689 16.9692 41.0164 17.1518 41.1989C17.3343 41.3815 17.5818 41.484 17.84 41.484H26.5226C26.7807 41.484 27.0282 41.3815 27.2108 41.1989C27.3933 41.0164 27.4958 40.7689 27.4958 40.5107C27.4958 40.2526 27.3933 40.0051 27.2108 39.8225C27.0282 39.64 26.7807 39.5375 26.5226 39.5375V39.5375Z" fill="#479B4E"/>
<path d="M26.5226 39.5375H17.84C17.5818 39.5375 17.3343 39.64 17.1518 39.8225C16.9692 40.0051 16.8667 40.2526 16.8667 40.5107C16.8667 40.7689 16.9692 41.0164 17.1518 41.1989C17.3343 41.3815 17.5818 41.484 17.84 41.484H26.5226C26.7807 41.484 27.0282 41.3815 27.2108 41.1989C27.3933 41.0164 27.4958 40.7689 27.4958 40.5107C27.4958 40.2526 27.3933 40.0051 27.2108 39.8225C27.0282 39.64 26.7807 39.5375 26.5226 39.5375V39.5375Z" fill="#3BC76B"/>
<path d="M13.0592 52.6887H50.9408C51.1989 52.6887 51.4465 52.5862 51.629 52.4037C51.8115 52.2211 51.914 51.9736 51.914 51.7154C51.914 51.4573 51.8115 51.2098 51.629 51.0273C51.4465 50.8447 51.1989 50.7422 50.9408 50.7422H13.0592C12.8011 50.7422 12.5535 50.8447 12.371 51.0273C12.1885 51.2098 12.0859 51.4573 12.0859 51.7154C12.0859 51.9736 12.1885 52.2211 12.371 52.4037C12.5535 52.5862 12.8011 52.6887 13.0592 52.6887V52.6887Z" fill="#54A75C"/>
<path d="M13.0592 52.6887H50.9408C51.1989 52.6887 51.4465 52.5862 51.629 52.4037C51.8115 52.2211 51.914 51.9736 51.914 51.7154C51.914 51.4573 51.8115 51.2098 51.629 51.0273C51.4465 50.8447 51.1989 50.7422 50.9408 50.7422H13.0592C12.8011 50.7422 12.5535 50.8447 12.371 51.0273C12.1885 51.2098 12.0859 51.4573 12.0859 51.7154C12.0859 51.9736 12.1885 52.2211 12.371 52.4037C12.5535 52.5862 12.8011 52.6887 13.0592 52.6887V52.6887Z" fill="#3FA949"/>
<path d="M13.0592 52.6887H50.9408C51.1989 52.6887 51.4465 52.5862 51.629 52.4037C51.8115 52.2211 51.914 51.9736 51.914 51.7154C51.914 51.4573 51.8115 51.2098 51.629 51.0273C51.4465 50.8447 51.1989 50.7422 50.9408 50.7422H13.0592C12.8011 50.7422 12.5535 50.8447 12.371 51.0273C12.1885 51.2098 12.0859 51.4573 12.0859 51.7154C12.0859 51.9736 12.1885 52.2211 12.371 52.4037C12.5535 52.5862 12.8011 52.6887 13.0592 52.6887V52.6887Z" fill="#479B4E"/>
<path d="M13.0592 52.6887H50.9408C51.1989 52.6887 51.4465 52.5862 51.629 52.4037C51.8115 52.2211 51.914 51.9736 51.914 51.7154C51.914 51.4573 51.8115 51.2098 51.629 51.0273C51.4465 50.8447 51.1989 50.7422 50.9408 50.7422H13.0592C12.8011 50.7422 12.5535 50.8447 12.371 51.0273C12.1885 51.2098 12.0859 51.4573 12.0859 51.7154C12.0859 51.9736 12.1885 52.2211 12.371 52.4037C12.5535 52.5862 12.8011 52.6887 13.0592 52.6887V52.6887Z" fill="#3BC76B"/>
</svg>
