<svg width="20" height="20" viewBox="0 0 20 20" fill="none" xmlns="http://www.w3.org/2000/svg">
<path fill-rule="evenodd" clip-rule="evenodd" d="M1.97957 4.72497C2.22139 3.32106 3.33729 2.28906 4.74566 2.07476C6.09511 1.86944 7.94634 1.66699 10 1.66699C12.0537 1.66699 13.9049 1.86944 15.2544 2.07476C16.6628 2.28906 17.7787 3.32105 18.0205 4.72497C18.189 5.70342 18.3334 6.94637 18.3334 8.33366C18.3334 9.72095 18.189 10.9639 18.0205 11.9424C17.7787 13.3463 16.6628 14.3783 15.2544 14.5926C14.0198 14.7804 12.3653 14.9658 10.5201 14.996L5.42396 18.0074C4.86845 18.3356 4.16669 17.9352 4.16669 17.29V14.4536C3.03882 14.0786 2.18715 13.1475 1.97957 11.9424C1.81103 10.9639 1.66669 9.72095 1.66669 8.33366C1.66669 6.94637 1.81103 5.70342 1.97957 4.72497ZM5.00002 6.66699C5.00002 6.20676 5.37312 5.83366 5.83335 5.83366H14.1667C14.6269 5.83366 15 6.20676 15 6.66699C15 7.12723 14.6269 7.50033 14.1667 7.50033H5.83335C5.37312 7.50033 5.00002 7.12723 5.00002 6.66699ZM5.00002 10.0003C5.00002 9.54009 5.37312 9.16699 5.83335 9.16699H9.16669C9.62692 9.16699 10 9.54009 10 10.0003C10 10.4606 9.62692 10.8337 9.16669 10.8337H5.83335C5.37312 10.8337 5.00002 10.4606 5.00002 10.0003Z" fill="#54A75C"/>
<path fill-rule="evenodd" clip-rule="evenodd" d="M1.97957 4.72497C2.22139 3.32106 3.33729 2.28906 4.74566 2.07476C6.09511 1.86944 7.94634 1.66699 10 1.66699C12.0537 1.66699 13.9049 1.86944 15.2544 2.07476C16.6628 2.28906 17.7787 3.32105 18.0205 4.72497C18.189 5.70342 18.3334 6.94637 18.3334 8.33366C18.3334 9.72095 18.189 10.9639 18.0205 11.9424C17.7787 13.3463 16.6628 14.3783 15.2544 14.5926C14.0198 14.7804 12.3653 14.9658 10.5201 14.996L5.42396 18.0074C4.86845 18.3356 4.16669 17.9352 4.16669 17.29V14.4536C3.03882 14.0786 2.18715 13.1475 1.97957 11.9424C1.81103 10.9639 1.66669 9.72095 1.66669 8.33366C1.66669 6.94637 1.81103 5.70342 1.97957 4.72497ZM5.00002 6.66699C5.00002 6.20676 5.37312 5.83366 5.83335 5.83366H14.1667C14.6269 5.83366 15 6.20676 15 6.66699C15 7.12723 14.6269 7.50033 14.1667 7.50033H5.83335C5.37312 7.50033 5.00002 7.12723 5.00002 6.66699ZM5.00002 10.0003C5.00002 9.54009 5.37312 9.16699 5.83335 9.16699H9.16669C9.62692 9.16699 10 9.54009 10 10.0003C10 10.4606 9.62692 10.8337 9.16669 10.8337H5.83335C5.37312 10.8337 5.00002 10.4606 5.00002 10.0003Z" fill="#3FA949"/>
<path fill-rule="evenodd" clip-rule="evenodd" d="M1.97957 4.72497C2.22139 3.32106 3.33729 2.28906 4.74566 2.07476C6.09511 1.86944 7.94634 1.66699 10 1.66699C12.0537 1.66699 13.9049 1.86944 15.2544 2.07476C16.6628 2.28906 17.7787 3.32105 18.0205 4.72497C18.189 5.70342 18.3334 6.94637 18.3334 8.33366C18.3334 9.72095 18.189 10.9639 18.0205 11.9424C17.7787 13.3463 16.6628 14.3783 15.2544 14.5926C14.0198 14.7804 12.3653 14.9658 10.5201 14.996L5.42396 18.0074C4.86845 18.3356 4.16669 17.9352 4.16669 17.29V14.4536C3.03882 14.0786 2.18715 13.1475 1.97957 11.9424C1.81103 10.9639 1.66669 9.72095 1.66669 8.33366C1.66669 6.94637 1.81103 5.70342 1.97957 4.72497ZM5.00002 6.66699C5.00002 6.20676 5.37312 5.83366 5.83335 5.83366H14.1667C14.6269 5.83366 15 6.20676 15 6.66699C15 7.12723 14.6269 7.50033 14.1667 7.50033H5.83335C5.37312 7.50033 5.00002 7.12723 5.00002 6.66699ZM5.00002 10.0003C5.00002 9.54009 5.37312 9.16699 5.83335 9.16699H9.16669C9.62692 9.16699 10 9.54009 10 10.0003C10 10.4606 9.62692 10.8337 9.16669 10.8337H5.83335C5.37312 10.8337 5.00002 10.4606 5.00002 10.0003Z" fill="#479B4E"/>
<path fill-rule="evenodd" clip-rule="evenodd" d="M1.97957 4.72497C2.22139 3.32106 3.33729 2.28906 4.74566 2.07476C6.09511 1.86944 7.94634 1.66699 10 1.66699C12.0537 1.66699 13.9049 1.86944 15.2544 2.07476C16.6628 2.28906 17.7787 3.32105 18.0205 4.72497C18.189 5.70342 18.3334 6.94637 18.3334 8.33366C18.3334 9.72095 18.189 10.9639 18.0205 11.9424C17.7787 13.3463 16.6628 14.3783 15.2544 14.5926C14.0198 14.7804 12.3653 14.9658 10.5201 14.996L5.42396 18.0074C4.86845 18.3356 4.16669 17.9352 4.16669 17.29V14.4536C3.03882 14.0786 2.18715 13.1475 1.97957 11.9424C1.81103 10.9639 1.66669 9.72095 1.66669 8.33366C1.66669 6.94637 1.81103 5.70342 1.97957 4.72497ZM5.00002 6.66699C5.00002 6.20676 5.37312 5.83366 5.83335 5.83366H14.1667C14.6269 5.83366 15 6.20676 15 6.66699C15 7.12723 14.6269 7.50033 14.1667 7.50033H5.83335C5.37312 7.50033 5.00002 7.12723 5.00002 6.66699ZM5.00002 10.0003C5.00002 9.54009 5.37312 9.16699 5.83335 9.16699H9.16669C9.62692 9.16699 10 9.54009 10 10.0003C10 10.4606 9.62692 10.8337 9.16669 10.8337H5.83335C5.37312 10.8337 5.00002 10.4606 5.00002 10.0003Z" fill="#3BC76B"/>
</svg>
