<svg width="18" height="18" viewBox="0 0 18 18" fill="none" xmlns="http://www.w3.org/2000/svg">
<path d="M7.66602 9.66697L8.30161 10.3026C8.80192 10.8029 9.4805 11.084 10.1881 11.084C10.8956 11.084 11.5742 10.8029 12.0745 10.3026L14.096 8.28106C15.3046 7.0723 15.3046 5.11266 14.096 3.9039V3.9039C12.8873 2.69528 10.9276 2.69528 9.71887 3.9039L9.12729 4.49615" stroke="#55595B" stroke-width="1.5" stroke-linecap="round" stroke-linejoin="round"/>
<path d="M10.3326 7.66617L9.69697 7.03057C9.19666 6.53023 8.51808 6.24915 7.81052 6.24915C7.10296 6.24915 6.42438 6.53023 5.92407 7.03057L3.90256 9.05208C2.69394 10.2608 2.69394 12.2205 3.90256 13.4292V13.4292C5.11132 14.6379 7.07096 14.6379 8.27972 13.4292L8.8713 12.837" stroke="#55595B" stroke-width="1.5" stroke-linecap="round" stroke-linejoin="round"/>
</svg>
