<svg width="64" height="64" viewBox="0 0 64 64" fill="none" xmlns="http://www.w3.org/2000/svg">
<path d="M1.33337 22.6667H62.6667M10.6667 33.3334H38.6667M11.3334 41.3334H28M45.3334 49.3334L53.3334 38.6667M62.6667 52C62.6667 53.4145 62.1048 54.7711 61.1046 55.7713C60.1044 56.7715 58.7479 57.3334 57.3334 57.3334H6.66671C5.25222 57.3334 3.89567 56.7715 2.89547 55.7713C1.89528 54.7711 1.33337 53.4145 1.33337 52V14.6667C1.33337 13.2522 1.89528 11.8957 2.89547 10.8955C3.89567 9.89528 5.25222 9.33337 6.66671 9.33337H57.3334C58.7479 9.33337 60.1044 9.89528 61.1046 10.8955C62.1048 11.8957 62.6667 13.2522 62.6667 14.6667V52Z" stroke="#54A75C" stroke-width="2"/>
<path d="M1.33337 22.6667H62.6667M10.6667 33.3334H38.6667M11.3334 41.3334H28M45.3334 49.3334L53.3334 38.6667M62.6667 52C62.6667 53.4145 62.1048 54.7711 61.1046 55.7713C60.1044 56.7715 58.7479 57.3334 57.3334 57.3334H6.66671C5.25222 57.3334 3.89567 56.7715 2.89547 55.7713C1.89528 54.7711 1.33337 53.4145 1.33337 52V14.6667C1.33337 13.2522 1.89528 11.8957 2.89547 10.8955C3.89567 9.89528 5.25222 9.33337 6.66671 9.33337H57.3334C58.7479 9.33337 60.1044 9.89528 61.1046 10.8955C62.1048 11.8957 62.6667 13.2522 62.6667 14.6667V52Z" stroke="#3FA949" stroke-width="2"/>
<path d="M1.33337 22.6667H62.6667M10.6667 33.3334H38.6667M11.3334 41.3334H28M45.3334 49.3334L53.3334 38.6667M62.6667 52C62.6667 53.4145 62.1048 54.7711 61.1046 55.7713C60.1044 56.7715 58.7479 57.3334 57.3334 57.3334H6.66671C5.25222 57.3334 3.89567 56.7715 2.89547 55.7713C1.89528 54.7711 1.33337 53.4145 1.33337 52V14.6667C1.33337 13.2522 1.89528 11.8957 2.89547 10.8955C3.89567 9.89528 5.25222 9.33337 6.66671 9.33337H57.3334C58.7479 9.33337 60.1044 9.89528 61.1046 10.8955C62.1048 11.8957 62.6667 13.2522 62.6667 14.6667V52Z" stroke="#479B4E" stroke-width="2"/>
<path d="M1.33337 22.6667H62.6667M10.6667 33.3334H38.6667M11.3334 41.3334H28M45.3334 49.3334L53.3334 38.6667M62.6667 52C62.6667 53.4145 62.1048 54.7711 61.1046 55.7713C60.1044 56.7715 58.7479 57.3334 57.3334 57.3334H6.66671C5.25222 57.3334 3.89567 56.7715 2.89547 55.7713C1.89528 54.7711 1.33337 53.4145 1.33337 52V14.6667C1.33337 13.2522 1.89528 11.8957 2.89547 10.8955C3.89567 9.89528 5.25222 9.33337 6.66671 9.33337H57.3334C58.7479 9.33337 60.1044 9.89528 61.1046 10.8955C62.1048 11.8957 62.6667 13.2522 62.6667 14.6667V52Z" stroke="#3BC76B" stroke-width="2"/>
<path fill-rule="evenodd" clip-rule="evenodd" d="M12 16.0001C12 16.3537 11.8596 16.6928 11.6095 16.9429C11.3595 17.1929 11.0203 17.3334 10.6667 17.3334C10.3131 17.3334 9.97395 17.1929 9.7239 16.9429C9.47385 16.6928 9.33337 16.3537 9.33337 16.0001C9.33337 15.6465 9.47385 15.3073 9.7239 15.0573C9.97395 14.8072 10.3131 14.6667 10.6667 14.6667C11.0203 14.6667 11.3595 14.8072 11.6095 15.0573C11.8596 15.3073 12 15.6465 12 16.0001V16.0001ZM20 16.0001C20 16.3537 19.8596 16.6928 19.6095 16.9429C19.3595 17.1929 19.0203 17.3334 18.6667 17.3334C18.3131 17.3334 17.9739 17.1929 17.7239 16.9429C17.4739 16.6928 17.3334 16.3537 17.3334 16.0001C17.3334 15.6465 17.4739 15.3073 17.7239 15.0573C17.9739 14.8072 18.3131 14.6667 18.6667 14.6667C19.0203 14.6667 19.3595 14.8072 19.6095 15.0573C19.8596 15.3073 20 15.6465 20 16.0001V16.0001ZM28 16.0001C28 16.3537 27.8596 16.6928 27.6095 16.9429C27.3595 17.1929 27.0203 17.3334 26.6667 17.3334C26.3131 17.3334 25.9739 17.1929 25.7239 16.9429C25.4738 16.6928 25.3334 16.3537 25.3334 16.0001C25.3334 15.6465 25.4738 15.3073 25.7239 15.0573C25.9739 14.8072 26.3131 14.6667 26.6667 14.6667C27.0203 14.6667 27.3595 14.8072 27.6095 15.0573C27.8596 15.3073 28 15.6465 28 16.0001V16.0001Z" stroke="#54A75C"/>
<path fill-rule="evenodd" clip-rule="evenodd" d="M12 16.0001C12 16.3537 11.8596 16.6928 11.6095 16.9429C11.3595 17.1929 11.0203 17.3334 10.6667 17.3334C10.3131 17.3334 9.97395 17.1929 9.7239 16.9429C9.47385 16.6928 9.33337 16.3537 9.33337 16.0001C9.33337 15.6465 9.47385 15.3073 9.7239 15.0573C9.97395 14.8072 10.3131 14.6667 10.6667 14.6667C11.0203 14.6667 11.3595 14.8072 11.6095 15.0573C11.8596 15.3073 12 15.6465 12 16.0001V16.0001ZM20 16.0001C20 16.3537 19.8596 16.6928 19.6095 16.9429C19.3595 17.1929 19.0203 17.3334 18.6667 17.3334C18.3131 17.3334 17.9739 17.1929 17.7239 16.9429C17.4739 16.6928 17.3334 16.3537 17.3334 16.0001C17.3334 15.6465 17.4739 15.3073 17.7239 15.0573C17.9739 14.8072 18.3131 14.6667 18.6667 14.6667C19.0203 14.6667 19.3595 14.8072 19.6095 15.0573C19.8596 15.3073 20 15.6465 20 16.0001V16.0001ZM28 16.0001C28 16.3537 27.8596 16.6928 27.6095 16.9429C27.3595 17.1929 27.0203 17.3334 26.6667 17.3334C26.3131 17.3334 25.9739 17.1929 25.7239 16.9429C25.4738 16.6928 25.3334 16.3537 25.3334 16.0001C25.3334 15.6465 25.4738 15.3073 25.7239 15.0573C25.9739 14.8072 26.3131 14.6667 26.6667 14.6667C27.0203 14.6667 27.3595 14.8072 27.6095 15.0573C27.8596 15.3073 28 15.6465 28 16.0001V16.0001Z" stroke="#3FA949"/>
<path fill-rule="evenodd" clip-rule="evenodd" d="M12 16.0001C12 16.3537 11.8596 16.6928 11.6095 16.9429C11.3595 17.1929 11.0203 17.3334 10.6667 17.3334C10.3131 17.3334 9.97395 17.1929 9.7239 16.9429C9.47385 16.6928 9.33337 16.3537 9.33337 16.0001C9.33337 15.6465 9.47385 15.3073 9.7239 15.0573C9.97395 14.8072 10.3131 14.6667 10.6667 14.6667C11.0203 14.6667 11.3595 14.8072 11.6095 15.0573C11.8596 15.3073 12 15.6465 12 16.0001V16.0001ZM20 16.0001C20 16.3537 19.8596 16.6928 19.6095 16.9429C19.3595 17.1929 19.0203 17.3334 18.6667 17.3334C18.3131 17.3334 17.9739 17.1929 17.7239 16.9429C17.4739 16.6928 17.3334 16.3537 17.3334 16.0001C17.3334 15.6465 17.4739 15.3073 17.7239 15.0573C17.9739 14.8072 18.3131 14.6667 18.6667 14.6667C19.0203 14.6667 19.3595 14.8072 19.6095 15.0573C19.8596 15.3073 20 15.6465 20 16.0001V16.0001ZM28 16.0001C28 16.3537 27.8596 16.6928 27.6095 16.9429C27.3595 17.1929 27.0203 17.3334 26.6667 17.3334C26.3131 17.3334 25.9739 17.1929 25.7239 16.9429C25.4738 16.6928 25.3334 16.3537 25.3334 16.0001C25.3334 15.6465 25.4738 15.3073 25.7239 15.0573C25.9739 14.8072 26.3131 14.6667 26.6667 14.6667C27.0203 14.6667 27.3595 14.8072 27.6095 15.0573C27.8596 15.3073 28 15.6465 28 16.0001V16.0001Z" stroke="#479B4E"/>
<path fill-rule="evenodd" clip-rule="evenodd" d="M12 16.0001C12 16.3537 11.8596 16.6928 11.6095 16.9429C11.3595 17.1929 11.0203 17.3334 10.6667 17.3334C10.3131 17.3334 9.97395 17.1929 9.7239 16.9429C9.47385 16.6928 9.33337 16.3537 9.33337 16.0001C9.33337 15.6465 9.47385 15.3073 9.7239 15.0573C9.97395 14.8072 10.3131 14.6667 10.6667 14.6667C11.0203 14.6667 11.3595 14.8072 11.6095 15.0573C11.8596 15.3073 12 15.6465 12 16.0001V16.0001ZM20 16.0001C20 16.3537 19.8596 16.6928 19.6095 16.9429C19.3595 17.1929 19.0203 17.3334 18.6667 17.3334C18.3131 17.3334 17.9739 17.1929 17.7239 16.9429C17.4739 16.6928 17.3334 16.3537 17.3334 16.0001C17.3334 15.6465 17.4739 15.3073 17.7239 15.0573C17.9739 14.8072 18.3131 14.6667 18.6667 14.6667C19.0203 14.6667 19.3595 14.8072 19.6095 15.0573C19.8596 15.3073 20 15.6465 20 16.0001V16.0001ZM28 16.0001C28 16.3537 27.8596 16.6928 27.6095 16.9429C27.3595 17.1929 27.0203 17.3334 26.6667 17.3334C26.3131 17.3334 25.9739 17.1929 25.7239 16.9429C25.4738 16.6928 25.3334 16.3537 25.3334 16.0001C25.3334 15.6465 25.4738 15.3073 25.7239 15.0573C25.9739 14.8072 26.3131 14.6667 26.6667 14.6667C27.0203 14.6667 27.3595 14.8072 27.6095 15.0573C27.8596 15.3073 28 15.6465 28 16.0001V16.0001Z" stroke="#3BC76B"/>
</svg>
