<svg width="58" height="54" viewBox="0 0 58 54" fill="none" xmlns="http://www.w3.org/2000/svg">
<path d="M1.3335 11.6666H54.6668" stroke="#54A75C" stroke-width="2"/>
<path d="M1.3335 11.6666H54.6668" stroke="#3FA949" stroke-width="2"/>
<path d="M1.3335 11.6666H54.6668" stroke="#479B4E" stroke-width="2"/>
<path d="M1.3335 11.6666H54.6668" stroke="#3BC76B" stroke-width="2"/>
<path d="M9.3335 28V20.6666C9.3335 20.1143 9.78121 19.6666 10.3335 19.6666H11.1399H45.6668C46.2191 19.6666 46.6668 20.1143 46.6668 20.6666V28C46.6668 28.5522 46.2191 29 45.6668 29H10.3335C9.78121 29 9.3335 28.5522 9.3335 28Z" stroke="#54A75C" stroke-width="2" stroke-linecap="round" stroke-linejoin="round"/>
<path d="M9.3335 28V20.6666C9.3335 20.1143 9.78121 19.6666 10.3335 19.6666H11.1399H45.6668C46.2191 19.6666 46.6668 20.1143 46.6668 20.6666V28C46.6668 28.5522 46.2191 29 45.6668 29H10.3335C9.78121 29 9.3335 28.5522 9.3335 28Z" stroke="#3FA949" stroke-width="2" stroke-linecap="round" stroke-linejoin="round"/>
<path d="M9.3335 28V20.6666C9.3335 20.1143 9.78121 19.6666 10.3335 19.6666H11.1399H45.6668C46.2191 19.6666 46.6668 20.1143 46.6668 20.6666V28C46.6668 28.5522 46.2191 29 45.6668 29H10.3335C9.78121 29 9.3335 28.5522 9.3335 28Z" stroke="#479B4E" stroke-width="2" stroke-linecap="round" stroke-linejoin="round"/>
<path d="M9.3335 28V20.6666C9.3335 20.1143 9.78121 19.6666 10.3335 19.6666H11.1399H45.6668C46.2191 19.6666 46.6668 20.1143 46.6668 20.6666V28C46.6668 28.5522 46.2191 29 45.6668 29H10.3335C9.78121 29 9.3335 28.5522 9.3335 28Z" stroke="#3BC76B" stroke-width="2" stroke-linecap="round" stroke-linejoin="round"/>
<path fill-rule="evenodd" clip-rule="evenodd" d="M9.33333 5C8.97971 5 8.64057 5.14048 8.39052 5.39052C8.14048 5.64057 8 5.97971 8 6.33333C8 6.68696 8.14048 7.02609 8.39052 7.27614C8.64057 7.52619 8.97971 7.66667 9.33333 7.66667C9.68696 7.66667 10.0261 7.52619 10.2761 7.27614C10.5262 7.02609 10.6667 6.68696 10.6667 6.33333C10.6667 5.97971 10.5262 5.64057 10.2761 5.39052C10.0261 5.14048 9.68696 5 9.33333 5ZM14.6667 5C14.313 5 13.9739 5.14048 13.7239 5.39052C13.4738 5.64057 13.3333 5.97971 13.3333 6.33333C13.3333 6.68696 13.4738 7.02609 13.7239 7.27614C13.9739 7.52619 14.313 7.66667 14.6667 7.66667C15.0203 7.66667 15.3594 7.52619 15.6095 7.27614C15.8595 7.02609 16 6.68696 16 6.33333C16 5.97971 15.8595 5.64057 15.6095 5.39052C15.3594 5.14048 15.0203 5 14.6667 5ZM20 5C19.6464 5 19.3072 5.14048 19.0572 5.39052C18.8071 5.64057 18.6667 5.97971 18.6667 6.33333C18.6667 6.68696 18.8071 7.02609 19.0572 7.27614C19.3072 7.52619 19.6464 7.66667 20 7.66667C20.3536 7.66667 20.6928 7.52619 20.9428 7.27614C21.1929 7.02609 21.3333 6.68696 21.3333 6.33333C21.3333 5.97971 21.1929 5.64057 20.9428 5.39052C20.6928 5.14048 20.3536 5 20 5Z" fill="#54A75C"/>
<path fill-rule="evenodd" clip-rule="evenodd" d="M9.33333 5C8.97971 5 8.64057 5.14048 8.39052 5.39052C8.14048 5.64057 8 5.97971 8 6.33333C8 6.68696 8.14048 7.02609 8.39052 7.27614C8.64057 7.52619 8.97971 7.66667 9.33333 7.66667C9.68696 7.66667 10.0261 7.52619 10.2761 7.27614C10.5262 7.02609 10.6667 6.68696 10.6667 6.33333C10.6667 5.97971 10.5262 5.64057 10.2761 5.39052C10.0261 5.14048 9.68696 5 9.33333 5ZM14.6667 5C14.313 5 13.9739 5.14048 13.7239 5.39052C13.4738 5.64057 13.3333 5.97971 13.3333 6.33333C13.3333 6.68696 13.4738 7.02609 13.7239 7.27614C13.9739 7.52619 14.313 7.66667 14.6667 7.66667C15.0203 7.66667 15.3594 7.52619 15.6095 7.27614C15.8595 7.02609 16 6.68696 16 6.33333C16 5.97971 15.8595 5.64057 15.6095 5.39052C15.3594 5.14048 15.0203 5 14.6667 5ZM20 5C19.6464 5 19.3072 5.14048 19.0572 5.39052C18.8071 5.64057 18.6667 5.97971 18.6667 6.33333C18.6667 6.68696 18.8071 7.02609 19.0572 7.27614C19.3072 7.52619 19.6464 7.66667 20 7.66667C20.3536 7.66667 20.6928 7.52619 20.9428 7.27614C21.1929 7.02609 21.3333 6.68696 21.3333 6.33333C21.3333 5.97971 21.1929 5.64057 20.9428 5.39052C20.6928 5.14048 20.3536 5 20 5Z" fill="#3FA949"/>
<path fill-rule="evenodd" clip-rule="evenodd" d="M9.33333 5C8.97971 5 8.64057 5.14048 8.39052 5.39052C8.14048 5.64057 8 5.97971 8 6.33333C8 6.68696 8.14048 7.02609 8.39052 7.27614C8.64057 7.52619 8.97971 7.66667 9.33333 7.66667C9.68696 7.66667 10.0261 7.52619 10.2761 7.27614C10.5262 7.02609 10.6667 6.68696 10.6667 6.33333C10.6667 5.97971 10.5262 5.64057 10.2761 5.39052C10.0261 5.14048 9.68696 5 9.33333 5ZM14.6667 5C14.313 5 13.9739 5.14048 13.7239 5.39052C13.4738 5.64057 13.3333 5.97971 13.3333 6.33333C13.3333 6.68696 13.4738 7.02609 13.7239 7.27614C13.9739 7.52619 14.313 7.66667 14.6667 7.66667C15.0203 7.66667 15.3594 7.52619 15.6095 7.27614C15.8595 7.02609 16 6.68696 16 6.33333C16 5.97971 15.8595 5.64057 15.6095 5.39052C15.3594 5.14048 15.0203 5 14.6667 5ZM20 5C19.6464 5 19.3072 5.14048 19.0572 5.39052C18.8071 5.64057 18.6667 5.97971 18.6667 6.33333C18.6667 6.68696 18.8071 7.02609 19.0572 7.27614C19.3072 7.52619 19.6464 7.66667 20 7.66667C20.3536 7.66667 20.6928 7.52619 20.9428 7.27614C21.1929 7.02609 21.3333 6.68696 21.3333 6.33333C21.3333 5.97971 21.1929 5.64057 20.9428 5.39052C20.6928 5.14048 20.3536 5 20 5Z" fill="#479B4E"/>
<path fill-rule="evenodd" clip-rule="evenodd" d="M9.33333 5C8.97971 5 8.64057 5.14048 8.39052 5.39052C8.14048 5.64057 8 5.97971 8 6.33333C8 6.68696 8.14048 7.02609 8.39052 7.27614C8.64057 7.52619 8.97971 7.66667 9.33333 7.66667C9.68696 7.66667 10.0261 7.52619 10.2761 7.27614C10.5262 7.02609 10.6667 6.68696 10.6667 6.33333C10.6667 5.97971 10.5262 5.64057 10.2761 5.39052C10.0261 5.14048 9.68696 5 9.33333 5ZM14.6667 5C14.313 5 13.9739 5.14048 13.7239 5.39052C13.4738 5.64057 13.3333 5.97971 13.3333 6.33333C13.3333 6.68696 13.4738 7.02609 13.7239 7.27614C13.9739 7.52619 14.313 7.66667 14.6667 7.66667C15.0203 7.66667 15.3594 7.52619 15.6095 7.27614C15.8595 7.02609 16 6.68696 16 6.33333C16 5.97971 15.8595 5.64057 15.6095 5.39052C15.3594 5.14048 15.0203 5 14.6667 5ZM20 5C19.6464 5 19.3072 5.14048 19.0572 5.39052C18.8071 5.64057 18.6667 5.97971 18.6667 6.33333C18.6667 6.68696 18.8071 7.02609 19.0572 7.27614C19.3072 7.52619 19.6464 7.66667 20 7.66667C20.3536 7.66667 20.6928 7.52619 20.9428 7.27614C21.1929 7.02609 21.3333 6.68696 21.3333 6.33333C21.3333 5.97971 21.1929 5.64057 20.9428 5.39052C20.6928 5.14048 20.3536 5 20 5Z" fill="#3BC76B"/>
<path d="M20 5C19.6464 5 19.3072 5.14048 19.0572 5.39052C18.8071 5.64057 18.6667 5.97971 18.6667 6.33333C18.6667 6.68696 18.8071 7.02609 19.0572 7.27614C19.3072 7.52619 19.6464 7.66667 20 7.66667C20.3536 7.66667 20.6928 7.52619 20.9428 7.27614C21.1929 7.02609 21.3333 6.68696 21.3333 6.33333C21.3333 5.97971 21.1929 5.64057 20.9428 5.39052C20.6928 5.14048 20.3536 5 20 5M9.33333 5C8.97971 5 8.64057 5.14048 8.39052 5.39052C8.14048 5.64057 8 5.97971 8 6.33333C8 6.68696 8.14048 7.02609 8.39052 7.27614C8.64057 7.52619 8.97971 7.66667 9.33333 7.66667C9.68696 7.66667 10.0261 7.52619 10.2761 7.27614C10.5262 7.02609 10.6667 6.68696 10.6667 6.33333C10.6667 5.97971 10.5262 5.64057 10.2761 5.39052C10.0261 5.14048 9.68696 5 9.33333 5V5ZM14.6667 5C14.313 5 13.9739 5.14048 13.7239 5.39052C13.4738 5.64057 13.3333 5.97971 13.3333 6.33333C13.3333 6.68696 13.4738 7.02609 13.7239 7.27614C13.9739 7.52619 14.313 7.66667 14.6667 7.66667C15.0203 7.66667 15.3594 7.52619 15.6095 7.27614C15.8595 7.02609 16 6.68696 16 6.33333C16 5.97971 15.8595 5.64057 15.6095 5.39052C15.3594 5.14048 15.0203 5 14.6667 5V5Z" stroke="#54A75C"/>
<path d="M20 5C19.6464 5 19.3072 5.14048 19.0572 5.39052C18.8071 5.64057 18.6667 5.97971 18.6667 6.33333C18.6667 6.68696 18.8071 7.02609 19.0572 7.27614C19.3072 7.52619 19.6464 7.66667 20 7.66667C20.3536 7.66667 20.6928 7.52619 20.9428 7.27614C21.1929 7.02609 21.3333 6.68696 21.3333 6.33333C21.3333 5.97971 21.1929 5.64057 20.9428 5.39052C20.6928 5.14048 20.3536 5 20 5M9.33333 5C8.97971 5 8.64057 5.14048 8.39052 5.39052C8.14048 5.64057 8 5.97971 8 6.33333C8 6.68696 8.14048 7.02609 8.39052 7.27614C8.64057 7.52619 8.97971 7.66667 9.33333 7.66667C9.68696 7.66667 10.0261 7.52619 10.2761 7.27614C10.5262 7.02609 10.6667 6.68696 10.6667 6.33333C10.6667 5.97971 10.5262 5.64057 10.2761 5.39052C10.0261 5.14048 9.68696 5 9.33333 5V5ZM14.6667 5C14.313 5 13.9739 5.14048 13.7239 5.39052C13.4738 5.64057 13.3333 5.97971 13.3333 6.33333C13.3333 6.68696 13.4738 7.02609 13.7239 7.27614C13.9739 7.52619 14.313 7.66667 14.6667 7.66667C15.0203 7.66667 15.3594 7.52619 15.6095 7.27614C15.8595 7.02609 16 6.68696 16 6.33333C16 5.97971 15.8595 5.64057 15.6095 5.39052C15.3594 5.14048 15.0203 5 14.6667 5V5Z" stroke="#3FA949"/>
<path d="M20 5C19.6464 5 19.3072 5.14048 19.0572 5.39052C18.8071 5.64057 18.6667 5.97971 18.6667 6.33333C18.6667 6.68696 18.8071 7.02609 19.0572 7.27614C19.3072 7.52619 19.6464 7.66667 20 7.66667C20.3536 7.66667 20.6928 7.52619 20.9428 7.27614C21.1929 7.02609 21.3333 6.68696 21.3333 6.33333C21.3333 5.97971 21.1929 5.64057 20.9428 5.39052C20.6928 5.14048 20.3536 5 20 5M9.33333 5C8.97971 5 8.64057 5.14048 8.39052 5.39052C8.14048 5.64057 8 5.97971 8 6.33333C8 6.68696 8.14048 7.02609 8.39052 7.27614C8.64057 7.52619 8.97971 7.66667 9.33333 7.66667C9.68696 7.66667 10.0261 7.52619 10.2761 7.27614C10.5262 7.02609 10.6667 6.68696 10.6667 6.33333C10.6667 5.97971 10.5262 5.64057 10.2761 5.39052C10.0261 5.14048 9.68696 5 9.33333 5V5ZM14.6667 5C14.313 5 13.9739 5.14048 13.7239 5.39052C13.4738 5.64057 13.3333 5.97971 13.3333 6.33333C13.3333 6.68696 13.4738 7.02609 13.7239 7.27614C13.9739 7.52619 14.313 7.66667 14.6667 7.66667C15.0203 7.66667 15.3594 7.52619 15.6095 7.27614C15.8595 7.02609 16 6.68696 16 6.33333C16 5.97971 15.8595 5.64057 15.6095 5.39052C15.3594 5.14048 15.0203 5 14.6667 5V5Z" stroke="#479B4E"/>
<path d="M20 5C19.6464 5 19.3072 5.14048 19.0572 5.39052C18.8071 5.64057 18.6667 5.97971 18.6667 6.33333C18.6667 6.68696 18.8071 7.02609 19.0572 7.27614C19.3072 7.52619 19.6464 7.66667 20 7.66667C20.3536 7.66667 20.6928 7.52619 20.9428 7.27614C21.1929 7.02609 21.3333 6.68696 21.3333 6.33333C21.3333 5.97971 21.1929 5.64057 20.9428 5.39052C20.6928 5.14048 20.3536 5 20 5M9.33333 5C8.97971 5 8.64057 5.14048 8.39052 5.39052C8.14048 5.64057 8 5.97971 8 6.33333C8 6.68696 8.14048 7.02609 8.39052 7.27614C8.64057 7.52619 8.97971 7.66667 9.33333 7.66667C9.68696 7.66667 10.0261 7.52619 10.2761 7.27614C10.5262 7.02609 10.6667 6.68696 10.6667 6.33333C10.6667 5.97971 10.5262 5.64057 10.2761 5.39052C10.0261 5.14048 9.68696 5 9.33333 5V5ZM14.6667 5C14.313 5 13.9739 5.14048 13.7239 5.39052C13.4738 5.64057 13.3333 5.97971 13.3333 6.33333C13.3333 6.68696 13.4738 7.02609 13.7239 7.27614C13.9739 7.52619 14.313 7.66667 14.6667 7.66667C15.0203 7.66667 15.3594 7.52619 15.6095 7.27614C15.8595 7.02609 16 6.68696 16 6.33333C16 5.97971 15.8595 5.64057 15.6095 5.39052C15.3594 5.14048 15.0203 5 14.6667 5V5Z" stroke="#3BC76B"/>
<path d="M30.6668 43.6667H6.66683C5.25234 43.6667 3.89579 43.1048 2.89559 42.1046C1.8954 41.1044 1.3335 39.7478 1.3335 38.3333V6.33333C1.3335 4.91885 1.8954 3.56229 2.89559 2.5621C3.89579 1.5619 5.25234 1 6.66683 1H49.3335C50.748 1 52.1045 1.5619 53.1047 2.5621C54.1049 3.56229 54.6668 4.91885 54.6668 6.33333V27.6667" stroke="#54A75C" stroke-width="2"/>
<path d="M30.6668 43.6667H6.66683C5.25234 43.6667 3.89579 43.1048 2.89559 42.1046C1.8954 41.1044 1.3335 39.7478 1.3335 38.3333V6.33333C1.3335 4.91885 1.8954 3.56229 2.89559 2.5621C3.89579 1.5619 5.25234 1 6.66683 1H49.3335C50.748 1 52.1045 1.5619 53.1047 2.5621C54.1049 3.56229 54.6668 4.91885 54.6668 6.33333V27.6667" stroke="#3FA949" stroke-width="2"/>
<path d="M30.6668 43.6667H6.66683C5.25234 43.6667 3.89579 43.1048 2.89559 42.1046C1.8954 41.1044 1.3335 39.7478 1.3335 38.3333V6.33333C1.3335 4.91885 1.8954 3.56229 2.89559 2.5621C3.89579 1.5619 5.25234 1 6.66683 1H49.3335C50.748 1 52.1045 1.5619 53.1047 2.5621C54.1049 3.56229 54.6668 4.91885 54.6668 6.33333V27.6667" stroke="#479B4E" stroke-width="2"/>
<path d="M30.6668 43.6667H6.66683C5.25234 43.6667 3.89579 43.1048 2.89559 42.1046C1.8954 41.1044 1.3335 39.7478 1.3335 38.3333V6.33333C1.3335 4.91885 1.8954 3.56229 2.89559 2.5621C3.89579 1.5619 5.25234 1 6.66683 1H49.3335C50.748 1 52.1045 1.5619 53.1047 2.5621C54.1049 3.56229 54.6668 4.91885 54.6668 6.33333V27.6667" stroke="#3BC76B" stroke-width="2"/>
<path d="M50 44.6665L44.5521 50.264L42.371 34.7177L55.8054 40.4589L50 44.6665ZM50 44.6665L55 51.1665" stroke="#54A75C" stroke-width="2" stroke-linecap="round" stroke-linejoin="round"/>
<path d="M50 44.6665L44.5521 50.264L42.371 34.7177L55.8054 40.4589L50 44.6665ZM50 44.6665L55 51.1665" stroke="#3FA949" stroke-width="2" stroke-linecap="round" stroke-linejoin="round"/>
<path d="M50 44.6665L44.5521 50.264L42.371 34.7177L55.8054 40.4589L50 44.6665ZM50 44.6665L55 51.1665" stroke="#479B4E" stroke-width="2" stroke-linecap="round" stroke-linejoin="round"/>
<path d="M50 44.6665L44.5521 50.264L42.371 34.7177L55.8054 40.4589L50 44.6665ZM50 44.6665L55 51.1665" stroke="#3BC76B" stroke-width="2" stroke-linecap="round" stroke-linejoin="round"/>
</svg>
