<svg width="64" height="64" viewBox="0 0 64 64" fill="none" xmlns="http://www.w3.org/2000/svg">
<g clip-path="url(#clip0)">
<path d="M1.33325 12H54.6666" stroke="#54A75C" stroke-width="2"/>
<path d="M1.33325 12H54.6666" stroke="#3FA949" stroke-width="2"/>
<path d="M1.33325 12H54.6666" stroke="#479B4E" stroke-width="2"/>
<path d="M1.33325 12H54.6666" stroke="#3BC76B" stroke-width="2"/>
<path d="M20 5.33337C19.6464 5.33337 19.3072 5.47385 19.0572 5.7239C18.8071 5.97395 18.6667 6.31308 18.6667 6.66671C18.6667 7.02033 18.8071 7.35947 19.0572 7.60951C19.3072 7.85956 19.6464 8.00004 20 8.00004C20.3536 8.00004 20.6928 7.85956 20.9428 7.60951C21.1929 7.35947 21.3333 7.02033 21.3333 6.66671C21.3333 6.31308 21.1929 5.97395 20.9428 5.7239C20.6928 5.47385 20.3536 5.33337 20 5.33337M9.33333 5.33337C8.97971 5.33337 8.64057 5.47385 8.39052 5.7239C8.14048 5.97395 8 6.31308 8 6.66671C8 7.02033 8.14048 7.35947 8.39052 7.60951C8.64057 7.85956 8.97971 8.00004 9.33333 8.00004C9.68696 8.00004 10.0261 7.85956 10.2761 7.60951C10.5262 7.35947 10.6667 7.02033 10.6667 6.66671C10.6667 6.31308 10.5262 5.97395 10.2761 5.7239C10.0261 5.47385 9.68696 5.33337 9.33333 5.33337V5.33337ZM14.6667 5.33337C14.313 5.33337 13.9739 5.47385 13.7239 5.7239C13.4738 5.97395 13.3333 6.31308 13.3333 6.66671C13.3333 7.02033 13.4738 7.35947 13.7239 7.60951C13.9739 7.85956 14.313 8.00004 14.6667 8.00004C15.0203 8.00004 15.3594 7.85956 15.6095 7.60951C15.8595 7.35947 16 7.02033 16 6.66671C16 6.31308 15.8595 5.97395 15.6095 5.7239C15.3594 5.47385 15.0203 5.33337 14.6667 5.33337V5.33337Z" stroke="#54A75C" stroke-width="2"/>
<path d="M20 5.33337C19.6464 5.33337 19.3072 5.47385 19.0572 5.7239C18.8071 5.97395 18.6667 6.31308 18.6667 6.66671C18.6667 7.02033 18.8071 7.35947 19.0572 7.60951C19.3072 7.85956 19.6464 8.00004 20 8.00004C20.3536 8.00004 20.6928 7.85956 20.9428 7.60951C21.1929 7.35947 21.3333 7.02033 21.3333 6.66671C21.3333 6.31308 21.1929 5.97395 20.9428 5.7239C20.6928 5.47385 20.3536 5.33337 20 5.33337M9.33333 5.33337C8.97971 5.33337 8.64057 5.47385 8.39052 5.7239C8.14048 5.97395 8 6.31308 8 6.66671C8 7.02033 8.14048 7.35947 8.39052 7.60951C8.64057 7.85956 8.97971 8.00004 9.33333 8.00004C9.68696 8.00004 10.0261 7.85956 10.2761 7.60951C10.5262 7.35947 10.6667 7.02033 10.6667 6.66671C10.6667 6.31308 10.5262 5.97395 10.2761 5.7239C10.0261 5.47385 9.68696 5.33337 9.33333 5.33337V5.33337ZM14.6667 5.33337C14.313 5.33337 13.9739 5.47385 13.7239 5.7239C13.4738 5.97395 13.3333 6.31308 13.3333 6.66671C13.3333 7.02033 13.4738 7.35947 13.7239 7.60951C13.9739 7.85956 14.313 8.00004 14.6667 8.00004C15.0203 8.00004 15.3594 7.85956 15.6095 7.60951C15.8595 7.35947 16 7.02033 16 6.66671C16 6.31308 15.8595 5.97395 15.6095 5.7239C15.3594 5.47385 15.0203 5.33337 14.6667 5.33337V5.33337Z" stroke="#3FA949" stroke-width="2"/>
<path d="M20 5.33337C19.6464 5.33337 19.3072 5.47385 19.0572 5.7239C18.8071 5.97395 18.6667 6.31308 18.6667 6.66671C18.6667 7.02033 18.8071 7.35947 19.0572 7.60951C19.3072 7.85956 19.6464 8.00004 20 8.00004C20.3536 8.00004 20.6928 7.85956 20.9428 7.60951C21.1929 7.35947 21.3333 7.02033 21.3333 6.66671C21.3333 6.31308 21.1929 5.97395 20.9428 5.7239C20.6928 5.47385 20.3536 5.33337 20 5.33337M9.33333 5.33337C8.97971 5.33337 8.64057 5.47385 8.39052 5.7239C8.14048 5.97395 8 6.31308 8 6.66671C8 7.02033 8.14048 7.35947 8.39052 7.60951C8.64057 7.85956 8.97971 8.00004 9.33333 8.00004C9.68696 8.00004 10.0261 7.85956 10.2761 7.60951C10.5262 7.35947 10.6667 7.02033 10.6667 6.66671C10.6667 6.31308 10.5262 5.97395 10.2761 5.7239C10.0261 5.47385 9.68696 5.33337 9.33333 5.33337V5.33337ZM14.6667 5.33337C14.313 5.33337 13.9739 5.47385 13.7239 5.7239C13.4738 5.97395 13.3333 6.31308 13.3333 6.66671C13.3333 7.02033 13.4738 7.35947 13.7239 7.60951C13.9739 7.85956 14.313 8.00004 14.6667 8.00004C15.0203 8.00004 15.3594 7.85956 15.6095 7.60951C15.8595 7.35947 16 7.02033 16 6.66671C16 6.31308 15.8595 5.97395 15.6095 5.7239C15.3594 5.47385 15.0203 5.33337 14.6667 5.33337V5.33337Z" stroke="#479B4E" stroke-width="2"/>
<path d="M20 5.33337C19.6464 5.33337 19.3072 5.47385 19.0572 5.7239C18.8071 5.97395 18.6667 6.31308 18.6667 6.66671C18.6667 7.02033 18.8071 7.35947 19.0572 7.60951C19.3072 7.85956 19.6464 8.00004 20 8.00004C20.3536 8.00004 20.6928 7.85956 20.9428 7.60951C21.1929 7.35947 21.3333 7.02033 21.3333 6.66671C21.3333 6.31308 21.1929 5.97395 20.9428 5.7239C20.6928 5.47385 20.3536 5.33337 20 5.33337M9.33333 5.33337C8.97971 5.33337 8.64057 5.47385 8.39052 5.7239C8.14048 5.97395 8 6.31308 8 6.66671C8 7.02033 8.14048 7.35947 8.39052 7.60951C8.64057 7.85956 8.97971 8.00004 9.33333 8.00004C9.68696 8.00004 10.0261 7.85956 10.2761 7.60951C10.5262 7.35947 10.6667 7.02033 10.6667 6.66671C10.6667 6.31308 10.5262 5.97395 10.2761 5.7239C10.0261 5.47385 9.68696 5.33337 9.33333 5.33337V5.33337ZM14.6667 5.33337C14.313 5.33337 13.9739 5.47385 13.7239 5.7239C13.4738 5.97395 13.3333 6.31308 13.3333 6.66671C13.3333 7.02033 13.4738 7.35947 13.7239 7.60951C13.9739 7.85956 14.313 8.00004 14.6667 8.00004C15.0203 8.00004 15.3594 7.85956 15.6095 7.60951C15.8595 7.35947 16 7.02033 16 6.66671C16 6.31308 15.8595 5.97395 15.6095 5.7239C15.3594 5.47385 15.0203 5.33337 14.6667 5.33337V5.33337Z" stroke="#3BC76B" stroke-width="2"/>
<path d="M25.3333 44H6.66659C5.2521 44 3.89554 43.4381 2.89535 42.4379C1.89516 41.4377 1.33325 40.0812 1.33325 38.6667V6.66671C1.33325 5.25222 1.89516 3.89567 2.89535 2.89547C3.89554 1.89528 5.2521 1.33337 6.66659 1.33337H49.3333C50.7477 1.33337 52.1043 1.89528 53.1045 2.89547C54.1047 3.89567 54.6666 5.25222 54.6666 6.66671V28" stroke="#54A75C" stroke-width="2"/>
<path d="M25.3333 44H6.66659C5.2521 44 3.89554 43.4381 2.89535 42.4379C1.89516 41.4377 1.33325 40.0812 1.33325 38.6667V6.66671C1.33325 5.25222 1.89516 3.89567 2.89535 2.89547C3.89554 1.89528 5.2521 1.33337 6.66659 1.33337H49.3333C50.7477 1.33337 52.1043 1.89528 53.1045 2.89547C54.1047 3.89567 54.6666 5.25222 54.6666 6.66671V28" stroke="#3FA949" stroke-width="2"/>
<path d="M25.3333 44H6.66659C5.2521 44 3.89554 43.4381 2.89535 42.4379C1.89516 41.4377 1.33325 40.0812 1.33325 38.6667V6.66671C1.33325 5.25222 1.89516 3.89567 2.89535 2.89547C3.89554 1.89528 5.2521 1.33337 6.66659 1.33337H49.3333C50.7477 1.33337 52.1043 1.89528 53.1045 2.89547C54.1047 3.89567 54.6666 5.25222 54.6666 6.66671V28" stroke="#479B4E" stroke-width="2"/>
<path d="M25.3333 44H6.66659C5.2521 44 3.89554 43.4381 2.89535 42.4379C1.89516 41.4377 1.33325 40.0812 1.33325 38.6667V6.66671C1.33325 5.25222 1.89516 3.89567 2.89535 2.89547C3.89554 1.89528 5.2521 1.33337 6.66659 1.33337H49.3333C50.7477 1.33337 52.1043 1.89528 53.1045 2.89547C54.1047 3.89567 54.6666 5.25222 54.6666 6.66671V28" stroke="#3BC76B" stroke-width="2"/>
<path fill-rule="evenodd" clip-rule="evenodd" d="M44.0001 36.6974C42.6667 37.1934 41.2987 37.9374 40.1934 38.884L37.2734 37.204L33.2681 44.1294L36.1747 45.8094C36.0402 46.5319 35.972 47.2651 35.9707 48C35.9707 48.7467 36.0467 49.48 36.1774 50.1867L33.2681 51.8694L37.2681 58.796L40.1987 57.116C41.3054 58.0627 42.6721 58.8067 44.0054 59.3027V62.6667H52.0054V59.3027C53.3387 58.8067 54.6721 58.0627 55.7787 57.116L58.6827 58.796L62.6801 51.8694L59.7654 50.1894C59.8987 49.48 59.9721 48.7494 59.9721 48C59.9721 47.2507 59.8947 46.52 59.7614 45.8107L62.6681 44.1307L58.6681 37.2L55.7747 38.88C54.6667 37.9334 53.3334 37.1907 52.0001 36.6934V33.3334H44.0001V36.6974Z" stroke="#54A75C" stroke-width="2"/>
<path fill-rule="evenodd" clip-rule="evenodd" d="M44.0001 36.6974C42.6667 37.1934 41.2987 37.9374 40.1934 38.884L37.2734 37.204L33.2681 44.1294L36.1747 45.8094C36.0402 46.5319 35.972 47.2651 35.9707 48C35.9707 48.7467 36.0467 49.48 36.1774 50.1867L33.2681 51.8694L37.2681 58.796L40.1987 57.116C41.3054 58.0627 42.6721 58.8067 44.0054 59.3027V62.6667H52.0054V59.3027C53.3387 58.8067 54.6721 58.0627 55.7787 57.116L58.6827 58.796L62.6801 51.8694L59.7654 50.1894C59.8987 49.48 59.9721 48.7494 59.9721 48C59.9721 47.2507 59.8947 46.52 59.7614 45.8107L62.6681 44.1307L58.6681 37.2L55.7747 38.88C54.6667 37.9334 53.3334 37.1907 52.0001 36.6934V33.3334H44.0001V36.6974Z" stroke="#3FA949" stroke-width="2"/>
<path fill-rule="evenodd" clip-rule="evenodd" d="M44.0001 36.6974C42.6667 37.1934 41.2987 37.9374 40.1934 38.884L37.2734 37.204L33.2681 44.1294L36.1747 45.8094C36.0402 46.5319 35.972 47.2651 35.9707 48C35.9707 48.7467 36.0467 49.48 36.1774 50.1867L33.2681 51.8694L37.2681 58.796L40.1987 57.116C41.3054 58.0627 42.6721 58.8067 44.0054 59.3027V62.6667H52.0054V59.3027C53.3387 58.8067 54.6721 58.0627 55.7787 57.116L58.6827 58.796L62.6801 51.8694L59.7654 50.1894C59.8987 49.48 59.9721 48.7494 59.9721 48C59.9721 47.2507 59.8947 46.52 59.7614 45.8107L62.6681 44.1307L58.6681 37.2L55.7747 38.88C54.6667 37.9334 53.3334 37.1907 52.0001 36.6934V33.3334H44.0001V36.6974Z" stroke="#479B4E" stroke-width="2"/>
<path fill-rule="evenodd" clip-rule="evenodd" d="M44.0001 36.6974C42.6667 37.1934 41.2987 37.9374 40.1934 38.884L37.2734 37.204L33.2681 44.1294L36.1747 45.8094C36.0402 46.5319 35.972 47.2651 35.9707 48C35.9707 48.7467 36.0467 49.48 36.1774 50.1867L33.2681 51.8694L37.2681 58.796L40.1987 57.116C41.3054 58.0627 42.6721 58.8067 44.0054 59.3027V62.6667H52.0054V59.3027C53.3387 58.8067 54.6721 58.0627 55.7787 57.116L58.6827 58.796L62.6801 51.8694L59.7654 50.1894C59.8987 49.48 59.9721 48.7494 59.9721 48C59.9721 47.2507 59.8947 46.52 59.7614 45.8107L62.6681 44.1307L58.6681 37.2L55.7747 38.88C54.6667 37.9334 53.3334 37.1907 52.0001 36.6934V33.3334H44.0001V36.6974Z" stroke="#3BC76B" stroke-width="2"/>
<path fill-rule="evenodd" clip-rule="evenodd" d="M53.2973 48.0001C53.2973 49.4146 52.7354 50.7711 51.7352 51.7713C50.735 52.7715 49.3784 53.3334 47.9639 53.3334C46.5495 53.3334 45.1929 52.7715 44.1927 51.7713C43.1925 50.7711 42.6306 49.4146 42.6306 48.0001C42.6306 46.5856 43.1925 45.229 44.1927 44.2288C45.1929 43.2287 46.5495 42.6667 47.9639 42.6667C49.3784 42.6667 50.735 43.2287 51.7352 44.2288C52.7354 45.229 53.2973 46.5856 53.2973 48.0001V48.0001Z" stroke="#54A75C" stroke-width="2"/>
<path fill-rule="evenodd" clip-rule="evenodd" d="M53.2973 48.0001C53.2973 49.4146 52.7354 50.7711 51.7352 51.7713C50.735 52.7715 49.3784 53.3334 47.9639 53.3334C46.5495 53.3334 45.1929 52.7715 44.1927 51.7713C43.1925 50.7711 42.6306 49.4146 42.6306 48.0001C42.6306 46.5856 43.1925 45.229 44.1927 44.2288C45.1929 43.2287 46.5495 42.6667 47.9639 42.6667C49.3784 42.6667 50.735 43.2287 51.7352 44.2288C52.7354 45.229 53.2973 46.5856 53.2973 48.0001V48.0001Z" stroke="#3FA949" stroke-width="2"/>
<path fill-rule="evenodd" clip-rule="evenodd" d="M53.2973 48.0001C53.2973 49.4146 52.7354 50.7711 51.7352 51.7713C50.735 52.7715 49.3784 53.3334 47.9639 53.3334C46.5495 53.3334 45.1929 52.7715 44.1927 51.7713C43.1925 50.7711 42.6306 49.4146 42.6306 48.0001C42.6306 46.5856 43.1925 45.229 44.1927 44.2288C45.1929 43.2287 46.5495 42.6667 47.9639 42.6667C49.3784 42.6667 50.735 43.2287 51.7352 44.2288C52.7354 45.229 53.2973 46.5856 53.2973 48.0001V48.0001Z" stroke="#479B4E" stroke-width="2"/>
<path fill-rule="evenodd" clip-rule="evenodd" d="M53.2973 48.0001C53.2973 49.4146 52.7354 50.7711 51.7352 51.7713C50.735 52.7715 49.3784 53.3334 47.9639 53.3334C46.5495 53.3334 45.1929 52.7715 44.1927 51.7713C43.1925 50.7711 42.6306 49.4146 42.6306 48.0001C42.6306 46.5856 43.1925 45.229 44.1927 44.2288C45.1929 43.2287 46.5495 42.6667 47.9639 42.6667C49.3784 42.6667 50.735 43.2287 51.7352 44.2288C52.7354 45.229 53.2973 46.5856 53.2973 48.0001V48.0001Z" stroke="#3BC76B" stroke-width="2"/>
</g>
<defs>
<clipPath id="clip0">
<rect width="64" height="64" fill="white"/>
</clipPath>
</defs>
</svg>
