<svg width="64" height="64" viewBox="0 0 64 64" fill="none" xmlns="http://www.w3.org/2000/svg">
<path fill-rule="evenodd" clip-rule="evenodd" d="M30.4775 41.3334C30.4775 42.9156 30.0083 44.4623 29.1293 45.7779C28.2502 47.0935 27.0008 48.1189 25.539 48.7244C24.0772 49.3299 22.4687 49.4883 20.9168 49.1797C19.365 48.871 17.9395 48.1091 16.8207 46.9902C15.7019 45.8714 14.9399 44.4459 14.6313 42.8941C14.3226 41.3423 14.481 39.7337 15.0865 38.2719C15.692 36.8101 16.7174 35.5607 18.033 34.6816C19.3486 33.8026 20.8953 33.3334 22.4775 33.3334C26.8975 33.3334 30.4775 36.9134 30.4775 41.3334ZM54.4775 13.3334C54.4775 14.3942 54.0561 15.4117 53.306 16.1618C52.5558 16.9119 51.5384 17.3334 50.4775 17.3334C49.4167 17.3334 48.3993 16.9119 47.6491 16.1618C46.899 15.4117 46.4775 14.3942 46.4775 13.3334C46.4775 12.2725 46.899 11.2551 47.6491 10.5049C48.3993 9.7548 49.4167 9.33337 50.4775 9.33337C51.5384 9.33337 52.5558 9.7548 53.306 10.5049C54.0561 11.2551 54.4775 12.2725 54.4775 13.3334V13.3334Z" stroke="#54A75C" stroke-width="2" stroke-linejoin="round"/>
<path fill-rule="evenodd" clip-rule="evenodd" d="M30.4775 41.3334C30.4775 42.9156 30.0083 44.4623 29.1293 45.7779C28.2502 47.0935 27.0008 48.1189 25.539 48.7244C24.0772 49.3299 22.4687 49.4883 20.9168 49.1797C19.365 48.871 17.9395 48.1091 16.8207 46.9902C15.7019 45.8714 14.9399 44.4459 14.6313 42.8941C14.3226 41.3423 14.481 39.7337 15.0865 38.2719C15.692 36.8101 16.7174 35.5607 18.033 34.6816C19.3486 33.8026 20.8953 33.3334 22.4775 33.3334C26.8975 33.3334 30.4775 36.9134 30.4775 41.3334ZM54.4775 13.3334C54.4775 14.3942 54.0561 15.4117 53.306 16.1618C52.5558 16.9119 51.5384 17.3334 50.4775 17.3334C49.4167 17.3334 48.3993 16.9119 47.6491 16.1618C46.899 15.4117 46.4775 14.3942 46.4775 13.3334C46.4775 12.2725 46.899 11.2551 47.6491 10.5049C48.3993 9.7548 49.4167 9.33337 50.4775 9.33337C51.5384 9.33337 52.5558 9.7548 53.306 10.5049C54.0561 11.2551 54.4775 12.2725 54.4775 13.3334V13.3334Z" stroke="#3FA949" stroke-width="2" stroke-linejoin="round"/>
<path fill-rule="evenodd" clip-rule="evenodd" d="M30.4775 41.3334C30.4775 42.9156 30.0083 44.4623 29.1293 45.7779C28.2502 47.0935 27.0008 48.1189 25.539 48.7244C24.0772 49.3299 22.4687 49.4883 20.9168 49.1797C19.365 48.871 17.9395 48.1091 16.8207 46.9902C15.7019 45.8714 14.9399 44.4459 14.6313 42.8941C14.3226 41.3423 14.481 39.7337 15.0865 38.2719C15.692 36.8101 16.7174 35.5607 18.033 34.6816C19.3486 33.8026 20.8953 33.3334 22.4775 33.3334C26.8975 33.3334 30.4775 36.9134 30.4775 41.3334ZM54.4775 13.3334C54.4775 14.3942 54.0561 15.4117 53.306 16.1618C52.5558 16.9119 51.5384 17.3334 50.4775 17.3334C49.4167 17.3334 48.3993 16.9119 47.6491 16.1618C46.899 15.4117 46.4775 14.3942 46.4775 13.3334C46.4775 12.2725 46.899 11.2551 47.6491 10.5049C48.3993 9.7548 49.4167 9.33337 50.4775 9.33337C51.5384 9.33337 52.5558 9.7548 53.306 10.5049C54.0561 11.2551 54.4775 12.2725 54.4775 13.3334V13.3334Z" stroke="#479B4E" stroke-width="2" stroke-linejoin="round"/>
<path fill-rule="evenodd" clip-rule="evenodd" d="M30.4775 41.3334C30.4775 42.9156 30.0083 44.4623 29.1293 45.7779C28.2502 47.0935 27.0008 48.1189 25.539 48.7244C24.0772 49.3299 22.4687 49.4883 20.9168 49.1797C19.365 48.871 17.9395 48.1091 16.8207 46.9902C15.7019 45.8714 14.9399 44.4459 14.6313 42.8941C14.3226 41.3423 14.481 39.7337 15.0865 38.2719C15.692 36.8101 16.7174 35.5607 18.033 34.6816C19.3486 33.8026 20.8953 33.3334 22.4775 33.3334C26.8975 33.3334 30.4775 36.9134 30.4775 41.3334ZM54.4775 13.3334C54.4775 14.3942 54.0561 15.4117 53.306 16.1618C52.5558 16.9119 51.5384 17.3334 50.4775 17.3334C49.4167 17.3334 48.3993 16.9119 47.6491 16.1618C46.899 15.4117 46.4775 14.3942 46.4775 13.3334C46.4775 12.2725 46.899 11.2551 47.6491 10.5049C48.3993 9.7548 49.4167 9.33337 50.4775 9.33337C51.5384 9.33337 52.5558 9.7548 53.306 10.5049C54.0561 11.2551 54.4775 12.2725 54.4775 13.3334V13.3334Z" stroke="#3BC76B" stroke-width="2" stroke-linejoin="round"/>
<path fill-rule="evenodd" clip-rule="evenodd" d="M39.8108 41.3334C39.8108 40.088 39.6735 38.8774 39.4242 37.7067L43.6175 35.2867L38.2842 26.0467L34.1682 28.4787C32.3762 26.8534 30.6668 25.6 28.0002 24.84V20H17.3335V24.8467C14.6668 25.604 12.7655 26.86 10.9735 28.4787L6.71483 26.04L1.3575 35.28L5.54016 37.7014C5.2832 38.895 5.15226 40.1124 5.1495 41.3334C5.1495 42.5787 5.28283 43.7894 5.53083 44.96L1.3335 47.3787L6.66683 56.6187L10.9735 54.1867C12.7655 55.808 14.6668 57.064 17.3335 57.824V62.6667H28.0002V57.8227C30.6668 57.0627 32.3762 55.8067 34.1708 54.188L38.3308 56.6254L43.6402 47.3854L39.4375 44.964C39.6842 43.7947 39.8108 42.584 39.8108 41.3374V41.3334ZM59.8108 13.3334C59.8108 12.5867 59.7148 11.8667 59.5508 11.1734L62.2042 9.64271L59.5375 5.02404L56.9775 6.55737C55.9405 5.57131 54.6951 4.83086 53.3335 4.39071V1.33337H48.0002V4.39337C46.6668 4.81471 45.2135 5.56671 44.1682 6.55737L41.4642 5.02404L38.7735 9.64271L41.4162 11.176C41.2508 11.8667 41.1495 12.5894 41.1495 13.3334C41.1495 14.08 41.2428 14.7974 41.4082 15.4934L38.7508 17.024L41.4175 21.6427L44.1668 20.1094C45.2135 21.1014 46.6668 21.856 48.0002 22.276V25.3334H53.3335V22.276C54.6957 21.8362 55.9415 21.0958 56.9788 20.1094L59.5828 21.6427L62.2268 17.024L59.5628 15.4907C59.7268 14.8 59.8108 14.0774 59.8108 13.3334V13.3334Z" stroke="#54A75C" stroke-width="2" stroke-linejoin="round"/>
<path fill-rule="evenodd" clip-rule="evenodd" d="M39.8108 41.3334C39.8108 40.088 39.6735 38.8774 39.4242 37.7067L43.6175 35.2867L38.2842 26.0467L34.1682 28.4787C32.3762 26.8534 30.6668 25.6 28.0002 24.84V20H17.3335V24.8467C14.6668 25.604 12.7655 26.86 10.9735 28.4787L6.71483 26.04L1.3575 35.28L5.54016 37.7014C5.2832 38.895 5.15226 40.1124 5.1495 41.3334C5.1495 42.5787 5.28283 43.7894 5.53083 44.96L1.3335 47.3787L6.66683 56.6187L10.9735 54.1867C12.7655 55.808 14.6668 57.064 17.3335 57.824V62.6667H28.0002V57.8227C30.6668 57.0627 32.3762 55.8067 34.1708 54.188L38.3308 56.6254L43.6402 47.3854L39.4375 44.964C39.6842 43.7947 39.8108 42.584 39.8108 41.3374V41.3334ZM59.8108 13.3334C59.8108 12.5867 59.7148 11.8667 59.5508 11.1734L62.2042 9.64271L59.5375 5.02404L56.9775 6.55737C55.9405 5.57131 54.6951 4.83086 53.3335 4.39071V1.33337H48.0002V4.39337C46.6668 4.81471 45.2135 5.56671 44.1682 6.55737L41.4642 5.02404L38.7735 9.64271L41.4162 11.176C41.2508 11.8667 41.1495 12.5894 41.1495 13.3334C41.1495 14.08 41.2428 14.7974 41.4082 15.4934L38.7508 17.024L41.4175 21.6427L44.1668 20.1094C45.2135 21.1014 46.6668 21.856 48.0002 22.276V25.3334H53.3335V22.276C54.6957 21.8362 55.9415 21.0958 56.9788 20.1094L59.5828 21.6427L62.2268 17.024L59.5628 15.4907C59.7268 14.8 59.8108 14.0774 59.8108 13.3334V13.3334Z" stroke="#3FA949" stroke-width="2" stroke-linejoin="round"/>
<path fill-rule="evenodd" clip-rule="evenodd" d="M39.8108 41.3334C39.8108 40.088 39.6735 38.8774 39.4242 37.7067L43.6175 35.2867L38.2842 26.0467L34.1682 28.4787C32.3762 26.8534 30.6668 25.6 28.0002 24.84V20H17.3335V24.8467C14.6668 25.604 12.7655 26.86 10.9735 28.4787L6.71483 26.04L1.3575 35.28L5.54016 37.7014C5.2832 38.895 5.15226 40.1124 5.1495 41.3334C5.1495 42.5787 5.28283 43.7894 5.53083 44.96L1.3335 47.3787L6.66683 56.6187L10.9735 54.1867C12.7655 55.808 14.6668 57.064 17.3335 57.824V62.6667H28.0002V57.8227C30.6668 57.0627 32.3762 55.8067 34.1708 54.188L38.3308 56.6254L43.6402 47.3854L39.4375 44.964C39.6842 43.7947 39.8108 42.584 39.8108 41.3374V41.3334ZM59.8108 13.3334C59.8108 12.5867 59.7148 11.8667 59.5508 11.1734L62.2042 9.64271L59.5375 5.02404L56.9775 6.55737C55.9405 5.57131 54.6951 4.83086 53.3335 4.39071V1.33337H48.0002V4.39337C46.6668 4.81471 45.2135 5.56671 44.1682 6.55737L41.4642 5.02404L38.7735 9.64271L41.4162 11.176C41.2508 11.8667 41.1495 12.5894 41.1495 13.3334C41.1495 14.08 41.2428 14.7974 41.4082 15.4934L38.7508 17.024L41.4175 21.6427L44.1668 20.1094C45.2135 21.1014 46.6668 21.856 48.0002 22.276V25.3334H53.3335V22.276C54.6957 21.8362 55.9415 21.0958 56.9788 20.1094L59.5828 21.6427L62.2268 17.024L59.5628 15.4907C59.7268 14.8 59.8108 14.0774 59.8108 13.3334V13.3334Z" stroke="#479B4E" stroke-width="2" stroke-linejoin="round"/>
<path fill-rule="evenodd" clip-rule="evenodd" d="M39.8108 41.3334C39.8108 40.088 39.6735 38.8774 39.4242 37.7067L43.6175 35.2867L38.2842 26.0467L34.1682 28.4787C32.3762 26.8534 30.6668 25.6 28.0002 24.84V20H17.3335V24.8467C14.6668 25.604 12.7655 26.86 10.9735 28.4787L6.71483 26.04L1.3575 35.28L5.54016 37.7014C5.2832 38.895 5.15226 40.1124 5.1495 41.3334C5.1495 42.5787 5.28283 43.7894 5.53083 44.96L1.3335 47.3787L6.66683 56.6187L10.9735 54.1867C12.7655 55.808 14.6668 57.064 17.3335 57.824V62.6667H28.0002V57.8227C30.6668 57.0627 32.3762 55.8067 34.1708 54.188L38.3308 56.6254L43.6402 47.3854L39.4375 44.964C39.6842 43.7947 39.8108 42.584 39.8108 41.3374V41.3334ZM59.8108 13.3334C59.8108 12.5867 59.7148 11.8667 59.5508 11.1734L62.2042 9.64271L59.5375 5.02404L56.9775 6.55737C55.9405 5.57131 54.6951 4.83086 53.3335 4.39071V1.33337H48.0002V4.39337C46.6668 4.81471 45.2135 5.56671 44.1682 6.55737L41.4642 5.02404L38.7735 9.64271L41.4162 11.176C41.2508 11.8667 41.1495 12.5894 41.1495 13.3334C41.1495 14.08 41.2428 14.7974 41.4082 15.4934L38.7508 17.024L41.4175 21.6427L44.1668 20.1094C45.2135 21.1014 46.6668 21.856 48.0002 22.276V25.3334H53.3335V22.276C54.6957 21.8362 55.9415 21.0958 56.9788 20.1094L59.5828 21.6427L62.2268 17.024L59.5628 15.4907C59.7268 14.8 59.8108 14.0774 59.8108 13.3334V13.3334Z" stroke="#3BC76B" stroke-width="2" stroke-linejoin="round"/>
</svg>
