<svg width="338" height="101" viewBox="0 0 338 101" fill="none" xmlns="http://www.w3.org/2000/svg">
<mask id="mask0_67_575" style="mask-type:alpha" maskUnits="userSpaceOnUse" x="0" y="0" width="101" height="101">
<path d="M25.25 0C11.3048 0 0 11.3048 0 25.25V75.75C0 89.6952 11.3048 101 25.25 101H75.75C89.6952 101 101 89.6952 101 75.75V25.25C101 11.3048 89.6952 0 75.75 0H25.25Z" fill="#C4C4C4"/>
</mask>
<g mask="url(#mask0_67_575)">
<rect width="101" height="101" fill="url(#paint0_radial_67_575)"/>
<circle cy="101" r="50.5" fill="url(#paint1_radial_67_575)"/>
<ellipse opacity="0.66" cx="50.5" cy="66.2812" rx="31.5625" ry="15.7812" fill="url(#paint2_linear_67_575)"/>
<ellipse cx="50.5" cy="50.5" rx="31.5625" ry="15.7812" fill="url(#paint3_linear_67_575)"/>
<ellipse cx="50.5" cy="34.7188" rx="31.5625" ry="15.7812" fill="white"/>
</g>
<path d="M135 27V17C123.954 17 115 25.9543 115 37V82H125V52H135V42H125V37C125 31.4771 129.477 27 135 27Z" fill="#FF6640"/>
<path d="M152.5 17H142.5V82H152.5V17Z" fill="#FF6640"/>
<path d="M245 22C245 24.7614 242.761 27 240 27C237.239 27 235 24.7614 235 22C235 19.2386 237.239 17 240 17C242.761 17 245 19.2386 245 22Z" fill="#FF6640"/>
<path d="M245 32V82H235V32H245Z" fill="#FF6640"/>
<path d="M207.5 17H217.5V32H227.5V42H217.5V62C217.5 67.5229 221.977 72 227.5 72V82C216.454 82 207.5 73.0457 207.5 62V17Z" fill="#FF6640"/>
<path fill-rule="evenodd" clip-rule="evenodd" d="M262.5 32H252.5V97H262.5V77.0018C266.678 80.1403 271.872 82 277.5 82C291.307 82 302.5 70.8071 302.5 57C302.5 43.1929 291.307 32 277.5 32C271.872 32 266.678 33.8597 262.5 36.9982V32ZM262.5 57C262.5 65.2843 269.216 72 277.5 72C285.784 72 292.5 65.2843 292.5 57C292.5 48.7157 285.784 42 277.5 42C269.216 42 262.5 48.7157 262.5 57Z" fill="#FF6640"/>
<path d="M315 46.2705C315 43.912 316.912 42 319.271 42H320C322.761 42 325 44.2386 325 47H335C335 38.7157 328.284 32 320 32H319.271C311.389 32 305 38.3891 305 46.2705C305 51.6758 308.054 56.6171 312.889 59.0344L322.639 63.9098C324.086 64.6332 325 66.1119 325 67.7295C325 70.088 323.088 72 320.729 72H320C317.239 72 315 69.7614 315 67H305C305 75.2843 311.716 82 320 82H320.729C328.611 82 335 75.6109 335 67.7295C335 62.3242 331.946 57.3829 327.111 54.9656L317.361 50.0902C315.914 49.3668 315 47.8881 315 46.2705Z" fill="#FF6640"/>
<path d="M174.616 81.7014L155 32H165.769L180 68.0588L194.231 32H205L179.346 97H168.578L174.616 81.7014Z" fill="#FF6640"/>
<path fill-rule="evenodd" clip-rule="evenodd" d="M333.097 32.8145C333.412 32.6887 333.569 32.4371 333.569 32.0755C333.569 31.8239 333.491 31.6195 333.318 31.4623C333.145 31.2893 332.94 31.2107 332.689 31.2107H331.604V33.7264H332.17V32.8931H332.547L333.035 33.7264H333.632L333.097 32.8145ZM332.186 32.3899V31.7453H332.641C332.752 31.7453 332.846 31.7767 332.909 31.8396C332.972 31.9025 333.003 31.9811 333.003 32.0755C333.003 32.1698 332.972 32.2484 332.909 32.3113C332.846 32.3585 332.752 32.3899 332.641 32.3899H332.186Z" fill="#FF6640"/>
<path fill-rule="evenodd" clip-rule="evenodd" d="M334.277 30.7233C333.805 30.2358 333.208 30 332.516 30C331.808 30 331.226 30.2358 330.739 30.7233C330.252 31.2107 330 31.8082 330 32.5C330 33.1918 330.252 33.7736 330.739 34.261C331.226 34.7484 331.824 35 332.516 35C333.208 35 333.789 34.7642 334.277 34.2767C334.764 33.7893 335 33.1918 335 32.5C335 31.7925 334.764 31.2107 334.277 30.7233ZM332.516 34.4497C331.965 34.4497 331.509 34.261 331.132 33.8836C330.755 33.5063 330.566 33.0346 330.566 32.5C330.566 31.9654 330.755 31.5094 331.132 31.1321C331.509 30.7547 331.965 30.566 332.516 30.566C333.05 30.566 333.506 30.7547 333.884 31.1321C334.261 31.5094 334.45 31.9654 334.45 32.5C334.45 33.0503 334.261 33.5063 333.884 33.8836C333.522 34.261 333.066 34.4497 332.516 34.4497Z" fill="#FF6640"/>
<defs>
<radialGradient id="paint0_radial_67_575" cx="0" cy="0" r="1" gradientUnits="userSpaceOnUse" gradientTransform="translate(101) rotate(90) scale(101)">
<stop stop-color="#FF0000"/>
<stop offset="1" stop-color="#FFAA00"/>
</radialGradient>
<radialGradient id="paint1_radial_67_575" cx="0" cy="0" r="1" gradientUnits="userSpaceOnUse" gradientTransform="translate(0 101) rotate(90) scale(50.5)">
<stop stop-color="#D4FF00"/>
<stop offset="1" stop-color="#FFFF00" stop-opacity="0"/>
</radialGradient>
<linearGradient id="paint2_linear_67_575" x1="50.5" y1="50.5" x2="50.5" y2="82.0625" gradientUnits="userSpaceOnUse">
<stop stop-color="white" stop-opacity="0"/>
<stop offset="1" stop-color="white"/>
</linearGradient>
<linearGradient id="paint3_linear_67_575" x1="50.5" y1="34.7188" x2="50.5" y2="66.2812" gradientUnits="userSpaceOnUse">
<stop stop-color="white" stop-opacity="0"/>
<stop offset="1" stop-color="white"/>
</linearGradient>
</defs>
</svg>
