<svg width="64" height="64" viewBox="0 0 64 64" fill="none" xmlns="http://www.w3.org/2000/svg">
<path d="M32.0002 28L1.3335 14.6667M32.0002 28V62.6667M32.0002 28L47.3335 21.3334M1.3335 14.6667V49.3334L32.0002 62.6667M1.3335 14.6667L16.6668 8.00004M32.0002 62.6667L62.6668 49.3334V14.6667M62.6668 14.6667L32.0002 1.33337L16.6668 8.00004M62.6668 14.6667L47.3335 21.3334M16.6668 8.00004L47.3335 21.3334" stroke="#54A75C" stroke-width="2" stroke-linecap="round" stroke-linejoin="round"/>
<path d="M32.0002 28L1.3335 14.6667M32.0002 28V62.6667M32.0002 28L47.3335 21.3334M1.3335 14.6667V49.3334L32.0002 62.6667M1.3335 14.6667L16.6668 8.00004M32.0002 62.6667L62.6668 49.3334V14.6667M62.6668 14.6667L32.0002 1.33337L16.6668 8.00004M62.6668 14.6667L47.3335 21.3334M16.6668 8.00004L47.3335 21.3334" stroke="#3FA949" stroke-width="2" stroke-linecap="round" stroke-linejoin="round"/>
<path d="M32.0002 28L1.3335 14.6667M32.0002 28V62.6667M32.0002 28L47.3335 21.3334M1.3335 14.6667V49.3334L32.0002 62.6667M1.3335 14.6667L16.6668 8.00004M32.0002 62.6667L62.6668 49.3334V14.6667M62.6668 14.6667L32.0002 1.33337L16.6668 8.00004M62.6668 14.6667L47.3335 21.3334M16.6668 8.00004L47.3335 21.3334" stroke="#479B4E" stroke-width="2" stroke-linecap="round" stroke-linejoin="round"/>
<path d="M32.0002 28L1.3335 14.6667M32.0002 28V62.6667M32.0002 28L47.3335 21.3334M1.3335 14.6667V49.3334L32.0002 62.6667M1.3335 14.6667L16.6668 8.00004M32.0002 62.6667L62.6668 49.3334V14.6667M62.6668 14.6667L32.0002 1.33337L16.6668 8.00004M62.6668 14.6667L47.3335 21.3334M16.6668 8.00004L47.3335 21.3334" stroke="#3BC76B" stroke-width="2" stroke-linecap="round" stroke-linejoin="round"/>
<mask id="path-2-inside-1" fill="white">
<path fill-rule="evenodd" clip-rule="evenodd" d="M19.1108 6.8894L46.9575 21.4174L19.1108 6.8894Z"/>
</mask>
<path d="M19.5734 6.00281C19.0837 5.74735 18.4797 5.9372 18.2242 6.42686C17.9688 6.91651 18.1586 7.52054 18.6483 7.776L19.5734 6.00281ZM46.495 22.304C46.9846 22.5595 47.5886 22.3696 47.8441 21.88C48.0996 21.3903 47.9097 20.7863 47.4201 20.5308L46.495 22.304ZM18.6483 7.776L46.495 22.304L47.4201 20.5308L19.5734 6.00281L18.6483 7.776Z" fill="#54A75C" mask="url(#path-2-inside-1)"/>
<path d="M19.5734 6.00281C19.0837 5.74735 18.4797 5.9372 18.2242 6.42686C17.9688 6.91651 18.1586 7.52054 18.6483 7.776L19.5734 6.00281ZM46.495 22.304C46.9846 22.5595 47.5886 22.3696 47.8441 21.88C48.0996 21.3903 47.9097 20.7863 47.4201 20.5308L46.495 22.304ZM18.6483 7.776L46.495 22.304L47.4201 20.5308L19.5734 6.00281L18.6483 7.776Z" fill="#3FA949" mask="url(#path-2-inside-1)"/>
<path d="M19.5734 6.00281C19.0837 5.74735 18.4797 5.9372 18.2242 6.42686C17.9688 6.91651 18.1586 7.52054 18.6483 7.776L19.5734 6.00281ZM46.495 22.304C46.9846 22.5595 47.5886 22.3696 47.8441 21.88C48.0996 21.3903 47.9097 20.7863 47.4201 20.5308L46.495 22.304ZM18.6483 7.776L46.495 22.304L47.4201 20.5308L19.5734 6.00281L18.6483 7.776Z" fill="#479B4E" mask="url(#path-2-inside-1)"/>
<path d="M19.5734 6.00281C19.0837 5.74735 18.4797 5.9372 18.2242 6.42686C17.9688 6.91651 18.1586 7.52054 18.6483 7.776L19.5734 6.00281ZM46.495 22.304C46.9846 22.5595 47.5886 22.3696 47.8441 21.88C48.0996 21.3903 47.9097 20.7863 47.4201 20.5308L46.495 22.304ZM18.6483 7.776L46.495 22.304L47.4201 20.5308L19.5734 6.00281L18.6483 7.776Z" fill="#3BC76B" mask="url(#path-2-inside-1)"/>
<path fill-rule="evenodd" clip-rule="evenodd" d="M24.0002 33.3334L9.3335 26.6667V40.0001L24.0002 46.6668V33.3334Z" stroke="#54A75C" stroke-width="2" stroke-linecap="round" stroke-linejoin="round"/>
<path fill-rule="evenodd" clip-rule="evenodd" d="M24.0002 33.3334L9.3335 26.6667V40.0001L24.0002 46.6668V33.3334Z" stroke="#3FA949" stroke-width="2" stroke-linecap="round" stroke-linejoin="round"/>
<path fill-rule="evenodd" clip-rule="evenodd" d="M24.0002 33.3334L9.3335 26.6667V40.0001L24.0002 46.6668V33.3334Z" stroke="#479B4E" stroke-width="2" stroke-linecap="round" stroke-linejoin="round"/>
<path fill-rule="evenodd" clip-rule="evenodd" d="M24.0002 33.3334L9.3335 26.6667V40.0001L24.0002 46.6668V33.3334Z" stroke="#3BC76B" stroke-width="2" stroke-linecap="round" stroke-linejoin="round"/>
</svg>
