<svg width="24" height="24" viewBox="0 0 24 24" fill="#777D82" xmlns="http://www.w3.org/2000/svg">
<path d="M17.9622 2H16.3634C15.9418 2 15.5996 2.33438 15.5996 2.74722C15.5996 3.15907 15.9418 3.49247 16.3634 3.49247H17.9622C19.3241 3.49247 20.4321 4.57506 20.4321 5.90573V7.76201C20.4321 8.17386 20.7743 8.50923 21.1958 8.50923C21.6184 8.50923 21.9596 8.17386 21.9596 7.76201V5.90573C21.9596 3.75135 20.1671 2 17.9622 2Z" />
<path d="M17.9622 22H16.3634C15.9418 22 15.5996 21.6656 15.5996 21.2528C15.5996 20.8409 15.9418 20.5075 16.3634 20.5075H17.9622C19.3241 20.5075 20.4321 19.4249 20.4321 18.0943V16.238C20.4321 15.8261 20.7743 15.4908 21.1958 15.4908C21.6184 15.4908 21.9596 15.8261 21.9596 16.238V18.0943C21.9596 20.2486 20.1671 22 17.9622 22Z" />
<path d="M8.365 2.74722C8.365 2.33438 8.024 2 7.604 2H7.603L5.974 2.00098C3.783 2.00294 2 3.75331 2 5.90279V7.76201C2 8.17386 2.341 8.50923 2.761 8.50923C3.181 8.50923 3.523 8.17386 3.523 7.76201V5.90279C3.523 4.57604 4.623 3.4964 5.975 3.49444L7.604 3.49345C8.025 3.49345 8.365 3.15907 8.365 2.74722Z" />
<path d="M8.365 21.2528C8.365 21.6656 8.024 22 7.604 22H7.603L5.974 21.999C3.783 21.9971 2 20.2467 2 18.0972V16.238C2 15.8261 2.341 15.4908 2.761 15.4908C3.181 15.4908 3.523 15.8261 3.523 16.238V18.0972C3.523 19.424 4.623 20.5036 5.975 20.5056L7.604 20.5065C8.025 20.5065 8.365 20.8409 8.365 21.2528Z" />
<path fill-rule="evenodd" clip-rule="evenodd" d="M6.19531 6.196H9.99931V10H6.19531V6.196Z" stroke-width="1.5" stroke-linecap="round" stroke-linejoin="round"/>
<path fill-rule="evenodd" clip-rule="evenodd" d="M6.11914 14.12H9.99914V18H6.11914V14.12Z" stroke-width="1.5" stroke-linecap="round" stroke-linejoin="round"/>
<path fill-rule="evenodd" clip-rule="evenodd" d="M14 14.12H17.88V15H14V14.12Z" stroke-width="1.5" stroke-linecap="round" stroke-linejoin="round"/>
<path fill-rule="evenodd" clip-rule="evenodd" d="M17.8789 9.8797H13.9989V5.9997H17.8789V9.8797Z"  stroke-width="1.5" stroke-linecap="round" stroke-linejoin="round"/>
</svg>
