<svg width="25" height="18" viewBox="0 0 25 18" fill="none" xmlns="http://www.w3.org/2000/svg">
<path d="M7.92402 7.88288L10.407 1.92387C10.4998 1.69993 10.5106 1.45042 10.4374 1.21933C10.3642 0.988231 10.2118 0.790391 10.007 0.660683C9.80222 0.530975 9.55822 0.477727 9.31802 0.510326C9.07781 0.542926 8.85683 0.659279 8.69402 0.838875L1.92702 8.33387C-1.26098 11.8639 1.24402 17.4999 6.00002 17.4999C7.15668 17.501 8.27794 17.1011 9.1728 16.3682C10.0677 15.6354 10.6808 14.6149 10.9077 13.4808C11.1346 12.3466 10.9613 11.1688 10.4172 10.1481C9.87317 9.12737 8.99208 8.32684 7.92402 7.88288ZM20 17.4999C15.244 17.4999 12.74 11.8629 15.927 8.33387L22.694 0.838875C22.8568 0.659279 23.0778 0.542926 23.318 0.510326C23.5582 0.477727 23.8022 0.530975 24.007 0.660683C24.2118 0.790391 24.3642 0.988231 24.4374 1.21933C24.5106 1.45042 24.4998 1.69993 24.407 1.92387L21.924 7.88387C22.9904 8.32906 23.8697 9.12982 24.4125 10.15C24.9553 11.1702 25.128 12.3469 24.9012 13.48C24.6745 14.6132 24.0624 15.6328 23.1689 16.3657C22.2753 17.0985 21.1556 17.4993 20 17.4999Z" fill="#777D82"/>
</svg>
