<svg width="64" height="64" viewBox="0 0 64 64" fill="none" xmlns="http://www.w3.org/2000/svg">
<path fill-rule="evenodd" clip-rule="evenodd" d="M54.6666 62.6666H9.33325V1.33325H38.6666L54.6666 17.3333V62.6666Z" stroke="#54A75C" stroke-width="2"/>
<path fill-rule="evenodd" clip-rule="evenodd" d="M54.6666 62.6666H9.33325V1.33325H38.6666L54.6666 17.3333V62.6666Z" stroke="#3FA949" stroke-width="2"/>
<path fill-rule="evenodd" clip-rule="evenodd" d="M54.6666 62.6666H9.33325V1.33325H38.6666L54.6666 17.3333V62.6666Z" stroke="#479B4E" stroke-width="2"/>
<path fill-rule="evenodd" clip-rule="evenodd" d="M54.6666 62.6666H9.33325V1.33325H38.6666L54.6666 17.3333V62.6666Z" stroke="#3BC76B" stroke-width="2"/>
<path d="M38.6665 1.33325V17.3333H54.6665" stroke="#54A75C" stroke-width="2"/>
<path d="M38.6665 1.33325V17.3333H54.6665" stroke="#3FA949" stroke-width="2"/>
<path d="M38.6665 1.33325V17.3333H54.6665" stroke="#479B4E" stroke-width="2"/>
<path d="M38.6665 1.33325V17.3333H54.6665" stroke="#3BC76B" stroke-width="2"/>
<path d="M27.9999 22.6665V54.6665M46.6666 54.6665H17.3333V22.6665H46.6666V54.6665ZM17.3333 30.6665H46.6666H17.3333ZM17.3333 38.6665H46.6666H17.3333ZM17.3333 46.6665H46.6666H17.3333Z" stroke="#54A75C" stroke-width="2"/>
<path d="M27.9999 22.6665V54.6665M46.6666 54.6665H17.3333V22.6665H46.6666V54.6665ZM17.3333 30.6665H46.6666H17.3333ZM17.3333 38.6665H46.6666H17.3333ZM17.3333 46.6665H46.6666H17.3333Z" stroke="#3FA949" stroke-width="2"/>
<path d="M27.9999 22.6665V54.6665M46.6666 54.6665H17.3333V22.6665H46.6666V54.6665ZM17.3333 30.6665H46.6666H17.3333ZM17.3333 38.6665H46.6666H17.3333ZM17.3333 46.6665H46.6666H17.3333Z" stroke="#479B4E" stroke-width="2"/>
<path d="M27.9999 22.6665V54.6665M46.6666 54.6665H17.3333V22.6665H46.6666V54.6665ZM17.3333 30.6665H46.6666H17.3333ZM17.3333 38.6665H46.6666H17.3333ZM17.3333 46.6665H46.6666H17.3333Z" stroke="#3BC76B" stroke-width="2"/>
</svg>
