<svg width="12" height="12" viewBox="0 0 12 12" fill="none" xmlns="http://www.w3.org/2000/svg">
<path d="M8.50096 7C8.90561 7 9.135 7.4505 8.91898 7.7747L8.88507 7.82009L6.38507 10.8201C6.1985 11.044 5.86512 11.0589 5.65897 10.8649L5.61684 10.8201L3.11684 7.82009C2.85779 7.50923 3.05702 7.0446 3.44437 7.003L3.50096 7H8.50096Z" fill="#D6D8DA"/>
<path d="M5.61684 1.17991C5.80342 0.956023 6.13679 0.941097 6.34294 1.13513L6.38507 1.17991L8.88507 4.17991C9.14412 4.49077 8.94489 4.9554 8.55754 4.997L8.50096 5H3.50096C3.09631 5 2.86691 4.5495 3.08293 4.2253L3.11684 4.17991L5.61684 1.17991Z" fill="#777D82"/>
</svg>
