<svg width="18" height="18" viewBox="0 0 18 18" fill="none" xmlns="http://www.w3.org/2000/svg">
<path d="M10.5117 9.73828H12.7617L9 6.01172L5.23828 9.73828H7.48828V12.7617H10.5117V9.73828ZM14.5195 7.52344C15.4805 7.59375 16.3008 7.99219 16.9805 8.71875C17.6602 9.42188 18 10.2656 18 11.25C18 12.2812 17.625 13.1719 16.875 13.9219C16.1484 14.6484 15.2695 15.0117 14.2383 15.0117H4.5C3.25781 15.0117 2.19141 14.5781 1.30078 13.7109C0.433594 12.8203 0 11.7539 0 10.5117C0 9.36328 0.386719 8.36719 1.16016 7.52344C1.93359 6.65625 2.88281 6.16406 4.00781 6.04688C4.5 5.13281 5.19141 4.39453 6.08203 3.83203C6.97266 3.26953 7.94531 2.98828 9 2.98828C10.3594 2.98828 11.5547 3.42187 12.5859 4.28906C13.6172 5.13281 14.2617 6.21094 14.5195 7.52344Z" fill="#55595B"/>
</svg>
