<svg width="148" height="48" viewBox="0 0 148 48" fill="none" xmlns="http://www.w3.org/2000/svg">
<path d="M9.50346 47.9975C9.12105 47.9975 8.74788 47.9926 8.36848 47.9841C7.5825 47.9738 6.79837 47.9054 6.0225 47.7794C5.29904 47.6548 4.59821 47.4231 3.94311 47.0919C3.29402 46.7634 2.702 46.3327 2.18973 45.8162C1.67004 45.3058 1.23737 44.7139 0.908875 44.0638C0.576759 43.4095 0.346916 42.7082 0.22735 41.9843C0.0982303 41.2065 0.028371 40.4199 0.0183748 39.6315C0.0104174 39.3669 0 38.4857 0 38.4857V9.49828C0 9.49828 0.0110952 8.63068 0.0184376 8.37578C0.0280088 7.5886 0.097462 6.80329 0.226196 6.02664C0.345982 5.30074 0.576003 4.59741 0.908297 3.94098C1.23559 3.29137 1.66585 2.69898 2.18241 2.18678C2.69839 1.66971 3.2923 1.23677 3.9425 0.903746C4.59609 0.573578 5.2956 0.34349 6.01759 0.22119C6.79601 0.0939071 7.58287 0.0250918 8.37156 0.0153216L9.50407 0H138.49L139.636 0.0159364C140.417 0.0252212 141.197 0.0934226 141.968 0.21996C142.698 0.343794 143.404 0.575487 144.065 0.907422C145.368 1.57857 146.428 2.64038 147.097 3.94404C147.424 4.59594 147.65 5.29354 147.768 6.01316C147.899 6.79618 147.971 7.58767 147.986 8.3813C147.99 8.73667 147.99 9.11839 147.99 9.49828C148 9.96885 148 10.4167 148 10.8683V37.1304C148 37.5862 148 38.0311 147.99 38.4796C147.99 38.8876 147.99 39.2614 147.985 39.6462C147.971 40.4257 147.899 41.203 147.771 41.972C147.654 42.7012 147.425 43.4079 147.093 44.0676C146.762 44.7106 146.332 45.2974 145.818 45.8064C145.306 46.3257 144.712 46.7589 144.062 47.0895C143.403 47.4233 142.697 47.6558 141.968 47.7794C141.193 47.9061 140.408 47.9745 139.622 47.9841C139.255 47.9926 138.87 47.9975 138.496 47.9975L137.135 48L9.50346 47.9975Z" fill="black"/>
<path d="M29.9922 24.376C30.0057 23.3286 30.2839 22.3017 30.8011 21.3907C31.3182 20.4798 32.0574 19.7144 32.9499 19.1658C32.3829 18.3563 31.6349 17.69 30.7654 17.22C29.8958 16.75 28.9286 16.4892 27.9406 16.4583C25.8329 16.2371 23.7897 17.7192 22.7157 17.7192C21.6209 17.7192 19.9673 16.4803 18.1866 16.5169C17.0348 16.5541 15.9123 16.8889 14.9285 17.4888C13.9446 18.0887 13.133 18.9332 12.5726 19.9399C10.1452 24.1416 11.9558 30.3167 14.2811 33.7131C15.4444 35.3762 16.8041 37.2339 18.5831 37.168C20.324 37.0958 20.9742 36.0582 23.0756 36.0582C25.1576 36.0582 25.7676 37.168 27.5827 37.1262C29.4508 37.0958 30.6278 35.4557 31.7503 33.7768C32.5862 32.5918 33.2294 31.2821 33.6561 29.8962C32.5708 29.4373 31.6447 28.6691 30.9931 27.6875C30.3415 26.7058 29.9934 25.5541 29.9922 24.376Z" fill="white"/>
<path d="M26.5636 14.2246C27.5821 13.0022 28.0839 11.4309 27.9624 9.84448C26.4063 10.0079 24.9688 10.7515 23.9365 11.927C23.4318 12.5013 23.0452 13.1694 22.7989 13.8932C22.5526 14.6169 22.4514 15.3821 22.5011 16.145C23.2794 16.153 24.0494 15.9844 24.7531 15.6517C25.4568 15.3191 26.0758 14.8311 26.5636 14.2246Z" fill="white"/>
<path d="M51.9987 32.9577H46.0578L44.6311 37.1695H42.1147L47.7419 21.5869H50.3563L55.9834 37.1695H53.4242L51.9987 32.9577ZM46.6731 31.0141H51.3823L49.0608 24.1787H48.9958L46.6731 31.0141Z" fill="white"/>
<path d="M68.1366 31.4895C68.1366 35.02 66.2466 37.2883 63.3944 37.2883C62.6719 37.326 61.9534 37.1596 61.321 36.8081C60.6887 36.4566 60.1682 35.9341 59.8191 35.3006H59.7651V40.9278H57.4326V25.8085H59.6904V27.6981H59.7333C60.0985 27.0676 60.6278 26.5478 61.2649 26.1941C61.902 25.8405 62.6232 25.6661 63.3515 25.6896C66.2355 25.6896 68.1366 27.9689 68.1366 31.4895ZM65.7392 31.4895C65.7392 29.1894 64.5502 27.6772 62.7362 27.6772C60.9541 27.6772 59.7553 29.2213 59.7553 31.4895C59.7553 33.7786 60.9541 35.3117 62.7362 35.3117C64.5503 35.3117 65.7392 33.8105 65.7392 31.4895Z" fill="white"/>
<path d="M80.6435 31.4898C80.6435 35.0202 78.7534 37.2885 75.9013 37.2885C75.1787 37.3263 74.4602 37.1599 73.8279 36.8084C73.1956 36.4568 72.675 35.9344 72.3259 35.3008H72.2719V40.928H69.9395V25.8087H72.1972V27.6983H72.2401C72.6053 27.0678 73.1346 26.5481 73.7717 26.1944C74.4088 25.8407 75.13 25.6664 75.8583 25.6898C78.7424 25.6898 80.6435 27.9691 80.6435 31.4898ZM78.246 31.4898C78.246 29.1897 77.0571 27.6775 75.2431 27.6775C73.4609 27.6775 72.2622 29.2215 72.2622 31.4898C72.2622 33.7789 73.4609 35.3119 75.2431 35.3119C77.0571 35.3119 78.246 33.8107 78.246 31.4898H78.246Z" fill="white"/>
<path d="M88.9092 32.8278C89.082 34.3731 90.5835 35.3877 92.6353 35.3877C94.6013 35.3877 96.0157 34.3731 96.0157 32.9797C96.0157 31.7702 95.1626 31.046 93.1427 30.5497L91.1228 30.0632C88.2608 29.3721 86.9321 28.0339 86.9321 25.8625C86.9321 23.1739 89.2757 21.3271 92.6034 21.3271C95.8968 21.3271 98.1546 23.1739 98.2306 25.8625H95.876C95.735 24.3074 94.4493 23.3687 92.5703 23.3687C90.6913 23.3687 89.4055 24.3184 89.4055 25.7007C89.4055 26.8024 90.2268 27.4506 92.2357 27.9469L93.9529 28.3684C97.1507 29.1245 98.4793 30.4088 98.4793 32.688C98.4793 35.6033 96.1566 37.4292 92.4624 37.4292C89.006 37.4292 86.6722 35.6462 86.5215 32.8277L88.9092 32.8278Z" fill="white"/>
<path d="M103.513 23.1201V25.8087H105.674V27.6554H103.513V33.9186C103.513 34.8916 103.946 35.345 104.896 35.345C105.152 35.3405 105.409 35.3225 105.663 35.291V37.1267C105.236 37.2065 104.802 37.2426 104.368 37.2345C102.067 37.2345 101.17 36.3706 101.17 34.1673V27.6554H99.5176V25.8087H101.17V23.1201H103.513Z" fill="white"/>
<path d="M106.926 31.4897C106.926 27.9152 109.032 25.6689 112.315 25.6689C115.61 25.6689 117.706 27.9151 117.706 31.4897C117.706 35.0741 115.621 37.3105 112.315 37.3105C109.011 37.3105 106.926 35.0741 106.926 31.4897ZM115.329 31.4897C115.329 29.0376 114.205 27.5904 112.315 27.5904C110.425 27.5904 109.302 29.0487 109.302 31.4897C109.302 33.9516 110.425 35.3878 112.315 35.3878C114.205 35.3878 115.329 33.9516 115.329 31.4897H115.329Z" fill="white"/>
<path d="M119.629 25.8086H121.854V27.7423H121.908C122.058 27.1384 122.412 26.6046 122.91 26.2309C123.407 25.8571 124.019 25.666 124.641 25.6897C124.91 25.6888 125.178 25.718 125.44 25.7767V27.958C125.101 27.8543 124.747 27.8067 124.392 27.8171C124.053 27.8033 123.715 27.8631 123.402 27.9922C123.088 28.1213 122.806 28.3167 122.575 28.565C122.344 28.8133 122.17 29.1087 122.064 29.4307C121.958 29.7528 121.923 30.094 121.961 30.4309V37.1695H119.629L119.629 25.8086Z" fill="white"/>
<path d="M136.194 33.8327C135.88 35.8951 133.871 37.3105 131.301 37.3105C127.995 37.3105 125.943 35.0961 125.943 31.5436C125.943 27.9801 128.006 25.6689 131.203 25.6689C134.347 25.6689 136.324 27.8281 136.324 31.2728V32.0718H128.298V32.2127C128.261 32.6308 128.313 33.052 128.452 33.4484C128.59 33.8447 128.811 34.2071 129.1 34.5114C129.389 34.8158 129.74 35.0552 130.128 35.2136C130.517 35.3721 130.935 35.4461 131.355 35.4307C131.906 35.4823 132.459 35.3547 132.932 35.0668C133.405 34.7789 133.772 34.3461 133.979 33.8327L136.194 33.8327ZM128.309 30.442H133.99C134.011 30.066 133.954 29.6898 133.823 29.3369C133.691 28.9841 133.488 28.6622 133.227 28.3914C132.965 28.1207 132.65 27.9069 132.302 27.7636C131.953 27.6203 131.579 27.5505 131.203 27.5586C130.823 27.5563 130.446 27.6292 130.095 27.7732C129.743 27.9172 129.424 28.1294 129.155 28.3974C128.886 28.6655 128.673 28.9842 128.527 29.3351C128.382 29.686 128.308 30.0622 128.309 30.442V30.442Z" fill="white"/>
<path d="M46.3804 9.85811C46.8694 9.82302 47.3601 9.89688 47.8171 10.0744C48.2741 10.2518 48.686 10.5285 49.0231 10.8844C49.3602 11.2403 49.6141 11.6666 49.7665 12.1325C49.9189 12.5983 49.9659 13.0922 49.9043 13.5785C49.9043 15.9705 48.6112 17.3455 46.3804 17.3455H43.6753V9.85811H46.3804ZM44.8385 16.2866H46.2505C46.5999 16.3075 46.9496 16.2502 47.2741 16.119C47.5986 15.9877 47.8897 15.7857 48.1263 15.5278C48.3629 15.2698 48.5389 14.9624 48.6417 14.6278C48.7444 14.2933 48.7713 13.94 48.7202 13.5938C48.7676 13.2489 48.738 12.8978 48.6337 12.5657C48.5294 12.2336 48.3529 11.9287 48.1168 11.6728C47.8808 11.4169 47.591 11.2163 47.2684 11.0855C46.9457 10.9547 46.5981 10.8969 46.2505 10.9162H44.8385V16.2866Z" fill="white"/>
<path d="M51.2182 14.5175C51.1826 14.1461 51.2251 13.7715 51.3429 13.4175C51.4607 13.0636 51.6512 12.7381 51.9021 12.4621C52.1531 12.1861 52.4589 11.9655 52.8002 11.8146C53.1414 11.6637 53.5103 11.5857 53.8834 11.5857C54.2565 11.5857 54.6255 11.6637 54.9667 11.8146C55.3079 11.9655 55.6138 12.1861 55.8648 12.4621C56.1157 12.7381 56.3062 13.0636 56.424 13.4175C56.5418 13.7715 56.5842 14.1461 56.5487 14.5175C56.5849 14.8892 56.5429 15.2643 56.4255 15.6189C56.308 15.9734 56.1176 16.2994 55.8666 16.576C55.6156 16.8526 55.3095 17.0736 54.968 17.2249C54.6264 17.3761 54.257 17.4543 53.8834 17.4543C53.5099 17.4543 53.1405 17.3761 52.7989 17.2249C52.4574 17.0736 52.1513 16.8526 51.9003 16.576C51.6492 16.2994 51.4589 15.9734 51.3414 15.6189C51.224 15.2643 51.182 14.8892 51.2182 14.5175ZM55.4015 14.5175C55.4015 13.2927 54.8511 12.5764 53.8853 12.5764C52.9158 12.5764 52.3704 13.2927 52.3704 14.5175C52.3704 15.7521 52.9158 16.4628 53.8853 16.4628C54.8511 16.4628 55.4015 15.7472 55.4015 14.5175H55.4015Z" fill="white"/>
<path d="M63.6344 17.3453H62.4774L61.3093 13.1837H61.2211L60.0579 17.3453H58.9119L57.354 11.6948H58.4853L59.4977 16.0064H59.5811L60.7431 11.6948H61.8131L62.975 16.0064H63.0633L64.0708 11.6948H65.1862L63.6344 17.3453Z" fill="white"/>
<path d="M66.4967 11.6947H67.5704V12.5923H67.6538C67.7952 12.2699 68.0336 11.9997 68.3359 11.8192C68.6383 11.6388 68.9894 11.5571 69.3403 11.5856C69.6153 11.565 69.8914 11.6064 70.1482 11.7069C70.405 11.8074 70.6359 11.9644 70.8238 12.1663C71.0116 12.3681 71.1517 12.6096 71.2335 12.8729C71.3153 13.1362 71.3369 13.4145 71.2965 13.6872V17.3451H70.1811V13.9673C70.1811 13.0592 69.7865 12.6077 68.9616 12.6077C68.7749 12.599 68.5885 12.6307 68.4152 12.7008C68.2419 12.7708 68.0859 12.8775 67.9577 13.0135C67.8295 13.1495 67.7323 13.3117 67.6726 13.4887C67.6129 13.6658 67.5923 13.8537 67.6121 14.0396V17.3452H66.4967L66.4967 11.6947Z" fill="white"/>
<path d="M73.0732 9.48901H74.1884V17.3452H73.0732V9.48901Z" fill="white"/>
<path d="M75.7391 14.5176C75.7036 14.1462 75.7462 13.7715 75.864 13.4176C75.9818 13.0636 76.1723 12.7382 76.4232 12.4621C76.6742 12.1861 76.9801 11.9655 77.3214 11.8146C77.6626 11.6637 78.0316 11.5857 78.4047 11.5857C78.7779 11.5857 79.1469 11.6637 79.4881 11.8146C79.8293 11.9655 80.1352 12.1861 80.3862 12.4621C80.6372 12.7382 80.8277 13.0636 80.9455 13.4176C81.0633 13.7715 81.1058 14.1462 81.0703 14.5176C81.1065 14.8893 81.0644 15.2645 80.9469 15.619C80.8294 15.9735 80.639 16.2995 80.388 16.5761C80.137 16.8527 79.8308 17.0737 79.4893 17.2249C79.1477 17.3762 78.7783 17.4543 78.4047 17.4543C78.0312 17.4543 77.6617 17.3762 77.3202 17.2249C76.9786 17.0737 76.6725 16.8527 76.4214 16.5761C76.1704 16.2995 75.98 15.9735 75.8625 15.619C75.745 15.2645 75.703 14.8893 75.7391 14.5176ZM79.9224 14.5176C79.9224 13.2928 79.3721 12.5765 78.4063 12.5765C77.4367 12.5765 76.8913 13.2928 76.8913 14.5176C76.8913 15.7522 77.4368 16.4629 78.4063 16.4629C79.3721 16.4629 79.9224 15.7473 79.9224 14.5176H79.9224Z" fill="white"/>
<path d="M82.2448 15.7472C82.2448 14.7301 83.0022 14.1438 84.3468 14.0604L85.8777 13.9722V13.4845C85.8777 12.8877 85.483 12.5507 84.7207 12.5507C84.098 12.5507 83.6666 12.7793 83.5428 13.1787H82.4629C82.5769 12.2082 83.4901 11.5857 84.7721 11.5857C86.189 11.5857 86.9882 12.2909 86.9882 13.4845V17.3452H85.9145V16.5511H85.8262C85.6471 16.836 85.3956 17.0682 85.0973 17.224C84.7991 17.3799 84.4648 17.4538 84.1286 17.4383C83.8914 17.463 83.6516 17.4377 83.4247 17.364C83.1978 17.2903 82.9889 17.17 82.8114 17.0106C82.6339 16.8513 82.4918 16.6566 82.3942 16.439C82.2966 16.2214 82.2457 15.9857 82.2448 15.7472ZM85.8777 15.2644V14.792L84.4976 14.8802C83.7193 14.9323 83.3663 15.197 83.3663 15.6951C83.3663 16.2037 83.8075 16.4996 84.4143 16.4996C84.5921 16.5176 84.7716 16.4997 84.9423 16.4469C85.113 16.394 85.2714 16.3074 85.4079 16.1922C85.5444 16.0769 85.6564 15.9354 85.7371 15.776C85.8178 15.6166 85.8656 15.4427 85.8777 15.2644Z" fill="white"/>
<path d="M88.4541 14.5176C88.4541 12.7321 89.3722 11.6011 90.8001 11.6011C91.1533 11.5848 91.5038 11.6694 91.8107 11.8449C92.1176 12.0205 92.3682 12.2797 92.5332 12.5924H92.6166V9.48901H93.7319V17.3452H92.6631V16.4525H92.5749C92.3972 16.7631 92.1378 17.0191 91.825 17.1929C91.5122 17.3666 91.1577 17.4515 90.8001 17.4383C89.3623 17.4384 88.4541 16.3073 88.4541 14.5176ZM89.6063 14.5176C89.6063 15.716 90.1713 16.4372 91.1164 16.4372C92.0564 16.4372 92.6374 15.7056 92.6374 14.5225C92.6374 13.3448 92.0503 12.6028 91.1164 12.6028C90.1774 12.6028 89.6063 13.3289 89.6063 14.5176H89.6063Z" fill="white"/>
<path d="M98.3466 14.5175C98.3111 14.1461 98.3535 13.7715 98.4713 13.4175C98.5891 13.0636 98.7796 12.7381 99.0305 12.4621C99.2815 12.1861 99.5874 11.9655 99.9286 11.8146C100.27 11.6637 100.639 11.5857 101.012 11.5857C101.385 11.5857 101.754 11.6637 102.095 11.8146C102.436 11.9655 102.742 12.1861 102.993 12.4621C103.244 12.7381 103.435 13.0636 103.552 13.4175C103.67 13.7715 103.713 14.1461 103.677 14.5175C103.713 14.8892 103.671 15.2643 103.554 15.6189C103.436 15.9734 103.246 16.2994 102.995 16.576C102.744 16.8526 102.438 17.0736 102.096 17.2249C101.755 17.3761 101.385 17.4543 101.012 17.4543C100.638 17.4543 100.269 17.3761 99.9273 17.2249C99.5858 17.0736 99.2797 16.8526 99.0287 16.576C98.7777 16.2994 98.5873 15.9734 98.4698 15.6189C98.3524 15.2643 98.3104 14.8892 98.3466 14.5175ZM102.53 14.5175C102.53 13.2927 101.98 12.5764 101.014 12.5764C100.044 12.5764 99.4988 13.2927 99.4988 14.5175C99.4988 15.7521 100.044 16.4628 101.014 16.4628C101.98 16.4628 102.53 15.7472 102.53 14.5175Z" fill="white"/>
<path d="M105.174 11.6947H106.248V12.5923H106.331C106.472 12.2699 106.711 11.9997 107.013 11.8192C107.315 11.6388 107.666 11.5571 108.017 11.5856C108.292 11.565 108.569 11.6064 108.825 11.7069C109.082 11.8074 109.313 11.9644 109.501 12.1663C109.689 12.3681 109.829 12.6096 109.911 12.8729C109.992 13.1362 110.014 13.4145 109.974 13.6872V17.3451H108.858V13.9673C108.858 13.0592 108.464 12.6077 107.639 12.6077C107.452 12.599 107.266 12.6307 107.092 12.7008C106.919 12.7708 106.763 12.8775 106.635 13.0135C106.507 13.1495 106.409 13.3117 106.35 13.4887C106.29 13.6658 106.269 13.8537 106.289 14.0396V17.3452H105.174V11.6947Z" fill="white"/>
<path d="M116.276 10.2881V11.7206H117.5V12.6599H116.276V15.5654C116.276 16.1573 116.519 16.4164 117.075 16.4164C117.217 16.416 117.359 16.4074 117.5 16.3907V17.3196C117.3 17.3554 117.097 17.3745 116.893 17.3766C115.653 17.3766 115.159 16.9403 115.159 15.8509V12.6599H114.262V11.7206H115.159V10.2881H116.276Z" fill="white"/>
<path d="M119.024 9.48901H120.13V12.6028H120.218C120.367 12.2774 120.612 12.0056 120.92 11.8245C121.228 11.6434 121.585 11.5617 121.941 11.5906C122.215 11.5757 122.489 11.6214 122.742 11.7244C122.996 11.8273 123.224 11.985 123.41 12.1862C123.596 12.3874 123.735 12.6271 123.818 12.8883C123.9 13.1495 123.924 13.4257 123.888 13.6971V17.3452H122.771V13.9722C122.771 13.0697 122.351 12.6126 121.563 12.6126C121.371 12.5969 121.178 12.6232 120.998 12.6898C120.817 12.7564 120.654 12.8616 120.518 12.998C120.383 13.1345 120.279 13.2989 120.213 13.4798C120.148 13.6606 120.123 13.8536 120.14 14.0451V17.3452H119.024L119.024 9.48901Z" fill="white"/>
<path d="M130.391 15.8194C130.239 16.3358 129.911 16.7825 129.463 17.0813C129.016 17.3802 128.477 17.5121 127.942 17.4541C127.57 17.4639 127.2 17.3926 126.858 17.2451C126.516 17.0977 126.21 16.8775 125.961 16.6001C125.713 16.3226 125.528 15.9944 125.419 15.6382C125.31 15.2821 125.28 14.9065 125.331 14.5376C125.282 14.1676 125.312 13.7912 125.421 13.434C125.529 13.0768 125.713 12.747 125.96 12.4671C126.207 12.1872 126.512 11.9636 126.853 11.8115C127.194 11.6594 127.564 11.5824 127.937 11.5855C129.51 11.5855 130.458 12.6597 130.458 14.434V14.8231H126.467V14.8856C126.45 15.093 126.476 15.3017 126.544 15.4984C126.612 15.6951 126.72 15.8754 126.862 16.0278C127.004 16.1802 127.176 16.3014 127.367 16.3834C127.558 16.4655 127.764 16.5067 127.973 16.5044C128.239 16.5364 128.51 16.4884 128.749 16.3664C128.989 16.2444 129.186 16.054 129.317 15.8194L130.391 15.8194ZM126.467 13.9984H129.322C129.336 13.8088 129.31 13.6183 129.246 13.4392C129.182 13.2601 129.082 13.0964 128.951 12.9585C128.82 12.8207 128.661 12.7117 128.486 12.6387C128.31 12.5657 128.121 12.5303 127.931 12.5346C127.738 12.5322 127.547 12.5684 127.368 12.6411C127.189 12.7139 127.027 12.8216 126.89 12.958C126.754 13.0944 126.646 13.2568 126.574 13.4354C126.501 13.6141 126.465 13.8055 126.467 13.9984H126.467Z" fill="white"/>
</svg>
