<svg width="344" height="216" viewBox="0 0 344 216" fill="none" xmlns="http://www.w3.org/2000/svg">
<path fill-rule="evenodd" clip-rule="evenodd" d="M268 0C261.373 0 256 5.37258 256 12V188C256 194.627 261.373 200 268 200C274.627 200 280 194.627 280 188V12C280 5.37258 274.627 0 268 0ZM96 50C96 43.3726 101.373 38 108 38C114.627 38 120 43.3726 120 50V188C120 194.627 114.627 200 108 200C101.373 200 96 194.627 96 188V50ZM32 112C32 105.373 37.3726 100 44 100C50.6274 100 56 105.373 56 112V188C56 194.627 50.6274 200 44 200C37.3726 200 32 194.627 32 188V112ZM0 188C0 181.373 5.37258 176 12 176C18.6274 176 24 181.373 24 188C24 194.627 18.6274 200 12 200C5.37258 200 0 194.627 0 188ZM76 150C69.3726 150 64 155.373 64 162V188C64 194.627 69.3726 200 76 200C82.6274 200 88 194.627 88 188V162C88 155.373 82.6274 150 76 150ZM140 76C133.373 76 128 81.3726 128 88V188C128 194.627 133.373 200 140 200C146.627 200 152 194.627 152 188V88C152 81.3726 146.627 76 140 76ZM160 67C160 60.3726 165.373 55 172 55C178.627 55 184 60.3726 184 67V188C184 194.627 178.627 200 172 200C165.373 200 160 194.627 160 188V67ZM204 100C197.373 100 192 105.373 192 112V188C192 194.627 197.373 200 204 200C210.627 200 216 194.627 216 188V112C216 105.373 210.627 100 204 100ZM224 50C224 43.3726 229.373 38 236 38C242.627 38 248 43.3726 248 50V188C248 194.627 242.627 200 236 200C229.373 200 224 194.627 224 188V50ZM288 100C288 93.3726 293.373 88 300 88C306.627 88 312 93.3726 312 100V188C312 194.627 306.627 200 300 200C293.373 200 288 194.627 288 188V100ZM332 38C325.373 38 320 43.3726 320 50V188C320 194.627 325.373 200 332 200C338.627 200 344 194.627 344 188V50C344 43.3726 338.627 38 332 38Z" fill="url(#paint0_linear_2_211)"/>
<path fill-rule="evenodd" clip-rule="evenodd" d="M0 0.5C0 0.223858 0.223209 0 0.498551 0H343.501C343.777 0 344 0.223858 344 0.5C344 0.776142 343.777 1 343.501 1H0.498551C0.223209 1 0 0.776142 0 0.5Z" fill="white" fill-opacity="0.15"/>
<path d="M0.59 11V10.22H2.25V4.92H2.05L0.58 5.91V4.99L2.04 4H3.13V10.22H4.66V11H0.59ZM6.28906 4.77C6.75573 4.16333 7.37906 3.86 8.15906 3.86C8.93906 3.86 9.5624 4.16667 10.0291 4.78C10.5024 5.38667 10.7391 6.29333 10.7391 7.5C10.7391 8.70667 10.5024 9.61333 10.0291 10.22C9.5624 10.8267 8.93906 11.13 8.15906 11.13C7.37906 11.13 6.75573 10.8267 6.28906 10.22C5.8224 9.61333 5.58906 8.70667 5.58906 7.5C5.58906 6.28667 5.8224 5.37667 6.28906 4.77ZM6.88906 9.6C7.16906 10.1 7.5924 10.35 8.15906 10.35C8.72573 10.35 9.14906 10.1 9.42906 9.6C9.71573 9.09333 9.85906 8.39333 9.85906 7.5C9.85906 6.6 9.71573 5.9 9.42906 5.4C9.14906 4.89333 8.72573 4.64 8.15906 4.64C7.5924 4.64 7.16906 4.89333 6.88906 5.4C6.60906 5.9 6.46906 6.6 6.46906 7.5C6.46906 8.39333 6.60906 9.09333 6.88906 9.6ZM12.5391 4.77C13.0057 4.16333 13.6291 3.86 14.4091 3.86C15.1891 3.86 15.8124 4.16667 16.2791 4.78C16.7524 5.38667 16.9891 6.29333 16.9891 7.5C16.9891 8.70667 16.7524 9.61333 16.2791 10.22C15.8124 10.8267 15.1891 11.13 14.4091 11.13C13.6291 11.13 13.0057 10.8267 12.5391 10.22C12.0724 9.61333 11.8391 8.70667 11.8391 7.5C11.8391 6.28667 12.0724 5.37667 12.5391 4.77ZM13.1391 9.6C13.4191 10.1 13.8424 10.35 14.4091 10.35C14.9757 10.35 15.3991 10.1 15.6791 9.6C15.9657 9.09333 16.1091 8.39333 16.1091 7.5C16.1091 6.6 15.9657 5.9 15.6791 5.4C15.3991 4.89333 14.9757 4.64 14.4091 4.64C13.8424 4.64 13.4191 4.89333 13.1391 5.4C12.8591 5.9 12.7191 6.6 12.7191 7.5C12.7191 8.39333 12.8591 9.09333 13.1391 9.6ZM18.7891 4.77C19.2557 4.16333 19.8791 3.86 20.6591 3.86C21.4391 3.86 22.0624 4.16667 22.5291 4.78C23.0024 5.38667 23.2391 6.29333 23.2391 7.5C23.2391 8.70667 23.0024 9.61333 22.5291 10.22C22.0624 10.8267 21.4391 11.13 20.6591 11.13C19.8791 11.13 19.2557 10.8267 18.7891 10.22C18.3224 9.61333 18.0891 8.70667 18.0891 7.5C18.0891 6.28667 18.3224 5.37667 18.7891 4.77ZM19.3891 9.6C19.6691 10.1 20.0924 10.35 20.6591 10.35C21.2257 10.35 21.6491 10.1 21.9291 9.6C22.2157 9.09333 22.3591 8.39333 22.3591 7.5C22.3591 6.6 22.2157 5.9 21.9291 5.4C21.6491 4.89333 21.2257 4.64 20.6591 4.64C20.0924 4.64 19.6691 4.89333 19.3891 5.4C19.1091 5.9 18.9691 6.6 18.9691 7.5C18.9691 8.39333 19.1091 9.09333 19.3891 9.6Z" fill="white" fill-opacity="0.5"/>
<path fill-rule="evenodd" clip-rule="evenodd" d="M0 50.5C0 50.2239 0.223209 50 0.498551 50H343.501C343.777 50 344 50.2239 344 50.5C344 50.7761 343.777 51 343.501 51H0.498551C0.223209 51 0 50.7761 0 50.5Z" fill="white" fill-opacity="0.15"/>
<path d="M4.95 54.98L1.92 61H1L4.04 54.98V54.76H0.49V54H4.95V54.98ZM8.55086 56.29C9.23086 56.29 9.77419 56.5133 10.1809 56.96C10.5942 57.4067 10.8009 57.9633 10.8009 58.63C10.8009 59.3833 10.5775 59.99 10.1309 60.45C9.69086 60.9033 9.11419 61.13 8.40086 61.13C7.66086 61.13 7.07753 60.9367 6.65086 60.55C6.23086 60.1633 6.00086 59.66 5.96086 59.04H6.83086C6.88419 59.4667 7.04419 59.7933 7.31086 60.02C7.57753 60.24 7.92753 60.35 8.36086 60.35C8.82753 60.35 9.20419 60.2 9.49086 59.9C9.77753 59.5933 9.92086 59.1833 9.92086 58.67C9.92086 58.1833 9.78086 57.79 9.50086 57.49C9.22753 57.1833 8.85753 57.03 8.39086 57.03C7.76419 57.03 7.30086 57.25 7.00086 57.69H6.12086L6.43086 54H10.4309V54.76H7.14086L6.98086 56.78H7.20086C7.56086 56.4533 8.01086 56.29 8.55086 56.29ZM12.5781 54.77C13.0448 54.1633 13.6681 53.86 14.4481 53.86C15.2281 53.86 15.8515 54.1667 16.3181 54.78C16.7915 55.3867 17.0281 56.2933 17.0281 57.5C17.0281 58.7067 16.7915 59.6133 16.3181 60.22C15.8515 60.8267 15.2281 61.13 14.4481 61.13C13.6681 61.13 13.0448 60.8267 12.5781 60.22C12.1115 59.6133 11.8781 58.7067 11.8781 57.5C11.8781 56.2867 12.1115 55.3767 12.5781 54.77ZM13.1781 59.6C13.4581 60.1 13.8815 60.35 14.4481 60.35C15.0148 60.35 15.4381 60.1 15.7181 59.6C16.0048 59.0933 16.1481 58.3933 16.1481 57.5C16.1481 56.6 16.0048 55.9 15.7181 55.4C15.4381 54.8933 15.0148 54.64 14.4481 54.64C13.8815 54.64 13.4581 54.8933 13.1781 55.4C12.8981 55.9 12.7581 56.6 12.7581 57.5C12.7581 58.3933 12.8981 59.0933 13.1781 59.6Z" fill="white" fill-opacity="0.5"/>
<path fill-rule="evenodd" clip-rule="evenodd" d="M0 100.5C0 100.224 0.223209 100 0.498551 100H343.501C343.777 100 344 100.224 344 100.5C344 100.776 343.777 101 343.501 101H0.498551C0.223209 101 0 100.776 0 100.5Z" fill="white" fill-opacity="0.15"/>
<path d="M3.17 106.29C3.85 106.29 4.39333 106.513 4.8 106.96C5.21333 107.407 5.42 107.963 5.42 108.63C5.42 109.383 5.19667 109.99 4.75 110.45C4.31 110.903 3.73333 111.13 3.02 111.13C2.28 111.13 1.69667 110.937 1.27 110.55C0.85 110.163 0.62 109.66 0.58 109.04H1.45C1.50333 109.467 1.66333 109.793 1.93 110.02C2.19667 110.24 2.54667 110.35 2.98 110.35C3.44667 110.35 3.82333 110.2 4.11 109.9C4.39667 109.593 4.54 109.183 4.54 108.67C4.54 108.183 4.4 107.79 4.12 107.49C3.84667 107.183 3.47667 107.03 3.01 107.03C2.38333 107.03 1.92 107.25 1.62 107.69H0.74L1.05 104H5.05V104.76H1.76L1.6 106.78H1.82C2.18 106.453 2.63 106.29 3.17 106.29ZM7.19727 104.77C7.66393 104.163 8.28727 103.86 9.06727 103.86C9.84727 103.86 10.4706 104.167 10.9373 104.78C11.4106 105.387 11.6473 106.293 11.6473 107.5C11.6473 108.707 11.4106 109.613 10.9373 110.22C10.4706 110.827 9.84727 111.13 9.06727 111.13C8.28727 111.13 7.66393 110.827 7.19727 110.22C6.7306 109.613 6.49727 108.707 6.49727 107.5C6.49727 106.287 6.7306 105.377 7.19727 104.77ZM7.79727 109.6C8.07727 110.1 8.5006 110.35 9.06727 110.35C9.63393 110.35 10.0573 110.1 10.3373 109.6C10.6239 109.093 10.7673 108.393 10.7673 107.5C10.7673 106.6 10.6239 105.9 10.3373 105.4C10.0573 104.893 9.63393 104.64 9.06727 104.64C8.5006 104.64 8.07727 104.893 7.79727 105.4C7.51727 105.9 7.37727 106.6 7.37727 107.5C7.37727 108.393 7.51727 109.093 7.79727 109.6ZM13.4473 104.77C13.9139 104.163 14.5373 103.86 15.3173 103.86C16.0973 103.86 16.7206 104.167 17.1873 104.78C17.6606 105.387 17.8973 106.293 17.8973 107.5C17.8973 108.707 17.6606 109.613 17.1873 110.22C16.7206 110.827 16.0973 111.13 15.3173 111.13C14.5373 111.13 13.9139 110.827 13.4473 110.22C12.9806 109.613 12.7473 108.707 12.7473 107.5C12.7473 106.287 12.9806 105.377 13.4473 104.77ZM14.0473 109.6C14.3273 110.1 14.7506 110.35 15.3173 110.35C15.8839 110.35 16.3073 110.1 16.5873 109.6C16.8739 109.093 17.0173 108.393 17.0173 107.5C17.0173 106.6 16.8739 105.9 16.5873 105.4C16.3073 104.893 15.8839 104.64 15.3173 104.64C14.7506 104.64 14.3273 104.893 14.0473 105.4C13.7673 105.9 13.6273 106.6 13.6273 107.5C13.6273 108.393 13.7673 109.093 14.0473 109.6Z" fill="white" fill-opacity="0.5"/>
<path fill-rule="evenodd" clip-rule="evenodd" d="M0 150.5C0 150.224 0.223209 150 0.498551 150H343.501C343.777 150 344 150.224 344 150.5C344 150.776 343.777 151 343.501 151H0.498551C0.223209 151 0 150.776 0 150.5Z" fill="white" fill-opacity="0.15"/>
<path d="M1.41 155.93H0.53C0.57 155.257 0.803333 154.743 1.23 154.39C1.66333 154.037 2.20667 153.86 2.86 153.86C3.54 153.86 4.08667 154.047 4.5 154.42C4.92 154.787 5.13 155.31 5.13 155.99C5.13 156.817 4.61333 157.66 3.58 158.52L1.82 160V160.22H5.35V161H0.54V160.01L1.57 159.17C2.21 158.657 2.74 158.207 3.16 157.82C3.32 157.68 3.44667 157.56 3.54 157.46C3.64 157.36 3.75 157.23 3.87 157.07C3.99667 156.903 4.09 156.73 4.15 156.55C4.21667 156.37 4.25 156.183 4.25 155.99C4.25 155.557 4.12333 155.223 3.87 154.99C3.61667 154.757 3.27333 154.64 2.84 154.64C2.43333 154.64 2.10333 154.75 1.85 154.97C1.60333 155.183 1.45667 155.503 1.41 155.93ZM8.99031 156.29C9.67031 156.29 10.2136 156.513 10.6203 156.96C11.0336 157.407 11.2403 157.963 11.2403 158.63C11.2403 159.383 11.017 159.99 10.5703 160.45C10.1303 160.903 9.55365 161.13 8.84031 161.13C8.10031 161.13 7.51698 160.937 7.09031 160.55C6.67031 160.163 6.44031 159.66 6.40031 159.04H7.27031C7.32365 159.467 7.48365 159.793 7.75031 160.02C8.01698 160.24 8.36698 160.35 8.80031 160.35C9.26698 160.35 9.64365 160.2 9.93031 159.9C10.217 159.593 10.3603 159.183 10.3603 158.67C10.3603 158.183 10.2203 157.79 9.94031 157.49C9.66698 157.183 9.29698 157.03 8.83031 157.03C8.20365 157.03 7.74031 157.25 7.44031 157.69H6.56031L6.87031 154H10.8703V154.76H7.58031L7.42031 156.78H7.64031C8.00031 156.453 8.45031 156.29 8.99031 156.29ZM13.0176 154.77C13.4842 154.163 14.1076 153.86 14.8876 153.86C15.6676 153.86 16.2909 154.167 16.7576 154.78C17.2309 155.387 17.4676 156.293 17.4676 157.5C17.4676 158.707 17.2309 159.613 16.7576 160.22C16.2909 160.827 15.6676 161.13 14.8876 161.13C14.1076 161.13 13.4842 160.827 13.0176 160.22C12.5509 159.613 12.3176 158.707 12.3176 157.5C12.3176 156.287 12.5509 155.377 13.0176 154.77ZM13.6176 159.6C13.8976 160.1 14.3209 160.35 14.8876 160.35C15.4542 160.35 15.8776 160.1 16.1576 159.6C16.4442 159.093 16.5876 158.393 16.5876 157.5C16.5876 156.6 16.4442 155.9 16.1576 155.4C15.8776 154.893 15.4542 154.64 14.8876 154.64C14.3209 154.64 13.8976 154.893 13.6176 155.4C13.3376 155.9 13.1976 156.6 13.1976 157.5C13.1976 158.393 13.3376 159.093 13.6176 159.6Z" fill="white" fill-opacity="0.5"/>
<path fill-rule="evenodd" clip-rule="evenodd" d="M0 200.5C0 200.224 0.223209 200 0.498551 200H343.501C343.777 200 344 200.224 344 200.5C344 200.776 343.777 201 343.501 201H0.498551C0.223209 201 0 200.776 0 200.5Z" fill="white" fill-opacity="0.15"/>
<path d="M7.09684 215V214.22H8.75684V208.92H8.55684L7.08684 209.91V208.99L8.54684 208H9.63684V214.22H11.1668V215H7.09684ZM14.7159 210.29C15.3959 210.29 15.9392 210.513 16.3459 210.96C16.7592 211.407 16.9659 211.963 16.9659 212.63C16.9659 213.383 16.7426 213.99 16.2959 214.45C15.8559 214.903 15.2792 215.13 14.5659 215.13C13.8259 215.13 13.2426 214.937 12.8159 214.55C12.3959 214.163 12.1659 213.66 12.1259 213.04H12.9959C13.0492 213.467 13.2092 213.793 13.4759 214.02C13.7426 214.24 14.0926 214.35 14.5259 214.35C14.9926 214.35 15.3692 214.2 15.6559 213.9C15.9426 213.593 16.0859 213.183 16.0859 212.67C16.0859 212.183 15.9459 211.79 15.6659 211.49C15.3926 211.183 15.0226 211.03 14.5559 211.03C13.9292 211.03 13.4659 211.25 13.1659 211.69H12.2859L12.5959 208H16.5959V208.76H13.3059L13.1459 210.78H13.3659C13.7259 210.453 14.1759 210.29 14.7159 210.29Z" fill="white" fill-opacity="0.5"/>
<path d="M39.1066 215V214.22H40.7666V208.92H40.5666L39.0966 209.91V208.99L40.5566 208H41.6466V214.22H43.1766V215H39.1066ZM46.8157 210.44C47.4557 210.44 47.989 210.657 48.4157 211.09C48.8423 211.517 49.0557 212.06 49.0557 212.72C49.0557 213.407 48.839 213.98 48.4057 214.44C47.979 214.9 47.4023 215.13 46.6757 215.13C45.8823 215.13 45.2557 214.857 44.7957 214.31C44.3357 213.763 44.1057 212.89 44.1057 211.69C44.1057 210.563 44.329 209.643 44.7757 208.93C45.229 208.217 45.8923 207.86 46.7657 207.86C47.3457 207.86 47.819 208.017 48.1857 208.33C48.559 208.637 48.7857 209.037 48.8657 209.53H47.9957C47.8223 208.937 47.4123 208.64 46.7657 208.64C46.2123 208.64 45.779 208.86 45.4657 209.3C45.1523 209.74 44.9823 210.347 44.9557 211.12H45.1757C45.3223 210.94 45.5357 210.783 45.8157 210.65C46.1023 210.51 46.4357 210.44 46.8157 210.44ZM45.5657 213.92C45.859 214.207 46.2257 214.35 46.6657 214.35C47.1057 214.35 47.4657 214.21 47.7457 213.93C48.0323 213.65 48.1757 213.26 48.1757 212.76C48.1757 212.26 48.0323 211.877 47.7457 211.61C47.459 211.343 47.0923 211.21 46.6457 211.21C46.2057 211.21 45.8423 211.347 45.5557 211.62C45.269 211.893 45.1257 212.27 45.1257 212.75C45.1257 213.243 45.2723 213.633 45.5657 213.92Z" fill="white" fill-opacity="0.5"/>
<path d="M71.3312 215V214.22H72.9912V208.92H72.7912L71.3212 209.91V208.99L72.7812 208H73.8712V214.22H75.4012V215H71.3312ZM80.7303 208.98L77.7003 215H76.7803L79.8203 208.98V208.76H76.2703V208H80.7303V208.98Z" fill="white" fill-opacity="0.5"/>
<path d="M103.014 215V214.22H104.674V208.92H104.474L103.004 209.91V208.99L104.464 208H105.554V214.22H107.084V215H103.014ZM111.953 211.2V211.42C112.226 211.513 112.476 211.71 112.703 212.01C112.93 212.303 113.043 212.663 113.043 213.09C113.043 213.677 112.81 214.163 112.343 214.55C111.883 214.937 111.273 215.13 110.513 215.13C109.753 215.13 109.14 214.937 108.673 214.55C108.213 214.163 107.983 213.677 107.983 213.09C107.983 212.67 108.096 212.31 108.323 212.01C108.55 211.71 108.8 211.513 109.073 211.42V211.2C108.853 211.107 108.65 210.93 108.463 210.67C108.283 210.41 108.193 210.097 108.193 209.73C108.193 209.177 108.41 208.727 108.843 208.38C109.276 208.033 109.833 207.86 110.513 207.86C111.193 207.86 111.75 208.033 112.183 208.38C112.616 208.727 112.833 209.177 112.833 209.73C112.833 210.083 112.74 210.393 112.553 210.66C112.366 210.927 112.166 211.107 111.953 211.2ZM111.553 208.93C111.28 208.723 110.933 208.62 110.513 208.62C110.093 208.62 109.743 208.723 109.463 208.93C109.19 209.13 109.053 209.41 109.053 209.77C109.053 210.13 109.19 210.413 109.463 210.62C109.743 210.827 110.093 210.93 110.513 210.93C110.933 210.93 111.28 210.827 111.553 210.62C111.833 210.413 111.973 210.13 111.973 209.77C111.973 209.41 111.833 209.13 111.553 208.93ZM109.293 213.99C109.593 214.23 110 214.35 110.513 214.35C111.026 214.35 111.43 214.23 111.723 213.99C112.023 213.743 112.173 213.417 112.173 213.01C112.173 212.597 112.026 212.273 111.733 212.04C111.44 211.807 111.033 211.69 110.513 211.69C109.993 211.69 109.586 211.807 109.293 212.04C109 212.273 108.853 212.597 108.853 213.01C108.853 213.417 109 213.743 109.293 213.99Z" fill="white" fill-opacity="0.5"/>
<path d="M135.107 215V214.22H136.767V208.92H136.567L135.097 209.91V208.99L136.557 208H137.647V214.22H139.177V215H135.107ZM142.226 212.55C141.586 212.55 141.052 212.337 140.626 211.91C140.199 211.477 139.986 210.93 139.986 210.27C139.986 209.583 140.199 209.01 140.626 208.55C141.059 208.09 141.639 207.86 142.366 207.86C143.159 207.86 143.786 208.133 144.246 208.68C144.706 209.227 144.936 210.1 144.936 211.3C144.936 212.427 144.709 213.347 144.256 214.06C143.809 214.773 143.149 215.13 142.276 215.13C141.696 215.13 141.219 214.977 140.846 214.67C140.479 214.357 140.256 213.953 140.176 213.46H141.046C141.219 214.053 141.629 214.35 142.276 214.35C142.829 214.35 143.262 214.13 143.576 213.69C143.889 213.25 144.059 212.643 144.086 211.87H143.866C143.719 212.05 143.502 212.21 143.216 212.35C142.936 212.483 142.606 212.55 142.226 212.55ZM143.476 209.07C143.182 208.783 142.816 208.64 142.376 208.64C141.936 208.64 141.572 208.78 141.286 209.06C141.006 209.34 140.866 209.73 140.866 210.23C140.866 210.73 141.009 211.113 141.296 211.38C141.582 211.647 141.949 211.78 142.396 211.78C142.836 211.78 143.199 211.643 143.486 211.37C143.772 211.097 143.916 210.72 143.916 210.24C143.916 209.747 143.769 209.357 143.476 209.07Z" fill="white" fill-opacity="0.5"/>
<path d="M167.375 209.93H166.495C166.535 209.257 166.768 208.743 167.195 208.39C167.628 208.037 168.172 207.86 168.825 207.86C169.505 207.86 170.052 208.047 170.465 208.42C170.885 208.787 171.095 209.31 171.095 209.99C171.095 210.817 170.578 211.66 169.545 212.52L167.785 214V214.22H171.315V215H166.505V214.01L167.535 213.17C168.175 212.657 168.705 212.207 169.125 211.82C169.285 211.68 169.412 211.56 169.505 211.46C169.605 211.36 169.715 211.23 169.835 211.07C169.962 210.903 170.055 210.73 170.115 210.55C170.182 210.37 170.215 210.183 170.215 209.99C170.215 209.557 170.088 209.223 169.835 208.99C169.582 208.757 169.238 208.64 168.805 208.64C168.398 208.64 168.068 208.75 167.815 208.97C167.568 209.183 167.422 209.503 167.375 209.93ZM173.035 208.77C173.502 208.163 174.125 207.86 174.905 207.86C175.685 207.86 176.308 208.167 176.775 208.78C177.248 209.387 177.485 210.293 177.485 211.5C177.485 212.707 177.248 213.613 176.775 214.22C176.308 214.827 175.685 215.13 174.905 215.13C174.125 215.13 173.502 214.827 173.035 214.22C172.568 213.613 172.335 212.707 172.335 211.5C172.335 210.287 172.568 209.377 173.035 208.77ZM173.635 213.6C173.915 214.1 174.338 214.35 174.905 214.35C175.472 214.35 175.895 214.1 176.175 213.6C176.462 213.093 176.605 212.393 176.605 211.5C176.605 210.6 176.462 209.9 176.175 209.4C175.895 208.893 175.472 208.64 174.905 208.64C174.338 208.64 173.915 208.893 173.635 209.4C173.355 209.9 173.215 210.6 173.215 211.5C173.215 212.393 173.355 213.093 173.635 213.6Z" fill="white" fill-opacity="0.5"/>
<path d="M199.98 209.93H199.1C199.14 209.257 199.374 208.743 199.8 208.39C200.234 208.037 200.777 207.86 201.43 207.86C202.11 207.86 202.657 208.047 203.07 208.42C203.49 208.787 203.7 209.31 203.7 209.99C203.7 210.817 203.184 211.66 202.15 212.52L200.39 214V214.22H203.92V215H199.11V214.01L200.14 213.17C200.78 212.657 201.31 212.207 201.73 211.82C201.89 211.68 202.017 211.56 202.11 211.46C202.21 211.36 202.32 211.23 202.44 211.07C202.567 210.903 202.66 210.73 202.72 210.55C202.787 210.37 202.82 210.183 202.82 209.99C202.82 209.557 202.694 209.223 202.44 208.99C202.187 208.757 201.844 208.64 201.41 208.64C201.004 208.64 200.674 208.75 200.42 208.97C200.174 209.183 200.027 209.503 199.98 209.93ZM204.981 215V214.22H206.641V208.92H206.441L204.971 209.91V208.99L206.431 208H207.521V214.22H209.051V215H204.981Z" fill="white" fill-opacity="0.5"/>
<path d="M231.59 209.93H230.71C230.75 209.257 230.983 208.743 231.41 208.39C231.843 208.037 232.386 207.86 233.04 207.86C233.72 207.86 234.266 208.047 234.68 208.42C235.1 208.787 235.31 209.31 235.31 209.99C235.31 210.817 234.793 211.66 233.76 212.52L232 214V214.22H235.53V215H230.72V214.01L231.75 213.17C232.39 212.657 232.92 212.207 233.34 211.82C233.5 211.68 233.626 211.56 233.72 211.46C233.82 211.36 233.93 211.23 234.05 211.07C234.176 210.903 234.27 210.73 234.33 210.55C234.396 210.37 234.43 210.183 234.43 209.99C234.43 209.557 234.303 209.223 234.05 208.99C233.796 208.757 233.453 208.64 233.02 208.64C232.613 208.64 232.283 208.75 232.03 208.97C231.783 209.183 231.636 209.503 231.59 209.93ZM237.41 209.93H236.53C236.57 209.257 236.803 208.743 237.23 208.39C237.663 208.037 238.207 207.86 238.86 207.86C239.54 207.86 240.087 208.047 240.5 208.42C240.92 208.787 241.13 209.31 241.13 209.99C241.13 210.817 240.613 211.66 239.58 212.52L237.82 214V214.22H241.35V215H236.54V214.01L237.57 213.17C238.21 212.657 238.74 212.207 239.16 211.82C239.32 211.68 239.447 211.56 239.54 211.46C239.64 211.36 239.75 211.23 239.87 211.07C239.997 210.903 240.09 210.73 240.15 210.55C240.217 210.37 240.25 210.183 240.25 209.99C240.25 209.557 240.123 209.223 239.87 208.99C239.617 208.757 239.273 208.64 238.84 208.64C238.433 208.64 238.103 208.75 237.85 208.97C237.603 209.183 237.457 209.503 237.41 209.93Z" fill="white" fill-opacity="0.5"/>
<path d="M263.653 209.93H262.773C262.813 209.257 263.046 208.743 263.473 208.39C263.906 208.037 264.45 207.86 265.103 207.86C265.783 207.86 266.33 208.047 266.743 208.42C267.163 208.787 267.373 209.31 267.373 209.99C267.373 210.817 266.856 211.66 265.823 212.52L264.063 214V214.22H267.593V215H262.783V214.01L263.813 213.17C264.453 212.657 264.983 212.207 265.403 211.82C265.563 211.68 265.69 211.56 265.783 211.46C265.883 211.36 265.993 211.23 266.113 211.07C266.24 210.903 266.333 210.73 266.393 210.55C266.46 210.37 266.493 210.183 266.493 209.99C266.493 209.557 266.366 209.223 266.113 208.99C265.86 208.757 265.516 208.64 265.083 208.64C264.676 208.64 264.346 208.75 264.093 208.97C263.846 209.183 263.7 209.503 263.653 209.93ZM268.853 208H272.943V208.98L271.193 210.48V210.69C271.813 210.703 272.313 210.897 272.693 211.27C273.08 211.643 273.273 212.16 273.273 212.82C273.273 213.533 273.043 214.097 272.583 214.51C272.123 214.923 271.53 215.13 270.803 215.13C270.103 215.13 269.53 214.933 269.083 214.54C268.637 214.147 268.393 213.647 268.353 213.04H269.233C269.273 213.433 269.437 213.75 269.723 213.99C270.017 214.23 270.377 214.35 270.803 214.35C271.29 214.35 271.677 214.213 271.963 213.94C272.25 213.667 272.393 213.293 272.393 212.82C272.393 212.353 272.257 211.99 271.983 211.73C271.71 211.463 271.32 211.33 270.813 211.33C270.567 211.33 270.363 211.35 270.203 211.39V210.46L271.913 208.98V208.76H268.853V208Z" fill="white" fill-opacity="0.5"/>
<path d="M295.438 209.93H294.558C294.598 209.257 294.832 208.743 295.258 208.39C295.692 208.037 296.235 207.86 296.888 207.86C297.568 207.86 298.115 208.047 298.528 208.42C298.948 208.787 299.158 209.31 299.158 209.99C299.158 210.817 298.642 211.66 297.608 212.52L295.848 214V214.22H299.378V215H294.568V214.01L295.598 213.17C296.238 212.657 296.768 212.207 297.188 211.82C297.348 211.68 297.475 211.56 297.568 211.46C297.668 211.36 297.778 211.23 297.898 211.07C298.025 210.903 298.118 210.73 298.178 210.55C298.245 210.37 298.278 210.183 298.278 209.99C298.278 209.557 298.152 209.223 297.898 208.99C297.645 208.757 297.302 208.64 296.868 208.64C296.462 208.64 296.132 208.75 295.878 208.97C295.632 209.183 295.485 209.503 295.438 209.93ZM304.559 212.58H305.519V213.36H304.559V215H303.699V213.36H300.239V212.36L303.329 208H304.559V212.58ZM301.159 212.58H303.709V208.99H303.489L301.159 212.36V212.58Z" fill="white" fill-opacity="0.5"/>
<path d="M327.526 209.93H326.646C326.686 209.257 326.92 208.743 327.346 208.39C327.78 208.037 328.323 207.86 328.976 207.86C329.656 207.86 330.203 208.047 330.616 208.42C331.036 208.787 331.246 209.31 331.246 209.99C331.246 210.817 330.73 211.66 329.696 212.52L327.936 214V214.22H331.466V215H326.656V214.01L327.686 213.17C328.326 212.657 328.856 212.207 329.276 211.82C329.436 211.68 329.563 211.56 329.656 211.46C329.756 211.36 329.866 211.23 329.986 211.07C330.113 210.903 330.206 210.73 330.266 210.55C330.333 210.37 330.366 210.183 330.366 209.99C330.366 209.557 330.24 209.223 329.986 208.99C329.733 208.757 329.39 208.64 328.956 208.64C328.55 208.64 328.22 208.75 327.966 208.97C327.72 209.183 327.573 209.503 327.526 209.93ZM335.107 210.29C335.787 210.29 336.33 210.513 336.737 210.96C337.15 211.407 337.357 211.963 337.357 212.63C337.357 213.383 337.133 213.99 336.687 214.45C336.247 214.903 335.67 215.13 334.957 215.13C334.217 215.13 333.633 214.937 333.207 214.55C332.787 214.163 332.557 213.66 332.517 213.04H333.387C333.44 213.467 333.6 213.793 333.867 214.02C334.133 214.24 334.483 214.35 334.917 214.35C335.383 214.35 335.76 214.2 336.047 213.9C336.333 213.593 336.477 213.183 336.477 212.67C336.477 212.183 336.337 211.79 336.057 211.49C335.783 211.183 335.413 211.03 334.947 211.03C334.32 211.03 333.857 211.25 333.557 211.69H332.677L332.987 208H336.987V208.76H333.697L333.537 210.78H333.757C334.117 210.453 334.567 210.29 335.107 210.29Z" fill="white" fill-opacity="0.5"/>
<defs>
<linearGradient id="paint0_linear_2_211" x1="0" y1="0" x2="0" y2="200" gradientUnits="userSpaceOnUse">
<stop stop-color="#D4FF00"/>
<stop offset="0.770833" stop-color="#FF6600"/>
<stop offset="1" stop-color="#FF3333"/>
</linearGradient>
</defs>
</svg>
