<svg width="162" height="48" viewBox="0 0 162 48" fill="none" xmlns="http://www.w3.org/2000/svg">
<path d="M9.50346 48C9.12105 48 8.74788 47.9951 8.36848 47.9866C7.5825 47.9763 6.79837 47.9079 6.0225 47.7819C5.29904 47.6573 4.59821 47.4256 3.94311 47.0944C3.29402 46.7659 2.702 46.3352 2.18973 45.8187C1.67004 45.3083 1.23737 44.7164 0.908875 44.0663C0.576759 43.4121 0.346916 42.7107 0.22735 41.9868C0.0982303 41.209 0.028371 40.4224 0.0183748 39.634C0.0104174 39.3694 0 38.4882 0 38.4882V9.50079C0 9.50079 0.0110952 8.63319 0.0184376 8.37829C0.0280088 7.59111 0.097462 6.8058 0.226196 6.02915C0.345982 5.30325 0.576003 4.59992 0.908297 3.94349C1.23559 3.29388 1.66585 2.70149 2.18241 2.18929C2.69839 1.67222 3.2923 1.23928 3.9425 0.906256C4.59609 0.576088 5.2956 0.346 6.01759 0.2237C6.79601 0.0964172 7.58287 0.0276019 8.37156 0.0178316L9.50407 0.00251007L152.49 0L153.636 0.0159364C154.417 0.0252212 155.197 0.0934226 155.968 0.21996C156.698 0.343794 157.404 0.575487 158.065 0.907422C159.368 1.57857 160.428 2.64038 161.097 3.94404C161.424 4.59594 161.65 5.29354 161.768 6.01316C161.899 6.79618 161.971 7.58767 161.986 8.3813C161.99 8.73667 161.99 9.11839 161.99 9.49828C162 9.96885 162 10.4167 162 10.8683V37.1304C162 37.5862 162 38.0311 161.99 38.4796C161.99 38.8876 161.99 39.2614 161.985 39.6462C161.971 40.4257 161.899 41.203 161.771 41.972C161.654 42.7012 161.425 43.4079 161.093 44.0676C160.762 44.7106 160.332 45.2974 159.818 45.8064C159.306 46.3257 158.712 46.7589 158.062 47.0895C157.403 47.4233 156.697 47.6558 155.968 47.7794C155.193 47.9061 154.408 47.9745 153.622 47.9841C153.255 47.9926 152.87 47.9975 152.496 47.9975L151.135 48H9.50346Z" fill="black"/>
<path d="M56.8801 12.2425C56.8801 13.2025 56.6401 14.0425 56.0401 14.6425C55.3201 15.3625 54.4801 15.7225 53.4001 15.7225C52.3201 15.7225 51.4801 15.3625 50.7601 14.6425C50.0401 13.9225 49.6801 13.0825 49.6801 12.0025C49.6801 10.9225 50.0401 10.0825 50.7601 9.36247C51.4801 8.64247 52.3201 8.28247 53.4001 8.28247C53.8801 8.28247 54.3601 8.40247 54.8401 8.64247C55.3201 8.88247 55.68 9.12247 55.92 9.48247L55.32 10.0825C54.84 9.48247 54.2401 9.24247 53.4001 9.24247C52.6801 9.24247 51.9601 9.48247 51.4801 10.0825C50.8801 10.5625 50.6401 11.2825 50.6401 12.1225C50.6401 12.9625 50.8801 13.6825 51.4801 14.1625C52.0801 14.6425 52.6801 15.0025 53.4001 15.0025C54.2401 15.0025 54.8401 14.7625 55.4401 14.1625C55.8001 13.8025 56.0401 13.3225 56.0401 12.7225H53.4001V11.8825H56.8801C56.8801 11.8825 56.8801 12.1225 56.8801 12.2425Z" fill="white" stroke="white" stroke-width="0.2" stroke-miterlimit="10"/>
<path d="M62.4002 9.24259H59.1602V11.5226H62.1602V12.3626H59.1602V14.6426H62.4002V15.6026H58.2002V8.40259H62.4002V9.24259Z" fill="white" stroke="white" stroke-width="0.2" stroke-miterlimit="10"/>
<path d="M66.3597 15.6026H65.3997V9.24259H63.3597V8.40259H68.3997V9.24259H66.3597V15.6026Z" fill="white" stroke="white" stroke-width="0.2" stroke-miterlimit="10"/>
<path d="M71.8802 15.6026V8.40259H72.8402V15.6026H71.8802Z" fill="white" stroke="white" stroke-width="0.2" stroke-miterlimit="10"/>
<path d="M76.9203 15.6026H75.9603V9.24259H73.9203V8.40259H78.8403V9.24259H76.8003V15.6026H76.9203Z" fill="white" stroke="white" stroke-width="0.2" stroke-miterlimit="10"/>
<path d="M88.32 14.6425C87.6 15.3625 86.76 15.7225 85.68 15.7225C84.6 15.7225 83.76 15.3625 83.04 14.6425C82.32 13.9225 81.96 13.0825 81.96 12.0025C81.96 10.9225 82.32 10.0825 83.04 9.36247C83.76 8.64247 84.6 8.28247 85.68 8.28247C86.76 8.28247 87.6 8.64247 88.32 9.36247C89.04 10.0825 89.4 10.9225 89.4 12.0025C89.4 13.0825 89.04 13.9225 88.32 14.6425ZM83.76 14.0425C84.24 14.5225 84.96 14.8825 85.68 14.8825C86.4 14.8825 87.12 14.6425 87.6 14.0425C88.08 13.5625 88.44 12.8425 88.44 12.0025C88.44 11.1625 88.2 10.4425 87.6 9.96247C87.12 9.48247 86.4 9.12247 85.68 9.12247C84.96 9.12247 84.24 9.36247 83.76 9.96247C83.28 10.4425 82.92 11.1625 82.92 12.0025C82.92 12.8425 83.16 13.5625 83.76 14.0425Z" fill="white" stroke="white" stroke-width="0.2" stroke-miterlimit="10"/>
<path d="M90.7201 15.6026V8.40259H91.8001L95.2801 14.0426V12.6026V8.40259H96.2401V15.6026H95.2801L91.5601 9.72259V11.1626V15.6026H90.7201Z" fill="white" stroke="white" stroke-width="0.2" stroke-miterlimit="10"/>
<path d="M81.7203 26.1627C78.8403 26.1627 76.5603 28.3227 76.5603 31.3227C76.5603 34.2027 78.8403 36.4827 81.7203 36.4827C84.6003 36.4827 86.8803 34.3227 86.8803 31.3227C86.8803 28.2027 84.6003 26.1627 81.7203 26.1627ZM81.7203 34.3227C80.1603 34.3227 78.8403 33.0027 78.8403 31.2027C78.8403 29.4027 80.1603 28.0827 81.7203 28.0827C83.2803 28.0827 84.6003 29.2827 84.6003 31.2027C84.6003 33.0027 83.2803 34.3227 81.7203 34.3227ZM70.5603 26.1627C67.6803 26.1627 65.4003 28.3227 65.4003 31.3227C65.4003 34.2027 67.6803 36.4827 70.5603 36.4827C73.4403 36.4827 75.7203 34.3227 75.7203 31.3227C75.7203 28.2027 73.4403 26.1627 70.5603 26.1627ZM70.5603 34.3227C69.0003 34.3227 67.6803 33.0027 67.6803 31.2027C67.6803 29.4027 69.0003 28.0827 70.5603 28.0827C72.1203 28.0827 73.4403 29.2827 73.4403 31.2027C73.4403 33.0027 72.1203 34.3227 70.5603 34.3227ZM57.2403 27.7227V29.8827H62.4003C62.2803 31.0827 61.8003 32.0427 61.2003 32.6427C60.4803 33.3627 59.2803 34.2027 57.2403 34.2027C54.0003 34.2027 51.6003 31.6827 51.6003 28.4427C51.6003 25.2027 54.1203 22.6827 57.2403 22.6827C58.9203 22.6827 60.2403 23.4027 61.2003 24.2427L62.7603 22.6827C61.4403 21.4827 59.7603 20.5227 57.3603 20.5227C53.0403 20.5227 49.3203 24.1227 49.3203 28.4427C49.3203 32.7627 53.0403 36.3627 57.3603 36.3627C59.7603 36.3627 61.4403 35.6427 62.8803 34.0827C64.3203 32.6427 64.8003 30.6027 64.8003 29.0427C64.8003 28.5627 64.8003 28.0827 64.6803 27.7227H57.2403ZM111.72 29.4027C111.24 28.2027 110.04 26.1627 107.4 26.1627C104.76 26.1627 102.6 28.2027 102.6 31.3227C102.6 34.2027 104.76 36.4827 107.64 36.4827C109.92 36.4827 111.36 35.0427 111.84 34.2027L110.16 33.0027C109.56 33.8427 108.84 34.4427 107.64 34.4427C106.44 34.4427 105.72 33.9627 105.12 32.8827L111.96 30.0027L111.72 29.4027ZM104.76 31.0827C104.76 29.1627 106.32 28.0827 107.4 28.0827C108.24 28.0827 109.08 28.5627 109.32 29.1627L104.76 31.0827ZM99.1203 36.0027H101.4V21.0027H99.1203V36.0027ZM95.5203 27.2427C94.9203 26.6427 93.9603 26.0427 92.7603 26.0427C90.2403 26.0427 87.8403 28.3227 87.8403 31.2027C87.8403 34.0827 90.1203 36.2427 92.7603 36.2427C93.9603 36.2427 94.9203 35.6427 95.4003 35.0427H95.5203V35.7627C95.5203 37.6827 94.4403 38.7627 92.7603 38.7627C91.4403 38.7627 90.4803 37.8027 90.2403 36.9627L88.3203 37.8027C88.9203 39.1227 90.3603 40.8027 92.8803 40.8027C95.5203 40.8027 97.6803 39.2427 97.6803 35.5227V26.4027H95.5203V27.2427ZM92.8803 34.3227C91.3203 34.3227 90.0003 33.0027 90.0003 31.2027C90.0003 29.4027 91.3203 28.0827 92.8803 28.0827C94.4403 28.0827 95.6403 29.4027 95.6403 31.2027C95.6403 33.0027 94.4403 34.3227 92.8803 34.3227ZM122.16 21.0027H116.76V36.0027H119.04V30.3627H122.16C124.68 30.3627 127.08 28.5627 127.08 25.6827C127.08 22.8027 124.68 21.0027 122.16 21.0027ZM122.28 28.2027H119.04V23.0427H122.28C123.96 23.0427 124.92 24.4827 124.92 25.5627C124.8 26.8827 123.84 28.2027 122.28 28.2027ZM136.08 26.0427C134.4 26.0427 132.72 26.7627 132.12 28.3227L134.16 29.1627C134.64 28.3227 135.36 28.0827 136.2 28.0827C137.4 28.0827 138.48 28.8027 138.6 30.0027V30.1227C138.24 29.8827 137.28 29.5227 136.32 29.5227C134.16 29.5227 132 30.7227 132 32.8827C132 34.9227 133.8 36.2427 135.72 36.2427C137.28 36.2427 138 35.5227 138.6 34.8027H138.72V36.0027H140.88V30.2427C140.64 27.6027 138.6 26.0427 136.08 26.0427ZM135.84 34.3227C135.12 34.3227 134.04 33.9627 134.04 33.0027C134.04 31.8027 135.36 31.4427 136.44 31.4427C137.4 31.4427 137.88 31.6827 138.48 31.9227C138.24 33.3627 137.04 34.3227 135.84 34.3227ZM148.44 26.4027L145.92 32.8827H145.8L143.16 26.4027H140.76L144.72 35.5227L142.44 40.5627H144.72L150.84 26.4027H148.44ZM128.28 36.0027H130.56V21.0027H128.28V36.0027Z" fill="white"/>
<path d="M12.4799 9.00244C12.1199 9.36244 11.8799 9.96244 11.8799 10.6824V37.2024C11.8799 37.9224 12.1199 38.5224 12.4799 38.8824L12.5999 39.0024L27.4799 24.1224V24.0024V23.8824L12.4799 9.00244Z" fill="url(#paint0_linear_2_494)"/>
<path d="M32.3999 29.1622L27.4799 24.2422V24.0022V23.8822L32.3999 18.9622L32.5199 19.0822L38.3999 22.4422C40.0799 23.4022 40.0799 24.9622 38.3999 25.9222L32.3999 29.1622Z" fill="url(#paint1_linear_2_494)"/>
<path d="M32.5199 29.0424L27.4799 24.0024L12.4799 39.0024C13.0799 39.6024 13.9199 39.6024 14.9999 39.1224L32.5199 29.0424Z" fill="url(#paint2_linear_2_494)"/>
<path d="M32.5199 18.9624L14.9999 9.00238C13.9199 8.40238 13.0799 8.52238 12.4799 9.12238L27.4799 24.0024L32.5199 18.9624Z" fill="url(#paint3_linear_2_494)"/>
<path opacity="0.2" d="M32.3999 28.9224L14.9999 38.7624C14.0399 39.3624 13.1999 39.2424 12.5999 38.7624L12.4799 38.8824L12.5999 39.0024C13.1999 39.4824 14.0399 39.6024 14.9999 39.0024L32.3999 28.9224Z" fill="black"/>
<path opacity="0.12" d="M12.48 38.7623C12.12 38.4023 12 37.8023 12 37.0823V37.2023C12 37.9223 12.24 38.5223 12.6 38.8823V38.7623H12.48Z" fill="black"/>
<path opacity="0.12" d="M38.4 25.5624L32.4 28.9224L32.52 29.0424L38.4 25.6824C39.24 25.2024 39.6 24.6024 39.6 24.0024C39.6 24.6024 39.12 25.0824 38.4 25.5624Z" fill="black"/>
<path opacity="0.25" d="M15 9.12239L38.4 22.4424C39.12 22.9224 39.6 23.4024 39.6 24.0024C39.6 23.4024 39.24 22.8024 38.4 22.3224L15 9.00239C13.32 8.04239 12 8.88239 12 10.8024V10.9224C12 9.00239 13.32 8.1624 15 9.12239Z" fill="white"/>
<defs>
<linearGradient id="paint0_linear_2_494" x1="26.1595" y1="10.4541" x2="6.02065" y2="30.593" gradientUnits="userSpaceOnUse">
<stop stop-color="#00A0FF"/>
<stop offset="0.00657445" stop-color="#00A1FF"/>
<stop offset="0.2601" stop-color="#00BEFF"/>
<stop offset="0.5122" stop-color="#00D2FF"/>
<stop offset="0.7604" stop-color="#00DFFF"/>
<stop offset="1" stop-color="#00E3FF"/>
</linearGradient>
<linearGradient id="paint1_linear_2_494" x1="40.6011" y1="24.0038" x2="11.5649" y2="24.0038" gradientUnits="userSpaceOnUse">
<stop stop-color="#FFE000"/>
<stop offset="0.4087" stop-color="#FFBD00"/>
<stop offset="0.7754" stop-color="#FFA500"/>
<stop offset="1" stop-color="#FF9C00"/>
</linearGradient>
<linearGradient id="paint2_linear_2_494" x1="29.7923" y1="26.7578" x2="2.4823" y2="54.0677" gradientUnits="userSpaceOnUse">
<stop stop-color="#FF3A44"/>
<stop offset="1" stop-color="#C31162"/>
</linearGradient>
<linearGradient id="paint3_linear_2_494" x1="8.75662" y1="0.21382" x2="20.9517" y2="12.4088" gradientUnits="userSpaceOnUse">
<stop stop-color="#32A071"/>
<stop offset="0.0685" stop-color="#2DA771"/>
<stop offset="0.4762" stop-color="#15CF74"/>
<stop offset="0.8009" stop-color="#06E775"/>
<stop offset="1" stop-color="#00F076"/>
</linearGradient>
</defs>
</svg>
