<svg width="92" height="34" viewBox="0 0 92 34" fill="none" xmlns="http://www.w3.org/2000/svg">
<path d="M8.50002 4.83317V0.666504C3.89765 0.666504 0.166687 4.39747 0.166687 8.99984V27.7498H4.33335V15.2498H8.50002V11.0832H4.33335V8.99984C4.33335 6.69865 6.19883 4.83317 8.50002 4.83317Z" fill="white"/>
<path d="M15.7917 0.666504H11.625V27.7498H15.7917V0.666504Z" fill="white"/>
<path d="M54.3334 2.74984C54.3334 3.90043 53.4006 4.83317 52.25 4.83317C51.0994 4.83317 50.1667 3.90043 50.1667 2.74984C50.1667 1.59925 51.0994 0.666504 52.25 0.666504C53.4006 0.666504 54.3334 1.59925 54.3334 2.74984Z" fill="white"/>
<path d="M54.3334 6.9165V27.7498H50.1667V6.9165H54.3334Z" fill="white"/>
<path d="M38.7084 0.666504H42.875V6.9165H47.0417V11.0832H42.875V19.4165C42.875 21.7177 44.7405 23.5832 47.0417 23.5832V27.7498C42.4393 27.7498 38.7084 24.0189 38.7084 19.4165V0.666504Z" fill="white"/>
<path fill-rule="evenodd" clip-rule="evenodd" d="M61.625 6.9165H57.4584V33.9998H61.625V25.6673C63.366 26.975 65.53 27.7498 67.875 27.7498C73.628 27.7498 78.2917 23.0861 78.2917 17.3332C78.2917 11.5802 73.628 6.9165 67.875 6.9165C65.53 6.9165 63.366 7.69139 61.625 8.99907V6.9165ZM61.625 17.3332C61.625 20.7849 64.4232 23.5832 67.875 23.5832C71.3268 23.5832 74.125 20.7849 74.125 17.3332C74.125 13.8814 71.3268 11.0832 67.875 11.0832C64.4232 11.0832 61.625 13.8814 61.625 17.3332Z" fill="white"/>
<path d="M83.5 12.8625C83.5 11.8798 84.2967 11.0832 85.2794 11.0832H85.5834C86.7339 11.0832 87.6667 12.0159 87.6667 13.1665H91.8334C91.8334 9.71472 89.0351 6.9165 85.5834 6.9165H85.2794C81.9955 6.9165 79.3334 9.57864 79.3334 12.8625C79.3334 15.1147 80.6058 17.1736 82.6202 18.1809L86.6831 20.2123C87.2859 20.5137 87.6667 21.1298 87.6667 21.8038C87.6667 22.7865 86.87 23.5832 85.8873 23.5832H85.5834C84.4328 23.5832 83.5 22.6504 83.5 21.4998H79.3334C79.3334 24.9516 82.1316 27.7498 85.5834 27.7498H85.8873C89.1712 27.7498 91.8334 25.0877 91.8334 21.8038C91.8334 19.5516 90.5609 17.4927 88.5465 16.4855L84.4836 14.4541C83.8808 14.1527 83.5 13.5365 83.5 12.8625Z" fill="white"/>
<path d="M25.0066 27.6254L16.8334 6.9165H21.3203L27.25 21.941L33.1798 6.9165H37.6667L26.9777 33.9998H22.4907L25.0066 27.6254Z" fill="white"/>
<path fill-rule="evenodd" clip-rule="evenodd" d="M91.0406 7.25586C91.1717 7.20345 91.2372 7.09863 91.2372 6.94795C91.2372 6.84313 91.2044 6.75796 91.1324 6.69245C91.0603 6.62038 90.9751 6.58763 90.8703 6.58763H90.4183V7.63584H90.6541V7.28862H90.8113L91.0144 7.63584H91.2634L91.0406 7.25586ZM90.6607 7.07898V6.81037H90.8506C90.8965 6.81037 90.9358 6.82347 90.962 6.84968C90.9882 6.87589 91.0013 6.90864 91.0013 6.94795C91.0013 6.98726 90.9882 7.02002 90.962 7.04622C90.9358 7.06587 90.8965 7.07898 90.8506 7.07898H90.6607Z" fill="white"/>
<path fill-rule="evenodd" clip-rule="evenodd" d="M91.532 6.38453C91.3354 6.18144 91.0865 6.08317 90.7982 6.08317C90.5034 6.08317 90.261 6.18144 90.0579 6.38453C89.8548 6.58763 89.75 6.83658 89.75 7.12484C89.75 7.4131 89.8548 7.6555 90.0579 7.85859C90.261 8.06168 90.51 8.1665 90.7982 8.1665C91.0865 8.1665 91.3289 8.06823 91.532 7.86514C91.7351 7.66205 91.8334 7.4131 91.8334 7.12484C91.8334 6.83003 91.7351 6.58763 91.532 6.38453ZM90.7982 7.93721C90.5689 7.93721 90.379 7.85859 90.2217 7.70136C90.0645 7.54412 89.9859 7.34758 89.9859 7.12484C89.9859 6.90209 90.0645 6.7121 90.2217 6.55487C90.379 6.39764 90.5689 6.31902 90.7982 6.31902C91.021 6.31902 91.211 6.39764 91.3682 6.55487C91.5254 6.7121 91.6041 6.90209 91.6041 7.12484C91.6041 7.35413 91.5254 7.54412 91.3682 7.70136C91.2175 7.85859 91.0275 7.93721 90.7982 7.93721Z" fill="white"/>
</svg>
