<svg width="135" height="36" viewBox="0 0 135 36" fill="none" xmlns="http://www.w3.org/2000/svg">
<path d="M45.0002 4.5V0C40.0296 0 36.0002 4.02944 36.0002 9V29.25H40.5002V15.75H45.0002V11.25H40.5002V9C40.5002 6.51471 42.5149 4.5 45.0002 4.5Z" fill="white"/>
<path d="M52.8752 0H48.3752V29.25H52.8752V0Z" fill="white"/>
<path d="M94.5002 2.25C94.5002 3.49264 93.4928 4.5 92.2502 4.5C91.0075 4.5 90.0002 3.49264 90.0002 2.25C90.0002 1.00736 91.0075 0 92.2502 0C93.4928 0 94.5002 1.00736 94.5002 2.25Z" fill="white"/>
<path d="M94.5002 6.75V29.25H90.0002V6.75H94.5002Z" fill="white"/>
<path d="M77.6252 0H82.1252V6.75H86.6252V11.25H82.1252V20.25C82.1252 22.7353 84.1399 24.75 86.6252 24.75V29.25C81.6546 29.25 77.6252 25.2206 77.6252 20.25V0Z" fill="white"/>
<path fill-rule="evenodd" clip-rule="evenodd" d="M102.375 6.75H97.8752V36H102.375V27.0008C104.255 28.4131 106.593 29.25 109.125 29.25C115.338 29.25 120.375 24.2132 120.375 18C120.375 11.7868 115.338 6.75 109.125 6.75C106.593 6.75 104.255 7.58688 102.375 8.99918V6.75ZM102.375 18C102.375 21.7279 105.397 24.75 109.125 24.75C112.853 24.75 115.875 21.7279 115.875 18C115.875 14.2721 112.853 11.25 109.125 11.25C105.397 11.25 102.375 14.2721 102.375 18Z" fill="white"/>
<path d="M126 13.1717C126 12.1104 126.861 11.25 127.922 11.25H128.25C129.493 11.25 130.5 12.2574 130.5 13.5H135C135 9.77208 131.978 6.75 128.25 6.75H127.922C124.375 6.75 121.5 9.62511 121.5 13.1717C121.5 15.6041 122.874 17.8277 125.05 18.9155L129.438 21.1094C130.089 21.4349 130.5 22.1004 130.5 22.8283C130.5 23.8896 129.64 24.75 128.578 24.75H128.25C127.008 24.75 126 23.7426 126 22.5H121.5C121.5 26.2279 124.522 29.25 128.25 29.25H128.578C132.125 29.25 135 26.3749 135 22.8283C135 20.3959 133.626 18.1723 131.45 17.0845L127.062 14.8906C126.411 14.5651 126 13.8996 126 13.1717Z" fill="white"/>
<path d="M62.8272 29.1156L54.0002 6.75H58.8461L65.2502 22.9765L71.6543 6.75H76.5002L64.9561 36H60.1102L62.8272 29.1156Z" fill="white"/>
<path fill-rule="evenodd" clip-rule="evenodd" d="M134.144 7.11651C134.286 7.05991 134.356 6.9467 134.356 6.78396C134.356 6.67075 134.321 6.57877 134.243 6.50802C134.165 6.43019 134.073 6.39481 133.96 6.39481H133.472V7.52689H133.727V7.15189H133.896L134.116 7.52689H134.385L134.144 7.11651ZM133.734 6.92547V6.63538H133.939C133.988 6.63538 134.031 6.64953 134.059 6.67783C134.087 6.70613 134.102 6.74151 134.102 6.78396C134.102 6.82641 134.087 6.86179 134.059 6.89009C134.031 6.91132 133.988 6.92547 133.939 6.92547H133.734Z" fill="white"/>
<path fill-rule="evenodd" clip-rule="evenodd" d="M134.675 6.17547C134.462 5.95613 134.194 5.85 133.882 5.85C133.564 5.85 133.302 5.95613 133.083 6.17547C132.863 6.39481 132.75 6.66368 132.75 6.975C132.75 7.28632 132.863 7.54811 133.083 7.76745C133.302 7.98679 133.571 8.1 133.882 8.1C134.194 8.1 134.455 7.99387 134.675 7.77453C134.894 7.55519 135 7.28632 135 6.975C135 6.6566 134.894 6.39481 134.675 6.17547ZM133.882 7.85236C133.635 7.85236 133.429 7.76745 133.26 7.59764C133.09 7.42783 133.005 7.21557 133.005 6.975C133.005 6.73443 133.09 6.52925 133.26 6.35943C133.429 6.18962 133.635 6.10472 133.882 6.10472C134.123 6.10472 134.328 6.18962 134.498 6.35943C134.668 6.52925 134.753 6.73443 134.753 6.975C134.753 7.22264 134.668 7.42783 134.498 7.59764C134.335 7.76745 134.13 7.85236 133.882 7.85236Z" fill="white"/>
<ellipse opacity="0.66" cx="14.175" cy="21.9375" rx="14.175" ry="7.3125" fill="url(#paint0_linear_2_160)"/>
<ellipse cx="14.175" cy="14.625" rx="14.175" ry="7.3125" fill="url(#paint1_linear_2_160)"/>
<ellipse cx="14.175" cy="7.3125" rx="14.175" ry="7.3125" fill="white"/>
<defs>
<linearGradient id="paint0_linear_2_160" x1="14.175" y1="14.625" x2="14.175" y2="29.25" gradientUnits="userSpaceOnUse">
<stop stop-color="white" stop-opacity="0"/>
<stop offset="1" stop-color="white"/>
</linearGradient>
<linearGradient id="paint1_linear_2_160" x1="14.175" y1="7.3125" x2="14.175" y2="21.9375" gradientUnits="userSpaceOnUse">
<stop stop-color="white" stop-opacity="0"/>
<stop offset="1" stop-color="white"/>
</linearGradient>
</defs>
</svg>
