<svg width="88" height="32" viewBox="0 0 88 32" fill="none" xmlns="http://www.w3.org/2000/svg">
<path d="M8 4V0C3.58173 0 0 3.58173 0 8V26H4V14H8V10H4V8C4 5.79086 5.79086 4 8 4Z" fill="#000D26"/>
<path d="M15 0H11V26H15V0Z" fill="#000D26"/>
<path d="M52 2C52 3.10457 51.1046 4 50 4C48.8954 4 48 3.10457 48 2C48 0.895435 48.8954 0 50 0C51.1046 0 52 0.895435 52 2Z" fill="#000D26"/>
<path d="M52 6V26H48V6H52Z" fill="#000D26"/>
<path d="M37 0H41V6H45V10H41V18C41 20.2091 42.7909 22 45 22V26C40.5817 26 37 22.4183 37 18V0Z" fill="#000D26"/>
<path fill-rule="evenodd" clip-rule="evenodd" d="M59 6H55V32H59V24.0007C60.6713 25.2561 62.7488 26 65 26C70.5229 26 75 21.5228 75 16C75 10.4772 70.5229 6 65 6C62.7488 6 60.6713 6.74389 59 7.99927V6ZM59 16C59 19.3137 61.6863 22 65 22C68.3137 22 71 19.3137 71 16C71 12.6863 68.3137 10 65 10C61.6863 10 59 12.6863 59 16Z" fill="#000D26"/>
<path d="M80 11.7082C80 10.7648 80.7648 10 81.7082 10H82C83.1046 10 84 10.8954 84 12H88C88 8.68629 85.3137 6 82 6H81.7082C78.5557 6 76 8.55565 76 11.7082C76 13.8703 77.2216 15.8469 79.1554 16.8138L83.0557 18.7639C83.6344 19.0533 84 19.6448 84 20.2918C84 21.2352 83.2352 22 82.2918 22H82C80.8954 22 80 21.1046 80 20H76C76 23.3137 78.6863 26 82 26H82.2918C85.4444 26 88 23.4444 88 20.2918C88 18.1297 86.7784 16.1531 84.8446 15.1862L80.9443 13.2361C80.3656 12.9467 80 12.3552 80 11.7082Z" fill="#000D26"/>
<path d="M23.8463 25.8805L16 6H20.3075L26 20.4235L31.6926 6H36L25.7386 32H21.4311L23.8463 25.8805Z" fill="#000D26"/>
<path fill-rule="evenodd" clip-rule="evenodd" d="M87.239 6.32579C87.3648 6.27547 87.4277 6.17484 87.4277 6.03019C87.4277 5.92956 87.3962 5.8478 87.327 5.78491C87.2579 5.71572 87.1761 5.68428 87.0755 5.68428H86.6415V6.69057H86.8679V6.35723H87.0189L87.2138 6.69057H87.4528L87.239 6.32579ZM86.8742 6.15598V5.89811H87.0566C87.1006 5.89811 87.1384 5.91069 87.1635 5.93585C87.1887 5.96101 87.2013 5.99245 87.2013 6.03019C87.2013 6.06792 87.1887 6.09937 87.1635 6.12453C87.1384 6.1434 87.1006 6.15598 87.0566 6.15598H86.8742Z" fill="#000D26"/>
<path fill-rule="evenodd" clip-rule="evenodd" d="M87.7107 5.48931C87.522 5.29434 87.283 5.2 87.0063 5.2C86.7233 5.2 86.4906 5.29434 86.2956 5.48931C86.1006 5.68428 86 5.92327 86 6.2C86 6.47673 86.1006 6.70943 86.2956 6.9044C86.4906 7.09937 86.7296 7.2 87.0063 7.2C87.283 7.2 87.5157 7.10566 87.7107 6.91069C87.9057 6.71572 88 6.47673 88 6.2C88 5.91698 87.9057 5.68428 87.7107 5.48931ZM87.0063 6.97987C86.7862 6.97987 86.6038 6.9044 86.4528 6.75346C86.3019 6.60252 86.2264 6.41384 86.2264 6.2C86.2264 5.98616 86.3019 5.80377 86.4528 5.65283C86.6038 5.50189 86.7862 5.42641 87.0063 5.42641C87.2201 5.42641 87.4025 5.50189 87.5535 5.65283C87.7044 5.80377 87.7799 5.98616 87.7799 6.2C87.7799 6.42013 87.7044 6.60252 87.5535 6.75346C87.4088 6.9044 87.2264 6.97987 87.0063 6.97987Z" fill="#000D26"/>
</svg>
