<svg width="22" height="16" viewBox="0 0 22 16" fill="none" xmlns="http://www.w3.org/2000/svg">
<path d="M22 7.93106C22 7.87688 22 7.81533 21.9975 7.74392C21.9951 7.54447 21.9902 7.32041 21.9853 7.08156C21.9656 6.39458 21.9312 5.71006 21.8772 5.06494C21.8036 4.17605 21.6955 3.4349 21.5482 2.87842C21.3927 2.29769 21.088 1.76805 20.6645 1.34244C20.2409 0.916822 19.7134 0.610147 19.1346 0.453062C18.4397 0.265928 17.0795 0.1502 15.1643 0.0787934C14.2533 0.0443213 13.2786 0.0221605 12.3038 0.00984903C11.9625 0.00492444 11.6458 0.0024623 11.3609 0H10.6391C10.3542 0.0024623 10.0375 0.00492444 9.69621 0.00984903C8.72143 0.0221605 7.74665 0.0443213 6.83571 0.0787934C4.92054 0.152662 3.55781 0.26839 2.8654 0.453062C2.28643 0.609762 1.7587 0.916307 1.33509 1.34198C0.911475 1.76765 0.606866 2.2975 0.451786 2.87842C0.302009 3.4349 0.196429 4.17605 0.122768 5.06494C0.06875 5.71006 0.034375 6.39458 0.0147321 7.08156C0.00736603 7.32041 0.00491068 7.54447 0.00245532 7.74392C0.00245532 7.81533 0 7.87688 0 7.93106V8.06894C0 8.12311 -3.75024e-08 8.18467 0.00245532 8.25608C0.00491068 8.45552 0.00982139 8.67959 0.0147321 8.91844C0.034375 9.60542 0.06875 10.2899 0.122768 10.9351C0.196429 11.8239 0.304464 12.5651 0.451786 13.1216C0.766071 14.301 1.68929 15.2318 2.8654 15.5469C3.55781 15.7341 4.92054 15.8498 6.83571 15.9212C7.74665 15.9557 8.72143 15.9778 9.69621 15.9901C10.0375 15.9951 10.3542 15.9975 10.6391 16H11.3609C11.6458 15.9975 11.9625 15.9951 12.3038 15.9901C13.2786 15.9778 14.2533 15.9557 15.1643 15.9212C17.0795 15.8473 18.4422 15.7316 19.1346 15.5469C20.3107 15.2318 21.2339 14.3035 21.5482 13.1216C21.698 12.5651 21.8036 11.8239 21.8772 10.9351C21.9312 10.2899 21.9656 9.60542 21.9853 8.91844C21.9926 8.67959 21.9951 8.45552 21.9975 8.25608C21.9975 8.18467 22 8.12311 22 8.06894V7.93106ZM20.2321 8.05909C20.2321 8.1108 20.2321 8.16743 20.2297 8.23392C20.2272 8.42598 20.2223 8.63773 20.2174 8.86673C20.2002 9.5217 20.1658 10.1767 20.1143 10.7849C20.048 11.5777 19.9547 12.2278 19.8393 12.6636C19.6871 13.2324 19.2402 13.683 18.6754 13.8332C18.1598 13.9711 16.8609 14.0819 15.0955 14.1484C14.2018 14.1828 13.2393 14.205 12.2792 14.2173C11.9429 14.2222 11.631 14.2247 11.3511 14.2247H10.6489L9.72076 14.2173C8.76071 14.205 7.80067 14.1828 6.90446 14.1484C5.13906 14.0794 3.83772 13.9711 3.32455 13.8332C2.75982 13.6805 2.31295 13.2324 2.16071 12.6636C2.04531 12.2278 1.95201 11.5777 1.88571 10.7849C1.83415 10.1767 1.80223 9.5217 1.78259 8.86673C1.77522 8.63773 1.77277 8.42351 1.77031 8.23392C1.77031 8.16743 1.76786 8.10834 1.76786 8.05909V7.9409C1.76786 7.8892 1.76786 7.83256 1.77031 7.76608C1.77277 7.57402 1.77768 7.36226 1.78259 7.13327C1.79978 6.4783 1.83415 5.82333 1.88571 5.21514C1.95201 4.42228 2.04531 3.77224 2.16071 3.33641C2.31295 2.76762 2.75982 2.31702 3.32455 2.16682C3.84018 2.02893 5.13906 1.91813 6.90446 1.85165C7.79821 1.81717 8.76071 1.79501 9.72076 1.7827C10.0571 1.77778 10.369 1.77532 10.6489 1.77532H11.3511L12.2792 1.7827C13.2393 1.79501 14.1993 1.81717 15.0955 1.85165C16.8609 1.92059 18.1623 2.02893 18.6754 2.16682C19.2402 2.31948 19.6871 2.76762 19.8393 3.33641C19.9547 3.77224 20.048 4.42228 20.1143 5.21514C20.1658 5.82333 20.1978 6.4783 20.2174 7.13327C20.2248 7.36226 20.2272 7.57648 20.2297 7.76608C20.2297 7.83256 20.2321 7.89166 20.2321 7.9409V8.05909ZM8.81473 11.2995L14.5112 7.97538L8.81473 4.70052V11.2995Z" fill="black"/>
</svg>
