<svg width="651" height="604" viewBox="0 0 651 604" fill="none" xmlns="http://www.w3.org/2000/svg">
<g opacity="0.5" filter="url(#filter0_i)">
<path fill-rule="evenodd" clip-rule="evenodd" d="M173.706 230.548C173.161 214.928 132.46 218.449 116.76 219.955C101.059 221.462 99.6334 200.064 113.18 196.883C126.726 193.703 151.291 195.344 164.019 192.408C176.747 189.472 160.647 173.725 177.989 171.827C195.331 169.93 231.191 171.687 241.881 171.301C258.673 170.696 267.288 190.909 237.87 191.827C229.757 192.079 228.129 210.037 255.513 205.104C272.698 202.009 306.414 201.937 313.428 209.84C317.453 214.375 316.058 226.557 309.14 233.284C304 238.281 287.656 239.256 281.253 240.411C266.232 243.121 269.201 257.665 274.323 260.659C286.444 267.745 319.708 254.372 320.6 273.83C320.994 282.429 290.727 283.817 278.317 283.712C247.879 283.454 227.881 286.166 226.477 275.784C225.068 265.361 245.391 272.396 244.389 259.582C243.865 252.886 245.269 238.658 232.23 239.405C250.082 238.383 174.441 251.644 173.706 230.548Z" fill="url(#paint0_linear)"/>
</g>
<g opacity="0.5" filter="url(#filter1_i)">
<path fill-rule="evenodd" clip-rule="evenodd" d="M358.63 169.541C358.67 153.912 317.866 155.906 302.12 156.824C286.374 157.742 285.751 136.306 299.407 133.634C313.063 130.963 337.549 133.523 350.378 131.066C363.207 128.608 347.707 112.27 365.109 111.023C382.51 109.775 418.278 112.874 428.975 112.889C445.778 112.912 453.63 133.434 424.198 133.25C416.082 133.199 413.783 151.083 441.333 147.179C458.621 144.729 492.317 145.92 499.03 154.08C502.881 158.762 501.031 170.883 493.866 177.346C488.543 182.148 472.174 182.51 465.732 183.424C450.62 185.57 453.043 200.215 458.049 203.399C469.896 210.934 503.638 198.815 503.8 218.293C503.872 226.9 473.574 227.154 461.177 226.585C430.77 225.188 410.684 227.149 409.67 216.721C408.652 206.253 428.698 214.044 428.176 201.202C427.904 194.491 429.839 180.326 416.781 180.584C434.659 180.23 358.575 190.65 358.63 169.541Z" fill="url(#paint1_linear)"/>
</g>
<path fill-rule="evenodd" clip-rule="evenodd" d="M731.739 444.836C700.358 432.926 620.421 404.597 550.125 404.597C479.83 404.597 392.69 450.452 336.456 455.656C280.222 460.859 135.568 464.463 135.568 464.463V534.354H731.739C731.739 534.354 731.739 490.484 731.739 444.836Z" fill="url(#paint2_linear)"/>
<path d="M471.783 445.189C471.783 424.461 489.111 360.315 512.5 325.216" stroke="url(#paint3_linear)" stroke-width="6" stroke-linecap="round"/>
<path fill-rule="evenodd" clip-rule="evenodd" d="M501.67 334.975C501.67 334.975 502.654 324.656 497.444 315.634C492.235 306.612 485.682 300.645 482.807 302.304C479.931 303.964 481.823 312.624 487.032 321.645C492.241 330.667 501.67 334.975 501.67 334.975Z" fill="url(#paint4_linear)"/>
<path fill-rule="evenodd" clip-rule="evenodd" d="M507.66 338.544C507.66 338.544 516.31 344.257 526.722 343.893C537.134 343.53 545.48 340.545 545.364 337.227C545.248 333.91 536.714 331.515 526.302 331.878C515.891 332.242 507.66 338.544 507.66 338.544Z" fill="url(#paint5_linear)"/>
<path fill-rule="evenodd" clip-rule="evenodd" d="M496.458 364.917C496.458 364.917 504.797 371.075 515.214 371.257C525.63 371.439 534.121 368.895 534.179 365.576C534.237 362.256 525.84 359.418 515.424 359.236C505.007 359.055 496.458 364.917 496.458 364.917Z" fill="url(#paint6_linear)"/>
<path fill-rule="evenodd" clip-rule="evenodd" d="M487.336 391.45C487.336 391.45 495.675 397.608 506.092 397.79C516.508 397.972 524.999 395.428 525.057 392.109C525.115 388.789 516.718 385.951 506.301 385.769C495.885 385.588 487.336 391.45 487.336 391.45Z" fill="url(#paint7_linear)"/>
<path fill-rule="evenodd" clip-rule="evenodd" d="M514.481 321.264C514.481 321.264 524.123 317.455 529.797 308.719C535.471 299.982 537.813 291.433 535.029 289.625C532.245 287.817 525.388 293.434 519.713 302.171C514.039 310.908 514.481 321.264 514.481 321.264Z" fill="url(#paint8_linear)"/>
<path fill-rule="evenodd" clip-rule="evenodd" d="M489.699 361.82C489.699 361.82 488.695 351.503 481.861 343.641C475.026 335.779 467.454 331.171 464.948 333.349C462.442 335.527 465.952 343.666 472.787 351.528C479.622 359.39 489.699 361.82 489.699 361.82Z" fill="url(#paint9_linear)"/>
<path fill-rule="evenodd" clip-rule="evenodd" d="M479.926 389.468C479.926 389.468 477.849 379.312 470.23 372.208C462.611 365.103 454.598 361.312 452.334 363.74C450.07 366.168 454.411 373.895 462.03 381C469.65 388.105 479.926 389.468 479.926 389.468Z" fill="url(#paint10_linear)"/>
<g opacity="0.3">
<path fill-rule="evenodd" clip-rule="evenodd" d="M93.3377 406.52C89.062 410.302 72.8016 402.738 66.3547 390.997C59.9078 379.256 71.8668 375.076 55.6004 356.298C39.3341 337.519 28.8967 330.327 38.7681 299.374C48.6395 268.421 35.0022 251.219 53.0213 243.143C71.0404 235.068 81.4175 261.869 79.3506 285.444C77.2837 309.019 81.5112 313.905 99.1361 311.462C116.761 309.019 101.902 343.629 101.902 351.184C101.902 358.738 112.589 372.77 110.372 383.327C108.155 393.884 97.6133 402.738 93.3377 406.52Z" fill="url(#paint11_linear)"/>
<path d="M83.043 373.609C86.2109 368.485 92.4779 351.361 92.4779 338.742" stroke="url(#paint12_linear)" stroke-width="6" stroke-linecap="round"/>
<path d="M70.584 339.775C70.584 333.977 54.303 329.906 46.3332 318.903" stroke="url(#paint13_linear)" stroke-width="6" stroke-linecap="round"/>
<path d="M106.777 458.338C105.694 452.964 102.859 431.881 94.631 407.206C81.6119 368.163 61.4219 317.173 61.4219 282.744" stroke="url(#paint14_linear)" stroke-width="6" stroke-linecap="round"/>
</g>
<path opacity="0.084933" fill-rule="evenodd" clip-rule="evenodd" d="M464.126 448.54C484.39 448.54 500.817 447.612 500.817 446.467C500.817 445.323 484.39 444.395 464.126 444.395C443.862 444.395 427.436 445.323 427.436 446.467C427.436 447.612 443.862 448.54 464.126 448.54Z" fill="#8699BF"/>
<path fill-rule="evenodd" clip-rule="evenodd" d="M219.701 413.717C304.417 413.717 409.433 459.572 477.203 464.776C544.974 469.98 719.302 473.584 719.302 473.584V604H25.3593C-35.623 579.552 176.086 413.717 219.701 413.717Z" fill="url(#paint15_linear)"/>
<path fill-rule="evenodd" clip-rule="evenodd" d="M219.701 413.717C304.417 413.717 409.433 459.572 477.203 464.776C544.974 469.98 719.302 473.584 719.302 473.584V604H25.3593C-35.623 579.552 176.086 413.717 219.701 413.717Z" fill="url(#paint16_linear)"/>
<g opacity="0.3">
<path d="M468.637 446.46C473.441 431.675 475.897 381.887 467.278 351.407" stroke="url(#paint17_linear)" stroke-width="4.5" stroke-linecap="round"/>
<path fill-rule="evenodd" clip-rule="evenodd" d="M472.802 360.898C472.802 360.898 474.48 353.296 480.286 348.068C486.093 342.84 492.157 340.108 493.83 341.966C495.503 343.824 492.152 349.569 486.346 354.797C480.539 360.025 472.802 360.898 472.802 360.898Z" fill="url(#paint18_linear)"/>
<path fill-rule="evenodd" clip-rule="evenodd" d="M467.599 362.022C467.599 362.022 460.098 364.11 452.756 361.438C445.413 358.766 440.155 354.695 441.01 352.345C441.865 349.995 448.511 350.257 455.853 352.929C463.195 355.601 467.599 362.022 467.599 362.022Z" fill="url(#paint19_linear)"/>
<path fill-rule="evenodd" clip-rule="evenodd" d="M469.51 383.441C469.51 383.441 462.129 385.919 454.657 383.635C447.185 381.351 441.72 377.56 442.452 375.169C443.183 372.778 449.833 372.691 457.305 374.975C464.777 377.26 469.51 383.441 469.51 383.441Z" fill="url(#paint20_linear)"/>
<path fill-rule="evenodd" clip-rule="evenodd" d="M469.895 404.49C469.895 404.49 462.514 406.968 455.042 404.683C447.57 402.399 442.105 398.609 442.836 396.218C443.567 393.826 450.217 393.74 457.69 396.024C465.162 398.308 469.895 404.49 469.895 404.49Z" fill="url(#paint21_linear)"/>
<path fill-rule="evenodd" clip-rule="evenodd" d="M466.743 348.117C466.743 348.117 460.731 343.171 458.708 335.624C456.686 328.077 457.005 321.435 459.42 320.788C461.836 320.141 465.433 325.734 467.456 333.281C469.478 340.827 466.743 348.117 466.743 348.117Z" fill="url(#paint22_linear)"/>
<path fill-rule="evenodd" clip-rule="evenodd" d="M475.164 382.836C475.164 382.836 478.262 375.693 484.959 371.669C491.657 367.645 498.13 366.12 499.418 368.263C500.706 370.407 496.321 375.406 489.623 379.43C482.926 383.454 475.164 382.836 475.164 382.836Z" fill="url(#paint23_linear)"/>
<path fill-rule="evenodd" clip-rule="evenodd" d="M475.762 404.833C475.762 404.833 479.589 398.053 486.67 394.751C493.752 391.449 500.349 390.609 501.406 392.875C502.463 395.141 497.579 399.655 490.497 402.957C483.416 406.259 475.762 404.833 475.762 404.833Z" fill="url(#paint24_linear)"/>
</g>
<path fill-rule="evenodd" clip-rule="evenodd" d="M129.751 444.304C128.373 443.454 95.789 429.227 98.7977 426.184C101.806 423.141 116.483 423.141 116.483 423.141C116.483 423.141 131.129 445.153 129.751 444.304Z" fill="url(#paint25_linear)" style="mix-blend-mode:multiply"/>
<g filter="url(#filter2_i)">
<path fill-rule="evenodd" clip-rule="evenodd" d="M126.271 419.882C114.693 416.847 80.54 402.173 90.5271 385C100.514 367.826 110.501 362.881 100.514 355.033C90.5271 347.184 97.6226 329.728 107.496 322.544C117.369 315.359 93.9882 293.957 104.699 282.632C115.409 271.308 149.647 288.801 150.44 310.213C151.233 331.626 159.198 330.143 163.246 339.811C167.295 349.479 139.251 363.991 143.349 374.495C147.447 385 171.35 395.955 157.35 410.106C143.349 424.257 137.849 422.917 126.271 419.882Z" fill="url(#paint26_radial)"/>
</g>
<path fill-rule="evenodd" clip-rule="evenodd" d="M129.351 442.322C130.701 418.108 105.737 408.011 123.494 373.925C141.25 339.838 128.912 310.406 123.494 299.198" fill="black" fill-opacity="0.01"/>
<path d="M129.351 442.322C130.701 418.108 105.737 408.011 123.494 373.925C141.25 339.838 128.912 310.406 123.494 299.198" stroke="url(#paint27_linear)" stroke-width="6" stroke-linecap="round" stroke-linejoin="round"/>
<g opacity="0.3">
<path fill-rule="evenodd" clip-rule="evenodd" d="M127.691 358.995C124.597 357.523 118.901 353.375 116.083 346.973L127.691 358.995Z" fill="black" fill-opacity="0.01"/>
<path d="M127.691 358.995C124.597 357.523 118.901 353.375 116.083 346.973" stroke="url(#paint28_linear)" stroke-width="5" stroke-linecap="round" stroke-linejoin="round"/>
</g>
<g opacity="0.3">
<path fill-rule="evenodd" clip-rule="evenodd" d="M118.156 402.939C113.348 400.948 103.514 395.483 102.817 387.185L118.156 402.939Z" fill="black" fill-opacity="0.01"/>
<path d="M118.156 402.939C113.348 400.948 103.514 395.483 102.817 387.185" stroke="url(#paint29_linear)" stroke-width="5" stroke-linecap="round" stroke-linejoin="round"/>
</g>
<g opacity="0.3">
<path fill-rule="evenodd" clip-rule="evenodd" d="M119.815 382.625C124.142 383.843 130.561 382.735 135.983 374.749L119.815 382.625Z" fill="black" fill-opacity="0.01"/>
<path d="M119.815 382.625C124.142 383.843 130.561 382.735 135.983 374.749" stroke="url(#paint30_linear)" stroke-width="5" stroke-linecap="round" stroke-linejoin="round"/>
</g>
<g opacity="0.3">
<path fill-rule="evenodd" clip-rule="evenodd" d="M131.837 320.856C134.657 318.633 140.14 309.852 139.714 302.201L131.837 320.856Z" fill="black" fill-opacity="0.01"/>
<path d="M131.837 320.856C134.657 318.633 140.14 309.852 139.714 302.201" stroke="url(#paint31_linear)" stroke-width="5" stroke-linecap="round" stroke-linejoin="round"/>
</g>
<path opacity="0.5" fill-rule="evenodd" clip-rule="evenodd" d="M110.279 505.907L237.951 456.417H414.998L320.274 519.844" fill="url(#paint32_linear)"/>
<path fill-rule="evenodd" clip-rule="evenodd" d="M331.667 463.879C378.376 463.879 416.242 460.909 416.242 457.246C416.242 453.583 378.376 450.613 331.667 450.613C284.957 450.613 247.092 453.583 247.092 457.246C247.092 460.909 284.957 463.879 331.667 463.879Z" fill="#8699BF"/>
<rect x="245.848" y="112.747" width="187.806" height="346.572" rx="20" fill="url(#paint33_linear)"/>
<rect x="230.508" y="112.747" width="187.806" height="346.572" rx="20" fill="url(#paint34_linear)"/>
<rect x="275.283" y="135.133" width="98.6709" height="6.21838" rx="3.10919" fill="url(#paint35_linear)"/>
<path fill-rule="evenodd" clip-rule="evenodd" d="M324.204 451.857C333.821 451.857 341.617 444.061 341.617 434.445C341.617 424.829 333.821 417.034 324.204 417.034C314.588 417.034 306.792 424.829 306.792 434.445C306.792 444.061 314.588 451.857 324.204 451.857Z" fill="url(#paint36_linear)"/>
<g filter="url(#filter3_d)">
<rect x="238.386" y="162.494" width="172.467" height="247.077" rx="12" fill="white"/>
</g>
<mask id="mask0" maskUnits="userSpaceOnUse" x="238" y="162" width="173" height="248">
<rect x="238.386" y="162.494" width="172.467" height="247.077" rx="12" fill="white"/>
</mask>
<g mask="url(#mask0)">
<g opacity="0.6">
<rect x="246.678" y="351.948" width="155.883" height="47.2597" rx="20" fill="url(#paint37_linear)"/>
<path fill-rule="evenodd" clip-rule="evenodd" d="M270.309 392.989C279.926 392.989 287.721 385.194 287.721 375.578C287.721 365.962 279.926 358.166 270.309 358.166C260.692 358.166 252.896 365.962 252.896 375.578C252.896 385.194 260.692 392.989 270.309 392.989Z" fill="#A1B8E3"/>
<rect x="293.94" y="360.239" width="96.598" height="7.04755" rx="3.52377" fill="#A1B8E3"/>
<rect x="293.94" y="371.847" width="73.7958" height="7.04758" rx="3.52379" fill="#A1B8E3"/>
<rect opacity="0.5" x="293.94" y="385.942" width="27.3626" height="4.97476" rx="2.48738" fill="#A1B8E3"/>
</g>
<g opacity="0.6">
<rect x="246.678" y="294.739" width="155.883" height="47.2598" rx="20" fill="url(#paint38_linear)"/>
<path fill-rule="evenodd" clip-rule="evenodd" d="M270.309 335.78C279.926 335.78 287.721 327.985 287.721 318.369C287.721 308.752 279.926 300.957 270.309 300.957C260.692 300.957 252.896 308.752 252.896 318.369C252.896 327.985 260.692 335.78 270.309 335.78Z" fill="#A1B8E3"/>
<rect x="293.94" y="303.03" width="96.598" height="7.04752" rx="3.52376" fill="#A1B8E3"/>
<rect x="293.94" y="314.638" width="73.7958" height="7.04749" rx="3.52374" fill="#A1B8E3"/>
<rect opacity="0.5" x="293.94" y="328.733" width="27.3626" height="4.9747" rx="2.48735" fill="#A1B8E3"/>
</g>
<g opacity="0.6">
<rect x="246.678" y="175.346" width="155.883" height="47.2598" rx="20" fill="url(#paint39_linear)"/>
<path fill-rule="evenodd" clip-rule="evenodd" d="M270.309 216.387C279.926 216.387 287.721 208.592 287.721 198.975C287.721 189.359 279.926 181.564 270.309 181.564C260.692 181.564 252.896 189.359 252.896 198.975C252.896 208.592 260.692 216.387 270.309 216.387Z" fill="#A1B8E3"/>
<rect x="293.94" y="183.637" width="96.598" height="7.04752" rx="3.52376" fill="#A1B8E3"/>
<rect x="293.94" y="195.244" width="73.7958" height="7.04749" rx="3.52374" fill="#A1B8E3"/>
<rect opacity="0.5" x="293.94" y="209.339" width="27.3626" height="4.97475" rx="2.48737" fill="#A1B8E3"/>
</g>
</g>
<g filter="url(#filter4_d)">
<rect x="221.802" y="231.311" width="155.883" height="47.2598" rx="20" fill="url(#paint40_linear)"/>
<path fill-rule="evenodd" clip-rule="evenodd" d="M245.433 272.352C255.05 272.352 262.846 264.557 262.846 254.941C262.846 245.325 255.05 237.53 245.433 237.53C235.816 237.53 228.021 245.325 228.021 254.941C228.021 264.557 235.816 272.352 245.433 272.352Z" fill="#FFB417"/>
<rect x="269.064" y="239.602" width="96.598" height="7.0475" rx="3.52375" fill="#FFB417"/>
<rect x="269.064" y="251.21" width="73.7959" height="7.0475" rx="3.52375" fill="#FFB417"/>
<rect opacity="0.5" x="269.064" y="265.305" width="27.3625" height="4.9747" rx="2.48735" fill="#FFB417"/>
</g>
<path opacity="0.5" fill-rule="evenodd" clip-rule="evenodd" d="M116.605 547.603L284.808 536.81C280.912 540.279 276.053 542.481 270.876 543.123L147.816 558.397" fill="url(#paint41_linear)"/>
<path opacity="0.5" fill-rule="evenodd" clip-rule="evenodd" d="M45.9805 531.323H211.954C209.111 533.985 205.402 535.53 201.51 535.677L86.2946 540.005" fill="url(#paint42_linear)"/>
<path fill-rule="evenodd" clip-rule="evenodd" d="M169.193 353.407C169.193 360.815 163.091 375.332 171.048 379.096C179.006 382.86 186.042 363.311 186.042 363.311C186.042 363.311 185.436 348.957 178.242 348.957C171.048 348.957 169.193 345.999 169.193 353.407Z" fill="url(#paint43_linear)"/>
<mask id="mask1" maskUnits="userSpaceOnUse" x="166" y="348" width="21" height="32">
<path fill-rule="evenodd" clip-rule="evenodd" d="M169.193 353.407C169.193 360.815 163.091 375.332 171.048 379.096C179.006 382.86 186.042 363.311 186.042 363.311C186.042 363.311 185.436 348.957 178.242 348.957C171.048 348.957 169.193 345.999 169.193 353.407Z" fill="white"/>
</mask>
<g mask="url(#mask1)">
<g opacity="0.5">
<path fill-rule="evenodd" clip-rule="evenodd" d="M168.735 356.724C169.377 358.028 178.121 364.926 179.567 366.557C181.013 368.188 181.344 372.451 182.174 372.011C183.005 371.57 182.174 359.065 182.174 359.065C182.174 359.065 168.093 355.42 168.735 356.724Z" fill="#3D82F0" style="mix-blend-mode:multiply"/>
</g>
</g>
<path fill-rule="evenodd" clip-rule="evenodd" d="M183.425 521.377C183.292 525.203 182.137 529.949 183.059 531.883C183.981 533.818 188.846 534.989 190.462 535.045C192.078 535.102 192.714 532.395 195.175 533.885C197.637 535.375 211.946 535.797 213.074 530.14C214.201 524.483 206.949 524.229 203.723 524.116C200.497 524.003 197.135 522.312 192.488 518.066C187.84 513.819 183.559 517.551 183.425 521.377Z" fill="url(#paint44_linear)"/>
<path d="M201.435 526.916C202.286 525.009 199.966 522.803 199.378 522.731" stroke="white" stroke-width="2" stroke-linecap="round"/>
<path d="M205.322 526.866C205.601 524.588 203.996 523.79 203.354 523.711" stroke="white" stroke-width="2" stroke-linecap="round"/>
<path fill-rule="evenodd" clip-rule="evenodd" d="M255.103 529.426C255.437 533.24 254.868 538.092 256.019 539.9C257.17 541.708 262.141 542.276 263.752 542.135C265.363 541.994 265.665 539.23 268.289 540.409C270.914 541.588 285.167 540.262 285.598 534.509C286.028 528.757 278.798 529.389 275.583 529.671C272.367 529.952 268.825 528.684 263.694 525.035C258.564 521.387 254.769 525.613 255.103 529.426Z" fill="url(#paint45_linear)"/>
<path d="M273.653 532.73C274.266 530.733 271.694 528.827 271.101 528.827" stroke="white" stroke-width="2" stroke-linecap="round"/>
<path d="M277.505 532.207C277.505 529.912 275.814 529.315 275.167 529.315" stroke="white" stroke-width="2" stroke-linecap="round"/>
<path fill-rule="evenodd" clip-rule="evenodd" d="M242.106 392.397C242.106 392.397 257.736 449.657 259.77 462.686C261.805 475.715 266.785 519.756 266.082 526.858C262.68 530.326 256.553 528.25 255.486 527.614C254.419 526.978 247.843 490.743 242.106 476.687C236.37 462.63 223.461 449.693 214.954 435.551C214.954 444.756 208.386 469.389 208.386 469.389C208.386 469.389 198.808 512.89 195.548 519.932C194.002 522.43 186.194 520.598 183.166 519.932C183.166 513.334 189.695 480.001 189.695 468.429C189.695 456.857 187.89 435.886 187.215 427.289C186.54 418.692 184.892 402.013 187.215 392.397C193.104 392.397 242.106 392.397 242.106 392.397Z" fill="url(#paint46_linear)"/>
<mask id="mask2" maskUnits="userSpaceOnUse" x="183" y="392" width="84" height="137">
<path fill-rule="evenodd" clip-rule="evenodd" d="M242.106 392.397C242.106 392.397 257.736 449.657 259.77 462.686C261.805 475.715 266.785 519.756 266.082 526.858C262.68 530.326 256.553 528.25 255.486 527.614C254.419 526.978 247.843 490.743 242.106 476.687C236.37 462.63 223.461 449.693 214.954 435.551C214.954 444.756 208.386 469.389 208.386 469.389C208.386 469.389 198.808 512.89 195.548 519.932C194.002 522.43 186.194 520.598 183.166 519.932C183.166 513.334 189.695 480.001 189.695 468.429C189.695 456.857 187.89 435.886 187.215 427.289C186.54 418.692 184.892 402.013 187.215 392.397C193.104 392.397 242.106 392.397 242.106 392.397Z" fill="white"/>
</mask>
<g mask="url(#mask2)">
<g opacity="0.5">
<path fill-rule="evenodd" clip-rule="evenodd" d="M206.712 476.076C206.712 470.471 209.6 424.674 210.263 426.553C210.927 428.433 216.093 438.581 216.093 438.581C216.093 438.581 206.712 481.681 206.712 476.076Z" fill="#A1B8E3" style="mix-blend-mode:multiply"/>
</g>
<path d="M210.419 426.579C211.228 429.972 214.342 434.685 215.779 437.495" stroke="white" stroke-width="2" stroke-linecap="round"/>
<g opacity="0.5">
<path fill-rule="evenodd" clip-rule="evenodd" d="M190.832 401.963C194.485 403.928 208.792 412.291 227.228 408.94C236.336 407.284 242.195 405.117 244.824 401.963C244.824 400.41 242.614 393.877 241.997 391.378C241.381 388.878 186.358 399.557 190.832 401.963Z" fill="url(#paint47_linear)" style="mix-blend-mode:multiply"/>
</g>
</g>
<path fill-rule="evenodd" clip-rule="evenodd" d="M214.463 270.681C214.463 270.681 216.575 274.771 220.152 276.508C223.729 278.245 225.516 279.094 225.516 279.094L223.996 284.993C223.996 284.993 226.83 293.666 225.516 296.59C224.203 299.514 220.152 301.457 217.794 304.064C215.436 306.671 213.256 315.516 213.256 315.516H197.716L197.013 304.064C197.013 304.064 192.868 287.539 199.9 279.094C206.931 270.65 214.463 270.681 214.463 270.681Z" fill="url(#paint48_linear)"/>
<mask id="mask3" maskUnits="userSpaceOnUse" x="195" y="270" width="31" height="46">
<path fill-rule="evenodd" clip-rule="evenodd" d="M214.463 270.681C214.463 270.681 216.575 274.771 220.152 276.508C223.729 278.245 225.516 279.094 225.516 279.094L223.996 284.993C223.996 284.993 226.83 293.666 225.516 296.59C224.203 299.514 220.152 301.457 217.794 304.064C215.436 306.671 213.256 315.516 213.256 315.516H197.716L197.013 304.064C197.013 304.064 192.868 287.539 199.9 279.094C206.931 270.65 214.463 270.681 214.463 270.681Z" fill="white"/>
</mask>
<g mask="url(#mask3)">
<g opacity="0.5">
<path fill-rule="evenodd" clip-rule="evenodd" d="M219.73 302.507C215.807 302.507 209.688 299.034 208.51 297.847C207.333 296.661 218.317 309.498 217.4 311.542C216.677 313.155 214.094 313.649 215.723 313.649C221.597 313.649 223.653 302.507 219.73 302.507Z" fill="#3D82F0" style="mix-blend-mode:multiply"/>
</g>
</g>
<path fill-rule="evenodd" clip-rule="evenodd" d="M197.013 303.581C183.312 290.775 172.462 279.846 181.819 264.618C191.176 249.389 212.947 244.27 217.017 262.782C217.017 270.724 211.152 274.967 211.152 274.967C211.152 274.967 210.055 277.2 212.947 279.568C215.84 281.937 212.947 283.894 212.947 283.894C212.947 283.894 207.235 280.22 205.744 285.112C204.252 290.005 209.758 291.756 209.758 292.98C211.656 297.481 207.739 301.597 207.739 301.597C207.739 301.597 205.734 303.581 197.013 303.581Z" fill="url(#paint49_linear)"/>
<path fill-rule="evenodd" clip-rule="evenodd" d="M182.881 320.856C182.881 320.856 168.214 346.585 166.444 352.246C164.674 357.908 182.881 361.182 182.881 361.182L190.479 328.818L182.881 320.856Z" fill="url(#paint50_linear)"/>
<path fill-rule="evenodd" clip-rule="evenodd" d="M214.567 311.999C214.567 311.999 225.614 314.914 232.123 322.617C238.633 330.319 237.182 353.494 239.026 367.287C240.87 381.079 248.892 391.105 236.5 398.889C224.109 406.672 189.073 404.905 186.207 398.889C183.342 392.872 180.076 355.896 180.076 355.896C180.076 355.896 180.076 322.617 183.99 319.811C187.903 317.006 197.04 311.584 197.04 311.584C197.04 311.584 196.835 312.409 201.242 313.226C205.649 314.044 214.567 311.999 214.567 311.999Z" fill="#D6E3FA"/>
<mask id="mask4" maskUnits="userSpaceOnUse" x="180" y="311" width="64" height="94">
<path fill-rule="evenodd" clip-rule="evenodd" d="M214.567 311.999C214.567 311.999 225.614 314.914 232.123 322.617C238.633 330.319 237.182 353.494 239.026 367.287C240.87 381.079 248.892 391.105 236.5 398.889C224.109 406.672 189.073 404.905 186.207 398.889C183.342 392.872 180.076 355.896 180.076 355.896C180.076 355.896 180.076 322.617 183.99 319.811C187.903 317.006 197.04 311.584 197.04 311.584C197.04 311.584 196.835 312.409 201.242 313.226C205.649 314.044 214.567 311.999 214.567 311.999Z" fill="white"/>
</mask>
<g mask="url(#mask4)">
<path opacity="0.5" fill-rule="evenodd" clip-rule="evenodd" d="M223.742 338.325C223.742 338.325 229.701 366.176 233.287 371.396C236.872 376.616 239.204 392.413 242.074 394.297C244.944 396.18 249.066 374.631 247.005 367.253C244.944 359.876 235.652 341.804 235.652 341.804L223.742 338.325Z" fill="url(#paint51_linear)"/>
<path opacity="0.5" fill-rule="evenodd" clip-rule="evenodd" d="M199.664 313.492C202.316 315.251 209.226 316.203 215.034 316.203C220.842 316.203 222.659 316.264 225.438 315.419C228.217 314.573 227.139 313.492 225.438 313.492C223.736 313.492 218.459 312.251 215.618 312.251C212.777 312.251 197.012 311.733 199.664 313.492Z" fill="url(#paint52_linear)"/>
</g>
<path fill-rule="evenodd" clip-rule="evenodd" d="M196.537 311.998C196.537 311.998 196.195 307.738 196.195 306.364C196.195 304.99 207.638 306.931 215.872 307.701C216.765 311.128 216.607 311.355 216.607 311.998C216.607 312.32 214.551 315.077 203.487 314.183C199.448 313.857 196.537 311.998 196.537 311.998Z" fill="#E1ECFF"/>
<path fill-rule="evenodd" clip-rule="evenodd" d="M253.746 344.964C256.214 339.421 257.61 330.86 254.995 329.696C252.38 328.532 248.673 334.437 246.205 339.98C243.737 345.523 245.27 349.113 246.783 350.608C248.481 350.958 251.278 350.507 253.746 344.964Z" fill="#A1B8E3"/>
<path fill-rule="evenodd" clip-rule="evenodd" d="M250.835 328.395L262.406 333.158C262.406 333.158 272.668 305.777 273.29 302.223C273.913 298.67 271.154 293.655 270.708 291.867C270.262 290.079 270.334 285.872 271.58 284.332C272.826 282.792 273.155 283.342 274.085 283.11C275.016 282.878 280.537 271.036 281.164 269.548C281.79 268.06 282.907 267.126 284.042 267.622C285.178 268.118 285.072 269.441 284.623 270.612C284.175 271.782 281.656 278.351 281.941 279.495C282.226 280.639 286.663 282.118 287.901 282.877C289.139 283.637 291.247 286.134 290.194 289.746C289.14 293.358 284.277 299.906 284.624 301.298C284.971 302.691 280.061 326.29 278.498 335.728C276.935 345.166 274.893 351.785 266.915 351.239C258.937 350.693 242.403 341.822 242.403 341.822C242.403 341.822 243.484 334.931 245.55 332.332C247.615 329.732 250.835 328.395 250.835 328.395Z" fill="url(#paint53_linear)"/>
<mask id="mask5" maskUnits="userSpaceOnUse" x="242" y="267" width="49" height="85">
<path fill-rule="evenodd" clip-rule="evenodd" d="M250.835 328.395L262.406 333.158C262.406 333.158 272.668 305.777 273.29 302.223C273.913 298.67 271.154 293.655 270.708 291.867C270.262 290.079 270.334 285.872 271.58 284.332C272.826 282.792 273.155 283.342 274.085 283.11C275.016 282.878 280.537 271.036 281.164 269.548C281.79 268.06 282.907 267.126 284.042 267.622C285.178 268.118 285.072 269.441 284.623 270.612C284.175 271.782 281.656 278.351 281.941 279.495C282.226 280.639 286.663 282.118 287.901 282.877C289.139 283.637 291.247 286.134 290.194 289.746C289.14 293.358 284.277 299.906 284.624 301.298C284.971 302.691 280.061 326.29 278.498 335.728C276.935 345.166 274.893 351.785 266.915 351.239C258.937 350.693 242.403 341.822 242.403 341.822C242.403 341.822 243.484 334.931 245.55 332.332C247.615 329.732 250.835 328.395 250.835 328.395Z" fill="white"/>
</mask>
<g mask="url(#mask5)">
<g opacity="0.5">
<path fill-rule="evenodd" clip-rule="evenodd" d="M254.632 329.663C254.632 329.663 252.18 344.008 253.719 348.229C255.258 352.45 246.818 346.493 246.818 346.493C246.818 346.493 246.982 340.346 248.279 337.553C249.576 334.759 254.632 329.663 254.632 329.663Z" fill="#3D82F0" style="mix-blend-mode:multiply"/>
</g>
<path d="M262.163 332.818C262.815 333.117 264.049 333.582 265.157 335.115" stroke="#223762" stroke-width="2" stroke-linecap="round"/>
</g>
<path fill-rule="evenodd" clip-rule="evenodd" d="M246.681 350.565C247.983 344.045 249.861 335.072 255.079 329.701C236.46 321.673 230.593 318.826 224.739 316.326C218.886 313.826 213.559 330.295 224.739 338.488C235.92 346.681 243.574 349.193 246.681 350.565Z" fill="url(#paint54_linear)"/>
<path d="M320.229 555.532L500.212 555.532C500.212 561.715 495.2 566.727 489.017 566.727L331.425 566.727C325.242 566.727 320.23 561.715 320.229 555.532Z" fill="#CAD7F1"/>
<path fill-rule="evenodd" clip-rule="evenodd" d="M341.435 521.013L479.819 521.013C484.368 521.013 489.22 524.083 490.655 527.87L500.271 553.241C501.707 557.028 498.477 560.098 493.057 560.098L328.197 560.098C322.777 560.098 319.547 557.028 320.982 553.241L330.598 527.87C332.034 524.083 336.885 521.013 341.435 521.013Z" fill="#EBF1FD"/>
<mask id="mask6" maskUnits="userSpaceOnUse" x="320" y="521" width="181" height="40">
<path fill-rule="evenodd" clip-rule="evenodd" d="M341.435 521.013L479.819 521.013C484.368 521.013 489.22 524.083 490.655 527.87L500.271 553.241C501.707 557.028 498.477 560.098 493.057 560.098L328.197 560.098C322.777 560.098 319.547 557.028 320.982 553.241L330.598 527.87C332.034 524.083 336.885 521.013 341.435 521.013Z" fill="white"/>
</mask>
<g mask="url(#mask6)">
<path fill-rule="evenodd" clip-rule="evenodd" d="M347.532 554.944C358.673 554.944 368.861 548.497 370.288 540.544C371.715 532.591 364.932 526.144 355.138 526.144C345.344 526.144 335.156 532.591 332.382 540.544C329.609 548.497 336.392 554.944 347.532 554.944Z" fill="#CAD7F1"/>
<path fill-rule="evenodd" clip-rule="evenodd" d="M382.793 528.01L474.74 528.01C476.739 528.01 478.777 529.315 479.293 530.924C479.809 532.534 478.562 533.838 476.509 533.838L382.023 533.838C379.969 533.838 378.499 532.533 378.74 530.924C378.98 529.315 380.794 528.01 382.793 528.01Z" fill="#CAD7F1"/>
<path fill-rule="evenodd" clip-rule="evenodd" d="M381.309 537.806L452.959 537.806C455.049 537.806 457.016 539.111 457.353 540.72C457.691 542.33 456.226 543.634 454.082 543.634L380.539 543.634C378.395 543.634 376.851 542.329 377.091 540.72C377.331 539.11 379.219 537.806 381.309 537.806Z" fill="#CAD7F1"/>
<path opacity="0.5" fill-rule="evenodd" clip-rule="evenodd" d="M378.966 549.468L404.267 549.468C405.819 549.468 407.063 550.389 407.045 551.525C407.027 552.661 405.731 553.582 404.151 553.582L378.402 553.582C376.822 553.582 375.678 552.661 375.848 551.525C376.017 550.389 377.413 549.468 378.966 549.468Z" fill="#CAD7F1"/>
</g>
<g filter="url(#filter5_d)">
<path d="M313.653 539.814L493.608 542.955C493.5 549.137 488.401 554.061 482.219 553.953L324.651 551.203C318.469 551.095 313.545 545.996 313.653 539.814Z" fill="#CAD7F1"/>
<path fill-rule="evenodd" clip-rule="evenodd" d="M335.457 505.671L473.82 508.092C478.369 508.171 483.166 511.326 484.535 515.137L493.708 540.673C495.077 544.485 491.794 547.498 486.375 547.403L321.54 544.519C316.121 544.425 312.945 541.298 314.447 537.537L324.503 512.338C326.004 508.576 330.908 505.592 335.457 505.671Z" fill="#EBF1FD"/>
<mask id="mask7" maskUnits="userSpaceOnUse" x="314" y="505" width="181" height="43">
<path fill-rule="evenodd" clip-rule="evenodd" d="M335.457 505.671L473.82 508.092C478.369 508.171 483.166 511.326 484.535 515.137L493.708 540.673C495.077 544.485 491.794 547.498 486.375 547.403L321.54 544.519C316.121 544.425 312.945 541.298 314.447 537.537L324.503 512.338C326.004 508.576 330.908 505.592 335.457 505.671Z" fill="white"/>
</mask>
<g mask="url(#mask7)">
<path fill-rule="evenodd" clip-rule="evenodd" d="M340.962 539.703C352.101 539.897 362.4 533.629 363.965 525.702C365.531 517.775 358.862 511.211 349.069 511.04C339.277 510.869 328.978 517.137 326.066 525.04C323.153 532.944 329.823 539.508 340.962 539.703Z" fill="#CAD7F1"/>
<path fill-rule="evenodd" clip-rule="evenodd" d="M376.687 513.388L468.62 514.993C470.618 515.028 472.633 516.368 473.121 517.986C473.609 519.604 472.34 520.887 470.286 520.851L375.815 519.202C373.762 519.167 372.315 517.836 372.583 516.231C372.851 514.626 374.689 513.353 376.687 513.388Z" fill="#CAD7F1"/>
<path fill-rule="evenodd" clip-rule="evenodd" d="M375.032 523.157L446.672 524.407C448.76 524.444 450.705 525.782 451.014 527.398C451.323 529.013 449.836 530.292 447.692 530.254L374.16 528.971C372.016 528.933 370.496 527.602 370.764 525.997C371.032 524.392 372.943 523.12 375.032 523.157Z" fill="#CAD7F1"/>
<path opacity="0.5" fill-rule="evenodd" clip-rule="evenodd" d="M372.486 534.776L397.783 535.217C399.335 535.244 400.563 536.187 400.525 537.323C400.487 538.458 399.175 539.357 397.595 539.329L371.85 538.88C370.27 538.852 369.143 537.911 369.332 536.778C369.522 535.645 370.934 534.749 372.486 534.776Z" fill="#CAD7F1"/>
</g>
</g>
<g filter="url(#filter6_d)">
<path d="M324.182 529.678L504.054 523.398C504.27 529.577 499.436 534.762 493.256 534.977L335.761 540.477C329.582 540.692 324.397 535.858 324.182 529.678Z" fill="#CAD7F1"/>
<path fill-rule="evenodd" clip-rule="evenodd" d="M344.169 494.44L482.469 489.612C487.016 489.453 491.971 492.352 493.538 496.087L504.034 521.107C505.6 524.842 502.48 528.023 497.063 528.212L332.303 533.965C326.887 534.154 323.552 531.198 324.854 527.363L333.579 501.671C334.881 497.837 339.622 494.599 344.169 494.44Z" fill="#EBF1FD"/>
<mask id="mask8" maskUnits="userSpaceOnUse" x="324" y="489" width="181" height="45">
<path fill-rule="evenodd" clip-rule="evenodd" d="M344.169 494.44L482.469 489.612C487.016 489.453 491.971 492.352 493.538 496.087L504.034 521.107C505.6 524.842 502.48 528.023 497.063 528.212L332.303 533.965C326.887 534.154 323.552 531.198 324.854 527.363L333.579 501.671C334.881 497.837 339.622 494.599 344.169 494.44Z" fill="white"/>
</mask>
<g mask="url(#mask8)">
<path fill-rule="evenodd" clip-rule="evenodd" d="M351.448 528.139C362.582 527.75 372.539 520.951 373.687 512.953C374.835 504.956 367.832 498.749 358.044 499.091C348.256 499.433 338.299 506.231 335.805 514.276C333.31 522.321 340.314 528.527 351.448 528.139Z" fill="#CAD7F1"/>
<path fill-rule="evenodd" clip-rule="evenodd" d="M385.745 499.99L477.637 496.782C479.634 496.712 481.716 497.945 482.288 499.536C482.86 501.126 481.66 502.474 479.608 502.545L385.179 505.842C383.127 505.914 381.613 504.661 381.796 503.044C381.98 501.427 383.748 500.06 385.745 499.99Z" fill="#CAD7F1"/>
<path fill-rule="evenodd" clip-rule="evenodd" d="M384.604 509.832L456.211 507.332C458.299 507.259 460.31 508.494 460.704 510.091C461.097 511.688 459.679 513.043 457.536 513.118L384.038 515.684C381.895 515.759 380.307 514.509 380.491 512.892C380.674 511.275 382.516 509.905 384.604 509.832Z" fill="#CAD7F1"/>
<path opacity="0.5" fill-rule="evenodd" clip-rule="evenodd" d="M382.67 521.568L407.956 520.686C409.507 520.631 410.782 521.509 410.804 522.645C410.825 523.781 409.562 524.746 407.983 524.802L382.25 525.7C380.671 525.755 379.496 524.875 379.626 523.733C379.755 522.592 381.118 521.623 382.67 521.568Z" fill="#CAD7F1"/>
</g>
</g>
<path d="M307.621 513.135H487.533C487.533 519.359 482.488 524.405 476.264 524.405H318.89C312.666 524.405 307.621 519.359 307.621 513.135Z" fill="#C6D5EF"/>
<path fill-rule="evenodd" clip-rule="evenodd" d="M328.818 478.389H467.149C471.696 478.389 476.546 481.479 477.98 485.291L487.593 510.83C489.028 514.642 485.799 517.732 480.381 517.732H315.585C310.168 517.732 306.939 514.642 308.374 510.83L317.986 485.291C319.421 481.479 324.271 478.389 328.818 478.389Z" fill="#EBF1FD"/>
<mask id="mask9" maskUnits="userSpaceOnUse" x="308" y="478" width="180" height="40">
<path fill-rule="evenodd" clip-rule="evenodd" d="M328.818 478.389H467.149C471.696 478.389 476.546 481.479 477.98 485.291L487.593 510.83C489.028 514.642 485.799 517.732 480.381 517.732H315.585C310.168 517.732 306.939 514.642 308.374 510.83L317.986 485.291C319.421 481.479 324.271 478.389 328.818 478.389Z" fill="white"/>
</mask>
<g mask="url(#mask9)">
<path opacity="0.5" fill-rule="evenodd" clip-rule="evenodd" d="M334.913 512.544C346.049 512.544 356.233 506.054 357.66 498.049C359.086 490.043 352.306 483.554 342.516 483.554C332.726 483.554 322.542 490.043 319.769 498.049C316.996 506.054 323.776 512.544 334.913 512.544Z" fill="#AABFE5"/>
<path opacity="0.5" fill-rule="evenodd" clip-rule="evenodd" d="M370.159 485.432H462.071C464.068 485.432 466.106 486.745 466.622 488.365C467.137 489.985 465.891 491.299 463.839 491.299H369.39C367.337 491.299 365.868 489.985 366.108 488.365C366.348 486.745 368.162 485.432 370.159 485.432Z" fill="#AABFE5"/>
<path opacity="0.5" fill-rule="evenodd" clip-rule="evenodd" d="M368.676 495.292H440.299C442.387 495.292 444.354 496.606 444.691 498.226C445.029 499.846 443.564 501.159 441.421 501.159H367.907C365.763 501.159 364.22 499.846 364.46 498.226C364.7 496.606 366.588 495.292 368.676 495.292Z" fill="#AABFE5"/>
<path opacity="0.3" fill-rule="evenodd" clip-rule="evenodd" d="M366.334 507.031H391.625C393.177 507.031 394.42 507.958 394.402 509.102C394.384 510.246 393.088 511.173 391.509 511.173H365.77C364.19 511.173 363.047 510.246 363.217 509.102C363.386 507.958 364.782 507.031 366.334 507.031Z" fill="#A1B8E3"/>
</g>
<defs>
<filter id="filter0_i" x="103.922" y="156.928" width="216.682" height="126.922" filterUnits="userSpaceOnUse" color-interpolation-filters="sRGB">
<feFlood flood-opacity="0" result="BackgroundImageFix"/>
<feBlend mode="normal" in="SourceGraphic" in2="BackgroundImageFix" result="shape"/>
<feColorMatrix in="SourceAlpha" type="matrix" values="0 0 0 0 0 0 0 0 0 0 0 0 0 0 0 0 0 0 127 0" result="hardAlpha"/>
<feOffset dy="-14"/>
<feGaussianBlur stdDeviation="12.5"/>
<feComposite in2="hardAlpha" operator="arithmetic" k2="-1" k3="1"/>
<feColorMatrix type="matrix" values="0 0 0 0 0.788056 0 0 0 0 0.827193 0 0 0 0 0.89764 0 0 0 0.337126 0"/>
<feBlend mode="normal" in2="shape" result="effect1_innerShadow"/>
</filter>
<filter id="filter1_i" x="289.702" y="96.7267" width="214.098" height="130.042" filterUnits="userSpaceOnUse" color-interpolation-filters="sRGB">
<feFlood flood-opacity="0" result="BackgroundImageFix"/>
<feBlend mode="normal" in="SourceGraphic" in2="BackgroundImageFix" result="shape"/>
<feColorMatrix in="SourceAlpha" type="matrix" values="0 0 0 0 0 0 0 0 0 0 0 0 0 0 0 0 0 0 127 0" result="hardAlpha"/>
<feOffset dy="-14"/>
<feGaussianBlur stdDeviation="12.5"/>
<feComposite in2="hardAlpha" operator="arithmetic" k2="-1" k3="1"/>
<feColorMatrix type="matrix" values="0 0 0 0 0.788056 0 0 0 0 0.827193 0 0 0 0 0.89764 0 0 0 0.337126 0"/>
<feBlend mode="normal" in2="shape" result="effect1_innerShadow"/>
</filter>
<filter id="filter2_i" x="80.7207" y="273.077" width="82.9265" height="148.78" filterUnits="userSpaceOnUse" color-interpolation-filters="sRGB">
<feFlood flood-opacity="0" result="BackgroundImageFix"/>
<feBlend mode="normal" in="SourceGraphic" in2="BackgroundImageFix" result="shape"/>
<feColorMatrix in="SourceAlpha" type="matrix" values="0 0 0 0 0 0 0 0 0 0 0 0 0 0 0 0 0 0 127 0" result="hardAlpha"/>
<feOffset dx="-8" dy="-6"/>
<feGaussianBlur stdDeviation="15"/>
<feComposite in2="hardAlpha" operator="arithmetic" k2="-1" k3="1"/>
<feColorMatrix type="matrix" values="0 0 0 0 0.269084 0 0 0 0 0.79451 0 0 0 0 0.470313 0 0 0 0.5 0"/>
<feBlend mode="normal" in2="shape" result="effect1_innerShadow"/>
</filter>
<filter id="filter3_d" x="76.3857" y="0.494263" width="496.467" height="571.077" filterUnits="userSpaceOnUse" color-interpolation-filters="sRGB">
<feFlood flood-opacity="0" result="BackgroundImageFix"/>
<feColorMatrix in="SourceAlpha" type="matrix" values="0 0 0 0 0 0 0 0 0 0 0 0 0 0 0 0 0 0 127 0" result="hardAlpha"/>
<feOffset/>
<feGaussianBlur stdDeviation="81"/>
<feColorMatrix type="matrix" values="0 0 0 0 1 0 0 0 0 1 0 0 0 0 1 0 0 0 1 0"/>
<feBlend mode="normal" in2="BackgroundImageFix" result="effect1_dropShadow"/>
<feBlend mode="normal" in="SourceGraphic" in2="effect1_dropShadow" result="shape"/>
</filter>
<filter id="filter4_d" x="221.802" y="231.311" width="172.883" height="64.2598" filterUnits="userSpaceOnUse" color-interpolation-filters="sRGB">
<feFlood flood-opacity="0" result="BackgroundImageFix"/>
<feColorMatrix in="SourceAlpha" type="matrix" values="0 0 0 0 0 0 0 0 0 0 0 0 0 0 0 0 0 0 127 0" result="hardAlpha"/>
<feOffset dx="17" dy="17"/>
<feColorMatrix type="matrix" values="0 0 0 0 1 0 0 0 0 0.706613 0 0 0 0 0.0893703 0 0 0 0.173347 0"/>
<feBlend mode="normal" in2="BackgroundImageFix" result="effect1_dropShadow"/>
<feBlend mode="normal" in="SourceGraphic" in2="effect1_dropShadow" result="shape"/>
</filter>
<filter id="filter5_d" x="290.651" y="495.67" width="214.367" height="82.2852" filterUnits="userSpaceOnUse" color-interpolation-filters="sRGB">
<feFlood flood-opacity="0" result="BackgroundImageFix"/>
<feColorMatrix in="SourceAlpha" type="matrix" values="0 0 0 0 0 0 0 0 0 0 0 0 0 0 0 0 0 0 127 0" result="hardAlpha"/>
<feOffset dx="-6" dy="7"/>
<feGaussianBlur stdDeviation="8.5"/>
<feColorMatrix type="matrix" values="0 0 0 0 0.260846 0 0 0 0 0.436705 0 0 0 0 0.80195 0 0 0 0.186 0"/>
<feBlend mode="normal" in2="BackgroundImageFix" result="effect1_dropShadow"/>
<feBlend mode="normal" in="SourceGraphic" in2="effect1_dropShadow" result="shape"/>
</filter>
<filter id="filter6_d" x="301.182" y="479.605" width="214.257" height="84.8782" filterUnits="userSpaceOnUse" color-interpolation-filters="sRGB">
<feFlood flood-opacity="0" result="BackgroundImageFix"/>
<feColorMatrix in="SourceAlpha" type="matrix" values="0 0 0 0 0 0 0 0 0 0 0 0 0 0 0 0 0 0 127 0" result="hardAlpha"/>
<feOffset dx="-6" dy="7"/>
<feGaussianBlur stdDeviation="8.5"/>
<feColorMatrix type="matrix" values="0 0 0 0 0.260846 0 0 0 0 0.436705 0 0 0 0 0.80195 0 0 0 0.186 0"/>
<feBlend mode="normal" in2="BackgroundImageFix" result="effect1_dropShadow"/>
<feBlend mode="normal" in="SourceGraphic" in2="effect1_dropShadow" result="shape"/>
</filter>
<linearGradient id="paint0_linear" x1="247.959" y1="268.971" x2="259.397" y2="192.039" gradientUnits="userSpaceOnUse">
<stop stop-color="#ECF1FF"/>
<stop offset="1" stop-color="white"/>
</linearGradient>
<linearGradient id="paint1_linear" x1="431.888" y1="209.563" x2="443.652" y2="132.164" gradientUnits="userSpaceOnUse">
<stop stop-color="#ECF1FF"/>
<stop offset="1" stop-color="white"/>
</linearGradient>
<linearGradient id="paint2_linear" x1="1013.27" y1="391.866" x2="1010.97" y2="546.324" gradientUnits="userSpaceOnUse">
<stop stop-color="white"/>
<stop offset="1" stop-color="#D6E3FA"/>
</linearGradient>
<linearGradient id="paint3_linear" x1="471.783" y1="325.216" x2="471.783" y2="445.189" gradientUnits="userSpaceOnUse">
<stop stop-color="#CFDDF3"/>
<stop offset="1" stop-color="#A1B8E3"/>
</linearGradient>
<linearGradient id="paint4_linear" x1="472.057" y1="256.643" x2="448.73" y2="278.516" gradientUnits="userSpaceOnUse">
<stop stop-color="#CFDDF3"/>
<stop offset="1" stop-color="#A1B8E3"/>
</linearGradient>
<linearGradient id="paint5_linear" x1="590.729" y1="349.173" x2="582.37" y2="318.308" gradientUnits="userSpaceOnUse">
<stop stop-color="#CFDDF3"/>
<stop offset="1" stop-color="#A1B8E3"/>
</linearGradient>
<linearGradient id="paint6_linear" x1="578.857" y1="379.879" x2="572.124" y2="348.619" gradientUnits="userSpaceOnUse">
<stop stop-color="#CFDDF3"/>
<stop offset="1" stop-color="#A1B8E3"/>
</linearGradient>
<linearGradient id="paint7_linear" x1="569.735" y1="406.412" x2="563.002" y2="375.152" gradientUnits="userSpaceOnUse">
<stop stop-color="#CFDDF3"/>
<stop offset="1" stop-color="#A1B8E3"/>
</linearGradient>
<linearGradient id="paint8_linear" x1="570.835" y1="259.318" x2="540.756" y2="248.462" gradientUnits="userSpaceOnUse">
<stop stop-color="#CFDDF3"/>
<stop offset="1" stop-color="#A1B8E3"/>
</linearGradient>
<linearGradient id="paint9_linear" x1="445.683" y1="290.578" x2="426.958" y2="316.5" gradientUnits="userSpaceOnUse">
<stop stop-color="#CFDDF3"/>
<stop offset="1" stop-color="#A1B8E3"/>
</linearGradient>
<linearGradient id="paint10_linear" x1="428.704" y1="323.216" x2="412.791" y2="350.953" gradientUnits="userSpaceOnUse">
<stop stop-color="#CFDDF3"/>
<stop offset="1" stop-color="#A1B8E3"/>
</linearGradient>
<linearGradient id="paint11_linear" x1="27.0328" y1="292.443" x2="130.623" y2="342.451" gradientUnits="userSpaceOnUse">
<stop stop-color="#CFDDF3"/>
<stop offset="1" stop-color="#7FA1E0"/>
</linearGradient>
<linearGradient id="paint12_linear" x1="83.043" y1="338.742" x2="83.043" y2="373.609" gradientUnits="userSpaceOnUse">
<stop stop-color="#CFDDF3"/>
<stop offset="1" stop-color="#A1B8E3"/>
</linearGradient>
<linearGradient id="paint13_linear" x1="70.584" y1="318.903" x2="70.584" y2="339.775" gradientUnits="userSpaceOnUse">
<stop stop-color="#CFDDF3"/>
<stop offset="1" stop-color="#A1B8E3"/>
</linearGradient>
<linearGradient id="paint14_linear" x1="61.4219" y1="282.744" x2="61.4219" y2="458.338" gradientUnits="userSpaceOnUse">
<stop stop-color="#CFDDF3"/>
<stop offset="1" stop-color="#A1B8E3"/>
</linearGradient>
<linearGradient id="paint15_linear" x1="859.347" y1="555.303" x2="858.971" y2="293.669" gradientUnits="userSpaceOnUse">
<stop stop-color="white"/>
<stop offset="1" stop-color="#D6E3FA"/>
</linearGradient>
<linearGradient id="paint16_linear" x1="142.322" y1="530.987" x2="127.841" y2="589.718" gradientUnits="userSpaceOnUse">
<stop stop-color="white" stop-opacity="0.52474"/>
<stop offset="1" stop-color="white"/>
</linearGradient>
<linearGradient id="paint17_linear" x1="496.444" y1="360.883" x2="468.64" y2="446.461" gradientUnits="userSpaceOnUse">
<stop stop-color="#CFDDF3"/>
<stop offset="1" stop-color="#A1B8E3"/>
</linearGradient>
<linearGradient id="paint18_linear" x1="512.052" y1="311.856" x2="523.648" y2="332.959" gradientUnits="userSpaceOnUse">
<stop stop-color="#CFDDF3"/>
<stop offset="1" stop-color="#A1B8E3"/>
</linearGradient>
<linearGradient id="paint19_linear" x1="405.868" y1="350.393" x2="419.056" y2="330.246" gradientUnits="userSpaceOnUse">
<stop stop-color="#CFDDF3"/>
<stop offset="1" stop-color="#A1B8E3"/>
</linearGradient>
<linearGradient id="paint20_linear" x1="407.255" y1="375.059" x2="419.371" y2="354.249" gradientUnits="userSpaceOnUse">
<stop stop-color="#CFDDF3"/>
<stop offset="1" stop-color="#A1B8E3"/>
</linearGradient>
<linearGradient id="paint21_linear" x1="407.64" y1="396.108" x2="419.756" y2="375.298" gradientUnits="userSpaceOnUse">
<stop stop-color="#CFDDF3"/>
<stop offset="1" stop-color="#A1B8E3"/>
</linearGradient>
<linearGradient id="paint22_linear" x1="440.863" y1="290.883" x2="464.932" y2="290.131" gradientUnits="userSpaceOnUse">
<stop stop-color="#CFDDF3"/>
<stop offset="1" stop-color="#A1B8E3"/>
</linearGradient>
<linearGradient id="paint23_linear" x1="523.051" y1="342.183" x2="530.408" y2="365.11" gradientUnits="userSpaceOnUse">
<stop stop-color="#CFDDF3"/>
<stop offset="1" stop-color="#A1B8E3"/>
</linearGradient>
<linearGradient id="paint24_linear" x1="527.636" y1="369.407" x2="532.556" y2="392.978" gradientUnits="userSpaceOnUse">
<stop stop-color="#CFDDF3"/>
<stop offset="1" stop-color="#A1B8E3"/>
</linearGradient>
<linearGradient id="paint25_linear" x1="97.8091" y1="425.535" x2="105.789" y2="450.273" gradientUnits="userSpaceOnUse">
<stop stop-color="#EDF3FD" stop-opacity="0.01"/>
<stop offset="1" stop-color="#D6E3FA"/>
</linearGradient>
<radialGradient id="paint26_radial" cx="0" cy="0" r="1" gradientUnits="userSpaceOnUse" gradientTransform="translate(146.177 294.544) rotate(150.842) scale(88.9584 274.94)">
<stop stop-color="#64CF9B"/>
<stop offset="1" stop-color="#ADF9A9"/>
</radialGradient>
<linearGradient id="paint27_linear" x1="115.255" y1="297.226" x2="115.255" y2="443.98" gradientUnits="userSpaceOnUse">
<stop stop-color="#80D4AE"/>
<stop offset="1" stop-color="#4CB67D"/>
</linearGradient>
<linearGradient id="paint28_linear" x1="114.425" y1="345.315" x2="114.425" y2="360.654" gradientUnits="userSpaceOnUse">
<stop stop-color="#64DEA8"/>
<stop offset="1" stop-color="#4CB67D"/>
</linearGradient>
<linearGradient id="paint29_linear" x1="101.158" y1="385.527" x2="101.158" y2="404.597" gradientUnits="userSpaceOnUse">
<stop stop-color="#64DEA8"/>
<stop offset="1" stop-color="#4CB67D"/>
</linearGradient>
<linearGradient id="paint30_linear" x1="118.156" y1="373.09" x2="118.156" y2="384.698" gradientUnits="userSpaceOnUse">
<stop stop-color="#64DEA8"/>
<stop offset="1" stop-color="#4CB67D"/>
</linearGradient>
<linearGradient id="paint31_linear" x1="130.179" y1="300.543" x2="130.179" y2="322.514" gradientUnits="userSpaceOnUse">
<stop stop-color="#64DEA8"/>
<stop offset="1" stop-color="#4CB67D"/>
</linearGradient>
<linearGradient id="paint32_linear" x1="191.102" y1="459.987" x2="190.779" y2="505.767" gradientUnits="userSpaceOnUse">
<stop stop-color="#D0DCF1"/>
<stop offset="1" stop-color="white"/>
</linearGradient>
<linearGradient id="paint33_linear" x1="494.995" y1="68.5854" x2="289.198" y2="118.49" gradientUnits="userSpaceOnUse">
<stop stop-color="#47689B"/>
<stop offset="1" stop-color="#223762"/>
</linearGradient>
<linearGradient id="paint34_linear" x1="347.822" y1="1.34189" x2="86.5397" y2="121.524" gradientUnits="userSpaceOnUse">
<stop stop-color="#47689B"/>
<stop offset="1" stop-color="#223762"/>
</linearGradient>
<linearGradient id="paint35_linear" x1="290.87" y1="146.831" x2="422.044" y2="146.831" gradientUnits="userSpaceOnUse">
<stop stop-color="#365383"/>
<stop offset="1" stop-color="#1C2C4C"/>
</linearGradient>
<linearGradient id="paint36_linear" x1="330.252" y1="472.091" x2="355.652" y2="436.174" gradientUnits="userSpaceOnUse">
<stop stop-color="#365383"/>
<stop offset="1" stop-color="#1C2C4C"/>
</linearGradient>
<linearGradient id="paint37_linear" x1="446.372" y1="451.683" x2="441.597" y2="379.706" gradientUnits="userSpaceOnUse">
<stop stop-color="#EDF3FD"/>
<stop offset="1" stop-color="#D6E3FA"/>
</linearGradient>
<linearGradient id="paint38_linear" x1="446.372" y1="394.473" x2="441.597" y2="322.497" gradientUnits="userSpaceOnUse">
<stop stop-color="#EDF3FD"/>
<stop offset="1" stop-color="#D6E3FA"/>
</linearGradient>
<linearGradient id="paint39_linear" x1="446.372" y1="275.08" x2="441.597" y2="203.104" gradientUnits="userSpaceOnUse">
<stop stop-color="#EDF3FD"/>
<stop offset="1" stop-color="#D6E3FA"/>
</linearGradient>
<linearGradient id="paint40_linear" x1="458.707" y1="299.322" x2="448.824" y2="229.928" gradientUnits="userSpaceOnUse">
<stop stop-color="#FFE883"/>
<stop offset="1" stop-color="#FECC4C"/>
</linearGradient>
<linearGradient id="paint41_linear" x1="271.507" y1="525.367" x2="39.1831" y2="525.367" gradientUnits="userSpaceOnUse">
<stop stop-color="#D0DCF1"/>
<stop offset="1" stop-color="white" stop-opacity="0.01"/>
</linearGradient>
<linearGradient id="paint42_linear" x1="198.83" y1="526.721" x2="-30.416" y2="526.721" gradientUnits="userSpaceOnUse">
<stop stop-color="#D0DCF1"/>
<stop offset="1" stop-color="white" stop-opacity="0.01"/>
</linearGradient>
<linearGradient id="paint43_linear" x1="182.146" y1="389.759" x2="191.943" y2="374.681" gradientUnits="userSpaceOnUse">
<stop stop-color="#70B8F9"/>
<stop offset="1" stop-color="#3D82F0"/>
</linearGradient>
<linearGradient id="paint44_linear" x1="185.03" y1="541.268" x2="197.032" y2="522.906" gradientUnits="userSpaceOnUse">
<stop stop-color="#47689B"/>
<stop offset="1" stop-color="#223762"/>
</linearGradient>
<linearGradient id="paint45_linear" x1="259.119" y1="548.974" x2="268.794" y2="529.285" gradientUnits="userSpaceOnUse">
<stop stop-color="#47689B"/>
<stop offset="1" stop-color="#223762"/>
</linearGradient>
<linearGradient id="paint46_linear" x1="227.464" y1="557.514" x2="284.962" y2="426.735" gradientUnits="userSpaceOnUse">
<stop stop-color="#CFDDF3"/>
<stop offset="1" stop-color="#A1B8E3"/>
</linearGradient>
<linearGradient id="paint47_linear" x1="254.608" y1="405.701" x2="253.985" y2="394.675" gradientUnits="userSpaceOnUse">
<stop stop-color="#CFDDF3" stop-opacity="0.477723"/>
<stop offset="1" stop-color="#A1B8E3"/>
</linearGradient>
<linearGradient id="paint48_linear" x1="224.045" y1="259.394" x2="203.113" y2="273.514" gradientUnits="userSpaceOnUse">
<stop stop-color="#70B8F9"/>
<stop offset="1" stop-color="#3D82F0"/>
</linearGradient>
<linearGradient id="paint49_linear" x1="186.749" y1="259.194" x2="205.497" y2="283.912" gradientUnits="userSpaceOnUse">
<stop stop-color="#164898"/>
<stop offset="1" stop-color="#223762"/>
</linearGradient>
<linearGradient id="paint50_linear" x1="168.287" y1="356.244" x2="187.105" y2="353.773" gradientUnits="userSpaceOnUse">
<stop stop-color="#EDF3FD"/>
<stop offset="1" stop-color="#D6E3FA"/>
</linearGradient>
<linearGradient id="paint51_linear" x1="238.455" y1="377.096" x2="250.958" y2="369.124" gradientUnits="userSpaceOnUse">
<stop stop-color="#CFDDF3"/>
<stop offset="1" stop-color="#A1B8E3"/>
</linearGradient>
<linearGradient id="paint52_linear" x1="263.418" y1="320.911" x2="263.246" y2="309.176" gradientUnits="userSpaceOnUse">
<stop stop-color="#CFDDF3"/>
<stop offset="1" stop-color="#A1B8E3"/>
</linearGradient>
<linearGradient id="paint53_linear" x1="330.375" y1="389.611" x2="302.794" y2="278.977" gradientUnits="userSpaceOnUse">
<stop stop-color="#70B8F9"/>
<stop offset="1" stop-color="#3D82F0"/>
</linearGradient>
<linearGradient id="paint54_linear" x1="212.315" y1="326.379" x2="224.742" y2="351.862" gradientUnits="userSpaceOnUse">
<stop stop-color="#D6E3FA"/>
<stop offset="1" stop-color="#E3EDFE"/>
</linearGradient>
</defs>
</svg>
