<svg width="24" height="24" viewBox="0 0 24 24" fill="#777D82" xmlns="http://www.w3.org/2000/svg">
<path fill-rule="evenodd" clip-rule="evenodd" d="M5.83215 2.71955C4.08577 2.65238 2.6519 4.08626 2.71906 5.83264L2.94534 11.7158C2.97439 12.471 3.2874 13.1874 3.8218 13.7218L9.99927 19.8993C11.1708 21.0708 13.0703 21.0708 14.2419 19.8993L19.8988 14.2424C21.0703 13.0708 21.0703 11.1713 19.8988 9.99976L13.7213 3.82229C13.1869 3.28789 12.4705 2.97487 11.7153 2.94583L5.83215 2.71955ZM10.2423 10.2423C11.0234 9.46129 11.0234 8.19496 10.2423 7.41391C9.46129 6.63286 8.19496 6.63286 7.41391 7.41391C6.63286 8.19496 6.63286 9.46129 7.41391 10.2423C8.19496 11.0234 9.46129 11.0234 10.2423 10.2423Z" />
</svg>
