<svg width="401" height="390" viewBox="0 0 401 390" fill="none" xmlns="http://www.w3.org/2000/svg">
<path fill-rule="evenodd" clip-rule="evenodd" d="M150.537 317.847C110.379 328.164 62.108 334.414 28.9341 304.988C-0.169396 279.172 18.9577 256.981 16.7092 232.223C15.0775 214.257 1.11212 201.384 0.300055 182.613C-0.174214 171.653 2.75323 160.614 7.74397 150.974C26.2742 115.181 69.3583 119.258 96.9882 96.1587C122.969 74.4376 135.106 38.6626 153.86 20.6441C172.605 2.63116 203.196 -4.17041 224.601 3.00812C248.519 11.0312 259.998 45.0759 285.24 53.6204C312.015 62.6864 341.643 40.1363 365.784 63.5054C391.386 88.2907 359.813 107.673 368.766 133.19C377.158 157.101 435.902 269.181 329.34 268.763C282.083 268.578 217.645 300.604 150.537 317.847Z" fill="#ECF7FF"/>
<path fill-rule="evenodd" clip-rule="evenodd" d="M36.9606 151.094C51.3953 144.136 68.4065 150.001 74.9247 164.184C81.443 178.366 75.0158 195.53 60.581 202.488C46.1464 209.446 29.1352 203.581 22.6169 189.398C16.0987 175.215 22.5258 158.052 36.9606 151.094Z" fill="#E5ECFD"/>
<path d="M36.9606 151.094C51.3953 144.136 68.4065 150.001 74.9247 164.184C81.443 178.366 75.0158 195.53 60.581 202.488C46.1464 209.446 29.1352 203.581 22.6169 189.398C16.0987 175.215 22.5258 158.052 36.9606 151.094Z" stroke="#E2E8FC" stroke-width="16.6667" stroke-miterlimit="10" stroke-linecap="round" stroke-linejoin="round"/>
<path d="M52.2547 163.667L49.9101 167.167C48.8171 166.397 47.9223 165.981 47.2257 165.922C46.4853 165.827 45.6642 165.998 44.7624 166.432C43.6552 166.966 42.8823 167.727 42.4437 168.714C41.9997 169.689 41.9952 170.65 42.4303 171.597C43.03 172.902 44.4716 173.491 46.7553 173.363L49.8934 173.183C52.4425 173.026 54.5042 173.34 56.0781 174.125C57.6523 174.91 58.8612 176.221 59.7048 178.056C60.835 180.517 60.9585 182.939 60.0751 185.324C59.1858 187.728 57.5312 189.512 55.1114 190.679C52.8171 191.785 50.6066 192.011 48.4798 191.358C46.376 190.695 44.5684 189.203 43.057 186.885L46.6839 184.037C47.588 185.519 48.4065 186.451 49.1389 186.831C50.4913 187.589 51.9552 187.589 53.5304 186.83C54.7745 186.229 55.6138 185.31 56.0483 184.072C56.4827 182.833 56.4029 181.567 55.8086 180.273C55.5698 179.754 55.2797 179.313 54.938 178.948C54.5963 178.584 54.1906 178.293 53.7211 178.075C53.2514 177.857 52.7039 177.705 52.0787 177.619C51.4533 177.533 50.7433 177.505 49.9486 177.534L46.904 177.691C42.5747 177.888 39.7256 176.498 38.3567 173.518C37.4333 171.509 37.4204 169.464 38.3176 167.381C39.2096 165.288 40.7857 163.696 43.0457 162.606C46.0933 161.137 49.1629 161.491 52.2547 163.667Z" fill="#FEFEFE"/>
<path d="M52.2547 163.667L49.9101 167.167C48.8171 166.397 47.9223 165.981 47.2257 165.922C46.4853 165.827 45.6642 165.998 44.7624 166.432C43.6552 166.966 42.8823 167.727 42.4437 168.714C41.9997 169.689 41.9952 170.65 42.4303 171.597C43.03 172.902 44.4716 173.491 46.7553 173.363L49.8934 173.183C52.4425 173.026 54.5042 173.34 56.0781 174.125C57.6523 174.91 58.8612 176.221 59.7048 178.056C60.835 180.517 60.9585 182.939 60.0751 185.324C59.1858 187.728 57.5312 189.512 55.1114 190.679C52.8171 191.785 50.6066 192.011 48.4798 191.358C46.376 190.695 44.5684 189.203 43.057 186.885L46.6839 184.037C47.588 185.519 48.4065 186.451 49.1389 186.831C50.4913 187.589 51.9552 187.589 53.5304 186.83C54.7745 186.229 55.6138 185.31 56.0483 184.072C56.4827 182.833 56.4029 181.567 55.8086 180.273C55.5698 179.754 55.2797 179.313 54.938 178.948C54.5963 178.584 54.1906 178.293 53.7211 178.075C53.2514 177.857 52.7039 177.705 52.0787 177.619C51.4533 177.533 50.7433 177.505 49.9486 177.534L46.904 177.691C42.5747 177.888 39.7256 176.498 38.3567 173.518C37.4333 171.509 37.4204 169.464 38.3176 167.381C39.2096 165.288 40.7857 163.696 43.0457 162.606C46.0933 161.137 49.1629 161.491 52.2547 163.667V163.667Z" stroke="#FEFEFE" stroke-width="0.666667" stroke-miterlimit="10" stroke-linejoin="round"/>
<path d="M40.1348 158.002L43.0641 164.375" stroke="#FEFEFE" stroke-width="16.6667" stroke-miterlimit="10" stroke-linecap="round" stroke-linejoin="round"/>
<path d="M54.3516 188.932L57.2809 195.306" stroke="#FEFEFE" stroke-width="16.6667" stroke-miterlimit="10" stroke-linecap="round" stroke-linejoin="round"/>
<path fill-rule="evenodd" clip-rule="evenodd" d="M150.751 258.815C159.155 260.576 164.638 268.71 162.987 276.966C161.338 285.223 153.175 290.496 144.772 288.735C136.368 286.973 130.885 278.84 132.536 270.583C134.185 262.327 142.348 257.054 150.751 258.815Z" fill="#E4EBFC"/>
<path d="M150.751 258.815C159.155 260.576 164.638 268.71 162.987 276.966C161.338 285.223 153.175 290.496 144.772 288.735C136.368 286.973 130.885 278.84 132.536 270.583C134.185 262.327 142.348 257.054 150.751 258.815V258.815Z" stroke="#E2E8FC" stroke-width="16.6667" stroke-miterlimit="10" stroke-linecap="round" stroke-linejoin="round"/>
<path d="M153.387 269.271L151.278 270.005C151.05 269.313 150.795 268.84 150.513 268.585C150.224 268.3 149.816 268.103 149.292 267.993C148.647 267.857 148.075 267.93 147.576 268.211C147.078 268.484 146.775 268.897 146.664 269.448C146.513 270.208 146.949 270.936 147.972 271.634L149.381 272.591C150.527 273.363 151.316 274.178 151.747 275.036C152.179 275.893 152.287 276.856 152.073 277.924C151.787 279.356 151.079 280.44 149.949 281.176C148.81 281.918 147.538 282.141 146.129 281.846C144.793 281.566 143.77 280.935 143.059 279.953C142.362 278.973 142.052 277.735 142.129 276.239L144.587 276.208C144.51 277.144 144.57 277.815 144.766 278.22C145.11 278.992 145.741 279.475 146.658 279.667C147.382 279.819 148.032 279.7 148.609 279.309C149.185 278.919 149.549 278.347 149.699 277.595C149.759 277.292 149.773 277.006 149.741 276.737C149.709 276.467 149.625 276.208 149.492 275.96C149.358 275.711 149.17 275.465 148.927 275.222C148.685 274.978 148.389 274.732 148.036 274.483L146.676 273.547C144.749 272.205 143.959 270.667 144.306 268.933C144.539 267.763 145.176 266.878 146.218 266.277C147.261 265.669 148.439 265.503 149.755 265.779C151.528 266.151 152.741 267.315 153.387 269.271Z" fill="#FEFEFE"/>
<path d="M153.387 269.271L151.278 270.005C151.05 269.313 150.795 268.84 150.513 268.585C150.224 268.3 149.816 268.103 149.292 267.993C148.647 267.857 148.075 267.93 147.576 268.211C147.078 268.484 146.775 268.897 146.664 269.448C146.513 270.208 146.949 270.936 147.972 271.634L149.381 272.591C150.527 273.363 151.316 274.178 151.747 275.036C152.179 275.893 152.287 276.856 152.073 277.924C151.787 279.356 151.079 280.44 149.949 281.176C148.81 281.918 147.538 282.141 146.129 281.846C144.793 281.566 143.77 280.935 143.059 279.953C142.362 278.973 142.052 277.735 142.129 276.239L144.587 276.208C144.51 277.144 144.57 277.815 144.766 278.22C145.11 278.992 145.741 279.475 146.658 279.667C147.382 279.819 148.032 279.7 148.609 279.309C149.185 278.919 149.549 278.347 149.699 277.595C149.759 277.292 149.773 277.006 149.741 276.737C149.709 276.467 149.625 276.208 149.492 275.96C149.358 275.711 149.17 275.465 148.927 275.222C148.685 274.978 148.389 274.732 148.036 274.483L146.676 273.547C144.749 272.205 143.959 270.667 144.306 268.933C144.539 267.763 145.176 266.878 146.218 266.277C147.261 265.669 148.439 265.503 149.755 265.779C151.528 266.151 152.741 267.315 153.387 269.271V269.271Z" stroke="#FEFEFE" stroke-width="0.666667" stroke-miterlimit="10" stroke-linejoin="round"/>
<path d="M149.949 262.836L149.207 266.547" stroke="#FEFEFE" stroke-width="16.6667" stroke-miterlimit="10" stroke-linecap="round" stroke-linejoin="round"/>
<path d="M146.349 280.843L145.607 284.554" stroke="#FEFEFE" stroke-width="16.6667" stroke-miterlimit="10" stroke-linecap="round" stroke-linejoin="round"/>
<path fill-rule="evenodd" clip-rule="evenodd" d="M319.875 224.515C326.503 224.466 331.968 229.703 332.076 236.201C332.181 242.7 326.887 248.016 320.259 248.064C313.633 248.113 308.165 242.876 308.06 236.377C307.953 229.879 313.247 224.563 319.875 224.515Z" fill="#E4EBFC"/>
<path d="M319.875 224.515C326.503 224.466 331.968 229.703 332.076 236.201C332.181 242.7 326.887 248.016 320.259 248.064C313.633 248.113 308.165 242.876 308.06 236.377C307.953 229.879 313.247 224.563 319.875 224.515Z" stroke="#E2E8FC" stroke-width="16.6667" stroke-miterlimit="10" stroke-linecap="round" stroke-linejoin="round"/>
<path d="M323.575 231.97L322.102 232.87C321.817 232.385 321.548 232.07 321.294 231.924C321.028 231.756 320.688 231.674 320.275 231.677C319.766 231.681 319.348 231.829 319.017 232.123C318.687 232.411 318.524 232.772 318.531 233.205C318.542 233.803 318.988 234.282 319.875 234.64L321.095 235.131C322.087 235.526 322.815 236.011 323.28 236.587C323.744 237.163 323.986 237.872 323.999 238.713C324.017 239.84 323.659 240.774 322.927 241.514C322.19 242.261 321.267 242.638 320.155 242.646C319.102 242.653 318.227 242.345 317.53 241.72C316.844 241.096 316.408 240.213 316.221 239.072L318.07 238.645C318.166 239.364 318.321 239.86 318.535 240.134C318.919 240.66 319.475 240.921 320.197 240.915C320.769 240.911 321.24 240.714 321.611 240.326C321.982 239.937 322.163 239.446 322.154 238.854C322.149 238.615 322.114 238.397 322.044 238.2C321.975 238.002 321.87 237.82 321.729 237.654C321.586 237.489 321.405 237.334 321.182 237.19C320.961 237.046 320.695 236.909 320.389 236.779L319.21 236.296C317.539 235.599 316.69 234.568 316.667 233.203C316.654 232.283 316.989 231.511 317.675 230.887C318.363 230.257 319.225 229.939 320.262 229.931C321.662 229.921 322.766 230.601 323.575 231.97Z" fill="#FEFEFE"/>
<path d="M323.575 231.97L322.102 232.87C321.817 232.385 321.548 232.07 321.294 231.924C321.028 231.756 320.688 231.674 320.275 231.677C319.766 231.681 319.348 231.829 319.017 232.123C318.687 232.411 318.524 232.772 318.531 233.205C318.542 233.803 318.988 234.282 319.875 234.64L321.095 235.131C322.087 235.526 322.815 236.011 323.28 236.587C323.744 237.163 323.986 237.872 323.999 238.713C324.017 239.84 323.659 240.774 322.927 241.514C322.19 242.261 321.267 242.638 320.155 242.646C319.102 242.653 318.227 242.345 317.53 241.72C316.844 241.096 316.408 240.213 316.221 239.072L318.07 238.645C318.166 239.364 318.321 239.86 318.535 240.134C318.919 240.66 319.475 240.921 320.197 240.915C320.769 240.911 321.24 240.714 321.611 240.326C321.982 239.937 322.163 239.446 322.154 238.854C322.149 238.615 322.114 238.397 322.044 238.2C321.975 238.002 321.87 237.82 321.729 237.654C321.586 237.489 321.405 237.334 321.182 237.19C320.961 237.046 320.695 236.909 320.389 236.779L319.21 236.296C317.539 235.599 316.69 234.568 316.667 233.203C316.654 232.283 316.989 231.511 317.675 230.887C318.363 230.257 319.225 229.939 320.262 229.931C321.662 229.921 322.766 230.601 323.575 231.97V231.97Z" stroke="#FEFEFE" stroke-width="0.666666" stroke-miterlimit="10" stroke-linejoin="round"/>
<path d="M319.926 227.68L319.974 230.6" stroke="#FEFEFE" stroke-width="16.6666" stroke-miterlimit="10" stroke-linecap="round" stroke-linejoin="round"/>
<path d="M320.158 241.852L320.207 244.773" stroke="#FEFEFE" stroke-width="16.6667" stroke-miterlimit="10" stroke-linecap="round" stroke-linejoin="round"/>
<path fill-rule="evenodd" clip-rule="evenodd" d="M193.73 161.187L40.1855 205.545L62.4884 287.826L216.032 243.468L193.73 161.187Z" fill="#C4D4FD"/>
<path fill-rule="evenodd" clip-rule="evenodd" d="M189.069 160.815L35.5254 205.174L57.0409 284.549L210.584 240.192L189.069 160.815Z" fill="#C9D8FE"/>
<path fill-rule="evenodd" clip-rule="evenodd" d="M166.35 166.923L26.6992 207.268L46.9843 282.105L186.636 241.76L166.35 166.923Z" fill="#D2DEFC"/>
<path fill-rule="evenodd" clip-rule="evenodd" d="M178.545 171.155L37.0078 212.044L53.6621 273.485L195.199 232.595L178.545 171.155Z" fill="#E8EEFF"/>
<path fill-rule="evenodd" clip-rule="evenodd" d="M90.3041 217.584C94.9099 206.881 107.191 201.717 117.712 206.056C128.234 210.395 133.036 222.607 128.43 233.309C123.824 244.011 111.543 249.177 101.022 244.837C90.5009 240.498 85.6984 228.286 90.3041 217.584Z" fill="#D2DEFC"/>
<path fill-rule="evenodd" clip-rule="evenodd" d="M50.1063 268.394C52.0134 265.226 56.085 264.139 59.1929 265.968C62.301 267.796 63.2759 271.853 61.3689 275.021C59.4618 278.19 55.3902 279.277 52.2823 277.448C49.1742 275.619 48.1993 271.563 50.1063 268.394Z" fill="#D2DEFC"/>
<path fill-rule="evenodd" clip-rule="evenodd" d="M33.5907 209.501C35.4978 206.333 39.5694 205.245 42.6773 207.074C45.7854 208.903 46.7603 212.96 44.8533 216.128C42.9462 219.296 38.8746 220.383 35.7667 218.554C32.6586 216.726 31.6837 212.669 33.5907 209.501Z" fill="#D2DEFC"/>
<path fill-rule="evenodd" clip-rule="evenodd" d="M104.039 95.9862C95.6066 102.395 85.8448 106.543 74.8333 108.568L51.7129 163.577L187.586 221.574L222.219 143.813" fill="#D2DEFC"/>
<path fill-rule="evenodd" clip-rule="evenodd" d="M207.458 147.41L89.1641 98.4L62.6504 159.734L180.946 208.745L207.458 147.41Z" fill="#E8EEFF"/>
<path fill-rule="evenodd" clip-rule="evenodd" d="M60.9657 153.69C62.6612 149.751 67.3047 147.9 71.329 149.56C75.353 151.219 77.2437 155.766 75.5482 159.705C73.8527 163.645 69.2092 165.496 65.1849 163.836C61.1609 162.176 59.2702 157.63 60.9657 153.69Z" fill="#D2DEFC"/>
<path fill-rule="evenodd" clip-rule="evenodd" d="M110.113 145.588C113.903 136.783 124.146 132.59 132.975 136.232C141.802 139.874 145.893 149.978 142.104 158.782C138.315 167.588 128.07 171.78 119.243 168.14C110.414 164.498 106.324 154.392 110.113 145.588Z" fill="#D2DEFC"/>
<path fill-rule="evenodd" clip-rule="evenodd" d="M96.5842 118.175L74.8906 108.695C85.3976 106.449 95.1198 102.221 104.096 96.1111L96.5842 118.175Z" fill="#ACBADF"/>
<path fill-rule="evenodd" clip-rule="evenodd" d="M390.813 142.295C390.813 139.884 388.86 137.929 386.451 137.929C368.99 137.929 304.221 137.929 286.751 137.929C284.34 137.929 282.387 139.886 282.387 142.299C282.387 155.36 282.387 194.011 282.387 207.068C282.387 209.479 284.338 211.433 286.746 211.433C304.21 211.433 368.987 211.433 386.451 211.433C388.86 211.433 390.813 209.479 390.813 207.068C390.813 194.01 390.813 155.353 390.813 142.295Z" fill="#D2DEFC"/>
<path fill-rule="evenodd" clip-rule="evenodd" d="M400.757 154.959C400.757 153.801 400.297 152.691 399.48 151.872C398.661 151.053 397.553 150.593 396.395 150.593C374.767 150.593 279.18 150.593 257.541 150.593C255.129 150.593 253.176 152.55 253.176 154.963C253.176 157.417 253.176 160.469 253.176 162.923C253.176 164.08 253.636 165.191 254.453 166.009C255.27 166.828 256.38 167.288 257.535 167.288C279.169 167.288 374.764 167.288 396.395 167.288C397.553 167.288 398.661 166.828 399.48 166.009C400.297 165.191 400.757 164.08 400.757 162.923C400.757 160.468 400.757 157.413 400.757 154.959Z" fill="#E8EFFF"/>
<path fill-rule="evenodd" clip-rule="evenodd" d="M336.6 174.682H304.023V181.933H336.6V174.682Z" fill="#E8EFFF"/>
<path fill-rule="evenodd" clip-rule="evenodd" d="M353.023 174.682H341.514V181.933H353.023V174.682Z" fill="#E8EFFF"/>
<path fill-rule="evenodd" clip-rule="evenodd" d="M229.072 84.6755C229.072 84.6755 248.135 56.848 254.309 50.5443C257.231 47.56 261.25 44.4627 266.111 46.8494C270.834 49.169 269.586 55.2696 268.598 59.4242C266.618 67.7641 254.221 96.8903 254.221 96.8903L229.072 84.6755Z" fill="#FDBFA6"/>
<path fill-rule="evenodd" clip-rule="evenodd" d="M124.314 365.577L159.649 267.816C159.73 267.896 159.67 267.891 159.649 267.816C159.086 265.912 126.674 215.469 131.227 180.432C133.135 165.744 123.079 146.252 130.549 136.464C137.113 127.865 147.049 137.737 151.048 148.344C153.757 155.527 154.682 166.062 153.647 177.101L179.285 254.244L281.909 225.313C279.914 247.791 264.236 276.64 247.517 282.166C246.83 282.393 245.439 285.722 245.174 286.56C237.375 311.218 222.782 357.741 217.843 368.726C216.253 372.263 194.603 362.621 179.712 365.372C160.998 368.829 162.205 375.257 142.295 376.834C125.863 378.136 124.314 365.577 124.314 365.577Z" fill="#FDBFA6"/>
<path fill-rule="evenodd" clip-rule="evenodd" d="M127.037 133.339C127.037 133.339 132.215 138.3 133.997 146.197C137.095 159.932 128.323 159.335 128.323 159.335L127.037 133.339Z" fill="#FDD9C8"/>
<path d="M154.577 178.801C152.729 183.09 150.142 186.79 147.24 190.301" stroke="#F4AA92" stroke-width="6.504" stroke-miterlimit="10" stroke-linecap="round" stroke-linejoin="round"/>
<path fill-rule="evenodd" clip-rule="evenodd" d="M233.384 15.5033C232.729 13.5293 231.312 11.9041 229.448 10.9895C227.584 10.0748 225.431 9.94928 223.474 10.6406C201.944 18.241 139.713 40.2127 118.542 47.6854C114.571 49.0872 112.452 53.4139 113.777 57.4152C124.987 91.2543 172.348 234.232 183.756 268.67C184.409 270.642 185.829 272.269 187.692 273.183C189.554 274.098 191.707 274.223 193.667 273.532C215.193 265.932 277.419 243.963 298.594 236.487C302.568 235.085 304.687 230.757 303.361 226.755C292.15 192.91 244.79 49.9402 233.384 15.5033Z" fill="black"/>
<path fill-rule="evenodd" clip-rule="evenodd" d="M231.09 24.4379C230.697 23.2479 229.841 22.2679 228.716 21.7161C227.593 21.1644 226.293 21.0882 225.112 21.5061C207.293 27.7959 141.581 50.9949 124.067 57.1797C121.672 58.0259 120.394 60.6344 121.193 63.0474C129.946 89.4706 175.886 228.157 183.059 249.812C183.308 250.562 183.847 251.18 184.554 251.527C185.262 251.875 186.081 251.923 186.825 251.66C202.23 246.221 275.986 220.182 291.124 214.837C292.633 214.304 293.44 212.66 292.936 211.138C285.893 189.878 239.997 51.3244 231.09 24.4379Z" fill="white"/>
<path fill-rule="evenodd" clip-rule="evenodd" d="M253.968 153.573L176.66 179.858L178.103 184.311L255.412 158.026L253.968 153.573Z" fill="#E8EFFF"/>
<path fill-rule="evenodd" clip-rule="evenodd" d="M259.202 168.942L181.893 195.227L183.337 199.68L260.645 173.395L259.202 168.942Z" fill="#E8EFFF"/>
<path fill-rule="evenodd" clip-rule="evenodd" d="M153.388 179.208L138.783 133.648C154.751 139.519 156.018 158.136 153.388 179.208Z" fill="#FDBFA6"/>
<path fill-rule="evenodd" clip-rule="evenodd" d="M283.783 146.093C283.783 146.093 291.781 129.486 288.727 120.792C286.174 113.519 280.576 114.196 276.15 115.296C268.92 117.096 259.888 127.817 257.141 132.541C252.603 140.346 255.616 151.689 267.301 147.348C270.589 146.126 275.246 142.005 275.246 142.005C276.863 146.735 277.028 147.601 277.824 149.784L283.783 146.093Z" fill="#FDBFA6"/>
<path d="M275.6 141.745C278.86 139.278 280.701 136.848 282.598 133.171" stroke="#F4AA92" stroke-width="6.50401" stroke-miterlimit="10" stroke-linecap="round" stroke-linejoin="round"/>
<path fill-rule="evenodd" clip-rule="evenodd" d="M293.155 196.024C293.155 196.024 307.821 164.802 304.161 150.741C302.28 143.518 290.942 141.785 282.278 146.67C272.805 152.012 262.438 165.602 267.725 174.199C272.479 180.707 285.625 173.214 285.625 173.214L293.155 196.024Z" fill="#FDBFA6"/>
<path fill-rule="evenodd" clip-rule="evenodd" d="M260.878 96.2289C270.789 92.6875 280.412 93.9657 281.909 101.907C282.633 105.751 281.295 108.052 279.313 110.141C277.024 112.552 274.019 114.041 268.176 116.375C258.395 120.283 247.226 120.725 244.47 112.784C242.228 106.332 250.964 99.7702 260.878 96.2289Z" fill="#FDBFA6"/>
<path d="M286.018 172.632C290.288 169.052 292.878 165.903 295.685 161.048" stroke="#F4AA92" stroke-width="6.50402" stroke-miterlimit="10" stroke-linecap="round" stroke-linejoin="round"/>
<path fill-rule="evenodd" clip-rule="evenodd" d="M252.75 104.173C254.07 103.748 255.899 102.892 257.078 103.348C258.611 103.941 261.692 110.859 260.713 111.913C259.815 112.879 257.375 114.535 256.014 114.974C252.976 115.951 249.78 114.326 248.878 111.346C247.978 108.364 249.713 105.151 252.75 104.173Z" fill="#FDD9C8"/>
<path fill-rule="evenodd" clip-rule="evenodd" d="M261.182 133.446C262.222 132.325 263.805 131.039 265.025 130.972C266.612 130.886 271.55 135.71 270.973 137.015C270.445 138.211 269.201 140.179 268.086 141.095C265.598 143.145 262.558 143.977 260.536 142.245C258.048 140.115 259.314 135.467 261.182 133.446Z" fill="#FDD9C8"/>
<path fill-rule="evenodd" clip-rule="evenodd" d="M271.851 171.512C269.56 169.599 271.201 165.311 272.961 163.673C274.657 162.093 276.708 160.948 277.271 160.924C278.853 160.857 282.959 165.504 282.321 166.709C281.739 167.813 280.831 169.504 279.305 170.73C276.942 172.627 274.225 173.495 271.851 171.512Z" fill="#FDD9C8"/>
<path fill-rule="evenodd" clip-rule="evenodd" d="M186.78 72.9683C206.33 66.5371 227.208 77.2742 233.374 96.9309C239.54 116.588 228.672 137.77 209.122 144.201C189.572 150.632 168.693 139.895 162.527 120.238C156.363 100.582 167.229 79.3995 186.78 72.9683Z" fill="#54A75C"/>
<path fill-rule="evenodd" clip-rule="evenodd" d="M186.78 72.9683C206.33 66.5371 227.208 77.2742 233.374 96.9309C239.54 116.588 228.672 137.77 209.122 144.201C189.572 150.632 168.693 139.895 162.527 120.238C156.363 100.582 167.229 79.3995 186.78 72.9683Z" fill="#3FA949"/>
<path fill-rule="evenodd" clip-rule="evenodd" d="M186.78 72.9683C206.33 66.5371 227.208 77.2742 233.374 96.9309C239.54 116.588 228.672 137.77 209.122 144.201C189.572 150.632 168.693 139.895 162.527 120.238C156.363 100.582 167.229 79.3995 186.78 72.9683Z" fill="#479B4E"/>
<path fill-rule="evenodd" clip-rule="evenodd" d="M186.78 72.9683C206.33 66.5371 227.208 77.2742 233.374 96.9309C239.54 116.588 228.672 137.77 209.122 144.201C189.572 150.632 168.693 139.895 162.527 120.238C156.363 100.582 167.229 79.3995 186.78 72.9683Z" fill="#3BC76B"/>
<path fill-rule="evenodd" clip-rule="evenodd" d="M193.088 116.744L214.527 84.537L217.274 84.4451L200.27 120.323L196.037 128.415L177.281 120.505L180.106 109.882L193.088 116.744Z" fill="white"/>
<path fill-rule="evenodd" clip-rule="evenodd" d="M379.334 190.787H298.129V191.699H379.334V190.787Z" fill="#E8EFFF"/>
<path fill-rule="evenodd" clip-rule="evenodd" d="M359.687 196.603H298.299V197.403H359.687V196.603Z" fill="#E8EFFF"/>
<path fill-rule="evenodd" clip-rule="evenodd" d="M243.176 237.438C246.323 236.318 249.785 237.965 250.905 241.114C252.024 244.263 250.378 247.73 247.231 248.85C244.084 249.97 240.622 248.323 239.504 245.173C238.384 242.024 240.031 238.558 243.176 237.438Z" fill="#4C4C4C"/>
<path fill-rule="evenodd" clip-rule="evenodd" d="M173.101 31.2841C174.497 30.7863 176.053 31.566 176.57 33.0236C177.088 34.4811 176.375 36.0686 174.976 36.5664C173.58 37.0622 172.026 36.2845 171.506 34.827C170.989 33.3674 171.702 31.782 173.101 31.2841Z" fill="#5B5B5B"/>
<path fill-rule="evenodd" clip-rule="evenodd" d="M173.405 32.1421C174.381 31.7953 175.456 32.3115 175.807 33.2961C176.157 34.2808 175.647 35.361 174.672 35.7078C173.696 36.0566 172.621 35.5384 172.27 34.5558C171.922 33.5712 172.429 32.4909 173.405 32.1421Z" fill="#4C4C4C"/>
</svg>
