<svg width="40" height="40" viewBox="0 0 40 40" fill="none" xmlns="http://www.w3.org/2000/svg">
<path d="M10 12.5C10 11.1193 11.1193 10 12.5 10H27.5C28.8807 10 30 11.1193 30 12.5C30 13.8807 28.8807 15 27.5 15H12.5C11.1193 15 10 13.8807 10 12.5Z" fill="#FF5C33"/>
<path d="M12.5 20C11.1193 20 10 21.1193 10 22.5C10 23.8807 11.1193 25 12.5 25H27.5C28.8807 25 30 23.8807 30 22.5C30 21.1193 28.8807 20 27.5 20H12.5Z" fill="#FF5C33"/>
<path fill-rule="evenodd" clip-rule="evenodd" d="M0 7.5C0 3.35786 3.35786 0 7.5 0H32.5C36.6421 0 40 3.35786 40 7.5V27.5C40 31.6421 36.6421 35 32.5 35H23.5355L19.2678 39.2678C18.5528 39.9828 17.4775 40.1966 16.5433 39.8097C15.6091 39.4227 15 38.5112 15 37.5V35H7.5C3.35786 35 0 31.6421 0 27.5V7.5ZM32.5 30C33.8807 30 35 28.8807 35 27.5V7.5C35 6.11929 33.8807 5 32.5 5H7.5C6.11929 5 5 6.11929 5 7.5V27.5C5 28.8807 6.11929 30 7.5 30H32.5Z" fill="#FF5C33"/>
</svg>
