<svg width="48" height="48" viewBox="0 0 48 48" fill="none" xmlns="http://www.w3.org/2000/svg">
<mask id="mask0_2_193" style="mask-type:alpha" maskUnits="userSpaceOnUse" x="0" y="0" width="48" height="48">
<path d="M12 0C5.37258 0 0 5.37258 0 12V36C0 42.6274 5.37258 48 12 48H36C42.6274 48 48 42.6274 48 36V12C48 5.37258 42.6274 0 36 0H12Z" fill="#C4C4C4"/>
</mask>
<g mask="url(#mask0_2_193)">
<rect width="48" height="48" fill="url(#paint0_radial_2_193)"/>
<circle cy="48" r="24" fill="url(#paint1_radial_2_193)"/>
<ellipse opacity="0.66" cx="24" cy="31.5" rx="15" ry="7.5" fill="url(#paint2_linear_2_193)"/>
<ellipse cx="24" cy="24" rx="15" ry="7.5" fill="url(#paint3_linear_2_193)"/>
<ellipse cx="24" cy="16.5" rx="15" ry="7.5" fill="white"/>
</g>
<defs>
<radialGradient id="paint0_radial_2_193" cx="0" cy="0" r="1" gradientUnits="userSpaceOnUse" gradientTransform="translate(48) rotate(90) scale(48)">
<stop stop-color="#FF0000"/>
<stop offset="1" stop-color="#FFAA00"/>
</radialGradient>
<radialGradient id="paint1_radial_2_193" cx="0" cy="0" r="1" gradientUnits="userSpaceOnUse" gradientTransform="translate(0 48) rotate(90) scale(24)">
<stop stop-color="#D4FF00"/>
<stop offset="1" stop-color="#FFFF00" stop-opacity="0"/>
</radialGradient>
<linearGradient id="paint2_linear_2_193" x1="24" y1="24" x2="24" y2="39" gradientUnits="userSpaceOnUse">
<stop stop-color="white" stop-opacity="0"/>
<stop offset="1" stop-color="white"/>
</linearGradient>
<linearGradient id="paint3_linear_2_193" x1="24" y1="16.5" x2="24" y2="31.5" gradientUnits="userSpaceOnUse">
<stop stop-color="white" stop-opacity="0"/>
<stop offset="1" stop-color="white"/>
</linearGradient>
</defs>
</svg>
