<svg width="64" height="64" viewBox="0 0 64 64" fill="none" xmlns="http://www.w3.org/2000/svg">
<path d="M40.0002 8C40.0002 12.418 36.4186 16 32.0001 16C27.5817 16 24.0001 12.418 24.0001 8C24.0001 3.58203 27.5817 0 32.0001 0C36.4186 0 40.0002 3.58203 40.0002 8Z" fill="url(#paint0_radial_2_334)"/>
<path d="M40.0002 56C40.0002 60.418 36.4186 64 32.0001 64C27.5817 64 24.0001 60.418 24.0001 56C24.0001 51.582 27.5817 48 32.0001 48C36.4186 48 40.0002 51.582 40.0002 56Z" fill="url(#paint1_radial_2_334)"/>
<path d="M15.2154 13.0713C19.0416 15.2803 20.3526 20.1729 18.1436 24C15.9346 27.8262 11.0416 29.1367 7.21537 26.9277C3.38918 24.7187 2.07814 19.8262 4.28714 16C6.49613 12.1729 11.3892 10.8623 15.2154 13.0713Z" fill="url(#paint2_radial_2_334)"/>
<path d="M56.7849 37.0713C60.6111 39.2803 61.9221 44.1728 59.7131 48C57.5037 51.8262 52.6111 53.1367 48.7849 50.9277C44.9582 48.7187 43.6472 43.8262 45.8566 40C48.0656 36.1728 52.9582 34.8623 56.7849 37.0713Z" fill="url(#paint3_radial_2_334)"/>
<path d="M45.8566 24C48.0656 27.8271 52.9587 29.1377 56.7849 26.9287C60.6111 24.7197 61.9221 19.8271 59.7131 16C57.5041 12.1738 52.6111 10.8633 48.7849 13.0723C44.9587 15.2812 43.6476 20.1738 45.8566 24Z" fill="url(#paint4_radial_2_334)"/>
<path d="M4.28714 48C6.49662 51.8271 11.3892 53.1377 15.2154 50.9287C19.0421 48.7197 20.3531 43.8271 18.1436 40C15.9346 36.1738 11.042 34.8633 7.21537 37.0723C3.38918 39.2812 2.07814 44.1738 4.28714 48Z" fill="url(#paint5_radial_2_334)"/>
<path d="M32.0001 40C36.4186 40 40.0002 36.418 40.0002 32C40.0002 27.582 36.4186 24 32.0001 24C27.5817 24 24.0001 27.582 24.0001 32C24.0001 36.418 27.5817 40 32.0001 40Z" fill="url(#paint6_radial_2_334)"/>
<defs>
<radialGradient id="paint0_radial_2_334" cx="0" cy="0" r="1" gradientUnits="userSpaceOnUse" gradientTransform="translate(31.9998 32) rotate(89.9999) scale(32)">
<stop stop-color="#FFCC00"/>
<stop offset="1" stop-color="#FF3300"/>
</radialGradient>
<radialGradient id="paint1_radial_2_334" cx="0" cy="0" r="1" gradientUnits="userSpaceOnUse" gradientTransform="translate(31.9998 32) rotate(89.9999) scale(32)">
<stop stop-color="#FFCC00"/>
<stop offset="1" stop-color="#FF3300"/>
</radialGradient>
<radialGradient id="paint2_radial_2_334" cx="0" cy="0" r="1" gradientUnits="userSpaceOnUse" gradientTransform="translate(31.9998 32) rotate(89.9999) scale(32)">
<stop stop-color="#FFCC00"/>
<stop offset="1" stop-color="#FF3300"/>
</radialGradient>
<radialGradient id="paint3_radial_2_334" cx="0" cy="0" r="1" gradientUnits="userSpaceOnUse" gradientTransform="translate(31.9998 32) rotate(89.9999) scale(32)">
<stop stop-color="#FFCC00"/>
<stop offset="1" stop-color="#FF3300"/>
</radialGradient>
<radialGradient id="paint4_radial_2_334" cx="0" cy="0" r="1" gradientUnits="userSpaceOnUse" gradientTransform="translate(31.9998 32) rotate(89.9999) scale(32)">
<stop stop-color="#FFCC00"/>
<stop offset="1" stop-color="#FF3300"/>
</radialGradient>
<radialGradient id="paint5_radial_2_334" cx="0" cy="0" r="1" gradientUnits="userSpaceOnUse" gradientTransform="translate(31.9998 32) rotate(89.9999) scale(32)">
<stop stop-color="#FFCC00"/>
<stop offset="1" stop-color="#FF3300"/>
</radialGradient>
<radialGradient id="paint6_radial_2_334" cx="0" cy="0" r="1" gradientUnits="userSpaceOnUse" gradientTransform="translate(31.9998 32) rotate(89.9999) scale(32)">
<stop stop-color="#FFCC00"/>
<stop offset="1" stop-color="#FF3300"/>
</radialGradient>
</defs>
</svg>
