<svg width="64" height="64" viewBox="0 0 64 64" fill="none" xmlns="http://www.w3.org/2000/svg">
<path d="M32 40C36.4183 40 40 36.4183 40 32C40 27.5817 36.4183 24 32 24C27.5817 24 24 27.5817 24 32C24 36.4183 27.5817 40 32 40Z" fill="url(#paint0_radial_2_327)"/>
<path fill-rule="evenodd" clip-rule="evenodd" d="M64 32C64 49.6731 49.6731 64 32 64C14.3269 64 0 49.6731 0 32C0 14.3269 14.3269 0 32 0C49.6731 0 64 14.3269 64 32ZM56 32C56 45.2548 45.2548 56 32 56C18.7452 56 8 45.2548 8 32C8 18.7452 18.7452 8 32 8C45.2548 8 56 18.7452 56 32Z" fill="url(#paint1_radial_2_327)"/>
<defs>
<radialGradient id="paint0_radial_2_327" cx="0" cy="0" r="1" gradientUnits="userSpaceOnUse" gradientTransform="translate(32 32) rotate(90.0001) scale(32)">
<stop stop-color="#BFFF40"/>
<stop offset="1" stop-color="#00CC66"/>
</radialGradient>
<radialGradient id="paint1_radial_2_327" cx="0" cy="0" r="1" gradientUnits="userSpaceOnUse" gradientTransform="translate(32 32) rotate(90.0001) scale(32)">
<stop stop-color="#BFFF40"/>
<stop offset="1" stop-color="#00CC66"/>
</radialGradient>
</defs>
</svg>
