<svg width="40" height="40" viewBox="0 0 40 40" fill="none" xmlns="http://www.w3.org/2000/svg">
<rect width="40" height="40" rx="20" fill="#5181B8"/>
<path fill-rule="evenodd" clip-rule="evenodd" d="M28.587 15.7448C28.7122 15.3155 28.587 15 27.9915 15H26.0223C25.5215 15 25.2908 15.2725 25.1657 15.5732C25.1657 15.5732 24.1642 18.0848 22.7455 19.7162C22.2865 20.1885 22.0779 20.3386 21.8276 20.3386C21.7024 20.3386 21.5212 20.1885 21.5212 19.7592V15.7448C21.5212 15.2296 21.3759 15 20.9586 15H17.8641C17.5513 15 17.3631 15.2391 17.3631 15.4658C17.3631 15.9543 18.0723 16.0669 18.1454 17.4407V20.4247C18.1454 21.0789 18.0306 21.1976 17.7803 21.1976C17.1127 21.1976 15.489 18.6746 14.5257 15.7878C14.337 15.2267 14.1476 15 13.6444 15H11.6752C11.1125 15 11 15.2725 11 15.5732C11 16.1098 11.6677 18.7718 14.1085 22.2924C15.7359 24.6965 18.0284 26 20.1146 26C21.3665 26 21.5212 25.7105 21.5212 25.2119V23.3947C21.5212 22.8158 21.6398 22.7003 22.036 22.7003C22.3283 22.7003 22.8289 22.8505 23.9973 24.0097C25.3325 25.3834 25.5525 26 26.3036 26H28.2728C28.8354 26 29.1167 25.7105 28.9544 25.1392C28.7769 24.5699 28.1394 23.744 27.2935 22.7647C26.8346 22.2064 26.146 21.6054 25.9376 21.3049C25.6454 20.9184 25.7288 20.7468 25.9376 20.4035C25.9376 20.4035 28.3366 16.9257 28.587 15.745V15.7448Z" fill="white"/>
</svg>
