<svg width="20" height="16" viewBox="0 0 20 16" fill="#777D82" xmlns="http://www.w3.org/2000/svg">
<path fill-rule="evenodd" clip-rule="evenodd" d="M17.8245 1.42638C18.6812 1.65702 19.3566 2.33247 19.5873 3.18914C20.0156 4.75421 19.9991 8.01614 19.9991 8.01614C19.9991 8.01614 19.9991 11.2616 19.5873 12.8267C19.3566 13.6833 18.6812 14.3588 17.8245 14.5894C16.2594 15.0013 9.99916 15.0013 9.99916 15.0013C9.99916 15.0013 3.75537 15.0013 2.17383 14.5729C1.31716 14.3423 0.641708 13.6669 0.411067 12.8102C-0.000793457 11.2616 -0.000793457 7.99966 -0.000793457 7.99966C-0.000793457 7.99966 -0.000793457 4.75421 0.411067 3.18914C0.641708 2.33247 1.33363 1.64055 2.17383 1.40991C3.73889 0.998047 9.99916 0.998047 9.99916 0.998047C9.99916 0.998047 16.2594 0.998047 17.8245 1.42638ZM13.2132 7.99831L8.00726 10.9967V4.99997L13.2132 7.99831Z" />
</svg>
